<?xml version="1.0" encoding="UTF-8" standalone="no"?>
<!DOCTYPE svg PUBLIC "-//W3C//DTD SVG 1.1//EN"
 "http://www.w3.org/Graphics/SVG/1.1/DTD/svg11.dtd">
<!-- Generated by graphviz version 2.43.0 (0)
 -->
<!-- Title: SchemaCrawler_Diagram Pages: 1 -->
<svg width="785pt" height="357pt"
 viewBox="0.00 0.00 785.00 356.50" xmlns="http://www.w3.org/2000/svg" xmlns:xlink="http://www.w3.org/1999/xlink">
<g id="graph0" class="graph" transform="scale(1 1) rotate(0) translate(4 352.5)">
<title>SchemaCrawler_Diagram</title>
<polygon fill="white" stroke="transparent" points="-4,4 -4,-352.5 781,-352.5 781,4 -4,4"/>
<text text-anchor="start" x="504" y="-11.3" font-family="Helvetica,sans-Serif" font-weight="bold" font-style="italic" font-size="14.00">Publication: EL&#45;H2&#45;SINGLE_TABLE</text>
<polygon fill="none" stroke="#888888" points="501,-4 501,-25 769,-25 769,-4 501,-4"/>
<!-- author_7775551e -->
<g id="node1" class="node">
<title>author_7775551e</title>
<polygon fill="#c2f2da" stroke="transparent" points="46,-290 46,-309 133,-309 133,-290 46,-290"/>
<text text-anchor="start" x="48" y="-296.8" font-family="Helvetica,sans-Serif" font-weight="bold" font-style="italic" font-size="14.00">author</text>
<polygon fill="#c2f2da" stroke="transparent" points="133,-290 133,-309 326,-309 326,-290 133,-290"/>
<text text-anchor="start" x="241" y="-295.8" font-family="Helvetica,sans-Serif" font-size="14.00">[base table]</text>
<text text-anchor="start" x="48" y="-277.8" font-family="Helvetica,sans-Serif" font-weight="bold" font-style="italic" font-size="14.00">id</text>
<text text-anchor="start" x="126" y="-276.8" font-family="Helvetica,sans-Serif" font-size="14.00"> </text>
<text text-anchor="start" x="135" y="-276.8" font-family="Helvetica,sans-Serif" font-size="14.00">BIGINT NOT NULL</text>
<text text-anchor="start" x="48" y="-257.8" font-family="Helvetica,sans-Serif" font-size="14.00">first_name</text>
<text text-anchor="start" x="126" y="-257.8" font-family="Helvetica,sans-Serif" font-size="14.00"> </text>
<text text-anchor="start" x="135" y="-257.8" font-family="Helvetica,sans-Serif" font-size="14.00">CHARACTER VARYING(255)</text>
<text text-anchor="start" x="48" y="-238.8" font-family="Helvetica,sans-Serif" font-size="14.00">last_name</text>
<text text-anchor="start" x="126" y="-238.8" font-family="Helvetica,sans-Serif" font-size="14.00"> </text>
<text text-anchor="start" x="135" y="-238.8" font-family="Helvetica,sans-Serif" font-size="14.00">CHARACTER VARYING(255)</text>
<text text-anchor="start" x="48" y="-219.8" font-family="Helvetica,sans-Serif" font-size="14.00">version</text>
<text text-anchor="start" x="126" y="-219.8" font-family="Helvetica,sans-Serif" font-size="14.00"> </text>
<text text-anchor="start" x="135" y="-219.8" font-family="Helvetica,sans-Serif" font-size="14.00">BIGINT</text>
<polygon fill="none" stroke="#888888" points="45,-213.5 45,-310.5 327,-310.5 327,-213.5 45,-213.5"/>
</g>
<!-- publication_author_join_b890055e -->
<g id="node2" class="node">
<title>publication_author_join_b890055e</title>
<polygon fill="#c2f2da" stroke="transparent" points="435.5,-239 435.5,-258 621.5,-258 621.5,-239 435.5,-239"/>
<text text-anchor="start" x="437.5" y="-245.8" font-family="Helvetica,sans-Serif" font-weight="bold" font-style="italic" font-size="14.00">publication_author_join</text>
<polygon fill="#c2f2da" stroke="transparent" points="621.5,-239 621.5,-258 749.5,-258 749.5,-239 621.5,-239"/>
<text text-anchor="start" x="664.5" y="-244.8" font-family="Helvetica,sans-Serif" font-size="14.00">[base table]</text>
<text text-anchor="start" x="437.5" y="-226.8" font-family="Helvetica,sans-Serif" font-weight="bold" font-style="italic" font-size="14.00">author_id</text>
<text text-anchor="start" x="582.5" y="-225.8" font-family="Helvetica,sans-Serif" font-size="14.00"> </text>
<text text-anchor="start" x="623.5" y="-225.8" font-family="Helvetica,sans-Serif" font-size="14.00">BIGINT NOT NULL</text>
<text text-anchor="start" x="437.5" y="-207.8" font-family="Helvetica,sans-Serif" font-weight="bold" font-style="italic" font-size="14.00">publication_id</text>
<text text-anchor="start" x="582.5" y="-206.8" font-family="Helvetica,sans-Serif" font-size="14.00"> </text>
<text text-anchor="start" x="623.5" y="-206.8" font-family="Helvetica,sans-Serif" font-size="14.00">BIGINT NOT NULL</text>
<polygon fill="none" stroke="#888888" points="434.5,-200.5 434.5,-259.5 750.5,-259.5 750.5,-200.5 434.5,-200.5"/>
</g>
<!-- publication_author_join_b890055e&#45;&gt;author_7775551e -->
<g id="edge1" class="edge">
<title>publication_author_join_b890055e:w&#45;&gt;author_7775551e:e</title>
<path fill="none" stroke="black" d="M416.33,-231.37C383.04,-240.75 374.5,-275.01 337.15,-280.31"/>
<polygon fill="black" stroke="black" points="424.58,-230.29 435.08,-233.46 429.54,-229.65 434.5,-229 434.5,-229 434.5,-229 429.54,-229.65 433.92,-224.54 424.58,-230.29 424.58,-230.29"/>
<ellipse fill="none" stroke="black" cx="420.62" cy="-230.81" rx="4" ry="4"/>
<polygon fill="black" stroke="black" points="328.34,-285.92 327.66,-275.94 329.65,-275.81 330.33,-285.79 328.34,-285.92"/>
<polyline fill="none" stroke="black" points="327,-281 331.99,-280.66 "/>
<polygon fill="black" stroke="black" points="333.33,-285.58 332.65,-275.6 334.64,-275.47 335.32,-285.45 333.33,-285.58"/>
<polyline fill="none" stroke="black" points="331.99,-280.66 336.98,-280.32 "/>
</g>
<!-- publication_8b03d5bf -->
<g id="node3" class="node">
<title>publication_8b03d5bf</title>
<polygon fill="#c2f2da" stroke="transparent" points="9,-167 9,-186 170,-186 170,-167 9,-167"/>
<text text-anchor="start" x="11" y="-173.8" font-family="Helvetica,sans-Serif" font-weight="bold" font-style="italic" font-size="14.00">publication</text>
<polygon fill="#c2f2da" stroke="transparent" points="170,-167 170,-186 363,-186 363,-167 170,-167"/>
<text text-anchor="start" x="278" y="-172.8" font-family="Helvetica,sans-Serif" font-size="14.00">[base table]</text>
<text text-anchor="start" x="11" y="-154.8" font-family="Helvetica,sans-Serif" font-weight="bold" font-style="italic" font-size="14.00">id</text>
<text text-anchor="start" x="163" y="-153.8" font-family="Helvetica,sans-Serif" font-size="14.00"> </text>
<text text-anchor="start" x="172" y="-153.8" font-family="Helvetica,sans-Serif" font-size="14.00">BIGINT NOT NULL</text>
<text text-anchor="start" x="11" y="-134.8" font-family="Helvetica,sans-Serif" font-size="14.00">dtype</text>
<text text-anchor="start" x="163" y="-134.8" font-family="Helvetica,sans-Serif" font-size="14.00"> </text>
<text text-anchor="start" x="172" y="-134.8" font-family="Helvetica,sans-Serif" font-size="14.00">CHARACTER VARYING(31)</text>
<text text-anchor="start" x="11" y="-115.8" font-family="Helvetica,sans-Serif" font-size="14.00">publishing_date_item</text>
<text text-anchor="start" x="163" y="-115.8" font-family="Helvetica,sans-Serif" font-size="14.00"> </text>
<text text-anchor="start" x="172" y="-115.8" font-family="Helvetica,sans-Serif" font-size="14.00">TIMESTAMP</text>
<text text-anchor="start" x="11" y="-96.8" font-family="Helvetica,sans-Serif" font-size="14.00">title</text>
<text text-anchor="start" x="163" y="-96.8" font-family="Helvetica,sans-Serif" font-size="14.00"> </text>
<text text-anchor="start" x="172" y="-96.8" font-family="Helvetica,sans-Serif" font-size="14.00">CHARACTER VARYING(255)</text>
<text text-anchor="start" x="11" y="-77.8" font-family="Helvetica,sans-Serif" font-size="14.00">version</text>
<text text-anchor="start" x="163" y="-77.8" font-family="Helvetica,sans-Serif" font-size="14.00"> </text>
<text text-anchor="start" x="172" y="-77.8" font-family="Helvetica,sans-Serif" font-size="14.00">BIGINT</text>
<text text-anchor="start" x="11" y="-58.8" font-family="Helvetica,sans-Serif" font-size="14.00">url</text>
<text text-anchor="start" x="163" y="-58.8" font-family="Helvetica,sans-Serif" font-size="14.00"> </text>
<text text-anchor="start" x="172" y="-58.8" font-family="Helvetica,sans-Serif" font-size="14.00">CHARACTER VARYING(255)</text>
<text text-anchor="start" x="11" y="-39.8" font-family="Helvetica,sans-Serif" font-size="14.00">pages</text>
<text text-anchor="start" x="163" y="-39.8" font-family="Helvetica,sans-Serif" font-size="14.00"> </text>
<text text-anchor="start" x="172" y="-39.8" font-family="Helvetica,sans-Serif" font-size="14.00">INTEGER</text>
<polygon fill="none" stroke="#888888" points="8,-33 8,-187 364,-187 364,-33 8,-33"/>
</g>
<!-- publication_author_join_b890055e&#45;&gt;publication_8b03d5bf -->
<g id="edge2" class="edge">
<title>publication_author_join_b890055e:w&#45;&gt;publication_8b03d5bf:e</title>
<path fill="none" stroke="black" d="M416.87,-205.2C399.06,-193.84 396.15,-165.75 373.94,-159.32"/>
<polygon fill="black" stroke="black" points="424.85,-207.37 433.32,-214.34 429.68,-208.69 434.5,-210 434.5,-210 434.5,-210 429.68,-208.69 435.68,-205.66 424.85,-207.37 424.85,-207.37"/>
<ellipse fill="none" stroke="black" cx="420.99" cy="-206.32" rx="4" ry="4"/>
<polygon fill="black" stroke="black" points="364.33,-163.09 365.65,-153.18 367.63,-153.44 366.31,-163.35 364.33,-163.09"/>
<polyline fill="none" stroke="black" points="364,-158 368.96,-158.66 "/>
<polygon fill="black" stroke="black" points="369.29,-163.75 370.61,-153.84 372.59,-154.1 371.27,-164.01 369.29,-163.75"/>
<polyline fill="none" stroke="black" points="368.96,-158.66 373.91,-159.32 "/>
</g>
<!-- sequences_88e6b465 -->
<g id="node4" class="node">
<title>sequences_88e6b465</title>
<polygon fill="#c2f2da" stroke="transparent" points="417.5,-324 417.5,-343 509.5,-343 509.5,-324 417.5,-324"/>
<text text-anchor="start" x="419.5" y="-330.8" font-family="Helvetica,sans-Serif" font-weight="bold" font-style="italic" font-size="14.00">sequences</text>
<polygon fill="#c2f2da" stroke="transparent" points="509.5,-324 509.5,-343 768.5,-343 768.5,-324 509.5,-324"/>
<text text-anchor="start" x="683.5" y="-329.8" font-family="Helvetica,sans-Serif" font-size="14.00">[base table]</text>
<text text-anchor="start" x="419.5" y="-311.8" font-family="Helvetica,sans-Serif" font-weight="bold" font-style="italic" font-size="14.00">seq_name</text>
<text text-anchor="start" x="502.5" y="-310.8" font-family="Helvetica,sans-Serif" font-size="14.00"> </text>
<text text-anchor="start" x="511.5" y="-310.8" font-family="Helvetica,sans-Serif" font-size="14.00">CHARACTER VARYING(50) NOT NULL</text>
<text text-anchor="start" x="419.5" y="-291.8" font-family="Helvetica,sans-Serif" font-size="14.00">seq_next</text>
<text text-anchor="start" x="502.5" y="-291.8" font-family="Helvetica,sans-Serif" font-size="14.00"> </text>
<text text-anchor="start" x="511.5" y="-291.8" font-family="Helvetica,sans-Serif" font-size="14.00">DECIMAL(38, 0)</text>
<polygon fill="none" stroke="#888888" points="416,-285.5 416,-344.5 769,-344.5 769,-285.5 416,-285.5"/>
</g>
</g>
</svg>
