<?xml version="1.0" encoding="UTF-8" standalone="no"?>
<!DOCTYPE svg PUBLIC "-//W3C//DTD SVG 1.1//EN"
 "http://www.w3.org/Graphics/SVG/1.1/DTD/svg11.dtd">
<!-- Generated by graphviz version 2.43.0 (0)
 -->
<!-- Title: SchemaCrawler_Diagram Pages: 1 -->
<svg width="611pt" height="357pt"
 viewBox="0.00 0.00 611.00 356.50" xmlns="http://www.w3.org/2000/svg" xmlns:xlink="http://www.w3.org/1999/xlink">
<g id="graph0" class="graph" transform="scale(1 1) rotate(0) translate(4 352.5)">
<title>SchemaCrawler_Diagram</title>
<polygon fill="white" stroke="transparent" points="-4,4 -4,-352.5 607,-352.5 607,4 -4,4"/>
<text text-anchor="start" x="330" y="-11.3" font-family="Helvetica,sans-Serif" font-weight="bold" font-style="italic" font-size="14.00">Publication: EL&#45;PG&#45;SINGLE_TABLE</text>
<polygon fill="none" stroke="#888888" points="327,-4 327,-25 595,-25 595,-4 327,-4"/>
<!-- author_c30dd856 -->
<g id="node1" class="node">
<title>author_c30dd856</title>
<polygon fill="#c2c5f2" stroke="transparent" points="46,-290 46,-309 133,-309 133,-290 46,-290"/>
<text text-anchor="start" x="48" y="-296.8" font-family="Helvetica,sans-Serif" font-weight="bold" font-style="italic" font-size="14.00">author</text>
<polygon fill="#c2c5f2" stroke="transparent" points="133,-290 133,-309 228,-309 228,-290 133,-290"/>
<text text-anchor="start" x="180" y="-295.8" font-family="Helvetica,sans-Serif" font-size="14.00">[table]</text>
<text text-anchor="start" x="48" y="-277.8" font-family="Helvetica,sans-Serif" font-weight="bold" font-style="italic" font-size="14.00">id</text>
<text text-anchor="start" x="126" y="-276.8" font-family="Helvetica,sans-Serif" font-size="14.00"> </text>
<text text-anchor="start" x="135" y="-276.8" font-family="Helvetica,sans-Serif" font-size="14.00">int8 not null</text>
<text text-anchor="start" x="48" y="-257.8" font-family="Helvetica,sans-Serif" font-size="14.00">first_name</text>
<text text-anchor="start" x="126" y="-257.8" font-family="Helvetica,sans-Serif" font-size="14.00"> </text>
<text text-anchor="start" x="135" y="-257.8" font-family="Helvetica,sans-Serif" font-size="14.00">varchar(255)</text>
<text text-anchor="start" x="48" y="-238.8" font-family="Helvetica,sans-Serif" font-size="14.00">last_name</text>
<text text-anchor="start" x="126" y="-238.8" font-family="Helvetica,sans-Serif" font-size="14.00"> </text>
<text text-anchor="start" x="135" y="-238.8" font-family="Helvetica,sans-Serif" font-size="14.00">varchar(255)</text>
<text text-anchor="start" x="48" y="-219.8" font-family="Helvetica,sans-Serif" font-size="14.00">version</text>
<text text-anchor="start" x="126" y="-219.8" font-family="Helvetica,sans-Serif" font-size="14.00"> </text>
<text text-anchor="start" x="135" y="-219.8" font-family="Helvetica,sans-Serif" font-size="14.00">int8</text>
<polygon fill="none" stroke="#888888" points="45,-213.5 45,-310.5 229,-310.5 229,-213.5 45,-213.5"/>
</g>
<!-- publication_author_join_4288896 -->
<g id="node2" class="node">
<title>publication_author_join_4288896</title>
<polygon fill="#c2c5f2" stroke="transparent" points="319.5,-239 319.5,-258 505.5,-258 505.5,-239 319.5,-239"/>
<text text-anchor="start" x="321.5" y="-245.8" font-family="Helvetica,sans-Serif" font-weight="bold" font-style="italic" font-size="14.00">publication_author_join</text>
<polygon fill="#c2c5f2" stroke="transparent" points="505.5,-239 505.5,-258 594.5,-258 594.5,-239 505.5,-239"/>
<text text-anchor="start" x="546.5" y="-244.8" font-family="Helvetica,sans-Serif" font-size="14.00">[table]</text>
<text text-anchor="start" x="321.5" y="-226.8" font-family="Helvetica,sans-Serif" font-weight="bold" font-style="italic" font-size="14.00">author_id</text>
<text text-anchor="start" x="466.5" y="-225.8" font-family="Helvetica,sans-Serif" font-size="14.00"> </text>
<text text-anchor="start" x="507.5" y="-225.8" font-family="Helvetica,sans-Serif" font-size="14.00">int8 not null</text>
<text text-anchor="start" x="321.5" y="-207.8" font-family="Helvetica,sans-Serif" font-weight="bold" font-style="italic" font-size="14.00">publication_id</text>
<text text-anchor="start" x="466.5" y="-206.8" font-family="Helvetica,sans-Serif" font-size="14.00"> </text>
<text text-anchor="start" x="507.5" y="-206.8" font-family="Helvetica,sans-Serif" font-size="14.00">int8 not null</text>
<polygon fill="none" stroke="#888888" points="318,-200.5 318,-259.5 595,-259.5 595,-200.5 318,-200.5"/>
</g>
<!-- publication_author_join_4288896&#45;&gt;author_c30dd856 -->
<g id="edge1" class="edge">
<title>publication_author_join_4288896:w&#45;&gt;author_c30dd856:e</title>
<path fill="none" stroke="black" d="M300.51,-232.25C274.79,-242.57 268.98,-274.22 239.1,-280.07"/>
<polygon fill="black" stroke="black" points="308.66,-230.78 319.3,-233.43 313.58,-229.89 318.5,-229 318.5,-229 318.5,-229 313.58,-229.89 317.7,-224.57 308.66,-230.78 308.66,-230.78"/>
<ellipse fill="none" stroke="black" cx="304.72" cy="-231.49" rx="4" ry="4"/>
<polygon fill="black" stroke="black" points="230.46,-285.89 229.54,-275.93 231.53,-275.75 232.45,-285.7 230.46,-285.89"/>
<polyline fill="none" stroke="black" points="229,-281 233.98,-280.54 "/>
<polygon fill="black" stroke="black" points="235.43,-285.43 234.51,-275.47 236.51,-275.29 237.43,-285.24 235.43,-285.43"/>
<polyline fill="none" stroke="black" points="233.98,-280.54 238.96,-280.08 "/>
</g>
<!-- publication_d69c58f7 -->
<g id="node3" class="node">
<title>publication_d69c58f7</title>
<polygon fill="#c2c5f2" stroke="transparent" points="9,-167 9,-186 170,-186 170,-167 9,-167"/>
<text text-anchor="start" x="11" y="-173.8" font-family="Helvetica,sans-Serif" font-weight="bold" font-style="italic" font-size="14.00">publication</text>
<polygon fill="#c2c5f2" stroke="transparent" points="170,-167 170,-186 265,-186 265,-167 170,-167"/>
<text text-anchor="start" x="217" y="-172.8" font-family="Helvetica,sans-Serif" font-size="14.00">[table]</text>
<text text-anchor="start" x="11" y="-154.8" font-family="Helvetica,sans-Serif" font-weight="bold" font-style="italic" font-size="14.00">id</text>
<text text-anchor="start" x="163" y="-153.8" font-family="Helvetica,sans-Serif" font-size="14.00"> </text>
<text text-anchor="start" x="172" y="-153.8" font-family="Helvetica,sans-Serif" font-size="14.00">int8 not null</text>
<text text-anchor="start" x="11" y="-134.8" font-family="Helvetica,sans-Serif" font-size="14.00">dtype</text>
<text text-anchor="start" x="163" y="-134.8" font-family="Helvetica,sans-Serif" font-size="14.00"> </text>
<text text-anchor="start" x="172" y="-134.8" font-family="Helvetica,sans-Serif" font-size="14.00">varchar(31)</text>
<text text-anchor="start" x="11" y="-115.8" font-family="Helvetica,sans-Serif" font-size="14.00">publishing_date_item</text>
<text text-anchor="start" x="163" y="-115.8" font-family="Helvetica,sans-Serif" font-size="14.00"> </text>
<text text-anchor="start" x="172" y="-115.8" font-family="Helvetica,sans-Serif" font-size="14.00">timestamp</text>
<text text-anchor="start" x="11" y="-96.8" font-family="Helvetica,sans-Serif" font-size="14.00">title</text>
<text text-anchor="start" x="163" y="-96.8" font-family="Helvetica,sans-Serif" font-size="14.00"> </text>
<text text-anchor="start" x="172" y="-96.8" font-family="Helvetica,sans-Serif" font-size="14.00">varchar(255)</text>
<text text-anchor="start" x="11" y="-77.8" font-family="Helvetica,sans-Serif" font-size="14.00">version</text>
<text text-anchor="start" x="163" y="-77.8" font-family="Helvetica,sans-Serif" font-size="14.00"> </text>
<text text-anchor="start" x="172" y="-77.8" font-family="Helvetica,sans-Serif" font-size="14.00">int8</text>
<text text-anchor="start" x="11" y="-58.8" font-family="Helvetica,sans-Serif" font-size="14.00">url</text>
<text text-anchor="start" x="163" y="-58.8" font-family="Helvetica,sans-Serif" font-size="14.00"> </text>
<text text-anchor="start" x="172" y="-58.8" font-family="Helvetica,sans-Serif" font-size="14.00">varchar(255)</text>
<text text-anchor="start" x="11" y="-39.8" font-family="Helvetica,sans-Serif" font-size="14.00">pages</text>
<text text-anchor="start" x="163" y="-39.8" font-family="Helvetica,sans-Serif" font-size="14.00"> </text>
<text text-anchor="start" x="172" y="-39.8" font-family="Helvetica,sans-Serif" font-size="14.00">int4</text>
<polygon fill="none" stroke="#888888" points="8,-33 8,-187 266,-187 266,-33 8,-33"/>
</g>
<!-- publication_author_join_4288896&#45;&gt;publication_d69c58f7 -->
<g id="edge2" class="edge">
<title>publication_author_join_4288896:w&#45;&gt;publication_d69c58f7:e</title>
<path fill="none" stroke="black" d="M301.81,-202.77C291.26,-190.71 290.92,-167.13 275.97,-160.05"/>
<polygon fill="black" stroke="black" points="309.32,-206.03 316.71,-214.13 313.91,-208.01 318.5,-210 318.5,-210 318.5,-210 313.91,-208.01 320.29,-205.87 309.32,-206.03 309.32,-206.03"/>
<ellipse fill="none" stroke="black" cx="305.65" cy="-204.44" rx="4" ry="4"/>
<polygon fill="black" stroke="black" points="265.97,-163.1 267.99,-153.3 269.95,-153.71 267.93,-163.5 265.97,-163.1"/>
<polyline fill="none" stroke="black" points="266,-158 270.9,-159.01 "/>
<polygon fill="black" stroke="black" points="270.87,-164.11 272.89,-154.31 274.84,-154.72 272.83,-164.51 270.87,-164.11"/>
<polyline fill="none" stroke="black" points="270.9,-159.01 275.79,-160.02 "/>
</g>
<!-- sequences_d47f379d -->
<g id="node4" class="node">
<title>sequences_d47f379d</title>
<polygon fill="#c2c5f2" stroke="transparent" points="339.5,-324 339.5,-343 431.5,-343 431.5,-324 339.5,-324"/>
<text text-anchor="start" x="341.5" y="-330.8" font-family="Helvetica,sans-Serif" font-weight="bold" font-style="italic" font-size="14.00">sequences</text>
<polygon fill="#c2c5f2" stroke="transparent" points="431.5,-324 431.5,-343 574.5,-343 574.5,-324 431.5,-324"/>
<text text-anchor="start" x="526.5" y="-329.8" font-family="Helvetica,sans-Serif" font-size="14.00">[table]</text>
<text text-anchor="start" x="341.5" y="-311.8" font-family="Helvetica,sans-Serif" font-weight="bold" font-style="italic" font-size="14.00">seq_name</text>
<text text-anchor="start" x="424.5" y="-310.8" font-family="Helvetica,sans-Serif" font-size="14.00"> </text>
<text text-anchor="start" x="433.5" y="-310.8" font-family="Helvetica,sans-Serif" font-size="14.00">varchar(50) not null</text>
<text text-anchor="start" x="341.5" y="-291.8" font-family="Helvetica,sans-Serif" font-size="14.00">seq_next</text>
<text text-anchor="start" x="424.5" y="-291.8" font-family="Helvetica,sans-Serif" font-size="14.00"> </text>
<text text-anchor="start" x="433.5" y="-291.8" font-family="Helvetica,sans-Serif" font-size="14.00">numeric(38, 0)</text>
<polygon fill="none" stroke="#888888" points="338,-285.5 338,-344.5 575,-344.5 575,-285.5 338,-285.5"/>
</g>
</g>
</svg>
