<?xml version="1.0" encoding="UTF-8" standalone="no"?>
<!DOCTYPE svg PUBLIC "-//W3C//DTD SVG 1.1//EN"
 "http://www.w3.org/Graphics/SVG/1.1/DTD/svg11.dtd">
<!-- Generated by graphviz version 2.43.0 (0)
 -->
<!-- Title: SchemaCrawler_Diagram Pages: 1 -->
<svg width="659pt" height="323pt"
 viewBox="0.00 0.00 659.00 322.50" xmlns="http://www.w3.org/2000/svg" xmlns:xlink="http://www.w3.org/1999/xlink">
<g id="graph0" class="graph" transform="scale(1 1) rotate(0) translate(4 318.5)">
<title>SchemaCrawler_Diagram</title>
<polygon fill="white" stroke="transparent" points="-4,4 -4,-318.5 655,-318.5 655,4 -4,4"/>
<text text-anchor="start" x="374" y="-11.3" font-family="Helvetica,sans-Serif" font-weight="bold" font-style="italic" font-size="14.00">Publication: HB&#45;PG&#45;SINGLE_TABLE</text>
<polygon fill="none" stroke="#888888" points="371,-4 371,-25 643,-25 643,-4 371,-4"/>
<!-- author_c30dd856 -->
<g id="node1" class="node">
<title>author_c30dd856</title>
<polygon fill="#c2c5f2" stroke="transparent" points="70,-109.5 70,-128.5 157,-128.5 157,-109.5 70,-109.5"/>
<text text-anchor="start" x="72" y="-116.3" font-family="Helvetica,sans-Serif" font-weight="bold" font-style="italic" font-size="14.00">author</text>
<polygon fill="#c2c5f2" stroke="transparent" points="157,-109.5 157,-128.5 252,-128.5 252,-109.5 157,-109.5"/>
<text text-anchor="start" x="204" y="-115.3" font-family="Helvetica,sans-Serif" font-size="14.00">[table]</text>
<text text-anchor="start" x="72" y="-97.3" font-family="Helvetica,sans-Serif" font-weight="bold" font-style="italic" font-size="14.00">id</text>
<text text-anchor="start" x="150" y="-96.3" font-family="Helvetica,sans-Serif" font-size="14.00"> </text>
<text text-anchor="start" x="159" y="-96.3" font-family="Helvetica,sans-Serif" font-size="14.00">int8 not null</text>
<text text-anchor="start" x="72" y="-77.3" font-family="Helvetica,sans-Serif" font-size="14.00">first_name</text>
<text text-anchor="start" x="150" y="-77.3" font-family="Helvetica,sans-Serif" font-size="14.00"> </text>
<text text-anchor="start" x="159" y="-77.3" font-family="Helvetica,sans-Serif" font-size="14.00">varchar(255)</text>
<text text-anchor="start" x="72" y="-58.3" font-family="Helvetica,sans-Serif" font-size="14.00">last_name</text>
<text text-anchor="start" x="150" y="-58.3" font-family="Helvetica,sans-Serif" font-size="14.00"> </text>
<text text-anchor="start" x="159" y="-58.3" font-family="Helvetica,sans-Serif" font-size="14.00">varchar(255)</text>
<text text-anchor="start" x="72" y="-39.3" font-family="Helvetica,sans-Serif" font-size="14.00">version</text>
<text text-anchor="start" x="150" y="-39.3" font-family="Helvetica,sans-Serif" font-size="14.00"> </text>
<text text-anchor="start" x="159" y="-39.3" font-family="Helvetica,sans-Serif" font-size="14.00">int8</text>
<polygon fill="none" stroke="#888888" points="69,-33 69,-130 253,-130 253,-33 69,-33"/>
</g>
<!-- publication_author_join_4288896 -->
<g id="node2" class="node">
<title>publication_author_join_4288896</title>
<polygon fill="#c2c5f2" stroke="transparent" points="367.5,-200.5 367.5,-219.5 553.5,-219.5 553.5,-200.5 367.5,-200.5"/>
<text text-anchor="start" x="369.5" y="-207.3" font-family="Helvetica,sans-Serif" font-weight="bold" font-style="italic" font-size="14.00">publication_author_join</text>
<polygon fill="#c2c5f2" stroke="transparent" points="553.5,-200.5 553.5,-219.5 642.5,-219.5 642.5,-200.5 553.5,-200.5"/>
<text text-anchor="start" x="594.5" y="-206.3" font-family="Helvetica,sans-Serif" font-size="14.00">[table]</text>
<text text-anchor="start" x="369.5" y="-187.3" font-family="Helvetica,sans-Serif" font-size="14.00">publication_id</text>
<text text-anchor="start" x="508.5" y="-187.3" font-family="Helvetica,sans-Serif" font-size="14.00"> </text>
<text text-anchor="start" x="555.5" y="-187.3" font-family="Helvetica,sans-Serif" font-size="14.00">int8 not null</text>
<text text-anchor="start" x="369.5" y="-168.3" font-family="Helvetica,sans-Serif" font-size="14.00">author_id</text>
<text text-anchor="start" x="508.5" y="-168.3" font-family="Helvetica,sans-Serif" font-size="14.00"> </text>
<text text-anchor="start" x="555.5" y="-168.3" font-family="Helvetica,sans-Serif" font-size="14.00">int8 not null</text>
<polygon fill="none" stroke="#888888" points="366,-162 366,-221 643,-221 643,-162 366,-162"/>
</g>
<!-- publication_author_join_4288896&#45;&gt;author_c30dd856 -->
<g id="edge1" class="edge">
<title>publication_author_join_4288896:w&#45;&gt;author_c30dd856:e</title>
<path fill="none" stroke="black" d="M348.88,-166.93C340.16,-161.38 335.15,-151.74 322,-143.5 294.49,-126.27 289.88,-105.29 263.03,-101.21"/>
<polygon fill="black" stroke="black" points="356.82,-168.99 365.37,-175.86 361.66,-170.25 366.5,-171.5 366.5,-171.5 366.5,-171.5 361.66,-170.25 367.63,-167.14 356.82,-168.99 356.82,-168.99"/>
<ellipse fill="none" stroke="black" cx="352.95" cy="-167.99" rx="4" ry="4"/>
<polygon fill="black" stroke="black" points="253.65,-105.56 254.35,-95.58 256.34,-95.72 255.64,-105.7 253.65,-105.56"/>
<polyline fill="none" stroke="black" points="253,-100.5 257.99,-100.85 "/>
<polygon fill="black" stroke="black" points="258.63,-105.91 259.34,-95.93 261.33,-96.08 260.63,-106.05 258.63,-105.91"/>
<polyline fill="none" stroke="black" points="257.99,-100.85 262.98,-101.2 "/>
</g>
<!-- publication_d69c58f7 -->
<g id="node3" class="node">
<title>publication_d69c58f7</title>
<polygon fill="#c2c5f2" stroke="transparent" points="9,-290.5 9,-309.5 170,-309.5 170,-290.5 9,-290.5"/>
<text text-anchor="start" x="11" y="-297.3" font-family="Helvetica,sans-Serif" font-weight="bold" font-style="italic" font-size="14.00">publication</text>
<polygon fill="#c2c5f2" stroke="transparent" points="170,-290.5 170,-309.5 313,-309.5 313,-290.5 170,-290.5"/>
<text text-anchor="start" x="265" y="-296.3" font-family="Helvetica,sans-Serif" font-size="14.00">[table]</text>
<text text-anchor="start" x="11" y="-277.3" font-family="Helvetica,sans-Serif" font-size="14.00">dtype</text>
<text text-anchor="start" x="163" y="-277.3" font-family="Helvetica,sans-Serif" font-size="14.00"> </text>
<text text-anchor="start" x="172" y="-277.3" font-family="Helvetica,sans-Serif" font-size="14.00">varchar(31) not null</text>
<text text-anchor="start" x="11" y="-259.3" font-family="Helvetica,sans-Serif" font-weight="bold" font-style="italic" font-size="14.00">id</text>
<text text-anchor="start" x="163" y="-258.3" font-family="Helvetica,sans-Serif" font-size="14.00"> </text>
<text text-anchor="start" x="172" y="-258.3" font-family="Helvetica,sans-Serif" font-size="14.00">int8 not null</text>
<text text-anchor="start" x="11" y="-239.3" font-family="Helvetica,sans-Serif" font-size="14.00">publishing_date_item</text>
<text text-anchor="start" x="163" y="-239.3" font-family="Helvetica,sans-Serif" font-size="14.00"> </text>
<text text-anchor="start" x="172" y="-239.3" font-family="Helvetica,sans-Serif" font-size="14.00">timestamp</text>
<text text-anchor="start" x="11" y="-220.3" font-family="Helvetica,sans-Serif" font-size="14.00">title</text>
<text text-anchor="start" x="163" y="-220.3" font-family="Helvetica,sans-Serif" font-size="14.00"> </text>
<text text-anchor="start" x="172" y="-220.3" font-family="Helvetica,sans-Serif" font-size="14.00">varchar(255)</text>
<text text-anchor="start" x="11" y="-201.3" font-family="Helvetica,sans-Serif" font-size="14.00">version</text>
<text text-anchor="start" x="163" y="-201.3" font-family="Helvetica,sans-Serif" font-size="14.00"> </text>
<text text-anchor="start" x="172" y="-201.3" font-family="Helvetica,sans-Serif" font-size="14.00">int8</text>
<text text-anchor="start" x="11" y="-182.3" font-family="Helvetica,sans-Serif" font-size="14.00">url</text>
<text text-anchor="start" x="163" y="-182.3" font-family="Helvetica,sans-Serif" font-size="14.00"> </text>
<text text-anchor="start" x="172" y="-182.3" font-family="Helvetica,sans-Serif" font-size="14.00">varchar(255)</text>
<text text-anchor="start" x="11" y="-163.3" font-family="Helvetica,sans-Serif" font-size="14.00">pages</text>
<text text-anchor="start" x="163" y="-163.3" font-family="Helvetica,sans-Serif" font-size="14.00"> </text>
<text text-anchor="start" x="172" y="-163.3" font-family="Helvetica,sans-Serif" font-size="14.00">int4</text>
<polygon fill="none" stroke="#888888" points="8,-156.5 8,-310.5 314,-310.5 314,-156.5 8,-156.5"/>
</g>
<!-- publication_author_join_4288896&#45;&gt;publication_d69c58f7 -->
<g id="edge2" class="edge">
<title>publication_author_join_4288896:w&#45;&gt;publication_d69c58f7:e</title>
<path fill="none" stroke="black" d="M349.9,-197.67C336.69,-213.6 343.51,-251.29 324.07,-260.46"/>
<polygon fill="black" stroke="black" points="357.32,-194.46 368.28,-194.63 361.91,-192.48 366.5,-190.5 366.5,-190.5 366.5,-190.5 361.91,-192.48 364.72,-186.37 357.32,-194.46 357.32,-194.46"/>
<ellipse fill="none" stroke="black" cx="353.65" cy="-196.05" rx="4" ry="4"/>
<polygon fill="black" stroke="black" points="315.97,-267.2 313.99,-257.4 315.95,-257 317.93,-266.81 315.97,-267.2"/>
<polyline fill="none" stroke="black" points="314,-262.5 318.9,-261.51 "/>
<polygon fill="black" stroke="black" points="320.87,-266.21 318.89,-256.41 320.85,-256.01 322.83,-265.81 320.87,-266.21"/>
<polyline fill="none" stroke="black" points="318.9,-261.51 323.8,-260.52 "/>
</g>
<!-- sequences_d47f379d -->
<g id="node4" class="node">
<title>sequences_d47f379d</title>
<polygon fill="#c2c5f2" stroke="transparent" points="382.5,-285.5 382.5,-304.5 474.5,-304.5 474.5,-285.5 382.5,-285.5"/>
<text text-anchor="start" x="384.5" y="-292.3" font-family="Helvetica,sans-Serif" font-weight="bold" font-style="italic" font-size="14.00">sequences</text>
<polygon fill="#c2c5f2" stroke="transparent" points="474.5,-285.5 474.5,-304.5 626.5,-304.5 626.5,-285.5 474.5,-285.5"/>
<text text-anchor="start" x="578.5" y="-291.3" font-family="Helvetica,sans-Serif" font-size="14.00">[table]</text>
<text text-anchor="start" x="384.5" y="-273.3" font-family="Helvetica,sans-Serif" font-weight="bold" font-style="italic" font-size="14.00">seq_name</text>
<text text-anchor="start" x="467.5" y="-272.3" font-family="Helvetica,sans-Serif" font-size="14.00"> </text>
<text text-anchor="start" x="476.5" y="-272.3" font-family="Helvetica,sans-Serif" font-size="14.00">varchar(255) not null</text>
<text text-anchor="start" x="384.5" y="-253.3" font-family="Helvetica,sans-Serif" font-size="14.00">seq_next</text>
<text text-anchor="start" x="467.5" y="-253.3" font-family="Helvetica,sans-Serif" font-size="14.00"> </text>
<text text-anchor="start" x="476.5" y="-253.3" font-family="Helvetica,sans-Serif" font-size="14.00">int8</text>
<polygon fill="none" stroke="#888888" points="381.5,-247 381.5,-306 627.5,-306 627.5,-247 381.5,-247"/>
</g>
</g>
</svg>
