<?xml version="1.0" encoding="UTF-8" standalone="no"?>
<!DOCTYPE svg PUBLIC "-//W3C//DTD SVG 1.1//EN"
 "http://www.w3.org/Graphics/SVG/1.1/DTD/svg11.dtd">
<!-- Generated by graphviz version 2.43.0 (0)
 -->
<!-- Title: SchemaCrawler_Diagram Pages: 1 -->
<svg width="748pt" height="361pt"
 viewBox="0.00 0.00 748.00 360.50" xmlns="http://www.w3.org/2000/svg" xmlns:xlink="http://www.w3.org/1999/xlink">
<g id="graph0" class="graph" transform="scale(1 1) rotate(0) translate(4 356.5)">
<title>SchemaCrawler_Diagram</title>
<polygon fill="white" stroke="transparent" points="-4,4 -4,-356.5 744,-356.5 744,4 -4,4"/>
<text text-anchor="start" x="467" y="-11.3" font-family="Helvetica,sans-Serif" font-weight="bold" font-style="italic" font-size="14.00">Publication: EL&#45;H2&#45;SINGLE_TABLE</text>
<polygon fill="none" stroke="#888888" points="464,-4 464,-25 732,-25 732,-4 464,-4"/>
<!-- author_7775551e -->
<g id="node1" class="node">
<title>author_7775551e</title>
<polygon fill="#c2f2da" stroke="transparent" points="46,-328.5 46,-347.5 133,-347.5 133,-328.5 46,-328.5"/>
<text text-anchor="start" x="48" y="-335.3" font-family="Helvetica,sans-Serif" font-weight="bold" font-style="italic" font-size="14.00">author</text>
<polygon fill="#c2f2da" stroke="transparent" points="133,-328.5 133,-347.5 326,-347.5 326,-328.5 133,-328.5"/>
<text text-anchor="start" x="241" y="-334.3" font-family="Helvetica,sans-Serif" font-size="14.00">[base table]</text>
<text text-anchor="start" x="48" y="-316.3" font-family="Helvetica,sans-Serif" font-weight="bold" font-style="italic" font-size="14.00">id</text>
<text text-anchor="start" x="126" y="-315.3" font-family="Helvetica,sans-Serif" font-size="14.00"> </text>
<text text-anchor="start" x="135" y="-315.3" font-family="Helvetica,sans-Serif" font-size="14.00">INTEGER NOT NULL</text>
<text text-anchor="start" x="126" y="-296.3" font-family="Helvetica,sans-Serif" font-size="14.00"> </text>
<text text-anchor="start" x="135" y="-296.3" font-family="Helvetica,sans-Serif" font-size="14.00">auto&#45;incremented</text>
<text text-anchor="start" x="48" y="-277.3" font-family="Helvetica,sans-Serif" font-size="14.00">first_name</text>
<text text-anchor="start" x="126" y="-277.3" font-family="Helvetica,sans-Serif" font-size="14.00"> </text>
<text text-anchor="start" x="135" y="-277.3" font-family="Helvetica,sans-Serif" font-size="14.00">CHARACTER VARYING(255)</text>
<text text-anchor="start" x="48" y="-258.3" font-family="Helvetica,sans-Serif" font-size="14.00">last_name</text>
<text text-anchor="start" x="126" y="-258.3" font-family="Helvetica,sans-Serif" font-size="14.00"> </text>
<text text-anchor="start" x="135" y="-258.3" font-family="Helvetica,sans-Serif" font-size="14.00">CHARACTER VARYING(255)</text>
<text text-anchor="start" x="48" y="-239.3" font-family="Helvetica,sans-Serif" font-size="14.00">version</text>
<text text-anchor="start" x="126" y="-239.3" font-family="Helvetica,sans-Serif" font-size="14.00"> </text>
<text text-anchor="start" x="135" y="-239.3" font-family="Helvetica,sans-Serif" font-size="14.00">BIGINT</text>
<polygon fill="none" stroke="#888888" points="45,-232.5 45,-348.5 327,-348.5 327,-232.5 45,-232.5"/>
</g>
<!-- publication_author_join_b890055e -->
<g id="node2" class="node">
<title>publication_author_join_b890055e</title>
<polygon fill="#c2f2da" stroke="transparent" points="417,-267.5 417,-286.5 603,-286.5 603,-267.5 417,-267.5"/>
<text text-anchor="start" x="419" y="-274.3" font-family="Helvetica,sans-Serif" font-weight="bold" font-style="italic" font-size="14.00">publication_author_join</text>
<polygon fill="#c2f2da" stroke="transparent" points="603,-267.5 603,-286.5 731,-286.5 731,-267.5 603,-267.5"/>
<text text-anchor="start" x="646" y="-273.3" font-family="Helvetica,sans-Serif" font-size="14.00">[base table]</text>
<text text-anchor="start" x="419" y="-255.3" font-family="Helvetica,sans-Serif" font-weight="bold" font-style="italic" font-size="14.00">author_id</text>
<text text-anchor="start" x="564" y="-254.3" font-family="Helvetica,sans-Serif" font-size="14.00"> </text>
<text text-anchor="start" x="605" y="-254.3" font-family="Helvetica,sans-Serif" font-size="14.00">BIGINT NOT NULL</text>
<text text-anchor="start" x="419" y="-236.3" font-family="Helvetica,sans-Serif" font-weight="bold" font-style="italic" font-size="14.00">publication_id</text>
<text text-anchor="start" x="564" y="-235.3" font-family="Helvetica,sans-Serif" font-size="14.00"> </text>
<text text-anchor="start" x="605" y="-235.3" font-family="Helvetica,sans-Serif" font-size="14.00">BIGINT NOT NULL</text>
<polygon fill="none" stroke="#888888" points="416,-229 416,-288 732,-288 732,-229 416,-229"/>
</g>
<!-- publication_author_join_b890055e&#45;&gt;author_7775551e -->
<g id="edge1" class="edge">
<title>publication_author_join_b890055e:w&#45;&gt;author_7775551e:e</title>
<path fill="none" stroke="black" d="M398.25,-261.01C371.42,-272.95 368.57,-311.61 337.18,-318.46"/>
<polygon fill="black" stroke="black" points="406.19,-259.44 416.87,-261.91 411.1,-258.47 416,-257.5 416,-257.5 416,-257.5 411.1,-258.47 415.13,-253.09 406.19,-259.44 406.19,-259.44"/>
<ellipse fill="none" stroke="black" cx="402.27" cy="-260.22" rx="4" ry="4"/>
<polygon fill="black" stroke="black" points="328.5,-324.37 327.49,-314.42 329.48,-314.22 330.49,-324.17 328.5,-324.37"/>
<polyline fill="none" stroke="black" points="327,-319.5 331.97,-318.99 "/>
<polygon fill="black" stroke="black" points="333.48,-323.86 332.46,-313.91 334.45,-313.71 335.47,-323.66 333.48,-323.86"/>
<polyline fill="none" stroke="black" points="331.97,-318.99 336.95,-318.48 "/>
</g>
<!-- publication_8b03d5bf -->
<g id="node3" class="node">
<title>publication_8b03d5bf</title>
<polygon fill="#c2f2da" stroke="transparent" points="9,-185.5 9,-204.5 170,-204.5 170,-185.5 9,-185.5"/>
<text text-anchor="start" x="11" y="-192.3" font-family="Helvetica,sans-Serif" font-weight="bold" font-style="italic" font-size="14.00">publication</text>
<polygon fill="#c2f2da" stroke="transparent" points="170,-185.5 170,-204.5 363,-204.5 363,-185.5 170,-185.5"/>
<text text-anchor="start" x="278" y="-191.3" font-family="Helvetica,sans-Serif" font-size="14.00">[base table]</text>
<text text-anchor="start" x="11" y="-173.3" font-family="Helvetica,sans-Serif" font-weight="bold" font-style="italic" font-size="14.00">id</text>
<text text-anchor="start" x="163" y="-172.3" font-family="Helvetica,sans-Serif" font-size="14.00"> </text>
<text text-anchor="start" x="172" y="-172.3" font-family="Helvetica,sans-Serif" font-size="14.00">INTEGER NOT NULL</text>
<text text-anchor="start" x="163" y="-153.3" font-family="Helvetica,sans-Serif" font-size="14.00"> </text>
<text text-anchor="start" x="172" y="-153.3" font-family="Helvetica,sans-Serif" font-size="14.00">auto&#45;incremented</text>
<text text-anchor="start" x="11" y="-134.3" font-family="Helvetica,sans-Serif" font-size="14.00">dtype</text>
<text text-anchor="start" x="163" y="-134.3" font-family="Helvetica,sans-Serif" font-size="14.00"> </text>
<text text-anchor="start" x="172" y="-134.3" font-family="Helvetica,sans-Serif" font-size="14.00">CHARACTER VARYING(31)</text>
<text text-anchor="start" x="11" y="-115.3" font-family="Helvetica,sans-Serif" font-size="14.00">publishing_date_item</text>
<text text-anchor="start" x="163" y="-115.3" font-family="Helvetica,sans-Serif" font-size="14.00"> </text>
<text text-anchor="start" x="172" y="-115.3" font-family="Helvetica,sans-Serif" font-size="14.00">TIMESTAMP</text>
<text text-anchor="start" x="11" y="-96.3" font-family="Helvetica,sans-Serif" font-size="14.00">title</text>
<text text-anchor="start" x="163" y="-96.3" font-family="Helvetica,sans-Serif" font-size="14.00"> </text>
<text text-anchor="start" x="172" y="-96.3" font-family="Helvetica,sans-Serif" font-size="14.00">CHARACTER VARYING(255)</text>
<text text-anchor="start" x="11" y="-77.3" font-family="Helvetica,sans-Serif" font-size="14.00">version</text>
<text text-anchor="start" x="163" y="-77.3" font-family="Helvetica,sans-Serif" font-size="14.00"> </text>
<text text-anchor="start" x="172" y="-77.3" font-family="Helvetica,sans-Serif" font-size="14.00">BIGINT</text>
<text text-anchor="start" x="11" y="-58.3" font-family="Helvetica,sans-Serif" font-size="14.00">url</text>
<text text-anchor="start" x="163" y="-58.3" font-family="Helvetica,sans-Serif" font-size="14.00"> </text>
<text text-anchor="start" x="172" y="-58.3" font-family="Helvetica,sans-Serif" font-size="14.00">CHARACTER VARYING(255)</text>
<text text-anchor="start" x="11" y="-39.3" font-family="Helvetica,sans-Serif" font-size="14.00">pages</text>
<text text-anchor="start" x="163" y="-39.3" font-family="Helvetica,sans-Serif" font-size="14.00"> </text>
<text text-anchor="start" x="172" y="-39.3" font-family="Helvetica,sans-Serif" font-size="14.00">INTEGER</text>
<polygon fill="none" stroke="#888888" points="8,-33 8,-206 364,-206 364,-33 8,-33"/>
</g>
<!-- publication_author_join_b890055e&#45;&gt;publication_8b03d5bf -->
<g id="edge2" class="edge">
<title>publication_author_join_b890055e:w&#45;&gt;publication_8b03d5bf:e</title>
<path fill="none" stroke="black" d="M399.25,-230.9C387.93,-216.67 390.78,-186.72 373.98,-178.58"/>
<polygon fill="black" stroke="black" points="406.89,-234.37 414.14,-242.6 411.45,-236.43 416,-238.5 416,-238.5 416,-238.5 411.45,-236.43 417.86,-234.4 406.89,-234.37 406.89,-234.37"/>
<ellipse fill="none" stroke="black" cx="403.25" cy="-232.71" rx="4" ry="4"/>
<polygon fill="black" stroke="black" points="363.96,-181.6 366,-171.81 367.96,-172.22 365.92,-182.01 363.96,-181.6"/>
<polyline fill="none" stroke="black" points="364,-176.5 368.89,-177.52 "/>
<polygon fill="black" stroke="black" points="368.85,-182.62 370.89,-172.83 372.85,-173.24 370.81,-183.03 368.85,-182.62"/>
<polyline fill="none" stroke="black" points="368.89,-177.52 373.79,-178.54 "/>
</g>
</g>
</svg>
