<?xml version="1.0" encoding="UTF-8" standalone="no"?>
<!DOCTYPE svg PUBLIC "-//W3C//DTD SVG 1.1//EN"
 "http://www.w3.org/Graphics/SVG/1.1/DTD/svg11.dtd">
<!-- Generated by graphviz version 2.43.0 (0)
 -->
<!-- Title: SchemaCrawler_Diagram Pages: 1 -->
<svg width="611pt" height="387pt"
 viewBox="0.00 0.00 611.00 387.00" xmlns="http://www.w3.org/2000/svg" xmlns:xlink="http://www.w3.org/1999/xlink">
<g id="graph0" class="graph" transform="scale(1 1) rotate(0) translate(4 383)">
<title>SchemaCrawler_Diagram</title>
<polygon fill="white" stroke="transparent" points="-4,4 -4,-383 607,-383 607,4 -4,4"/>
<text text-anchor="start" x="386" y="-11.3" font-family="Helvetica,sans-Serif" font-weight="bold" font-style="italic" font-size="14.00">Publication: EL&#45;PG&#45;JOINED</text>
<polygon fill="none" stroke="#888888" points="383,-4 383,-25 595,-25 595,-4 383,-4"/>
<!-- author_c30dd856 -->
<g id="node1" class="node">
<title>author_c30dd856</title>
<polygon fill="#c2c5f2" stroke="transparent" points="46,-282.5 46,-301.5 133,-301.5 133,-282.5 46,-282.5"/>
<text text-anchor="start" x="48" y="-289.3" font-family="Helvetica,sans-Serif" font-weight="bold" font-style="italic" font-size="14.00">author</text>
<polygon fill="#c2c5f2" stroke="transparent" points="133,-282.5 133,-301.5 228,-301.5 228,-282.5 133,-282.5"/>
<text text-anchor="start" x="180" y="-288.3" font-family="Helvetica,sans-Serif" font-size="14.00">[table]</text>
<text text-anchor="start" x="48" y="-270.3" font-family="Helvetica,sans-Serif" font-weight="bold" font-style="italic" font-size="14.00">id</text>
<text text-anchor="start" x="126" y="-269.3" font-family="Helvetica,sans-Serif" font-size="14.00"> </text>
<text text-anchor="start" x="135" y="-269.3" font-family="Helvetica,sans-Serif" font-size="14.00">int8 not null</text>
<text text-anchor="start" x="48" y="-250.3" font-family="Helvetica,sans-Serif" font-size="14.00">dtype</text>
<text text-anchor="start" x="126" y="-250.3" font-family="Helvetica,sans-Serif" font-size="14.00"> </text>
<text text-anchor="start" x="135" y="-250.3" font-family="Helvetica,sans-Serif" font-size="14.00">varchar(31)</text>
<text text-anchor="start" x="48" y="-231.3" font-family="Helvetica,sans-Serif" font-size="14.00">first_name</text>
<text text-anchor="start" x="126" y="-231.3" font-family="Helvetica,sans-Serif" font-size="14.00"> </text>
<text text-anchor="start" x="135" y="-231.3" font-family="Helvetica,sans-Serif" font-size="14.00">varchar(255)</text>
<text text-anchor="start" x="48" y="-212.3" font-family="Helvetica,sans-Serif" font-size="14.00">last_name</text>
<text text-anchor="start" x="126" y="-212.3" font-family="Helvetica,sans-Serif" font-size="14.00"> </text>
<text text-anchor="start" x="135" y="-212.3" font-family="Helvetica,sans-Serif" font-size="14.00">varchar(255)</text>
<text text-anchor="start" x="48" y="-193.3" font-family="Helvetica,sans-Serif" font-size="14.00">version</text>
<text text-anchor="start" x="126" y="-193.3" font-family="Helvetica,sans-Serif" font-size="14.00"> </text>
<text text-anchor="start" x="135" y="-193.3" font-family="Helvetica,sans-Serif" font-size="14.00">int8</text>
<polygon fill="none" stroke="#888888" points="45,-186.5 45,-302.5 229,-302.5 229,-186.5 45,-186.5"/>
</g>
<!-- publication_author_join_4288896 -->
<g id="node2" class="node">
<title>publication_author_join_4288896</title>
<polygon fill="#c2c5f2" stroke="transparent" points="319.5,-269.5 319.5,-288.5 505.5,-288.5 505.5,-269.5 319.5,-269.5"/>
<text text-anchor="start" x="321.5" y="-276.3" font-family="Helvetica,sans-Serif" font-weight="bold" font-style="italic" font-size="14.00">publication_author_join</text>
<polygon fill="#c2c5f2" stroke="transparent" points="505.5,-269.5 505.5,-288.5 594.5,-288.5 594.5,-269.5 505.5,-269.5"/>
<text text-anchor="start" x="546.5" y="-275.3" font-family="Helvetica,sans-Serif" font-size="14.00">[table]</text>
<text text-anchor="start" x="321.5" y="-257.3" font-family="Helvetica,sans-Serif" font-weight="bold" font-style="italic" font-size="14.00">author_id</text>
<text text-anchor="start" x="466.5" y="-256.3" font-family="Helvetica,sans-Serif" font-size="14.00"> </text>
<text text-anchor="start" x="507.5" y="-256.3" font-family="Helvetica,sans-Serif" font-size="14.00">int8 not null</text>
<text text-anchor="start" x="321.5" y="-238.3" font-family="Helvetica,sans-Serif" font-weight="bold" font-style="italic" font-size="14.00">publication_id</text>
<text text-anchor="start" x="466.5" y="-237.3" font-family="Helvetica,sans-Serif" font-size="14.00"> </text>
<text text-anchor="start" x="507.5" y="-237.3" font-family="Helvetica,sans-Serif" font-size="14.00">int8 not null</text>
<polygon fill="none" stroke="#888888" points="318,-231 318,-290 595,-290 595,-231 318,-231"/>
</g>
<!-- publication_author_join_4288896&#45;&gt;author_c30dd856 -->
<g id="edge1" class="edge">
<title>publication_author_join_4288896:w&#45;&gt;author_c30dd856:e</title>
<path fill="none" stroke="black" d="M300.2,-260.6C277.07,-263.54 265.11,-271.48 239.22,-273.18"/>
<polygon fill="black" stroke="black" points="308.52,-260.1 318.77,-263.99 313.51,-259.8 318.5,-259.5 318.5,-259.5 318.5,-259.5 313.51,-259.8 318.23,-255.01 308.52,-260.1 308.52,-260.1"/>
<ellipse fill="none" stroke="black" cx="304.53" cy="-260.34" rx="4" ry="4"/>
<polygon fill="black" stroke="black" points="230.16,-278.47 229.84,-268.47 231.84,-268.41 232.16,-278.4 230.16,-278.47"/>
<polyline fill="none" stroke="black" points="229,-273.5 234,-273.34 "/>
<polygon fill="black" stroke="black" points="235.16,-278.31 234.84,-268.31 236.84,-268.25 237.15,-278.24 235.16,-278.31"/>
<polyline fill="none" stroke="black" points="234,-273.34 238.99,-273.18 "/>
</g>
<!-- publication_d69c58f7 -->
<g id="node5" class="node">
<title>publication_d69c58f7</title>
<polygon fill="#c2c5f2" stroke="transparent" points="9,-140.5 9,-159.5 170,-159.5 170,-140.5 9,-140.5"/>
<text text-anchor="start" x="11" y="-147.3" font-family="Helvetica,sans-Serif" font-weight="bold" font-style="italic" font-size="14.00">publication</text>
<polygon fill="#c2c5f2" stroke="transparent" points="170,-140.5 170,-159.5 265,-159.5 265,-140.5 170,-140.5"/>
<text text-anchor="start" x="217" y="-146.3" font-family="Helvetica,sans-Serif" font-size="14.00">[table]</text>
<text text-anchor="start" x="11" y="-128.3" font-family="Helvetica,sans-Serif" font-weight="bold" font-style="italic" font-size="14.00">id</text>
<text text-anchor="start" x="163" y="-127.3" font-family="Helvetica,sans-Serif" font-size="14.00"> </text>
<text text-anchor="start" x="172" y="-127.3" font-family="Helvetica,sans-Serif" font-size="14.00">int8 not null</text>
<text text-anchor="start" x="11" y="-108.3" font-family="Helvetica,sans-Serif" font-size="14.00">dtype</text>
<text text-anchor="start" x="163" y="-108.3" font-family="Helvetica,sans-Serif" font-size="14.00"> </text>
<text text-anchor="start" x="172" y="-108.3" font-family="Helvetica,sans-Serif" font-size="14.00">varchar(31)</text>
<text text-anchor="start" x="11" y="-89.3" font-family="Helvetica,sans-Serif" font-size="14.00">publishing_date_item</text>
<text text-anchor="start" x="163" y="-89.3" font-family="Helvetica,sans-Serif" font-size="14.00"> </text>
<text text-anchor="start" x="172" y="-89.3" font-family="Helvetica,sans-Serif" font-size="14.00">timestamp</text>
<text text-anchor="start" x="11" y="-70.3" font-family="Helvetica,sans-Serif" font-size="14.00">title</text>
<text text-anchor="start" x="163" y="-70.3" font-family="Helvetica,sans-Serif" font-size="14.00"> </text>
<text text-anchor="start" x="172" y="-70.3" font-family="Helvetica,sans-Serif" font-size="14.00">varchar(255)</text>
<text text-anchor="start" x="11" y="-51.3" font-family="Helvetica,sans-Serif" font-size="14.00">version</text>
<text text-anchor="start" x="163" y="-51.3" font-family="Helvetica,sans-Serif" font-size="14.00"> </text>
<text text-anchor="start" x="172" y="-51.3" font-family="Helvetica,sans-Serif" font-size="14.00">int8</text>
<polygon fill="none" stroke="#888888" points="8,-44.5 8,-160.5 266,-160.5 266,-44.5 8,-44.5"/>
</g>
<!-- publication_author_join_4288896&#45;&gt;publication_d69c58f7 -->
<g id="edge4" class="edge">
<title>publication_author_join_4288896:w&#45;&gt;publication_d69c58f7:e</title>
<path fill="none" stroke="black" d="M301.35,-234.33C280.34,-213.25 306.64,-144.79 276.18,-133.18"/>
<polygon fill="black" stroke="black" points="309.09,-237.11 316.98,-244.73 313.8,-238.81 318.5,-240.5 318.5,-240.5 318.5,-240.5 313.8,-238.81 320.02,-236.27 309.09,-237.11 309.09,-237.11"/>
<ellipse fill="none" stroke="black" cx="305.33" cy="-235.76" rx="4" ry="4"/>
<polygon fill="black" stroke="black" points="266.17,-136.6 267.8,-126.73 269.77,-127.06 268.15,-136.92 266.17,-136.6"/>
<polyline fill="none" stroke="black" points="266,-131.5 270.93,-132.31 "/>
<polygon fill="black" stroke="black" points="271.11,-137.41 272.73,-127.54 274.71,-127.87 273.08,-137.74 271.11,-137.41"/>
<polyline fill="none" stroke="black" points="270.93,-132.31 275.87,-133.13 "/>
</g>
<!-- blog_170ee66d -->
<g id="node3" class="node">
<title>blog_170ee66d</title>
<polygon fill="#c2c5f2" stroke="transparent" points="390.5,-156.5 390.5,-175.5 428.5,-175.5 428.5,-156.5 390.5,-156.5"/>
<text text-anchor="start" x="392.5" y="-163.3" font-family="Helvetica,sans-Serif" font-weight="bold" font-style="italic" font-size="14.00">blog</text>
<polygon fill="#c2c5f2" stroke="transparent" points="428.5,-156.5 428.5,-175.5 523.5,-175.5 523.5,-156.5 428.5,-156.5"/>
<text text-anchor="start" x="475.5" y="-162.3" font-family="Helvetica,sans-Serif" font-size="14.00">[table]</text>
<text text-anchor="start" x="392.5" y="-144.3" font-family="Helvetica,sans-Serif" font-weight="bold" font-style="italic" font-size="14.00">id</text>
<text text-anchor="start" x="418.5" y="-143.3" font-family="Helvetica,sans-Serif" font-size="14.00"> </text>
<text text-anchor="start" x="430.5" y="-143.3" font-family="Helvetica,sans-Serif" font-size="14.00">int8 not null</text>
<text text-anchor="start" x="392.5" y="-124.3" font-family="Helvetica,sans-Serif" font-size="14.00">url</text>
<text text-anchor="start" x="418.5" y="-124.3" font-family="Helvetica,sans-Serif" font-size="14.00"> </text>
<text text-anchor="start" x="430.5" y="-124.3" font-family="Helvetica,sans-Serif" font-size="14.00">varchar(255)</text>
<polygon fill="none" stroke="#888888" points="389,-118 389,-177 524,-177 524,-118 389,-118"/>
</g>
<!-- blog_170ee66d&#45;&gt;publication_d69c58f7 -->
<g id="edge2" class="edge">
<title>blog_170ee66d:w&#45;&gt;publication_d69c58f7:e</title>
<path fill="none" stroke="black" d="M376.42,-146.2C334.88,-144.23 318.92,-133.22 276.18,-131.68"/>
<polygon fill="black" stroke="black" points="388.61,-141.48 388.39,-151.48 386.39,-151.43 386.62,-141.43 388.61,-141.48"/>
<polyline fill="none" stroke="black" points="389.5,-146.5 384.5,-146.39 "/>
<ellipse fill="none" stroke="black" cx="380.5" cy="-146.29" rx="4" ry="4"/>
<polygon fill="black" stroke="black" points="266.91,-136.52 267.09,-126.52 269.09,-126.55 268.91,-136.55 266.91,-136.52"/>
<polyline fill="none" stroke="black" points="266,-131.5 271,-131.59 "/>
<polygon fill="black" stroke="black" points="271.91,-136.6 272.09,-126.61 274.09,-126.64 273.91,-136.64 271.91,-136.6"/>
<polyline fill="none" stroke="black" points="271,-131.59 276,-131.68 "/>
</g>
<!-- book_170ef1b4 -->
<g id="node4" class="node">
<title>book_170ef1b4</title>
<polygon fill="#c2c5f2" stroke="transparent" points="384.5,-71.5 384.5,-90.5 440.5,-90.5 440.5,-71.5 384.5,-71.5"/>
<text text-anchor="start" x="386.5" y="-78.3" font-family="Helvetica,sans-Serif" font-weight="bold" font-style="italic" font-size="14.00">book</text>
<polygon fill="#c2c5f2" stroke="transparent" points="440.5,-71.5 440.5,-90.5 529.5,-90.5 529.5,-71.5 440.5,-71.5"/>
<text text-anchor="start" x="481.5" y="-77.3" font-family="Helvetica,sans-Serif" font-size="14.00">[table]</text>
<text text-anchor="start" x="386.5" y="-59.3" font-family="Helvetica,sans-Serif" font-weight="bold" font-style="italic" font-size="14.00">id</text>
<text text-anchor="start" x="433.5" y="-58.3" font-family="Helvetica,sans-Serif" font-size="14.00"> </text>
<text text-anchor="start" x="442.5" y="-58.3" font-family="Helvetica,sans-Serif" font-size="14.00">int8 not null</text>
<text text-anchor="start" x="386.5" y="-39.3" font-family="Helvetica,sans-Serif" font-size="14.00">pages</text>
<text text-anchor="start" x="433.5" y="-39.3" font-family="Helvetica,sans-Serif" font-size="14.00"> </text>
<text text-anchor="start" x="442.5" y="-39.3" font-family="Helvetica,sans-Serif" font-size="14.00">int4</text>
<polygon fill="none" stroke="#888888" points="383,-33 383,-92 530,-92 530,-33 383,-33"/>
</g>
<!-- book_170ef1b4&#45;&gt;publication_d69c58f7 -->
<g id="edge3" class="edge">
<title>book_170ef1b4:w&#45;&gt;publication_d69c58f7:e</title>
<path fill="none" stroke="black" d="M372.11,-67.96C348.71,-81.84 295.73,-114.23 274.76,-126.59"/>
<polygon fill="black" stroke="black" points="380.16,-57.64 385.1,-66.34 383.36,-67.33 378.42,-58.63 380.16,-57.64"/>
<polyline fill="none" stroke="black" points="383.5,-61.5 379.15,-63.97 "/>
<ellipse fill="none" stroke="black" cx="375.67" cy="-65.94" rx="4" ry="4"/>
<polygon fill="black" stroke="black" points="269.32,-135.37 264.43,-126.65 266.17,-125.67 271.06,-134.4 269.32,-135.37"/>
<polyline fill="none" stroke="black" points="266,-131.5 270.36,-129.06 "/>
<polygon fill="black" stroke="black" points="273.68,-132.93 268.79,-124.21 270.54,-123.23 275.42,-131.95 273.68,-132.93"/>
<polyline fill="none" stroke="black" points="270.36,-129.06 274.72,-126.61 "/>
</g>
<!-- sequences_d47f379d -->
<g id="node6" class="node">
<title>sequences_d47f379d</title>
<polygon fill="#c2c5f2" stroke="transparent" points="339.5,-354.5 339.5,-373.5 431.5,-373.5 431.5,-354.5 339.5,-354.5"/>
<text text-anchor="start" x="341.5" y="-361.3" font-family="Helvetica,sans-Serif" font-weight="bold" font-style="italic" font-size="14.00">sequences</text>
<polygon fill="#c2c5f2" stroke="transparent" points="431.5,-354.5 431.5,-373.5 574.5,-373.5 574.5,-354.5 431.5,-354.5"/>
<text text-anchor="start" x="526.5" y="-360.3" font-family="Helvetica,sans-Serif" font-size="14.00">[table]</text>
<text text-anchor="start" x="341.5" y="-342.3" font-family="Helvetica,sans-Serif" font-weight="bold" font-style="italic" font-size="14.00">seq_name</text>
<text text-anchor="start" x="424.5" y="-341.3" font-family="Helvetica,sans-Serif" font-size="14.00"> </text>
<text text-anchor="start" x="433.5" y="-341.3" font-family="Helvetica,sans-Serif" font-size="14.00">varchar(50) not null</text>
<text text-anchor="start" x="341.5" y="-322.3" font-family="Helvetica,sans-Serif" font-size="14.00">seq_count</text>
<text text-anchor="start" x="424.5" y="-322.3" font-family="Helvetica,sans-Serif" font-size="14.00"> </text>
<text text-anchor="start" x="433.5" y="-322.3" font-family="Helvetica,sans-Serif" font-size="14.00">numeric(38, 0)</text>
<polygon fill="none" stroke="#888888" points="338,-316 338,-375 575,-375 575,-316 338,-316"/>
</g>
</g>
</svg>
