<?xml version="1.0" encoding="UTF-8" standalone="no"?>
<!DOCTYPE svg PUBLIC "-//W3C//DTD SVG 1.1//EN"
 "http://www.w3.org/Graphics/SVG/1.1/DTD/svg11.dtd">
<!-- Generated by graphviz version 2.43.0 (0)
 -->
<!-- Title: SchemaCrawler_Diagram Pages: 1 -->
<svg width="767pt" height="655pt"
 viewBox="0.00 0.00 767.00 655.00" xmlns="http://www.w3.org/2000/svg" xmlns:xlink="http://www.w3.org/1999/xlink">
<g id="graph0" class="graph" transform="scale(1 1) rotate(0) translate(4 651)">
<title>SchemaCrawler_Diagram</title>
<polygon fill="white" stroke="transparent" points="-4,4 -4,-651 763,-651 763,4 -4,4"/>
<text text-anchor="start" x="454" y="-11.3" font-family="Helvetica,sans-Serif" font-weight="bold" font-style="italic" font-size="14.00">Publication: HB&#45;H2&#45;TABLE_PER_CLASS</text>
<polygon fill="none" stroke="#888888" points="451,-4 451,-25 751,-25 751,-4 451,-4"/>
<!-- author_7775551e -->
<g id="node1" class="node">
<title>author_7775551e</title>
<polygon fill="#c2f2da" stroke="transparent" points="9,-109.5 9,-128.5 96,-128.5 96,-109.5 9,-109.5"/>
<text text-anchor="start" x="11" y="-116.3" font-family="Helvetica,sans-Serif" font-weight="bold" font-style="italic" font-size="14.00">author</text>
<polygon fill="#c2f2da" stroke="transparent" points="96,-109.5 96,-128.5 289,-128.5 289,-109.5 96,-109.5"/>
<text text-anchor="start" x="204" y="-115.3" font-family="Helvetica,sans-Serif" font-size="14.00">[base table]</text>
<text text-anchor="start" x="11" y="-97.3" font-family="Helvetica,sans-Serif" font-weight="bold" font-style="italic" font-size="14.00">id</text>
<text text-anchor="start" x="89" y="-96.3" font-family="Helvetica,sans-Serif" font-size="14.00"> </text>
<text text-anchor="start" x="98" y="-96.3" font-family="Helvetica,sans-Serif" font-size="14.00">BIGINT NOT NULL</text>
<text text-anchor="start" x="11" y="-77.3" font-family="Helvetica,sans-Serif" font-size="14.00">first_name</text>
<text text-anchor="start" x="89" y="-77.3" font-family="Helvetica,sans-Serif" font-size="14.00"> </text>
<text text-anchor="start" x="98" y="-77.3" font-family="Helvetica,sans-Serif" font-size="14.00">CHARACTER VARYING(255)</text>
<text text-anchor="start" x="11" y="-58.3" font-family="Helvetica,sans-Serif" font-size="14.00">last_name</text>
<text text-anchor="start" x="89" y="-58.3" font-family="Helvetica,sans-Serif" font-size="14.00"> </text>
<text text-anchor="start" x="98" y="-58.3" font-family="Helvetica,sans-Serif" font-size="14.00">CHARACTER VARYING(255)</text>
<text text-anchor="start" x="11" y="-39.3" font-family="Helvetica,sans-Serif" font-size="14.00">version</text>
<text text-anchor="start" x="89" y="-39.3" font-family="Helvetica,sans-Serif" font-size="14.00"> </text>
<text text-anchor="start" x="98" y="-39.3" font-family="Helvetica,sans-Serif" font-size="14.00">BIGINT</text>
<polygon fill="none" stroke="#888888" points="8,-33 8,-130 290,-130 290,-33 8,-33"/>
</g>
<!-- publication_author_join_b890055e -->
<g id="node2" class="node">
<title>publication_author_join_b890055e</title>
<polygon fill="#c2f2da" stroke="transparent" points="389.5,-129.5 389.5,-148.5 575.5,-148.5 575.5,-129.5 389.5,-129.5"/>
<text text-anchor="start" x="391.5" y="-136.3" font-family="Helvetica,sans-Serif" font-weight="bold" font-style="italic" font-size="14.00">publication_author_join</text>
<polygon fill="#c2f2da" stroke="transparent" points="575.5,-129.5 575.5,-148.5 703.5,-148.5 703.5,-129.5 575.5,-129.5"/>
<text text-anchor="start" x="618.5" y="-135.3" font-family="Helvetica,sans-Serif" font-size="14.00">[base table]</text>
<text text-anchor="start" x="391.5" y="-116.3" font-family="Helvetica,sans-Serif" font-size="14.00">publication_id</text>
<text text-anchor="start" x="530.5" y="-116.3" font-family="Helvetica,sans-Serif" font-size="14.00"> </text>
<text text-anchor="start" x="577.5" y="-116.3" font-family="Helvetica,sans-Serif" font-size="14.00">BIGINT NOT NULL</text>
<text text-anchor="start" x="391.5" y="-97.3" font-family="Helvetica,sans-Serif" font-size="14.00">author_id</text>
<text text-anchor="start" x="530.5" y="-97.3" font-family="Helvetica,sans-Serif" font-size="14.00"> </text>
<text text-anchor="start" x="577.5" y="-97.3" font-family="Helvetica,sans-Serif" font-size="14.00">BIGINT NOT NULL</text>
<polygon fill="none" stroke="#888888" points="388.5,-91 388.5,-150 704.5,-150 704.5,-91 388.5,-91"/>
</g>
<!-- publication_author_join_b890055e&#45;&gt;author_7775551e -->
<g id="edge1" class="edge">
<title>publication_author_join_b890055e:w&#45;&gt;author_7775551e:e</title>
<path fill="none" stroke="black" d="M370.13,-100.5C343.39,-100.5 329.74,-100.5 300.19,-100.5"/>
<polygon fill="black" stroke="black" points="378.5,-100.5 388.5,-105 383.5,-100.5 388.5,-100.5 388.5,-100.5 388.5,-100.5 383.5,-100.5 388.5,-96 378.5,-100.5 378.5,-100.5"/>
<ellipse fill="none" stroke="black" cx="374.5" cy="-100.5" rx="4" ry="4"/>
<polygon fill="black" stroke="black" points="291,-105.5 291,-95.5 293,-95.5 293,-105.5 291,-105.5"/>
<polyline fill="none" stroke="black" points="290,-100.5 295,-100.5 "/>
<polygon fill="black" stroke="black" points="296,-105.5 296,-95.5 298,-95.5 298,-105.5 296,-105.5"/>
<polyline fill="none" stroke="black" points="295,-100.5 300,-100.5 "/>
</g>
<!-- blog_cb766335 -->
<g id="node3" class="node">
<title>blog_cb766335</title>
<polygon fill="#c2f2da" stroke="transparent" points="369.5,-272.5 369.5,-291.5 530.5,-291.5 530.5,-272.5 369.5,-272.5"/>
<text text-anchor="start" x="371.5" y="-279.3" font-family="Helvetica,sans-Serif" font-weight="bold" font-style="italic" font-size="14.00">blog</text>
<polygon fill="#c2f2da" stroke="transparent" points="530.5,-272.5 530.5,-291.5 723.5,-291.5 723.5,-272.5 530.5,-272.5"/>
<text text-anchor="start" x="638.5" y="-278.3" font-family="Helvetica,sans-Serif" font-size="14.00">[base table]</text>
<text text-anchor="start" x="371.5" y="-260.3" font-family="Helvetica,sans-Serif" font-weight="bold" font-style="italic" font-size="14.00">id</text>
<text text-anchor="start" x="523.5" y="-259.3" font-family="Helvetica,sans-Serif" font-size="14.00"> </text>
<text text-anchor="start" x="532.5" y="-259.3" font-family="Helvetica,sans-Serif" font-size="14.00">BIGINT NOT NULL</text>
<text text-anchor="start" x="371.5" y="-240.3" font-family="Helvetica,sans-Serif" font-size="14.00">publishing_date_item</text>
<text text-anchor="start" x="523.5" y="-240.3" font-family="Helvetica,sans-Serif" font-size="14.00"> </text>
<text text-anchor="start" x="532.5" y="-240.3" font-family="Helvetica,sans-Serif" font-size="14.00">TIMESTAMP</text>
<text text-anchor="start" x="371.5" y="-221.3" font-family="Helvetica,sans-Serif" font-size="14.00">title</text>
<text text-anchor="start" x="523.5" y="-221.3" font-family="Helvetica,sans-Serif" font-size="14.00"> </text>
<text text-anchor="start" x="532.5" y="-221.3" font-family="Helvetica,sans-Serif" font-size="14.00">CHARACTER VARYING(255)</text>
<text text-anchor="start" x="371.5" y="-202.3" font-family="Helvetica,sans-Serif" font-size="14.00">version</text>
<text text-anchor="start" x="523.5" y="-202.3" font-family="Helvetica,sans-Serif" font-size="14.00"> </text>
<text text-anchor="start" x="532.5" y="-202.3" font-family="Helvetica,sans-Serif" font-size="14.00">BIGINT</text>
<text text-anchor="start" x="371.5" y="-183.3" font-family="Helvetica,sans-Serif" font-size="14.00">url</text>
<text text-anchor="start" x="523.5" y="-183.3" font-family="Helvetica,sans-Serif" font-size="14.00"> </text>
<text text-anchor="start" x="532.5" y="-183.3" font-family="Helvetica,sans-Serif" font-size="14.00">CHARACTER VARYING(255)</text>
<polygon fill="none" stroke="#888888" points="368.5,-176.5 368.5,-292.5 724.5,-292.5 724.5,-176.5 368.5,-176.5"/>
</g>
<!-- book_cb766e7c -->
<g id="node4" class="node">
<title>book_cb766e7c</title>
<polygon fill="#c2f2da" stroke="transparent" points="369.5,-414.5 369.5,-433.5 530.5,-433.5 530.5,-414.5 369.5,-414.5"/>
<text text-anchor="start" x="371.5" y="-421.3" font-family="Helvetica,sans-Serif" font-weight="bold" font-style="italic" font-size="14.00">book</text>
<polygon fill="#c2f2da" stroke="transparent" points="530.5,-414.5 530.5,-433.5 723.5,-433.5 723.5,-414.5 530.5,-414.5"/>
<text text-anchor="start" x="638.5" y="-420.3" font-family="Helvetica,sans-Serif" font-size="14.00">[base table]</text>
<text text-anchor="start" x="371.5" y="-402.3" font-family="Helvetica,sans-Serif" font-weight="bold" font-style="italic" font-size="14.00">id</text>
<text text-anchor="start" x="523.5" y="-401.3" font-family="Helvetica,sans-Serif" font-size="14.00"> </text>
<text text-anchor="start" x="532.5" y="-401.3" font-family="Helvetica,sans-Serif" font-size="14.00">BIGINT NOT NULL</text>
<text text-anchor="start" x="371.5" y="-382.3" font-family="Helvetica,sans-Serif" font-size="14.00">publishing_date_item</text>
<text text-anchor="start" x="523.5" y="-382.3" font-family="Helvetica,sans-Serif" font-size="14.00"> </text>
<text text-anchor="start" x="532.5" y="-382.3" font-family="Helvetica,sans-Serif" font-size="14.00">TIMESTAMP</text>
<text text-anchor="start" x="371.5" y="-363.3" font-family="Helvetica,sans-Serif" font-size="14.00">title</text>
<text text-anchor="start" x="523.5" y="-363.3" font-family="Helvetica,sans-Serif" font-size="14.00"> </text>
<text text-anchor="start" x="532.5" y="-363.3" font-family="Helvetica,sans-Serif" font-size="14.00">CHARACTER VARYING(255)</text>
<text text-anchor="start" x="371.5" y="-344.3" font-family="Helvetica,sans-Serif" font-size="14.00">version</text>
<text text-anchor="start" x="523.5" y="-344.3" font-family="Helvetica,sans-Serif" font-size="14.00"> </text>
<text text-anchor="start" x="532.5" y="-344.3" font-family="Helvetica,sans-Serif" font-size="14.00">BIGINT</text>
<text text-anchor="start" x="371.5" y="-325.3" font-family="Helvetica,sans-Serif" font-size="14.00">pages</text>
<text text-anchor="start" x="523.5" y="-325.3" font-family="Helvetica,sans-Serif" font-size="14.00"> </text>
<text text-anchor="start" x="532.5" y="-325.3" font-family="Helvetica,sans-Serif" font-size="14.00">INTEGER</text>
<polygon fill="none" stroke="#888888" points="368.5,-318.5 368.5,-434.5 724.5,-434.5 724.5,-318.5 368.5,-318.5"/>
</g>
<!-- publication_8b03d5bf -->
<g id="node5" class="node">
<title>publication_8b03d5bf</title>
<polygon fill="#c2f2da" stroke="transparent" points="369.5,-537.5 369.5,-556.5 530.5,-556.5 530.5,-537.5 369.5,-537.5"/>
<text text-anchor="start" x="371.5" y="-544.3" font-family="Helvetica,sans-Serif" font-weight="bold" font-style="italic" font-size="14.00">publication</text>
<polygon fill="#c2f2da" stroke="transparent" points="530.5,-537.5 530.5,-556.5 723.5,-556.5 723.5,-537.5 530.5,-537.5"/>
<text text-anchor="start" x="638.5" y="-543.3" font-family="Helvetica,sans-Serif" font-size="14.00">[base table]</text>
<text text-anchor="start" x="371.5" y="-525.3" font-family="Helvetica,sans-Serif" font-weight="bold" font-style="italic" font-size="14.00">id</text>
<text text-anchor="start" x="523.5" y="-524.3" font-family="Helvetica,sans-Serif" font-size="14.00"> </text>
<text text-anchor="start" x="532.5" y="-524.3" font-family="Helvetica,sans-Serif" font-size="14.00">BIGINT NOT NULL</text>
<text text-anchor="start" x="371.5" y="-505.3" font-family="Helvetica,sans-Serif" font-size="14.00">publishing_date_item</text>
<text text-anchor="start" x="523.5" y="-505.3" font-family="Helvetica,sans-Serif" font-size="14.00"> </text>
<text text-anchor="start" x="532.5" y="-505.3" font-family="Helvetica,sans-Serif" font-size="14.00">TIMESTAMP</text>
<text text-anchor="start" x="371.5" y="-486.3" font-family="Helvetica,sans-Serif" font-size="14.00">title</text>
<text text-anchor="start" x="523.5" y="-486.3" font-family="Helvetica,sans-Serif" font-size="14.00"> </text>
<text text-anchor="start" x="532.5" y="-486.3" font-family="Helvetica,sans-Serif" font-size="14.00">CHARACTER VARYING(255)</text>
<text text-anchor="start" x="371.5" y="-467.3" font-family="Helvetica,sans-Serif" font-size="14.00">version</text>
<text text-anchor="start" x="523.5" y="-467.3" font-family="Helvetica,sans-Serif" font-size="14.00"> </text>
<text text-anchor="start" x="532.5" y="-467.3" font-family="Helvetica,sans-Serif" font-size="14.00">BIGINT</text>
<polygon fill="none" stroke="#888888" points="368.5,-461 368.5,-558 724.5,-558 724.5,-461 368.5,-461"/>
</g>
<!-- sequences_88e6b465 -->
<g id="node6" class="node">
<title>sequences_88e6b465</title>
<polygon fill="#c2f2da" stroke="transparent" points="343.5,-622.5 343.5,-641.5 482.5,-641.5 482.5,-622.5 343.5,-622.5"/>
<text text-anchor="start" x="345.5" y="-629.3" font-family="Helvetica,sans-Serif" font-weight="bold" font-style="italic" font-size="14.00">sequences</text>
<polygon fill="#c2f2da" stroke="transparent" points="482.5,-622.5 482.5,-641.5 750.5,-641.5 750.5,-622.5 482.5,-622.5"/>
<text text-anchor="start" x="665.5" y="-628.3" font-family="Helvetica,sans-Serif" font-size="14.00">[base table]</text>
<text text-anchor="start" x="345.5" y="-610.3" font-family="Helvetica,sans-Serif" font-weight="bold" font-style="italic" font-size="14.00">sequence_name</text>
<text text-anchor="start" x="475.5" y="-609.3" font-family="Helvetica,sans-Serif" font-size="14.00"> </text>
<text text-anchor="start" x="484.5" y="-609.3" font-family="Helvetica,sans-Serif" font-size="14.00">CHARACTER VARYING(255) NOT NULL</text>
<text text-anchor="start" x="345.5" y="-590.3" font-family="Helvetica,sans-Serif" font-size="14.00">next_val</text>
<text text-anchor="start" x="475.5" y="-590.3" font-family="Helvetica,sans-Serif" font-size="14.00"> </text>
<text text-anchor="start" x="484.5" y="-590.3" font-family="Helvetica,sans-Serif" font-size="14.00">BIGINT</text>
<polygon fill="none" stroke="#888888" points="342,-584 342,-643 751,-643 751,-584 342,-584"/>
</g>
</g>
</svg>
