<?xml version="1.0" encoding="UTF-8" standalone="no"?>
<!DOCTYPE svg PUBLIC "-//W3C//DTD SVG 1.1//EN"
 "http://www.w3.org/Graphics/SVG/1.1/DTD/svg11.dtd">
<!-- Generated by graphviz version 2.43.0 (0)
 -->
<!-- Title: SchemaCrawler_Diagram Pages: 1 -->
<svg width="814pt" height="361pt"
 viewBox="0.00 0.00 814.00 360.50" xmlns="http://www.w3.org/2000/svg" xmlns:xlink="http://www.w3.org/1999/xlink">
<g id="graph0" class="graph" transform="scale(1 1) rotate(0) translate(4 356.5)">
<title>SchemaCrawler_Diagram</title>
<polygon fill="white" stroke="transparent" points="-4,4 -4,-356.5 810,-356.5 810,4 -4,4"/>
<text text-anchor="start" x="529" y="-11.3" font-family="Helvetica,sans-Serif" font-weight="bold" font-style="italic" font-size="14.00">Publication: HB&#45;H2&#45;SINGLE_TABLE</text>
<polygon fill="none" stroke="#888888" points="526,-4 526,-25 798,-25 798,-4 526,-4"/>
<!-- author_7775551e -->
<g id="node1" class="node">
<title>author_7775551e</title>
<polygon fill="#c2f2da" stroke="transparent" points="79,-129 79,-148 166,-148 166,-129 79,-129"/>
<text text-anchor="start" x="81" y="-135.8" font-family="Helvetica,sans-Serif" font-weight="bold" font-style="italic" font-size="14.00">author</text>
<polygon fill="#c2f2da" stroke="transparent" points="166,-129 166,-148 359,-148 359,-129 166,-129"/>
<text text-anchor="start" x="274" y="-134.8" font-family="Helvetica,sans-Serif" font-size="14.00">[base table]</text>
<text text-anchor="start" x="81" y="-116.8" font-family="Helvetica,sans-Serif" font-weight="bold" font-style="italic" font-size="14.00">id</text>
<text text-anchor="start" x="159" y="-115.8" font-family="Helvetica,sans-Serif" font-size="14.00"> </text>
<text text-anchor="start" x="168" y="-115.8" font-family="Helvetica,sans-Serif" font-size="14.00">BIGINT NOT NULL</text>
<text text-anchor="start" x="159" y="-96.8" font-family="Helvetica,sans-Serif" font-size="14.00"> </text>
<text text-anchor="start" x="168" y="-96.8" font-family="Helvetica,sans-Serif" font-size="14.00">auto&#45;incremented</text>
<text text-anchor="start" x="81" y="-77.8" font-family="Helvetica,sans-Serif" font-size="14.00">first_name</text>
<text text-anchor="start" x="159" y="-77.8" font-family="Helvetica,sans-Serif" font-size="14.00"> </text>
<text text-anchor="start" x="168" y="-77.8" font-family="Helvetica,sans-Serif" font-size="14.00">CHARACTER VARYING(255)</text>
<text text-anchor="start" x="81" y="-58.8" font-family="Helvetica,sans-Serif" font-size="14.00">last_name</text>
<text text-anchor="start" x="159" y="-58.8" font-family="Helvetica,sans-Serif" font-size="14.00"> </text>
<text text-anchor="start" x="168" y="-58.8" font-family="Helvetica,sans-Serif" font-size="14.00">CHARACTER VARYING(255)</text>
<text text-anchor="start" x="81" y="-39.8" font-family="Helvetica,sans-Serif" font-size="14.00">version</text>
<text text-anchor="start" x="159" y="-39.8" font-family="Helvetica,sans-Serif" font-size="14.00"> </text>
<text text-anchor="start" x="168" y="-39.8" font-family="Helvetica,sans-Serif" font-size="14.00">BIGINT</text>
<polygon fill="none" stroke="#888888" points="78,-33 78,-149 360,-149 360,-33 78,-33"/>
</g>
<!-- publication_author_join_b890055e -->
<g id="node2" class="node">
<title>publication_author_join_b890055e</title>
<polygon fill="#c2f2da" stroke="transparent" points="483,-229 483,-248 669,-248 669,-229 483,-229"/>
<text text-anchor="start" x="485" y="-235.8" font-family="Helvetica,sans-Serif" font-weight="bold" font-style="italic" font-size="14.00">publication_author_join</text>
<polygon fill="#c2f2da" stroke="transparent" points="669,-229 669,-248 797,-248 797,-229 669,-229"/>
<text text-anchor="start" x="712" y="-234.8" font-family="Helvetica,sans-Serif" font-size="14.00">[base table]</text>
<text text-anchor="start" x="485" y="-215.8" font-family="Helvetica,sans-Serif" font-size="14.00">publication_id</text>
<text text-anchor="start" x="624" y="-215.8" font-family="Helvetica,sans-Serif" font-size="14.00"> </text>
<text text-anchor="start" x="671" y="-215.8" font-family="Helvetica,sans-Serif" font-size="14.00">BIGINT NOT NULL</text>
<text text-anchor="start" x="485" y="-196.8" font-family="Helvetica,sans-Serif" font-size="14.00">author_id</text>
<text text-anchor="start" x="624" y="-196.8" font-family="Helvetica,sans-Serif" font-size="14.00"> </text>
<text text-anchor="start" x="671" y="-196.8" font-family="Helvetica,sans-Serif" font-size="14.00">BIGINT NOT NULL</text>
<polygon fill="none" stroke="#888888" points="482,-190.5 482,-249.5 798,-249.5 798,-190.5 482,-190.5"/>
</g>
<!-- publication_author_join_b890055e&#45;&gt;author_7775551e -->
<g id="edge1" class="edge">
<title>publication_author_join_b890055e:w&#45;&gt;author_7775551e:e</title>
<path fill="none" stroke="black" d="M464.63,-194.14C455.73,-186.26 452.63,-172.08 438,-162 408.61,-141.76 400.77,-123.71 370.25,-120.5"/>
<polygon fill="black" stroke="black" points="472.52,-196.8 480.56,-204.26 477.26,-198.4 482,-200 482,-200 482,-200 477.26,-198.4 483.44,-195.74 472.52,-196.8 472.52,-196.8"/>
<ellipse fill="none" stroke="black" cx="468.73" cy="-195.52" rx="4" ry="4"/>
<polygon fill="black" stroke="black" points="360.75,-125.04 361.24,-115.06 363.24,-115.15 362.75,-125.14 360.75,-125.04"/>
<polyline fill="none" stroke="black" points="360,-120 364.99,-120.25 "/>
<polygon fill="black" stroke="black" points="365.75,-125.29 366.24,-115.3 368.24,-115.4 367.74,-125.39 365.75,-125.29"/>
<polyline fill="none" stroke="black" points="364.99,-120.25 369.99,-120.49 "/>
</g>
<!-- publication_8b03d5bf -->
<g id="node3" class="node">
<title>publication_8b03d5bf</title>
<polygon fill="#c2f2da" stroke="transparent" points="9,-328 9,-347 170,-347 170,-328 9,-328"/>
<text text-anchor="start" x="11" y="-334.8" font-family="Helvetica,sans-Serif" font-weight="bold" font-style="italic" font-size="14.00">publication</text>
<polygon fill="#c2f2da" stroke="transparent" points="170,-328 170,-347 429,-347 429,-328 170,-328"/>
<text text-anchor="start" x="344" y="-333.8" font-family="Helvetica,sans-Serif" font-size="14.00">[base table]</text>
<text text-anchor="start" x="11" y="-314.8" font-family="Helvetica,sans-Serif" font-size="14.00">dtype</text>
<text text-anchor="start" x="163" y="-314.8" font-family="Helvetica,sans-Serif" font-size="14.00"> </text>
<text text-anchor="start" x="172" y="-314.8" font-family="Helvetica,sans-Serif" font-size="14.00">CHARACTER VARYING(31) NOT NULL</text>
<text text-anchor="start" x="11" y="-296.8" font-family="Helvetica,sans-Serif" font-weight="bold" font-style="italic" font-size="14.00">id</text>
<text text-anchor="start" x="163" y="-295.8" font-family="Helvetica,sans-Serif" font-size="14.00"> </text>
<text text-anchor="start" x="172" y="-295.8" font-family="Helvetica,sans-Serif" font-size="14.00">BIGINT NOT NULL</text>
<text text-anchor="start" x="163" y="-276.8" font-family="Helvetica,sans-Serif" font-size="14.00"> </text>
<text text-anchor="start" x="172" y="-276.8" font-family="Helvetica,sans-Serif" font-size="14.00">auto&#45;incremented</text>
<text text-anchor="start" x="11" y="-257.8" font-family="Helvetica,sans-Serif" font-size="14.00">publishing_date_item</text>
<text text-anchor="start" x="163" y="-257.8" font-family="Helvetica,sans-Serif" font-size="14.00"> </text>
<text text-anchor="start" x="172" y="-257.8" font-family="Helvetica,sans-Serif" font-size="14.00">TIMESTAMP</text>
<text text-anchor="start" x="11" y="-238.8" font-family="Helvetica,sans-Serif" font-size="14.00">title</text>
<text text-anchor="start" x="163" y="-238.8" font-family="Helvetica,sans-Serif" font-size="14.00"> </text>
<text text-anchor="start" x="172" y="-238.8" font-family="Helvetica,sans-Serif" font-size="14.00">CHARACTER VARYING(255)</text>
<text text-anchor="start" x="11" y="-219.8" font-family="Helvetica,sans-Serif" font-size="14.00">version</text>
<text text-anchor="start" x="163" y="-219.8" font-family="Helvetica,sans-Serif" font-size="14.00"> </text>
<text text-anchor="start" x="172" y="-219.8" font-family="Helvetica,sans-Serif" font-size="14.00">BIGINT</text>
<text text-anchor="start" x="11" y="-200.8" font-family="Helvetica,sans-Serif" font-size="14.00">url</text>
<text text-anchor="start" x="163" y="-200.8" font-family="Helvetica,sans-Serif" font-size="14.00"> </text>
<text text-anchor="start" x="172" y="-200.8" font-family="Helvetica,sans-Serif" font-size="14.00">CHARACTER VARYING(255)</text>
<text text-anchor="start" x="11" y="-181.8" font-family="Helvetica,sans-Serif" font-size="14.00">pages</text>
<text text-anchor="start" x="163" y="-181.8" font-family="Helvetica,sans-Serif" font-size="14.00"> </text>
<text text-anchor="start" x="172" y="-181.8" font-family="Helvetica,sans-Serif" font-size="14.00">INTEGER</text>
<polygon fill="none" stroke="#888888" points="8,-175.5 8,-348.5 430,-348.5 430,-175.5 8,-175.5"/>
</g>
<!-- publication_author_join_b890055e&#45;&gt;publication_8b03d5bf -->
<g id="edge2" class="edge">
<title>publication_author_join_b890055e:w&#45;&gt;publication_8b03d5bf:e</title>
<path fill="none" stroke="black" d="M465.21,-226.19C450.81,-243.77 461.72,-288.21 440.03,-298.05"/>
<polygon fill="black" stroke="black" points="472.81,-222.94 483.77,-223.14 477.4,-220.97 482,-219 482,-219 482,-219 477.4,-220.97 480.23,-214.86 472.81,-222.94 472.81,-222.94"/>
<ellipse fill="none" stroke="black" cx="469.13" cy="-224.51" rx="4" ry="4"/>
<polygon fill="black" stroke="black" points="431.94,-304.72 430.03,-294.9 431.99,-294.52 433.9,-304.34 431.94,-304.72"/>
<polyline fill="none" stroke="black" points="430,-300 434.91,-299.05 "/>
<polygon fill="black" stroke="black" points="436.84,-303.76 434.94,-293.95 436.9,-293.57 438.81,-303.38 436.84,-303.76"/>
<polyline fill="none" stroke="black" points="434.91,-299.05 439.82,-298.09 "/>
</g>
</g>
</svg>
