<?xml version="1.0" encoding="UTF-8" standalone="no"?>
<!DOCTYPE svg PUBLIC "-//W3C//DTD SVG 1.1//EN"
 "http://www.w3.org/Graphics/SVG/1.1/DTD/svg11.dtd">
<!-- Generated by graphviz version 2.43.0 (0)
 -->
<!-- Title: SchemaCrawler_Diagram Pages: 1 -->
<svg width="748pt" height="310pt"
 viewBox="0.00 0.00 748.00 309.50" xmlns="http://www.w3.org/2000/svg" xmlns:xlink="http://www.w3.org/1999/xlink">
<g id="graph0" class="graph" transform="scale(1 1) rotate(0) translate(4 305.5)">
<title>SchemaCrawler_Diagram</title>
<polygon fill="white" stroke="transparent" points="-4,4 -4,-305.5 744,-305.5 744,4 -4,4"/>
<text text-anchor="start" x="519" y="-11.3" font-family="Helvetica,sans-Serif" font-weight="bold" font-style="italic" font-size="14.00">Publication: HB&#45;H2&#45;JOINED</text>
<polygon fill="none" stroke="#888888" points="516,-4 516,-25 732,-25 732,-4 516,-4"/>
<!-- author_7775551e -->
<g id="node1" class="node">
<title>author_7775551e</title>
<polygon fill="#c2f2da" stroke="transparent" points="46,-271 46,-290 133,-290 133,-271 46,-271"/>
<text text-anchor="start" x="48" y="-277.8" font-family="Helvetica,sans-Serif" font-weight="bold" font-style="italic" font-size="14.00">author</text>
<polygon fill="#c2f2da" stroke="transparent" points="133,-271 133,-290 326,-290 326,-271 133,-271"/>
<text text-anchor="start" x="241" y="-276.8" font-family="Helvetica,sans-Serif" font-size="14.00">[base table]</text>
<text text-anchor="start" x="48" y="-258.8" font-family="Helvetica,sans-Serif" font-weight="bold" font-style="italic" font-size="14.00">id</text>
<text text-anchor="start" x="126" y="-257.8" font-family="Helvetica,sans-Serif" font-size="14.00"> </text>
<text text-anchor="start" x="135" y="-257.8" font-family="Helvetica,sans-Serif" font-size="14.00">BIGINT NOT NULL</text>
<text text-anchor="start" x="126" y="-238.8" font-family="Helvetica,sans-Serif" font-size="14.00"> </text>
<text text-anchor="start" x="135" y="-238.8" font-family="Helvetica,sans-Serif" font-size="14.00">auto&#45;incremented</text>
<text text-anchor="start" x="48" y="-219.8" font-family="Helvetica,sans-Serif" font-size="14.00">first_name</text>
<text text-anchor="start" x="126" y="-219.8" font-family="Helvetica,sans-Serif" font-size="14.00"> </text>
<text text-anchor="start" x="135" y="-219.8" font-family="Helvetica,sans-Serif" font-size="14.00">CHARACTER VARYING(255)</text>
<text text-anchor="start" x="48" y="-200.8" font-family="Helvetica,sans-Serif" font-size="14.00">last_name</text>
<text text-anchor="start" x="126" y="-200.8" font-family="Helvetica,sans-Serif" font-size="14.00"> </text>
<text text-anchor="start" x="135" y="-200.8" font-family="Helvetica,sans-Serif" font-size="14.00">CHARACTER VARYING(255)</text>
<text text-anchor="start" x="48" y="-181.8" font-family="Helvetica,sans-Serif" font-size="14.00">version</text>
<text text-anchor="start" x="126" y="-181.8" font-family="Helvetica,sans-Serif" font-size="14.00"> </text>
<text text-anchor="start" x="135" y="-181.8" font-family="Helvetica,sans-Serif" font-size="14.00">BIGINT</text>
<polygon fill="none" stroke="#888888" points="45,-175 45,-291 327,-291 327,-175 45,-175"/>
</g>
<!-- publication_author_join_b890055e -->
<g id="node2" class="node">
<title>publication_author_join_b890055e</title>
<polygon fill="#c2f2da" stroke="transparent" points="417,-277 417,-296 603,-296 603,-277 417,-277"/>
<text text-anchor="start" x="419" y="-283.8" font-family="Helvetica,sans-Serif" font-weight="bold" font-style="italic" font-size="14.00">publication_author_join</text>
<polygon fill="#c2f2da" stroke="transparent" points="603,-277 603,-296 731,-296 731,-277 603,-277"/>
<text text-anchor="start" x="646" y="-282.8" font-family="Helvetica,sans-Serif" font-size="14.00">[base table]</text>
<text text-anchor="start" x="419" y="-263.8" font-family="Helvetica,sans-Serif" font-size="14.00">publication_id</text>
<text text-anchor="start" x="558" y="-263.8" font-family="Helvetica,sans-Serif" font-size="14.00"> </text>
<text text-anchor="start" x="605" y="-263.8" font-family="Helvetica,sans-Serif" font-size="14.00">BIGINT NOT NULL</text>
<text text-anchor="start" x="419" y="-244.8" font-family="Helvetica,sans-Serif" font-size="14.00">author_id</text>
<text text-anchor="start" x="558" y="-244.8" font-family="Helvetica,sans-Serif" font-size="14.00"> </text>
<text text-anchor="start" x="605" y="-244.8" font-family="Helvetica,sans-Serif" font-size="14.00">BIGINT NOT NULL</text>
<polygon fill="none" stroke="#888888" points="416,-238.5 416,-297.5 732,-297.5 732,-238.5 416,-238.5"/>
</g>
<!-- publication_author_join_b890055e&#45;&gt;author_7775551e -->
<g id="edge1" class="edge">
<title>publication_author_join_b890055e:w&#45;&gt;author_7775551e:e</title>
<path fill="none" stroke="black" d="M397.8,-249.1C374.8,-252.04 362.91,-259.98 337.16,-261.68"/>
<polygon fill="black" stroke="black" points="406.02,-248.6 416.27,-252.49 411.01,-248.3 416,-248 416,-248 416,-248 411.01,-248.3 415.73,-243.51 406.02,-248.6 406.02,-248.6"/>
<ellipse fill="none" stroke="black" cx="402.03" cy="-248.84" rx="4" ry="4"/>
<polygon fill="black" stroke="black" points="328.16,-266.97 327.84,-256.97 329.84,-256.91 330.16,-266.9 328.16,-266.97"/>
<polyline fill="none" stroke="black" points="327,-262 332,-261.84 "/>
<polygon fill="black" stroke="black" points="333.16,-266.81 332.84,-256.81 334.84,-256.75 335.16,-266.74 333.16,-266.81"/>
<polyline fill="none" stroke="black" points="332,-261.84 336.99,-261.68 "/>
</g>
<!-- publication_8b03d5bf -->
<g id="node5" class="node">
<title>publication_8b03d5bf</title>
<polygon fill="#c2f2da" stroke="transparent" points="9,-129 9,-148 170,-148 170,-129 9,-129"/>
<text text-anchor="start" x="11" y="-135.8" font-family="Helvetica,sans-Serif" font-weight="bold" font-style="italic" font-size="14.00">publication</text>
<polygon fill="#c2f2da" stroke="transparent" points="170,-129 170,-148 363,-148 363,-129 170,-129"/>
<text text-anchor="start" x="278" y="-134.8" font-family="Helvetica,sans-Serif" font-size="14.00">[base table]</text>
<text text-anchor="start" x="11" y="-116.8" font-family="Helvetica,sans-Serif" font-weight="bold" font-style="italic" font-size="14.00">id</text>
<text text-anchor="start" x="163" y="-115.8" font-family="Helvetica,sans-Serif" font-size="14.00"> </text>
<text text-anchor="start" x="172" y="-115.8" font-family="Helvetica,sans-Serif" font-size="14.00">BIGINT NOT NULL</text>
<text text-anchor="start" x="163" y="-96.8" font-family="Helvetica,sans-Serif" font-size="14.00"> </text>
<text text-anchor="start" x="172" y="-96.8" font-family="Helvetica,sans-Serif" font-size="14.00">auto&#45;incremented</text>
<text text-anchor="start" x="11" y="-77.8" font-family="Helvetica,sans-Serif" font-size="14.00">publishing_date_item</text>
<text text-anchor="start" x="163" y="-77.8" font-family="Helvetica,sans-Serif" font-size="14.00"> </text>
<text text-anchor="start" x="172" y="-77.8" font-family="Helvetica,sans-Serif" font-size="14.00">TIMESTAMP</text>
<text text-anchor="start" x="11" y="-58.8" font-family="Helvetica,sans-Serif" font-size="14.00">title</text>
<text text-anchor="start" x="163" y="-58.8" font-family="Helvetica,sans-Serif" font-size="14.00"> </text>
<text text-anchor="start" x="172" y="-58.8" font-family="Helvetica,sans-Serif" font-size="14.00">CHARACTER VARYING(255)</text>
<text text-anchor="start" x="11" y="-39.8" font-family="Helvetica,sans-Serif" font-size="14.00">version</text>
<text text-anchor="start" x="163" y="-39.8" font-family="Helvetica,sans-Serif" font-size="14.00"> </text>
<text text-anchor="start" x="172" y="-39.8" font-family="Helvetica,sans-Serif" font-size="14.00">BIGINT</text>
<polygon fill="none" stroke="#888888" points="8,-33 8,-149 364,-149 364,-33 8,-33"/>
</g>
<!-- publication_author_join_b890055e&#45;&gt;publication_8b03d5bf -->
<g id="edge4" class="edge">
<title>publication_author_join_b890055e:w&#45;&gt;publication_8b03d5bf:e</title>
<path fill="none" stroke="black" d="M398.45,-262.11C365.95,-238.2 418.36,-134.22 374.18,-121.32"/>
<polygon fill="black" stroke="black" points="406.37,-264.32 414.79,-271.33 411.18,-265.66 416,-267 416,-267 416,-267 411.18,-265.66 417.21,-262.67 406.37,-264.32 406.37,-264.32"/>
<ellipse fill="none" stroke="black" cx="402.51" cy="-263.24" rx="4" ry="4"/>
<polygon fill="black" stroke="black" points="364.35,-125.09 365.63,-115.17 367.62,-115.43 366.33,-125.34 364.35,-125.09"/>
<polyline fill="none" stroke="black" points="364,-120 368.96,-120.64 "/>
<polygon fill="black" stroke="black" points="369.31,-125.73 370.59,-115.81 372.58,-116.07 371.29,-125.98 369.31,-125.73"/>
<polyline fill="none" stroke="black" points="368.96,-120.64 373.92,-121.28 "/>
</g>
<!-- blog_cb766335 -->
<g id="node3" class="node">
<title>blog_cb766335</title>
<polygon fill="#c2f2da" stroke="transparent" points="459,-79 459,-98 497,-98 497,-79 459,-79"/>
<text text-anchor="start" x="461" y="-85.8" font-family="Helvetica,sans-Serif" font-weight="bold" font-style="italic" font-size="14.00">blog</text>
<polygon fill="#c2f2da" stroke="transparent" points="497,-79 497,-98 690,-98 690,-79 497,-79"/>
<text text-anchor="start" x="605" y="-84.8" font-family="Helvetica,sans-Serif" font-size="14.00">[base table]</text>
<text text-anchor="start" x="461" y="-65.8" font-family="Helvetica,sans-Serif" font-size="14.00">url</text>
<text text-anchor="start" x="487" y="-65.8" font-family="Helvetica,sans-Serif" font-size="14.00"> </text>
<text text-anchor="start" x="499" y="-65.8" font-family="Helvetica,sans-Serif" font-size="14.00">CHARACTER VARYING(255)</text>
<text text-anchor="start" x="461" y="-47.8" font-family="Helvetica,sans-Serif" font-weight="bold" font-style="italic" font-size="14.00">id</text>
<text text-anchor="start" x="487" y="-46.8" font-family="Helvetica,sans-Serif" font-size="14.00"> </text>
<text text-anchor="start" x="499" y="-46.8" font-family="Helvetica,sans-Serif" font-size="14.00">BIGINT NOT NULL</text>
<polygon fill="none" stroke="#888888" points="457.5,-40.5 457.5,-99.5 690.5,-99.5 690.5,-40.5 457.5,-40.5"/>
</g>
<!-- blog_cb766335&#45;&gt;publication_8b03d5bf -->
<g id="edge2" class="edge">
<title>blog_cb766335:w&#45;&gt;publication_8b03d5bf:e</title>
<path fill="none" stroke="black" d="M444.89,-51.73C410.21,-61.67 410.84,-111.3 374.17,-119"/>
<polygon fill="black" stroke="black" points="456.35,-45.17 457.66,-55.09 455.68,-55.35 454.37,-45.44 456.35,-45.17"/>
<polyline fill="none" stroke="black" points="458,-50 453.04,-50.65 "/>
<ellipse fill="none" stroke="black" cx="449.08" cy="-51.18" rx="4" ry="4"/>
<polygon fill="black" stroke="black" points="365.49,-124.88 364.5,-114.93 366.49,-114.73 367.48,-124.68 365.49,-124.88"/>
<polyline fill="none" stroke="black" points="364,-120 368.98,-119.51 "/>
<polygon fill="black" stroke="black" points="370.46,-124.39 369.48,-114.44 371.47,-114.24 372.45,-124.19 370.46,-124.39"/>
<polyline fill="none" stroke="black" points="368.98,-119.51 373.95,-119.02 "/>
</g>
<!-- book_cb766e7c -->
<g id="node4" class="node">
<title>book_cb766e7c</title>
<polygon fill="#c2f2da" stroke="transparent" points="482,-164 482,-183 538,-183 538,-164 482,-164"/>
<text text-anchor="start" x="484" y="-170.8" font-family="Helvetica,sans-Serif" font-weight="bold" font-style="italic" font-size="14.00">book</text>
<polygon fill="#c2f2da" stroke="transparent" points="538,-164 538,-183 666,-183 666,-164 538,-164"/>
<text text-anchor="start" x="581" y="-169.8" font-family="Helvetica,sans-Serif" font-size="14.00">[base table]</text>
<text text-anchor="start" x="484" y="-150.8" font-family="Helvetica,sans-Serif" font-size="14.00">pages</text>
<text text-anchor="start" x="531" y="-150.8" font-family="Helvetica,sans-Serif" font-size="14.00"> </text>
<text text-anchor="start" x="540" y="-150.8" font-family="Helvetica,sans-Serif" font-size="14.00">INTEGER</text>
<text text-anchor="start" x="484" y="-132.8" font-family="Helvetica,sans-Serif" font-weight="bold" font-style="italic" font-size="14.00">id</text>
<text text-anchor="start" x="531" y="-131.8" font-family="Helvetica,sans-Serif" font-size="14.00"> </text>
<text text-anchor="start" x="540" y="-131.8" font-family="Helvetica,sans-Serif" font-size="14.00">BIGINT NOT NULL</text>
<polygon fill="none" stroke="#888888" points="481,-125.5 481,-184.5 667,-184.5 667,-125.5 481,-125.5"/>
</g>
<!-- book_cb766e7c&#45;&gt;publication_8b03d5bf -->
<g id="edge3" class="edge">
<title>book_cb766e7c:w&#45;&gt;publication_8b03d5bf:e</title>
<path fill="none" stroke="black" d="M467.79,-134.66C429.16,-132.59 414,-121.79 374.1,-120.2"/>
<polygon fill="black" stroke="black" points="480.13,-129.98 479.87,-139.97 477.87,-139.92 478.13,-129.92 480.13,-129.98"/>
<polyline fill="none" stroke="black" points="481,-135 476,-134.87 "/>
<ellipse fill="none" stroke="black" cx="472" cy="-134.77" rx="4" ry="4"/>
<polygon fill="black" stroke="black" points="364.9,-125.02 365.1,-115.02 367.1,-115.06 366.9,-125.06 364.9,-125.02"/>
<polyline fill="none" stroke="black" points="364,-120 369,-120.1 "/>
<polygon fill="black" stroke="black" points="369.9,-125.12 370.1,-115.12 372.1,-115.16 371.9,-125.15 369.9,-125.12"/>
<polyline fill="none" stroke="black" points="369,-120.1 374,-120.19 "/>
</g>
</g>
</svg>
