<?xml version="1.0" encoding="UTF-8" standalone="no"?>
<!DOCTYPE svg PUBLIC "-//W3C//DTD SVG 1.1//EN"
 "http://www.w3.org/Graphics/SVG/1.1/DTD/svg11.dtd">
<!-- Generated by graphviz version 2.43.0 (0)
 -->
<!-- Title: SchemaCrawler_Diagram Pages: 1 -->
<svg width="785pt" height="378pt"
 viewBox="0.00 0.00 785.00 378.00" xmlns="http://www.w3.org/2000/svg" xmlns:xlink="http://www.w3.org/1999/xlink">
<g id="graph0" class="graph" transform="scale(1 1) rotate(0) translate(4 374)">
<title>SchemaCrawler_Diagram</title>
<polygon fill="white" stroke="transparent" points="-4,4 -4,-374 781,-374 781,4 -4,4"/>
<text text-anchor="start" x="560" y="-11.3" font-family="Helvetica,sans-Serif" font-weight="bold" font-style="italic" font-size="14.00">Publication: EL&#45;H2&#45;JOINED</text>
<polygon fill="none" stroke="#888888" points="557,-4 557,-25 769,-25 769,-4 557,-4"/>
<!-- author_7775551e -->
<g id="node1" class="node">
<title>author_7775551e</title>
<polygon fill="#c2f2da" stroke="transparent" points="46,-268.5 46,-287.5 133,-287.5 133,-268.5 46,-268.5"/>
<text text-anchor="start" x="48" y="-275.3" font-family="Helvetica,sans-Serif" font-weight="bold" font-style="italic" font-size="14.00">author</text>
<polygon fill="#c2f2da" stroke="transparent" points="133,-268.5 133,-287.5 326,-287.5 326,-268.5 133,-268.5"/>
<text text-anchor="start" x="241" y="-274.3" font-family="Helvetica,sans-Serif" font-size="14.00">[base table]</text>
<text text-anchor="start" x="48" y="-256.3" font-family="Helvetica,sans-Serif" font-weight="bold" font-style="italic" font-size="14.00">id</text>
<text text-anchor="start" x="126" y="-255.3" font-family="Helvetica,sans-Serif" font-size="14.00"> </text>
<text text-anchor="start" x="135" y="-255.3" font-family="Helvetica,sans-Serif" font-size="14.00">BIGINT NOT NULL</text>
<text text-anchor="start" x="48" y="-236.3" font-family="Helvetica,sans-Serif" font-size="14.00">first_name</text>
<text text-anchor="start" x="126" y="-236.3" font-family="Helvetica,sans-Serif" font-size="14.00"> </text>
<text text-anchor="start" x="135" y="-236.3" font-family="Helvetica,sans-Serif" font-size="14.00">CHARACTER VARYING(255)</text>
<text text-anchor="start" x="48" y="-217.3" font-family="Helvetica,sans-Serif" font-size="14.00">last_name</text>
<text text-anchor="start" x="126" y="-217.3" font-family="Helvetica,sans-Serif" font-size="14.00"> </text>
<text text-anchor="start" x="135" y="-217.3" font-family="Helvetica,sans-Serif" font-size="14.00">CHARACTER VARYING(255)</text>
<text text-anchor="start" x="48" y="-198.3" font-family="Helvetica,sans-Serif" font-size="14.00">version</text>
<text text-anchor="start" x="126" y="-198.3" font-family="Helvetica,sans-Serif" font-size="14.00"> </text>
<text text-anchor="start" x="135" y="-198.3" font-family="Helvetica,sans-Serif" font-size="14.00">BIGINT</text>
<polygon fill="none" stroke="#888888" points="45,-192 45,-289 327,-289 327,-192 45,-192"/>
</g>
<!-- publication_author_join_b890055e -->
<g id="node2" class="node">
<title>publication_author_join_b890055e</title>
<polygon fill="#c2f2da" stroke="transparent" points="435.5,-260.5 435.5,-279.5 621.5,-279.5 621.5,-260.5 435.5,-260.5"/>
<text text-anchor="start" x="437.5" y="-267.3" font-family="Helvetica,sans-Serif" font-weight="bold" font-style="italic" font-size="14.00">publication_author_join</text>
<polygon fill="#c2f2da" stroke="transparent" points="621.5,-260.5 621.5,-279.5 749.5,-279.5 749.5,-260.5 621.5,-260.5"/>
<text text-anchor="start" x="664.5" y="-266.3" font-family="Helvetica,sans-Serif" font-size="14.00">[base table]</text>
<text text-anchor="start" x="437.5" y="-248.3" font-family="Helvetica,sans-Serif" font-weight="bold" font-style="italic" font-size="14.00">author_id</text>
<text text-anchor="start" x="582.5" y="-247.3" font-family="Helvetica,sans-Serif" font-size="14.00"> </text>
<text text-anchor="start" x="623.5" y="-247.3" font-family="Helvetica,sans-Serif" font-size="14.00">BIGINT NOT NULL</text>
<text text-anchor="start" x="437.5" y="-229.3" font-family="Helvetica,sans-Serif" font-weight="bold" font-style="italic" font-size="14.00">publication_id</text>
<text text-anchor="start" x="582.5" y="-228.3" font-family="Helvetica,sans-Serif" font-size="14.00"> </text>
<text text-anchor="start" x="623.5" y="-228.3" font-family="Helvetica,sans-Serif" font-size="14.00">BIGINT NOT NULL</text>
<polygon fill="none" stroke="#888888" points="434.5,-222 434.5,-281 750.5,-281 750.5,-222 434.5,-222"/>
</g>
<!-- publication_author_join_b890055e&#45;&gt;author_7775551e -->
<g id="edge1" class="edge">
<title>publication_author_join_b890055e:w&#45;&gt;author_7775551e:e</title>
<path fill="none" stroke="black" d="M416.23,-250.98C385.46,-252.69 370.81,-258.39 337.06,-259.36"/>
<polygon fill="black" stroke="black" points="424.5,-250.76 434.62,-255 429.5,-250.63 434.5,-250.5 434.5,-250.5 434.5,-250.5 429.5,-250.63 434.38,-246 424.5,-250.76 424.5,-250.76"/>
<ellipse fill="none" stroke="black" cx="420.5" cy="-250.87" rx="4" ry="4"/>
<polygon fill="black" stroke="black" points="328.07,-264.49 327.93,-254.49 329.93,-254.46 330.07,-264.46 328.07,-264.49"/>
<polyline fill="none" stroke="black" points="327,-259.5 332,-259.43 "/>
<polygon fill="black" stroke="black" points="333.07,-264.42 332.93,-254.42 334.93,-254.39 335.07,-264.39 333.07,-264.42"/>
<polyline fill="none" stroke="black" points="332,-259.43 337,-259.36 "/>
</g>
<!-- publication_8b03d5bf -->
<g id="node5" class="node">
<title>publication_8b03d5bf</title>
<polygon fill="#c2f2da" stroke="transparent" points="9,-145.5 9,-164.5 170,-164.5 170,-145.5 9,-145.5"/>
<text text-anchor="start" x="11" y="-152.3" font-family="Helvetica,sans-Serif" font-weight="bold" font-style="italic" font-size="14.00">publication</text>
<polygon fill="#c2f2da" stroke="transparent" points="170,-145.5 170,-164.5 363,-164.5 363,-145.5 170,-145.5"/>
<text text-anchor="start" x="278" y="-151.3" font-family="Helvetica,sans-Serif" font-size="14.00">[base table]</text>
<text text-anchor="start" x="11" y="-133.3" font-family="Helvetica,sans-Serif" font-weight="bold" font-style="italic" font-size="14.00">id</text>
<text text-anchor="start" x="163" y="-132.3" font-family="Helvetica,sans-Serif" font-size="14.00"> </text>
<text text-anchor="start" x="172" y="-132.3" font-family="Helvetica,sans-Serif" font-size="14.00">BIGINT NOT NULL</text>
<text text-anchor="start" x="11" y="-113.3" font-family="Helvetica,sans-Serif" font-size="14.00">dtype</text>
<text text-anchor="start" x="163" y="-113.3" font-family="Helvetica,sans-Serif" font-size="14.00"> </text>
<text text-anchor="start" x="172" y="-113.3" font-family="Helvetica,sans-Serif" font-size="14.00">CHARACTER VARYING(31)</text>
<text text-anchor="start" x="11" y="-94.3" font-family="Helvetica,sans-Serif" font-size="14.00">publishing_date_item</text>
<text text-anchor="start" x="163" y="-94.3" font-family="Helvetica,sans-Serif" font-size="14.00"> </text>
<text text-anchor="start" x="172" y="-94.3" font-family="Helvetica,sans-Serif" font-size="14.00">TIMESTAMP</text>
<text text-anchor="start" x="11" y="-75.3" font-family="Helvetica,sans-Serif" font-size="14.00">title</text>
<text text-anchor="start" x="163" y="-75.3" font-family="Helvetica,sans-Serif" font-size="14.00"> </text>
<text text-anchor="start" x="172" y="-75.3" font-family="Helvetica,sans-Serif" font-size="14.00">CHARACTER VARYING(255)</text>
<text text-anchor="start" x="11" y="-56.3" font-family="Helvetica,sans-Serif" font-size="14.00">version</text>
<text text-anchor="start" x="163" y="-56.3" font-family="Helvetica,sans-Serif" font-size="14.00"> </text>
<text text-anchor="start" x="172" y="-56.3" font-family="Helvetica,sans-Serif" font-size="14.00">BIGINT</text>
<polygon fill="none" stroke="#888888" points="8,-49.5 8,-165.5 364,-165.5 364,-49.5 8,-49.5"/>
</g>
<!-- publication_author_join_b890055e&#45;&gt;publication_8b03d5bf -->
<g id="edge4" class="edge">
<title>publication_author_join_b890055e:w&#45;&gt;publication_8b03d5bf:e</title>
<path fill="none" stroke="black" d="M417.01,-226.39C392.27,-208.36 406.22,-148.19 374.29,-137.98"/>
<polygon fill="black" stroke="black" points="424.9,-228.7 433.24,-235.82 429.7,-230.1 434.5,-231.5 434.5,-231.5 434.5,-231.5 429.7,-230.1 435.76,-227.18 424.9,-228.7 424.9,-228.7"/>
<ellipse fill="none" stroke="black" cx="421.06" cy="-227.58" rx="4" ry="4"/>
<polygon fill="black" stroke="black" points="364.28,-141.59 365.7,-131.69 367.68,-131.98 366.26,-141.88 364.28,-141.59"/>
<polyline fill="none" stroke="black" points="364,-136.5 368.95,-137.21 "/>
<polygon fill="black" stroke="black" points="369.23,-142.3 370.65,-132.4 372.63,-132.69 371.21,-142.59 369.23,-142.3"/>
<polyline fill="none" stroke="black" points="368.95,-137.21 373.9,-137.92 "/>
</g>
<!-- blog_cb766335 -->
<g id="node3" class="node">
<title>blog_cb766335</title>
<polygon fill="#c2f2da" stroke="transparent" points="477.5,-156.5 477.5,-175.5 515.5,-175.5 515.5,-156.5 477.5,-156.5"/>
<text text-anchor="start" x="479.5" y="-163.3" font-family="Helvetica,sans-Serif" font-weight="bold" font-style="italic" font-size="14.00">blog</text>
<polygon fill="#c2f2da" stroke="transparent" points="515.5,-156.5 515.5,-175.5 708.5,-175.5 708.5,-156.5 515.5,-156.5"/>
<text text-anchor="start" x="623.5" y="-162.3" font-family="Helvetica,sans-Serif" font-size="14.00">[base table]</text>
<text text-anchor="start" x="479.5" y="-144.3" font-family="Helvetica,sans-Serif" font-weight="bold" font-style="italic" font-size="14.00">id</text>
<text text-anchor="start" x="505.5" y="-143.3" font-family="Helvetica,sans-Serif" font-size="14.00"> </text>
<text text-anchor="start" x="517.5" y="-143.3" font-family="Helvetica,sans-Serif" font-size="14.00">BIGINT NOT NULL</text>
<text text-anchor="start" x="479.5" y="-124.3" font-family="Helvetica,sans-Serif" font-size="14.00">url</text>
<text text-anchor="start" x="505.5" y="-124.3" font-family="Helvetica,sans-Serif" font-size="14.00"> </text>
<text text-anchor="start" x="517.5" y="-124.3" font-family="Helvetica,sans-Serif" font-size="14.00">CHARACTER VARYING(255)</text>
<polygon fill="none" stroke="#888888" points="476,-118 476,-177 709,-177 709,-118 476,-118"/>
</g>
<!-- blog_cb766335&#45;&gt;publication_8b03d5bf -->
<g id="edge2" class="edge">
<title>blog_cb766335:w&#45;&gt;publication_8b03d5bf:e</title>
<path fill="none" stroke="black" d="M463.32,-146.25C426.79,-144.83 411.87,-137.74 374.12,-136.64"/>
<polygon fill="black" stroke="black" points="475.59,-141.48 475.41,-151.48 473.41,-151.44 473.59,-141.44 475.59,-141.48"/>
<polyline fill="none" stroke="black" points="476.5,-146.5 471.5,-146.41 "/>
<ellipse fill="none" stroke="black" cx="467.5" cy="-146.33" rx="4" ry="4"/>
<polygon fill="black" stroke="black" points="364.93,-141.51 365.07,-131.51 367.07,-131.54 366.93,-141.54 364.93,-141.51"/>
<polyline fill="none" stroke="black" points="364,-136.5 369,-136.57 "/>
<polygon fill="black" stroke="black" points="369.93,-141.58 370.07,-131.59 372.07,-131.61 371.93,-141.61 369.93,-141.58"/>
<polyline fill="none" stroke="black" points="369,-136.57 374,-136.64 "/>
</g>
<!-- book_cb766e7c -->
<g id="node4" class="node">
<title>book_cb766e7c</title>
<polygon fill="#c2f2da" stroke="transparent" points="500.5,-71.5 500.5,-90.5 556.5,-90.5 556.5,-71.5 500.5,-71.5"/>
<text text-anchor="start" x="502.5" y="-78.3" font-family="Helvetica,sans-Serif" font-weight="bold" font-style="italic" font-size="14.00">book</text>
<polygon fill="#c2f2da" stroke="transparent" points="556.5,-71.5 556.5,-90.5 684.5,-90.5 684.5,-71.5 556.5,-71.5"/>
<text text-anchor="start" x="599.5" y="-77.3" font-family="Helvetica,sans-Serif" font-size="14.00">[base table]</text>
<text text-anchor="start" x="502.5" y="-59.3" font-family="Helvetica,sans-Serif" font-weight="bold" font-style="italic" font-size="14.00">id</text>
<text text-anchor="start" x="549.5" y="-58.3" font-family="Helvetica,sans-Serif" font-size="14.00"> </text>
<text text-anchor="start" x="558.5" y="-58.3" font-family="Helvetica,sans-Serif" font-size="14.00">BIGINT NOT NULL</text>
<text text-anchor="start" x="502.5" y="-39.3" font-family="Helvetica,sans-Serif" font-size="14.00">pages</text>
<text text-anchor="start" x="549.5" y="-39.3" font-family="Helvetica,sans-Serif" font-size="14.00"> </text>
<text text-anchor="start" x="558.5" y="-39.3" font-family="Helvetica,sans-Serif" font-size="14.00">INTEGER</text>
<polygon fill="none" stroke="#888888" points="499.5,-33 499.5,-92 685.5,-92 685.5,-33 499.5,-33"/>
</g>
<!-- book_cb766e7c&#45;&gt;publication_8b03d5bf -->
<g id="edge3" class="edge">
<title>book_cb766e7c:w&#45;&gt;publication_8b03d5bf:e</title>
<path fill="none" stroke="black" d="M486.44,-62.15C452.56,-65.78 442.6,-84.04 408,-104.5 390.6,-114.79 388.44,-130.24 374.08,-135.03"/>
<polygon fill="black" stroke="black" points="498.25,-56.56 498.75,-66.54 496.75,-66.64 496.25,-56.66 498.25,-56.56"/>
<polyline fill="none" stroke="black" points="499.5,-61.5 494.51,-61.75 "/>
<ellipse fill="none" stroke="black" cx="490.51" cy="-61.95" rx="4" ry="4"/>
<polygon fill="black" stroke="black" points="365.71,-141.3 364.27,-131.41 366.25,-131.12 367.69,-141.01 365.71,-141.3"/>
<polyline fill="none" stroke="black" points="364,-136.5 368.95,-135.78 "/>
<polygon fill="black" stroke="black" points="370.66,-140.58 369.21,-130.69 371.19,-130.4 372.64,-140.29 370.66,-140.58"/>
<polyline fill="none" stroke="black" points="368.95,-135.78 373.9,-135.06 "/>
</g>
<!-- sequences_88e6b465 -->
<g id="node6" class="node">
<title>sequences_88e6b465</title>
<polygon fill="#c2f2da" stroke="transparent" points="417.5,-345.5 417.5,-364.5 509.5,-364.5 509.5,-345.5 417.5,-345.5"/>
<text text-anchor="start" x="419.5" y="-352.3" font-family="Helvetica,sans-Serif" font-weight="bold" font-style="italic" font-size="14.00">sequences</text>
<polygon fill="#c2f2da" stroke="transparent" points="509.5,-345.5 509.5,-364.5 768.5,-364.5 768.5,-345.5 509.5,-345.5"/>
<text text-anchor="start" x="683.5" y="-351.3" font-family="Helvetica,sans-Serif" font-size="14.00">[base table]</text>
<text text-anchor="start" x="419.5" y="-333.3" font-family="Helvetica,sans-Serif" font-weight="bold" font-style="italic" font-size="14.00">seq_name</text>
<text text-anchor="start" x="502.5" y="-332.3" font-family="Helvetica,sans-Serif" font-size="14.00"> </text>
<text text-anchor="start" x="511.5" y="-332.3" font-family="Helvetica,sans-Serif" font-size="14.00">CHARACTER VARYING(50) NOT NULL</text>
<text text-anchor="start" x="419.5" y="-313.3" font-family="Helvetica,sans-Serif" font-size="14.00">seq_next</text>
<text text-anchor="start" x="502.5" y="-313.3" font-family="Helvetica,sans-Serif" font-size="14.00"> </text>
<text text-anchor="start" x="511.5" y="-313.3" font-family="Helvetica,sans-Serif" font-size="14.00">DECIMAL(38, 0)</text>
<polygon fill="none" stroke="#888888" points="416,-307 416,-366 769,-366 769,-307 416,-307"/>
</g>
</g>
</svg>
