<?xml version="1.0" encoding="UTF-8" standalone="no"?>
<!DOCTYPE svg PUBLIC "-//W3C//DTD SVG 1.1//EN"
 "http://www.w3.org/Graphics/SVG/1.1/DTD/svg11.dtd">
<!-- Generated by graphviz version 2.43.0 (0)
 -->
<!-- Title: SchemaCrawler_Diagram Pages: 1 -->
<svg width="675pt" height="323pt"
 viewBox="0.00 0.00 675.00 322.50" xmlns="http://www.w3.org/2000/svg" xmlns:xlink="http://www.w3.org/1999/xlink">
<g id="graph0" class="graph" transform="scale(1 1) rotate(0) translate(4 318.5)">
<title>SchemaCrawler_Diagram</title>
<polygon fill="white" stroke="transparent" points="-4,4 -4,-318.5 671,-318.5 671,4 -4,4"/>
<text text-anchor="start" x="390" y="-11.3" font-family="Helvetica,sans-Serif" font-weight="bold" font-style="italic" font-size="14.00">Publication: HB&#45;PG&#45;SINGLE_TABLE</text>
<polygon fill="none" stroke="#888888" points="387,-4 387,-25 659,-25 659,-4 387,-4"/>
<!-- author_c30dd856 -->
<g id="node1" class="node">
<title>author_c30dd856</title>
<polygon fill="#c2c5f2" stroke="transparent" points="70,-109.5 70,-128.5 157,-128.5 157,-109.5 70,-109.5"/>
<text text-anchor="start" x="72" y="-116.3" font-family="Helvetica,sans-Serif" font-weight="bold" font-style="italic" font-size="14.00">author</text>
<polygon fill="#c2c5f2" stroke="transparent" points="157,-109.5 157,-128.5 252,-128.5 252,-109.5 157,-109.5"/>
<text text-anchor="start" x="204" y="-115.3" font-family="Helvetica,sans-Serif" font-size="14.00">[table]</text>
<text text-anchor="start" x="72" y="-97.3" font-family="Helvetica,sans-Serif" font-weight="bold" font-style="italic" font-size="14.00">id</text>
<text text-anchor="start" x="150" y="-96.3" font-family="Helvetica,sans-Serif" font-size="14.00"> </text>
<text text-anchor="start" x="159" y="-96.3" font-family="Helvetica,sans-Serif" font-size="14.00">int8 not null</text>
<text text-anchor="start" x="72" y="-77.3" font-family="Helvetica,sans-Serif" font-size="14.00">first_name</text>
<text text-anchor="start" x="150" y="-77.3" font-family="Helvetica,sans-Serif" font-size="14.00"> </text>
<text text-anchor="start" x="159" y="-77.3" font-family="Helvetica,sans-Serif" font-size="14.00">varchar(255)</text>
<text text-anchor="start" x="72" y="-58.3" font-family="Helvetica,sans-Serif" font-size="14.00">last_name</text>
<text text-anchor="start" x="150" y="-58.3" font-family="Helvetica,sans-Serif" font-size="14.00"> </text>
<text text-anchor="start" x="159" y="-58.3" font-family="Helvetica,sans-Serif" font-size="14.00">varchar(255)</text>
<text text-anchor="start" x="72" y="-39.3" font-family="Helvetica,sans-Serif" font-size="14.00">version</text>
<text text-anchor="start" x="150" y="-39.3" font-family="Helvetica,sans-Serif" font-size="14.00"> </text>
<text text-anchor="start" x="159" y="-39.3" font-family="Helvetica,sans-Serif" font-size="14.00">int8</text>
<polygon fill="none" stroke="#888888" points="69,-33 69,-130 253,-130 253,-33 69,-33"/>
</g>
<!-- publication_author_join_4288896 -->
<g id="node2" class="node">
<title>publication_author_join_4288896</title>
<polygon fill="#c2c5f2" stroke="transparent" points="375.5,-200.5 375.5,-219.5 561.5,-219.5 561.5,-200.5 375.5,-200.5"/>
<text text-anchor="start" x="377.5" y="-207.3" font-family="Helvetica,sans-Serif" font-weight="bold" font-style="italic" font-size="14.00">publication_author_join</text>
<polygon fill="#c2c5f2" stroke="transparent" points="561.5,-200.5 561.5,-219.5 650.5,-219.5 650.5,-200.5 561.5,-200.5"/>
<text text-anchor="start" x="602.5" y="-206.3" font-family="Helvetica,sans-Serif" font-size="14.00">[table]</text>
<text text-anchor="start" x="377.5" y="-187.3" font-family="Helvetica,sans-Serif" font-size="14.00">publication_id</text>
<text text-anchor="start" x="516.5" y="-187.3" font-family="Helvetica,sans-Serif" font-size="14.00"> </text>
<text text-anchor="start" x="563.5" y="-187.3" font-family="Helvetica,sans-Serif" font-size="14.00">int8 not null</text>
<text text-anchor="start" x="377.5" y="-168.3" font-family="Helvetica,sans-Serif" font-size="14.00">author_id</text>
<text text-anchor="start" x="516.5" y="-168.3" font-family="Helvetica,sans-Serif" font-size="14.00"> </text>
<text text-anchor="start" x="563.5" y="-168.3" font-family="Helvetica,sans-Serif" font-size="14.00">int8 not null</text>
<polygon fill="none" stroke="#888888" points="374,-162 374,-221 651,-221 651,-162 374,-162"/>
</g>
<!-- publication_author_join_4288896&#45;&gt;author_c30dd856 -->
<g id="edge1" class="edge">
<title>publication_author_join_4288896:w&#45;&gt;author_c30dd856:e</title>
<path fill="none" stroke="black" d="M357.12,-166.39C328.44,-152.02 289.62,-111.67 262.94,-102.41"/>
<polygon fill="black" stroke="black" points="364.91,-168.68 373.23,-175.82 369.7,-170.09 374.5,-171.5 374.5,-171.5 374.5,-171.5 369.7,-170.09 375.77,-167.18 364.91,-168.68 364.91,-168.68"/>
<ellipse fill="none" stroke="black" cx="361.07" cy="-167.55" rx="4" ry="4"/>
<polygon fill="black" stroke="black" points="253.04,-105.6 254.93,-95.78 256.89,-96.16 255,-105.98 253.04,-105.6"/>
<polyline fill="none" stroke="black" points="253,-100.5 257.91,-101.44 "/>
<polygon fill="black" stroke="black" points="257.95,-106.54 259.84,-96.72 261.8,-97.1 259.91,-106.92 257.95,-106.54"/>
<polyline fill="none" stroke="black" points="257.91,-101.44 262.82,-102.39 "/>
</g>
<!-- publication_d69c58f7 -->
<g id="node3" class="node">
<title>publication_d69c58f7</title>
<polygon fill="#c2c5f2" stroke="transparent" points="9,-290.5 9,-309.5 170,-309.5 170,-290.5 9,-290.5"/>
<text text-anchor="start" x="11" y="-297.3" font-family="Helvetica,sans-Serif" font-weight="bold" font-style="italic" font-size="14.00">publication</text>
<polygon fill="#c2c5f2" stroke="transparent" points="170,-290.5 170,-309.5 313,-309.5 313,-290.5 170,-290.5"/>
<text text-anchor="start" x="265" y="-296.3" font-family="Helvetica,sans-Serif" font-size="14.00">[table]</text>
<text text-anchor="start" x="11" y="-277.3" font-family="Helvetica,sans-Serif" font-size="14.00">dtype</text>
<text text-anchor="start" x="163" y="-277.3" font-family="Helvetica,sans-Serif" font-size="14.00"> </text>
<text text-anchor="start" x="172" y="-277.3" font-family="Helvetica,sans-Serif" font-size="14.00">varchar(31) not null</text>
<text text-anchor="start" x="11" y="-259.3" font-family="Helvetica,sans-Serif" font-weight="bold" font-style="italic" font-size="14.00">id</text>
<text text-anchor="start" x="163" y="-258.3" font-family="Helvetica,sans-Serif" font-size="14.00"> </text>
<text text-anchor="start" x="172" y="-258.3" font-family="Helvetica,sans-Serif" font-size="14.00">int8 not null</text>
<text text-anchor="start" x="11" y="-239.3" font-family="Helvetica,sans-Serif" font-size="14.00">publishing_date_item</text>
<text text-anchor="start" x="163" y="-239.3" font-family="Helvetica,sans-Serif" font-size="14.00"> </text>
<text text-anchor="start" x="172" y="-239.3" font-family="Helvetica,sans-Serif" font-size="14.00">timestamp</text>
<text text-anchor="start" x="11" y="-220.3" font-family="Helvetica,sans-Serif" font-size="14.00">title</text>
<text text-anchor="start" x="163" y="-220.3" font-family="Helvetica,sans-Serif" font-size="14.00"> </text>
<text text-anchor="start" x="172" y="-220.3" font-family="Helvetica,sans-Serif" font-size="14.00">varchar(255)</text>
<text text-anchor="start" x="11" y="-201.3" font-family="Helvetica,sans-Serif" font-size="14.00">version</text>
<text text-anchor="start" x="163" y="-201.3" font-family="Helvetica,sans-Serif" font-size="14.00"> </text>
<text text-anchor="start" x="172" y="-201.3" font-family="Helvetica,sans-Serif" font-size="14.00">int8</text>
<text text-anchor="start" x="11" y="-182.3" font-family="Helvetica,sans-Serif" font-size="14.00">url</text>
<text text-anchor="start" x="163" y="-182.3" font-family="Helvetica,sans-Serif" font-size="14.00"> </text>
<text text-anchor="start" x="172" y="-182.3" font-family="Helvetica,sans-Serif" font-size="14.00">varchar(255)</text>
<text text-anchor="start" x="11" y="-163.3" font-family="Helvetica,sans-Serif" font-size="14.00">pages</text>
<text text-anchor="start" x="163" y="-163.3" font-family="Helvetica,sans-Serif" font-size="14.00"> </text>
<text text-anchor="start" x="172" y="-163.3" font-family="Helvetica,sans-Serif" font-size="14.00">int4</text>
<polygon fill="none" stroke="#888888" points="8,-156.5 8,-310.5 314,-310.5 314,-156.5 8,-156.5"/>
</g>
<!-- publication_author_join_4288896&#45;&gt;publication_d69c58f7 -->
<g id="edge2" class="edge">
<title>publication_author_join_4288896:w&#45;&gt;publication_d69c58f7:e</title>
<path fill="none" stroke="black" d="M357.5,-196.64C341.01,-212.08 346.52,-251.92 324.08,-260.75"/>
<polygon fill="black" stroke="black" points="365.09,-193.9 376.03,-194.73 369.8,-192.2 374.5,-190.5 374.5,-190.5 374.5,-190.5 369.8,-192.2 372.97,-186.27 365.09,-193.9 365.09,-193.9"/>
<ellipse fill="none" stroke="black" cx="361.33" cy="-195.26" rx="4" ry="4"/>
<polygon fill="black" stroke="black" points="315.84,-267.26 314.13,-257.4 316.1,-257.06 317.81,-266.91 315.84,-267.26"/>
<polyline fill="none" stroke="black" points="314,-262.5 318.93,-261.64 "/>
<polygon fill="black" stroke="black" points="320.77,-266.4 319.06,-256.55 321.03,-256.2 322.74,-266.06 320.77,-266.4"/>
<polyline fill="none" stroke="black" points="318.93,-261.64 323.85,-260.79 "/>
</g>
<!-- sequences_d47f379d -->
<g id="node4" class="node">
<title>sequences_d47f379d</title>
<polygon fill="#c2c5f2" stroke="transparent" points="367.5,-285.5 367.5,-304.5 506.5,-304.5 506.5,-285.5 367.5,-285.5"/>
<text text-anchor="start" x="369.5" y="-292.3" font-family="Helvetica,sans-Serif" font-weight="bold" font-style="italic" font-size="14.00">sequences</text>
<polygon fill="#c2c5f2" stroke="transparent" points="506.5,-285.5 506.5,-304.5 658.5,-304.5 658.5,-285.5 506.5,-285.5"/>
<text text-anchor="start" x="610.5" y="-291.3" font-family="Helvetica,sans-Serif" font-size="14.00">[table]</text>
<text text-anchor="start" x="369.5" y="-273.3" font-family="Helvetica,sans-Serif" font-weight="bold" font-style="italic" font-size="14.00">sequence_name</text>
<text text-anchor="start" x="499.5" y="-272.3" font-family="Helvetica,sans-Serif" font-size="14.00"> </text>
<text text-anchor="start" x="508.5" y="-272.3" font-family="Helvetica,sans-Serif" font-size="14.00">varchar(255) not null</text>
<text text-anchor="start" x="369.5" y="-253.3" font-family="Helvetica,sans-Serif" font-size="14.00">next_val</text>
<text text-anchor="start" x="499.5" y="-253.3" font-family="Helvetica,sans-Serif" font-size="14.00"> </text>
<text text-anchor="start" x="508.5" y="-253.3" font-family="Helvetica,sans-Serif" font-size="14.00">int8</text>
<polygon fill="none" stroke="#888888" points="366,-247 366,-306 659,-306 659,-247 366,-247"/>
</g>
</g>
</svg>
