<?xml version="1.0" encoding="UTF-8" standalone="no"?>
<!DOCTYPE svg PUBLIC "-//W3C//DTD SVG 1.1//EN"
 "http://www.w3.org/Graphics/SVG/1.1/DTD/svg11.dtd">
<!-- Generated by graphviz version 2.43.0 (0)
 -->
<!-- Title: SchemaCrawler_Diagram Pages: 1 -->
<svg width="644pt" height="361pt"
 viewBox="0.00 0.00 644.00 360.50" xmlns="http://www.w3.org/2000/svg" xmlns:xlink="http://www.w3.org/1999/xlink">
<g id="graph0" class="graph" transform="scale(1 1) rotate(0) translate(4 356.5)">
<title>SchemaCrawler_Diagram</title>
<polygon fill="white" stroke="transparent" points="-4,4 -4,-356.5 640,-356.5 640,4 -4,4"/>
<text text-anchor="start" x="363" y="-11.3" font-family="Helvetica,sans-Serif" font-weight="bold" font-style="italic" font-size="14.00">Publication: EL&#45;PG&#45;SINGLE_TABLE</text>
<polygon fill="none" stroke="#888888" points="360,-4 360,-25 628,-25 628,-4 360,-4"/>
<!-- author_c30dd856 -->
<g id="node1" class="node">
<title>author_c30dd856</title>
<polygon fill="#c2c5f2" stroke="transparent" points="46.5,-328.5 46.5,-347.5 133.5,-347.5 133.5,-328.5 46.5,-328.5"/>
<text text-anchor="start" x="48.5" y="-335.3" font-family="Helvetica,sans-Serif" font-weight="bold" font-style="italic" font-size="14.00">author</text>
<polygon fill="#c2c5f2" stroke="transparent" points="133.5,-328.5 133.5,-347.5 261.5,-347.5 261.5,-328.5 133.5,-328.5"/>
<text text-anchor="start" x="213.5" y="-334.3" font-family="Helvetica,sans-Serif" font-size="14.00">[table]</text>
<text text-anchor="start" x="48.5" y="-316.3" font-family="Helvetica,sans-Serif" font-weight="bold" font-style="italic" font-size="14.00">id</text>
<text text-anchor="start" x="126.5" y="-315.3" font-family="Helvetica,sans-Serif" font-size="14.00"> </text>
<text text-anchor="start" x="135.5" y="-315.3" font-family="Helvetica,sans-Serif" font-size="14.00">serial not null</text>
<text text-anchor="start" x="126.5" y="-296.3" font-family="Helvetica,sans-Serif" font-size="14.00"> </text>
<text text-anchor="start" x="135.5" y="-296.3" font-family="Helvetica,sans-Serif" font-size="14.00">auto&#45;incremented</text>
<text text-anchor="start" x="48.5" y="-277.3" font-family="Helvetica,sans-Serif" font-size="14.00">first_name</text>
<text text-anchor="start" x="126.5" y="-277.3" font-family="Helvetica,sans-Serif" font-size="14.00"> </text>
<text text-anchor="start" x="135.5" y="-277.3" font-family="Helvetica,sans-Serif" font-size="14.00">varchar(255)</text>
<text text-anchor="start" x="48.5" y="-258.3" font-family="Helvetica,sans-Serif" font-size="14.00">last_name</text>
<text text-anchor="start" x="126.5" y="-258.3" font-family="Helvetica,sans-Serif" font-size="14.00"> </text>
<text text-anchor="start" x="135.5" y="-258.3" font-family="Helvetica,sans-Serif" font-size="14.00">varchar(255)</text>
<text text-anchor="start" x="48.5" y="-239.3" font-family="Helvetica,sans-Serif" font-size="14.00">version</text>
<text text-anchor="start" x="126.5" y="-239.3" font-family="Helvetica,sans-Serif" font-size="14.00"> </text>
<text text-anchor="start" x="135.5" y="-239.3" font-family="Helvetica,sans-Serif" font-size="14.00">int8</text>
<polygon fill="none" stroke="#888888" points="45,-232.5 45,-348.5 262,-348.5 262,-232.5 45,-232.5"/>
</g>
<!-- publication_author_join_4288896 -->
<g id="node2" class="node">
<title>publication_author_join_4288896</title>
<polygon fill="#c2c5f2" stroke="transparent" points="352.5,-267.5 352.5,-286.5 538.5,-286.5 538.5,-267.5 352.5,-267.5"/>
<text text-anchor="start" x="354.5" y="-274.3" font-family="Helvetica,sans-Serif" font-weight="bold" font-style="italic" font-size="14.00">publication_author_join</text>
<polygon fill="#c2c5f2" stroke="transparent" points="538.5,-267.5 538.5,-286.5 627.5,-286.5 627.5,-267.5 538.5,-267.5"/>
<text text-anchor="start" x="579.5" y="-273.3" font-family="Helvetica,sans-Serif" font-size="14.00">[table]</text>
<text text-anchor="start" x="354.5" y="-255.3" font-family="Helvetica,sans-Serif" font-weight="bold" font-style="italic" font-size="14.00">author_id</text>
<text text-anchor="start" x="499.5" y="-254.3" font-family="Helvetica,sans-Serif" font-size="14.00"> </text>
<text text-anchor="start" x="540.5" y="-254.3" font-family="Helvetica,sans-Serif" font-size="14.00">int8 not null</text>
<text text-anchor="start" x="354.5" y="-236.3" font-family="Helvetica,sans-Serif" font-weight="bold" font-style="italic" font-size="14.00">publication_id</text>
<text text-anchor="start" x="499.5" y="-235.3" font-family="Helvetica,sans-Serif" font-size="14.00"> </text>
<text text-anchor="start" x="540.5" y="-235.3" font-family="Helvetica,sans-Serif" font-size="14.00">int8 not null</text>
<polygon fill="none" stroke="#888888" points="351,-229 351,-288 628,-288 628,-229 351,-229"/>
</g>
<!-- publication_author_join_4288896&#45;&gt;author_c30dd856 -->
<g id="edge1" class="edge">
<title>publication_author_join_4288896:w&#45;&gt;author_c30dd856:e</title>
<path fill="none" stroke="black" d="M333.75,-261.01C306.92,-272.95 304.07,-311.61 272.68,-318.46"/>
<polygon fill="black" stroke="black" points="341.69,-259.44 352.37,-261.91 346.6,-258.47 351.5,-257.5 351.5,-257.5 351.5,-257.5 346.6,-258.47 350.63,-253.09 341.69,-259.44 341.69,-259.44"/>
<ellipse fill="none" stroke="black" cx="337.77" cy="-260.22" rx="4" ry="4"/>
<polygon fill="black" stroke="black" points="264,-324.37 262.99,-314.42 264.98,-314.22 265.99,-324.17 264,-324.37"/>
<polyline fill="none" stroke="black" points="262.5,-319.5 267.47,-318.99 "/>
<polygon fill="black" stroke="black" points="268.98,-323.86 267.96,-313.91 269.95,-313.71 270.97,-323.66 268.98,-323.86"/>
<polyline fill="none" stroke="black" points="267.47,-318.99 272.45,-318.48 "/>
</g>
<!-- publication_d69c58f7 -->
<g id="node3" class="node">
<title>publication_d69c58f7</title>
<polygon fill="#c2c5f2" stroke="transparent" points="9.5,-185.5 9.5,-204.5 170.5,-204.5 170.5,-185.5 9.5,-185.5"/>
<text text-anchor="start" x="11.5" y="-192.3" font-family="Helvetica,sans-Serif" font-weight="bold" font-style="italic" font-size="14.00">publication</text>
<polygon fill="#c2c5f2" stroke="transparent" points="170.5,-185.5 170.5,-204.5 298.5,-204.5 298.5,-185.5 170.5,-185.5"/>
<text text-anchor="start" x="250.5" y="-191.3" font-family="Helvetica,sans-Serif" font-size="14.00">[table]</text>
<text text-anchor="start" x="11.5" y="-173.3" font-family="Helvetica,sans-Serif" font-weight="bold" font-style="italic" font-size="14.00">id</text>
<text text-anchor="start" x="163.5" y="-172.3" font-family="Helvetica,sans-Serif" font-size="14.00"> </text>
<text text-anchor="start" x="172.5" y="-172.3" font-family="Helvetica,sans-Serif" font-size="14.00">serial not null</text>
<text text-anchor="start" x="163.5" y="-153.3" font-family="Helvetica,sans-Serif" font-size="14.00"> </text>
<text text-anchor="start" x="172.5" y="-153.3" font-family="Helvetica,sans-Serif" font-size="14.00">auto&#45;incremented</text>
<text text-anchor="start" x="11.5" y="-134.3" font-family="Helvetica,sans-Serif" font-size="14.00">dtype</text>
<text text-anchor="start" x="163.5" y="-134.3" font-family="Helvetica,sans-Serif" font-size="14.00"> </text>
<text text-anchor="start" x="172.5" y="-134.3" font-family="Helvetica,sans-Serif" font-size="14.00">varchar(31)</text>
<text text-anchor="start" x="11.5" y="-115.3" font-family="Helvetica,sans-Serif" font-size="14.00">publishing_date_item</text>
<text text-anchor="start" x="163.5" y="-115.3" font-family="Helvetica,sans-Serif" font-size="14.00"> </text>
<text text-anchor="start" x="172.5" y="-115.3" font-family="Helvetica,sans-Serif" font-size="14.00">timestamp</text>
<text text-anchor="start" x="11.5" y="-96.3" font-family="Helvetica,sans-Serif" font-size="14.00">title</text>
<text text-anchor="start" x="163.5" y="-96.3" font-family="Helvetica,sans-Serif" font-size="14.00"> </text>
<text text-anchor="start" x="172.5" y="-96.3" font-family="Helvetica,sans-Serif" font-size="14.00">varchar(255)</text>
<text text-anchor="start" x="11.5" y="-77.3" font-family="Helvetica,sans-Serif" font-size="14.00">version</text>
<text text-anchor="start" x="163.5" y="-77.3" font-family="Helvetica,sans-Serif" font-size="14.00"> </text>
<text text-anchor="start" x="172.5" y="-77.3" font-family="Helvetica,sans-Serif" font-size="14.00">int8</text>
<text text-anchor="start" x="11.5" y="-58.3" font-family="Helvetica,sans-Serif" font-size="14.00">url</text>
<text text-anchor="start" x="163.5" y="-58.3" font-family="Helvetica,sans-Serif" font-size="14.00"> </text>
<text text-anchor="start" x="172.5" y="-58.3" font-family="Helvetica,sans-Serif" font-size="14.00">varchar(255)</text>
<text text-anchor="start" x="11.5" y="-39.3" font-family="Helvetica,sans-Serif" font-size="14.00">pages</text>
<text text-anchor="start" x="163.5" y="-39.3" font-family="Helvetica,sans-Serif" font-size="14.00"> </text>
<text text-anchor="start" x="172.5" y="-39.3" font-family="Helvetica,sans-Serif" font-size="14.00">int4</text>
<polygon fill="none" stroke="#888888" points="8,-33 8,-206 299,-206 299,-33 8,-33"/>
</g>
<!-- publication_author_join_4288896&#45;&gt;publication_d69c58f7 -->
<g id="edge2" class="edge">
<title>publication_author_join_4288896:w&#45;&gt;publication_d69c58f7:e</title>
<path fill="none" stroke="black" d="M334.75,-230.9C323.43,-216.67 326.28,-186.72 309.48,-178.58"/>
<polygon fill="black" stroke="black" points="342.39,-234.37 349.64,-242.6 346.95,-236.43 351.5,-238.5 351.5,-238.5 351.5,-238.5 346.95,-236.43 353.36,-234.4 342.39,-234.37 342.39,-234.37"/>
<ellipse fill="none" stroke="black" cx="338.75" cy="-232.71" rx="4" ry="4"/>
<polygon fill="black" stroke="black" points="299.46,-181.6 301.5,-171.81 303.46,-172.22 301.42,-182.01 299.46,-181.6"/>
<polyline fill="none" stroke="black" points="299.5,-176.5 304.39,-177.52 "/>
<polygon fill="black" stroke="black" points="304.35,-182.62 306.39,-172.83 308.35,-173.24 306.31,-183.03 304.35,-182.62"/>
<polyline fill="none" stroke="black" points="304.39,-177.52 309.29,-178.54 "/>
</g>
</g>
</svg>
