<?xml version="1.0" encoding="UTF-8" standalone="no"?>
<!DOCTYPE svg PUBLIC "-//W3C//DTD SVG 1.1//EN"
 "http://www.w3.org/Graphics/SVG/1.1/DTD/svg11.dtd">
<!-- Generated by graphviz version 2.43.0 (0)
 -->
<!-- Title: SchemaCrawler_Diagram Pages: 1 -->
<svg width="860pt" height="323pt"
 viewBox="0.00 0.00 860.00 322.50" xmlns="http://www.w3.org/2000/svg" xmlns:xlink="http://www.w3.org/1999/xlink">
<g id="graph0" class="graph" transform="scale(1 1) rotate(0) translate(4 318.5)">
<title>SchemaCrawler_Diagram</title>
<polygon fill="white" stroke="transparent" points="-4,4 -4,-318.5 856,-318.5 856,4 -4,4"/>
<text text-anchor="start" x="575" y="-11.3" font-family="Helvetica,sans-Serif" font-weight="bold" font-style="italic" font-size="14.00">Publication: HB&#45;H2&#45;SINGLE_TABLE</text>
<polygon fill="none" stroke="#888888" points="572,-4 572,-25 844,-25 844,-4 572,-4"/>
<!-- author_7775551e -->
<g id="node1" class="node">
<title>author_7775551e</title>
<polygon fill="#c2f2da" stroke="transparent" points="79,-109.5 79,-128.5 166,-128.5 166,-109.5 79,-109.5"/>
<text text-anchor="start" x="81" y="-116.3" font-family="Helvetica,sans-Serif" font-weight="bold" font-style="italic" font-size="14.00">author</text>
<polygon fill="#c2f2da" stroke="transparent" points="166,-109.5 166,-128.5 359,-128.5 359,-109.5 166,-109.5"/>
<text text-anchor="start" x="274" y="-115.3" font-family="Helvetica,sans-Serif" font-size="14.00">[base table]</text>
<text text-anchor="start" x="81" y="-97.3" font-family="Helvetica,sans-Serif" font-weight="bold" font-style="italic" font-size="14.00">id</text>
<text text-anchor="start" x="159" y="-96.3" font-family="Helvetica,sans-Serif" font-size="14.00"> </text>
<text text-anchor="start" x="168" y="-96.3" font-family="Helvetica,sans-Serif" font-size="14.00">BIGINT NOT NULL</text>
<text text-anchor="start" x="81" y="-77.3" font-family="Helvetica,sans-Serif" font-size="14.00">first_name</text>
<text text-anchor="start" x="159" y="-77.3" font-family="Helvetica,sans-Serif" font-size="14.00"> </text>
<text text-anchor="start" x="168" y="-77.3" font-family="Helvetica,sans-Serif" font-size="14.00">CHARACTER VARYING(255)</text>
<text text-anchor="start" x="81" y="-58.3" font-family="Helvetica,sans-Serif" font-size="14.00">last_name</text>
<text text-anchor="start" x="159" y="-58.3" font-family="Helvetica,sans-Serif" font-size="14.00"> </text>
<text text-anchor="start" x="168" y="-58.3" font-family="Helvetica,sans-Serif" font-size="14.00">CHARACTER VARYING(255)</text>
<text text-anchor="start" x="81" y="-39.3" font-family="Helvetica,sans-Serif" font-size="14.00">version</text>
<text text-anchor="start" x="159" y="-39.3" font-family="Helvetica,sans-Serif" font-size="14.00"> </text>
<text text-anchor="start" x="168" y="-39.3" font-family="Helvetica,sans-Serif" font-size="14.00">BIGINT</text>
<polygon fill="none" stroke="#888888" points="78,-33 78,-130 360,-130 360,-33 78,-33"/>
</g>
<!-- publication_author_join_b890055e -->
<g id="node2" class="node">
<title>publication_author_join_b890055e</title>
<polygon fill="#c2f2da" stroke="transparent" points="506,-200.5 506,-219.5 692,-219.5 692,-200.5 506,-200.5"/>
<text text-anchor="start" x="508" y="-207.3" font-family="Helvetica,sans-Serif" font-weight="bold" font-style="italic" font-size="14.00">publication_author_join</text>
<polygon fill="#c2f2da" stroke="transparent" points="692,-200.5 692,-219.5 820,-219.5 820,-200.5 692,-200.5"/>
<text text-anchor="start" x="735" y="-206.3" font-family="Helvetica,sans-Serif" font-size="14.00">[base table]</text>
<text text-anchor="start" x="508" y="-187.3" font-family="Helvetica,sans-Serif" font-size="14.00">publication_id</text>
<text text-anchor="start" x="647" y="-187.3" font-family="Helvetica,sans-Serif" font-size="14.00"> </text>
<text text-anchor="start" x="694" y="-187.3" font-family="Helvetica,sans-Serif" font-size="14.00">BIGINT NOT NULL</text>
<text text-anchor="start" x="508" y="-168.3" font-family="Helvetica,sans-Serif" font-size="14.00">author_id</text>
<text text-anchor="start" x="647" y="-168.3" font-family="Helvetica,sans-Serif" font-size="14.00"> </text>
<text text-anchor="start" x="694" y="-168.3" font-family="Helvetica,sans-Serif" font-size="14.00">BIGINT NOT NULL</text>
<polygon fill="none" stroke="#888888" points="505,-162 505,-221 821,-221 821,-162 505,-162"/>
</g>
<!-- publication_author_join_b890055e&#45;&gt;author_7775551e -->
<g id="edge1" class="edge">
<title>publication_author_join_b890055e:w&#45;&gt;author_7775551e:e</title>
<path fill="none" stroke="black" d="M486.91,-169.81C435.36,-159.65 426.1,-106.76 370.19,-101.01"/>
<polygon fill="black" stroke="black" points="495.04,-170.57 504.58,-175.98 500.02,-171.04 505,-171.5 505,-171.5 505,-171.5 500.02,-171.04 505.42,-167.02 495.04,-170.57 495.04,-170.57"/>
<ellipse fill="none" stroke="black" cx="491.06" cy="-170.2" rx="4" ry="4"/>
<polygon fill="black" stroke="black" points="360.75,-105.54 361.25,-95.56 363.25,-95.66 362.75,-105.64 360.75,-105.54"/>
<polyline fill="none" stroke="black" points="360,-100.5 364.99,-100.75 "/>
<polygon fill="black" stroke="black" points="365.74,-105.79 366.24,-95.81 368.24,-95.9 367.74,-105.89 365.74,-105.79"/>
<polyline fill="none" stroke="black" points="364.99,-100.75 369.99,-101 "/>
</g>
<!-- publication_8b03d5bf -->
<g id="node3" class="node">
<title>publication_8b03d5bf</title>
<polygon fill="#c2f2da" stroke="transparent" points="9,-290.5 9,-309.5 170,-309.5 170,-290.5 9,-290.5"/>
<text text-anchor="start" x="11" y="-297.3" font-family="Helvetica,sans-Serif" font-weight="bold" font-style="italic" font-size="14.00">publication</text>
<polygon fill="#c2f2da" stroke="transparent" points="170,-290.5 170,-309.5 429,-309.5 429,-290.5 170,-290.5"/>
<text text-anchor="start" x="344" y="-296.3" font-family="Helvetica,sans-Serif" font-size="14.00">[base table]</text>
<text text-anchor="start" x="11" y="-277.3" font-family="Helvetica,sans-Serif" font-size="14.00">dtype</text>
<text text-anchor="start" x="163" y="-277.3" font-family="Helvetica,sans-Serif" font-size="14.00"> </text>
<text text-anchor="start" x="172" y="-277.3" font-family="Helvetica,sans-Serif" font-size="14.00">CHARACTER VARYING(31) NOT NULL</text>
<text text-anchor="start" x="11" y="-259.3" font-family="Helvetica,sans-Serif" font-weight="bold" font-style="italic" font-size="14.00">id</text>
<text text-anchor="start" x="163" y="-258.3" font-family="Helvetica,sans-Serif" font-size="14.00"> </text>
<text text-anchor="start" x="172" y="-258.3" font-family="Helvetica,sans-Serif" font-size="14.00">BIGINT NOT NULL</text>
<text text-anchor="start" x="11" y="-239.3" font-family="Helvetica,sans-Serif" font-size="14.00">publishing_date_item</text>
<text text-anchor="start" x="163" y="-239.3" font-family="Helvetica,sans-Serif" font-size="14.00"> </text>
<text text-anchor="start" x="172" y="-239.3" font-family="Helvetica,sans-Serif" font-size="14.00">TIMESTAMP</text>
<text text-anchor="start" x="11" y="-220.3" font-family="Helvetica,sans-Serif" font-size="14.00">title</text>
<text text-anchor="start" x="163" y="-220.3" font-family="Helvetica,sans-Serif" font-size="14.00"> </text>
<text text-anchor="start" x="172" y="-220.3" font-family="Helvetica,sans-Serif" font-size="14.00">CHARACTER VARYING(255)</text>
<text text-anchor="start" x="11" y="-201.3" font-family="Helvetica,sans-Serif" font-size="14.00">version</text>
<text text-anchor="start" x="163" y="-201.3" font-family="Helvetica,sans-Serif" font-size="14.00"> </text>
<text text-anchor="start" x="172" y="-201.3" font-family="Helvetica,sans-Serif" font-size="14.00">BIGINT</text>
<text text-anchor="start" x="11" y="-182.3" font-family="Helvetica,sans-Serif" font-size="14.00">url</text>
<text text-anchor="start" x="163" y="-182.3" font-family="Helvetica,sans-Serif" font-size="14.00"> </text>
<text text-anchor="start" x="172" y="-182.3" font-family="Helvetica,sans-Serif" font-size="14.00">CHARACTER VARYING(255)</text>
<text text-anchor="start" x="11" y="-163.3" font-family="Helvetica,sans-Serif" font-size="14.00">pages</text>
<text text-anchor="start" x="163" y="-163.3" font-family="Helvetica,sans-Serif" font-size="14.00"> </text>
<text text-anchor="start" x="172" y="-163.3" font-family="Helvetica,sans-Serif" font-size="14.00">INTEGER</text>
<polygon fill="none" stroke="#888888" points="8,-156.5 8,-310.5 430,-310.5 430,-156.5 8,-156.5"/>
</g>
<!-- publication_author_join_b890055e&#45;&gt;publication_8b03d5bf -->
<g id="edge2" class="edge">
<title>publication_author_join_b890055e:w&#45;&gt;publication_8b03d5bf:e</title>
<path fill="none" stroke="black" d="M487.51,-195.22C465.11,-209.68 468.05,-252.82 440.2,-261.11"/>
<polygon fill="black" stroke="black" points="495.35,-193.11 506.17,-194.84 500.17,-191.8 505,-190.5 505,-190.5 505,-190.5 500.17,-191.8 503.83,-186.16 495.35,-193.11 495.35,-193.11"/>
<ellipse fill="none" stroke="black" cx="491.48" cy="-194.15" rx="4" ry="4"/>
<polygon fill="black" stroke="black" points="431.66,-267.32 430.32,-257.41 432.3,-257.14 433.65,-267.05 431.66,-267.32"/>
<polyline fill="none" stroke="black" points="430,-262.5 434.95,-261.83 "/>
<polygon fill="black" stroke="black" points="436.62,-266.65 435.27,-256.74 437.25,-256.47 438.6,-266.38 436.62,-266.65"/>
<polyline fill="none" stroke="black" points="434.95,-261.83 439.91,-261.15 "/>
</g>
<!-- sequences_88e6b465 -->
<g id="node4" class="node">
<title>sequences_88e6b465</title>
<polygon fill="#c2f2da" stroke="transparent" points="483,-285.5 483,-304.5 575,-304.5 575,-285.5 483,-285.5"/>
<text text-anchor="start" x="485" y="-292.3" font-family="Helvetica,sans-Serif" font-weight="bold" font-style="italic" font-size="14.00">sequences</text>
<polygon fill="#c2f2da" stroke="transparent" points="575,-285.5 575,-304.5 843,-304.5 843,-285.5 575,-285.5"/>
<text text-anchor="start" x="758" y="-291.3" font-family="Helvetica,sans-Serif" font-size="14.00">[base table]</text>
<text text-anchor="start" x="485" y="-273.3" font-family="Helvetica,sans-Serif" font-weight="bold" font-style="italic" font-size="14.00">seq_name</text>
<text text-anchor="start" x="568" y="-272.3" font-family="Helvetica,sans-Serif" font-size="14.00"> </text>
<text text-anchor="start" x="577" y="-272.3" font-family="Helvetica,sans-Serif" font-size="14.00">CHARACTER VARYING(255) NOT NULL</text>
<text text-anchor="start" x="485" y="-253.3" font-family="Helvetica,sans-Serif" font-size="14.00">seq_next</text>
<text text-anchor="start" x="568" y="-253.3" font-family="Helvetica,sans-Serif" font-size="14.00"> </text>
<text text-anchor="start" x="577" y="-253.3" font-family="Helvetica,sans-Serif" font-size="14.00">BIGINT</text>
<polygon fill="none" stroke="#888888" points="482,-247 482,-306 844,-306 844,-247 482,-247"/>
</g>
</g>
</svg>
