<?xml version="1.0" encoding="UTF-8" standalone="no"?>
<!DOCTYPE svg PUBLIC "-//W3C//DTD SVG 1.1//EN"
 "http://www.w3.org/Graphics/SVG/1.1/DTD/svg11.dtd">
<!-- Generated by graphviz version 2.43.0 (0)
 -->
<!-- Title: SchemaCrawler_Diagram Pages: 1 -->
<svg width="785pt" height="366pt"
 viewBox="0.00 0.00 785.00 365.50" xmlns="http://www.w3.org/2000/svg" xmlns:xlink="http://www.w3.org/1999/xlink">
<g id="graph0" class="graph" transform="scale(1 1) rotate(0) translate(4 361.5)">
<title>SchemaCrawler_Diagram</title>
<polygon fill="white" stroke="transparent" points="-4,4 -4,-361.5 781,-361.5 781,4 -4,4"/>
<text text-anchor="start" x="504" y="-11.3" font-family="Helvetica,sans-Serif" font-weight="bold" font-style="italic" font-size="14.00">Publication: EL&#45;H2&#45;SINGLE_TABLE</text>
<polygon fill="none" stroke="#888888" points="501,-4 501,-25 769,-25 769,-4 501,-4"/>
<!-- author_7775551e -->
<g id="node1" class="node">
<title>author_7775551e</title>
<polygon fill="#c2f2da" stroke="transparent" points="46,-309 46,-328 133,-328 133,-309 46,-309"/>
<text text-anchor="start" x="48" y="-315.8" font-family="Helvetica,sans-Serif" font-weight="bold" font-style="italic" font-size="14.00">author</text>
<polygon fill="#c2f2da" stroke="transparent" points="133,-309 133,-328 326,-328 326,-309 133,-309"/>
<text text-anchor="start" x="241" y="-314.8" font-family="Helvetica,sans-Serif" font-size="14.00">[base table]</text>
<text text-anchor="start" x="48" y="-296.8" font-family="Helvetica,sans-Serif" font-weight="bold" font-style="italic" font-size="14.00">id</text>
<text text-anchor="start" x="126" y="-295.8" font-family="Helvetica,sans-Serif" font-size="14.00"> </text>
<text text-anchor="start" x="135" y="-295.8" font-family="Helvetica,sans-Serif" font-size="14.00">BIGINT NOT NULL</text>
<text text-anchor="start" x="48" y="-276.8" font-family="Helvetica,sans-Serif" font-size="14.00">dtype</text>
<text text-anchor="start" x="126" y="-276.8" font-family="Helvetica,sans-Serif" font-size="14.00"> </text>
<text text-anchor="start" x="135" y="-276.8" font-family="Helvetica,sans-Serif" font-size="14.00">CHARACTER VARYING(31)</text>
<text text-anchor="start" x="48" y="-257.8" font-family="Helvetica,sans-Serif" font-size="14.00">first_name</text>
<text text-anchor="start" x="126" y="-257.8" font-family="Helvetica,sans-Serif" font-size="14.00"> </text>
<text text-anchor="start" x="135" y="-257.8" font-family="Helvetica,sans-Serif" font-size="14.00">CHARACTER VARYING(255)</text>
<text text-anchor="start" x="48" y="-238.8" font-family="Helvetica,sans-Serif" font-size="14.00">last_name</text>
<text text-anchor="start" x="126" y="-238.8" font-family="Helvetica,sans-Serif" font-size="14.00"> </text>
<text text-anchor="start" x="135" y="-238.8" font-family="Helvetica,sans-Serif" font-size="14.00">CHARACTER VARYING(255)</text>
<text text-anchor="start" x="48" y="-219.8" font-family="Helvetica,sans-Serif" font-size="14.00">version</text>
<text text-anchor="start" x="126" y="-219.8" font-family="Helvetica,sans-Serif" font-size="14.00"> </text>
<text text-anchor="start" x="135" y="-219.8" font-family="Helvetica,sans-Serif" font-size="14.00">BIGINT</text>
<polygon fill="none" stroke="#888888" points="45,-213 45,-329 327,-329 327,-213 45,-213"/>
</g>
<!-- publication_author_join_b890055e -->
<g id="node2" class="node">
<title>publication_author_join_b890055e</title>
<polygon fill="#c2f2da" stroke="transparent" points="435.5,-248 435.5,-267 621.5,-267 621.5,-248 435.5,-248"/>
<text text-anchor="start" x="437.5" y="-254.8" font-family="Helvetica,sans-Serif" font-weight="bold" font-style="italic" font-size="14.00">publication_author_join</text>
<polygon fill="#c2f2da" stroke="transparent" points="621.5,-248 621.5,-267 749.5,-267 749.5,-248 621.5,-248"/>
<text text-anchor="start" x="664.5" y="-253.8" font-family="Helvetica,sans-Serif" font-size="14.00">[base table]</text>
<text text-anchor="start" x="437.5" y="-235.8" font-family="Helvetica,sans-Serif" font-weight="bold" font-style="italic" font-size="14.00">author_id</text>
<text text-anchor="start" x="582.5" y="-234.8" font-family="Helvetica,sans-Serif" font-size="14.00"> </text>
<text text-anchor="start" x="623.5" y="-234.8" font-family="Helvetica,sans-Serif" font-size="14.00">BIGINT NOT NULL</text>
<text text-anchor="start" x="437.5" y="-216.8" font-family="Helvetica,sans-Serif" font-weight="bold" font-style="italic" font-size="14.00">publication_id</text>
<text text-anchor="start" x="582.5" y="-215.8" font-family="Helvetica,sans-Serif" font-size="14.00"> </text>
<text text-anchor="start" x="623.5" y="-215.8" font-family="Helvetica,sans-Serif" font-size="14.00">BIGINT NOT NULL</text>
<polygon fill="none" stroke="#888888" points="434.5,-209.5 434.5,-268.5 750.5,-268.5 750.5,-209.5 434.5,-209.5"/>
</g>
<!-- publication_author_join_b890055e&#45;&gt;author_7775551e -->
<g id="edge1" class="edge">
<title>publication_author_join_b890055e:w&#45;&gt;author_7775551e:e</title>
<path fill="none" stroke="black" d="M416.56,-240.59C381.93,-251.45 376.12,-293.12 337.06,-299.25"/>
<polygon fill="black" stroke="black" points="424.6,-239.43 435.14,-242.45 429.55,-238.71 434.5,-238 434.5,-238 434.5,-238 429.55,-238.71 433.86,-233.55 424.6,-239.43 424.6,-239.43"/>
<ellipse fill="none" stroke="black" cx="420.64" cy="-240" rx="4" ry="4"/>
<polygon fill="black" stroke="black" points="328.37,-304.91 327.62,-294.94 329.62,-294.79 330.37,-304.76 328.37,-304.91"/>
<polyline fill="none" stroke="black" points="327,-300 331.99,-299.63 "/>
<polygon fill="black" stroke="black" points="333.36,-304.54 332.61,-294.57 334.6,-294.42 335.35,-304.39 333.36,-304.54"/>
<polyline fill="none" stroke="black" points="331.99,-299.63 336.97,-299.25 "/>
</g>
<!-- publication_8b03d5bf -->
<g id="node3" class="node">
<title>publication_8b03d5bf</title>
<polygon fill="#c2f2da" stroke="transparent" points="9,-167 9,-186 170,-186 170,-167 9,-167"/>
<text text-anchor="start" x="11" y="-173.8" font-family="Helvetica,sans-Serif" font-weight="bold" font-style="italic" font-size="14.00">publication</text>
<polygon fill="#c2f2da" stroke="transparent" points="170,-167 170,-186 363,-186 363,-167 170,-167"/>
<text text-anchor="start" x="278" y="-172.8" font-family="Helvetica,sans-Serif" font-size="14.00">[base table]</text>
<text text-anchor="start" x="11" y="-154.8" font-family="Helvetica,sans-Serif" font-weight="bold" font-style="italic" font-size="14.00">id</text>
<text text-anchor="start" x="163" y="-153.8" font-family="Helvetica,sans-Serif" font-size="14.00"> </text>
<text text-anchor="start" x="172" y="-153.8" font-family="Helvetica,sans-Serif" font-size="14.00">BIGINT NOT NULL</text>
<text text-anchor="start" x="11" y="-134.8" font-family="Helvetica,sans-Serif" font-size="14.00">dtype</text>
<text text-anchor="start" x="163" y="-134.8" font-family="Helvetica,sans-Serif" font-size="14.00"> </text>
<text text-anchor="start" x="172" y="-134.8" font-family="Helvetica,sans-Serif" font-size="14.00">CHARACTER VARYING(31)</text>
<text text-anchor="start" x="11" y="-115.8" font-family="Helvetica,sans-Serif" font-size="14.00">publishing_date_item</text>
<text text-anchor="start" x="163" y="-115.8" font-family="Helvetica,sans-Serif" font-size="14.00"> </text>
<text text-anchor="start" x="172" y="-115.8" font-family="Helvetica,sans-Serif" font-size="14.00">TIMESTAMP</text>
<text text-anchor="start" x="11" y="-96.8" font-family="Helvetica,sans-Serif" font-size="14.00">title</text>
<text text-anchor="start" x="163" y="-96.8" font-family="Helvetica,sans-Serif" font-size="14.00"> </text>
<text text-anchor="start" x="172" y="-96.8" font-family="Helvetica,sans-Serif" font-size="14.00">CHARACTER VARYING(255)</text>
<text text-anchor="start" x="11" y="-77.8" font-family="Helvetica,sans-Serif" font-size="14.00">version</text>
<text text-anchor="start" x="163" y="-77.8" font-family="Helvetica,sans-Serif" font-size="14.00"> </text>
<text text-anchor="start" x="172" y="-77.8" font-family="Helvetica,sans-Serif" font-size="14.00">BIGINT</text>
<text text-anchor="start" x="11" y="-58.8" font-family="Helvetica,sans-Serif" font-size="14.00">url</text>
<text text-anchor="start" x="163" y="-58.8" font-family="Helvetica,sans-Serif" font-size="14.00"> </text>
<text text-anchor="start" x="172" y="-58.8" font-family="Helvetica,sans-Serif" font-size="14.00">CHARACTER VARYING(255)</text>
<text text-anchor="start" x="11" y="-39.8" font-family="Helvetica,sans-Serif" font-size="14.00">pages</text>
<text text-anchor="start" x="163" y="-39.8" font-family="Helvetica,sans-Serif" font-size="14.00"> </text>
<text text-anchor="start" x="172" y="-39.8" font-family="Helvetica,sans-Serif" font-size="14.00">INTEGER</text>
<polygon fill="none" stroke="#888888" points="8,-33 8,-187 364,-187 364,-33 8,-33"/>
</g>
<!-- publication_author_join_b890055e&#45;&gt;publication_8b03d5bf -->
<g id="edge2" class="edge">
<title>publication_author_join_b890055e:w&#45;&gt;publication_8b03d5bf:e</title>
<path fill="none" stroke="black" d="M417.05,-214.01C398.08,-201.03 397.91,-166.74 373.97,-159.4"/>
<polygon fill="black" stroke="black" points="424.89,-216.25 433.26,-223.33 429.69,-217.62 434.5,-219 434.5,-219 434.5,-219 429.69,-217.62 435.74,-214.67 424.89,-216.25 424.89,-216.25"/>
<ellipse fill="none" stroke="black" cx="421.04" cy="-215.15" rx="4" ry="4"/>
<polygon fill="black" stroke="black" points="364.3,-163.09 365.68,-153.19 367.67,-153.46 366.28,-163.37 364.3,-163.09"/>
<polyline fill="none" stroke="black" points="364,-158 368.95,-158.69 "/>
<polygon fill="black" stroke="black" points="369.25,-163.78 370.64,-153.88 372.62,-154.16 371.23,-164.06 369.25,-163.78"/>
<polyline fill="none" stroke="black" points="368.95,-158.69 373.9,-159.39 "/>
</g>
<!-- sequences_88e6b465 -->
<g id="node4" class="node">
<title>sequences_88e6b465</title>
<polygon fill="#c2f2da" stroke="transparent" points="417.5,-333 417.5,-352 509.5,-352 509.5,-333 417.5,-333"/>
<text text-anchor="start" x="419.5" y="-339.8" font-family="Helvetica,sans-Serif" font-weight="bold" font-style="italic" font-size="14.00">sequences</text>
<polygon fill="#c2f2da" stroke="transparent" points="509.5,-333 509.5,-352 768.5,-352 768.5,-333 509.5,-333"/>
<text text-anchor="start" x="683.5" y="-338.8" font-family="Helvetica,sans-Serif" font-size="14.00">[base table]</text>
<text text-anchor="start" x="419.5" y="-320.8" font-family="Helvetica,sans-Serif" font-weight="bold" font-style="italic" font-size="14.00">seq_name</text>
<text text-anchor="start" x="502.5" y="-319.8" font-family="Helvetica,sans-Serif" font-size="14.00"> </text>
<text text-anchor="start" x="511.5" y="-319.8" font-family="Helvetica,sans-Serif" font-size="14.00">CHARACTER VARYING(50) NOT NULL</text>
<text text-anchor="start" x="419.5" y="-300.8" font-family="Helvetica,sans-Serif" font-size="14.00">seq_count</text>
<text text-anchor="start" x="502.5" y="-300.8" font-family="Helvetica,sans-Serif" font-size="14.00"> </text>
<text text-anchor="start" x="511.5" y="-300.8" font-family="Helvetica,sans-Serif" font-size="14.00">DECIMAL(38, 0)</text>
<polygon fill="none" stroke="#888888" points="416,-294.5 416,-353.5 769,-353.5 769,-294.5 416,-294.5"/>
</g>
</g>
</svg>
