<?xml version="1.0" encoding="UTF-8" standalone="no"?>
<!DOCTYPE svg PUBLIC "-//W3C//DTD SVG 1.1//EN"
 "http://www.w3.org/Graphics/SVG/1.1/DTD/svg11.dtd">
<!-- Generated by graphviz version 2.43.0 (0)
 -->
<!-- Title: SchemaCrawler_Diagram Pages: 1 -->
<svg width="644pt" height="310pt"
 viewBox="0.00 0.00 644.00 309.50" xmlns="http://www.w3.org/2000/svg" xmlns:xlink="http://www.w3.org/1999/xlink">
<g id="graph0" class="graph" transform="scale(1 1) rotate(0) translate(4 305.5)">
<title>SchemaCrawler_Diagram</title>
<polygon fill="white" stroke="transparent" points="-4,4 -4,-305.5 640,-305.5 640,4 -4,4"/>
<text text-anchor="start" x="415" y="-11.3" font-family="Helvetica,sans-Serif" font-weight="bold" font-style="italic" font-size="14.00">Publication: HB&#45;PG&#45;JOINED</text>
<polygon fill="none" stroke="#888888" points="412,-4 412,-25 628,-25 628,-4 412,-4"/>
<!-- author_c30dd856 -->
<g id="node1" class="node">
<title>author_c30dd856</title>
<polygon fill="#c2c5f2" stroke="transparent" points="46.5,-271 46.5,-290 133.5,-290 133.5,-271 46.5,-271"/>
<text text-anchor="start" x="48.5" y="-277.8" font-family="Helvetica,sans-Serif" font-weight="bold" font-style="italic" font-size="14.00">author</text>
<polygon fill="#c2c5f2" stroke="transparent" points="133.5,-271 133.5,-290 261.5,-290 261.5,-271 133.5,-271"/>
<text text-anchor="start" x="213.5" y="-276.8" font-family="Helvetica,sans-Serif" font-size="14.00">[table]</text>
<text text-anchor="start" x="48.5" y="-258.8" font-family="Helvetica,sans-Serif" font-weight="bold" font-style="italic" font-size="14.00">id</text>
<text text-anchor="start" x="126.5" y="-257.8" font-family="Helvetica,sans-Serif" font-size="14.00"> </text>
<text text-anchor="start" x="135.5" y="-257.8" font-family="Helvetica,sans-Serif" font-size="14.00">bigserial not null</text>
<text text-anchor="start" x="126.5" y="-238.8" font-family="Helvetica,sans-Serif" font-size="14.00"> </text>
<text text-anchor="start" x="135.5" y="-238.8" font-family="Helvetica,sans-Serif" font-size="14.00">auto&#45;incremented</text>
<text text-anchor="start" x="48.5" y="-219.8" font-family="Helvetica,sans-Serif" font-size="14.00">first_name</text>
<text text-anchor="start" x="126.5" y="-219.8" font-family="Helvetica,sans-Serif" font-size="14.00"> </text>
<text text-anchor="start" x="135.5" y="-219.8" font-family="Helvetica,sans-Serif" font-size="14.00">varchar(255)</text>
<text text-anchor="start" x="48.5" y="-200.8" font-family="Helvetica,sans-Serif" font-size="14.00">last_name</text>
<text text-anchor="start" x="126.5" y="-200.8" font-family="Helvetica,sans-Serif" font-size="14.00"> </text>
<text text-anchor="start" x="135.5" y="-200.8" font-family="Helvetica,sans-Serif" font-size="14.00">varchar(255)</text>
<text text-anchor="start" x="48.5" y="-181.8" font-family="Helvetica,sans-Serif" font-size="14.00">version</text>
<text text-anchor="start" x="126.5" y="-181.8" font-family="Helvetica,sans-Serif" font-size="14.00"> </text>
<text text-anchor="start" x="135.5" y="-181.8" font-family="Helvetica,sans-Serif" font-size="14.00">int8</text>
<polygon fill="none" stroke="#888888" points="45,-175 45,-291 262,-291 262,-175 45,-175"/>
</g>
<!-- publication_author_join_4288896 -->
<g id="node2" class="node">
<title>publication_author_join_4288896</title>
<polygon fill="#c2c5f2" stroke="transparent" points="352.5,-277 352.5,-296 538.5,-296 538.5,-277 352.5,-277"/>
<text text-anchor="start" x="354.5" y="-283.8" font-family="Helvetica,sans-Serif" font-weight="bold" font-style="italic" font-size="14.00">publication_author_join</text>
<polygon fill="#c2c5f2" stroke="transparent" points="538.5,-277 538.5,-296 627.5,-296 627.5,-277 538.5,-277"/>
<text text-anchor="start" x="579.5" y="-282.8" font-family="Helvetica,sans-Serif" font-size="14.00">[table]</text>
<text text-anchor="start" x="354.5" y="-263.8" font-family="Helvetica,sans-Serif" font-size="14.00">publication_id</text>
<text text-anchor="start" x="493.5" y="-263.8" font-family="Helvetica,sans-Serif" font-size="14.00"> </text>
<text text-anchor="start" x="540.5" y="-263.8" font-family="Helvetica,sans-Serif" font-size="14.00">int8 not null</text>
<text text-anchor="start" x="354.5" y="-244.8" font-family="Helvetica,sans-Serif" font-size="14.00">author_id</text>
<text text-anchor="start" x="493.5" y="-244.8" font-family="Helvetica,sans-Serif" font-size="14.00"> </text>
<text text-anchor="start" x="540.5" y="-244.8" font-family="Helvetica,sans-Serif" font-size="14.00">int8 not null</text>
<polygon fill="none" stroke="#888888" points="351,-238.5 351,-297.5 628,-297.5 628,-238.5 351,-238.5"/>
</g>
<!-- publication_author_join_4288896&#45;&gt;author_c30dd856 -->
<g id="edge1" class="edge">
<title>publication_author_join_4288896:w&#45;&gt;author_c30dd856:e</title>
<path fill="none" stroke="black" d="M333.3,-249.1C310.3,-252.04 298.41,-259.98 272.66,-261.68"/>
<polygon fill="black" stroke="black" points="341.52,-248.6 351.77,-252.49 346.51,-248.3 351.5,-248 351.5,-248 351.5,-248 346.51,-248.3 351.23,-243.51 341.52,-248.6 341.52,-248.6"/>
<ellipse fill="none" stroke="black" cx="337.53" cy="-248.84" rx="4" ry="4"/>
<polygon fill="black" stroke="black" points="263.66,-266.97 263.34,-256.97 265.34,-256.91 265.66,-266.9 263.66,-266.97"/>
<polyline fill="none" stroke="black" points="262.5,-262 267.5,-261.84 "/>
<polygon fill="black" stroke="black" points="268.66,-266.81 268.34,-256.81 270.34,-256.75 270.66,-266.74 268.66,-266.81"/>
<polyline fill="none" stroke="black" points="267.5,-261.84 272.49,-261.68 "/>
</g>
<!-- publication_d69c58f7 -->
<g id="node5" class="node">
<title>publication_d69c58f7</title>
<polygon fill="#c2c5f2" stroke="transparent" points="9.5,-129 9.5,-148 170.5,-148 170.5,-129 9.5,-129"/>
<text text-anchor="start" x="11.5" y="-135.8" font-family="Helvetica,sans-Serif" font-weight="bold" font-style="italic" font-size="14.00">publication</text>
<polygon fill="#c2c5f2" stroke="transparent" points="170.5,-129 170.5,-148 298.5,-148 298.5,-129 170.5,-129"/>
<text text-anchor="start" x="250.5" y="-134.8" font-family="Helvetica,sans-Serif" font-size="14.00">[table]</text>
<text text-anchor="start" x="11.5" y="-116.8" font-family="Helvetica,sans-Serif" font-weight="bold" font-style="italic" font-size="14.00">id</text>
<text text-anchor="start" x="163.5" y="-115.8" font-family="Helvetica,sans-Serif" font-size="14.00"> </text>
<text text-anchor="start" x="172.5" y="-115.8" font-family="Helvetica,sans-Serif" font-size="14.00">bigserial not null</text>
<text text-anchor="start" x="163.5" y="-96.8" font-family="Helvetica,sans-Serif" font-size="14.00"> </text>
<text text-anchor="start" x="172.5" y="-96.8" font-family="Helvetica,sans-Serif" font-size="14.00">auto&#45;incremented</text>
<text text-anchor="start" x="11.5" y="-77.8" font-family="Helvetica,sans-Serif" font-size="14.00">publishing_date_item</text>
<text text-anchor="start" x="163.5" y="-77.8" font-family="Helvetica,sans-Serif" font-size="14.00"> </text>
<text text-anchor="start" x="172.5" y="-77.8" font-family="Helvetica,sans-Serif" font-size="14.00">timestamp</text>
<text text-anchor="start" x="11.5" y="-58.8" font-family="Helvetica,sans-Serif" font-size="14.00">title</text>
<text text-anchor="start" x="163.5" y="-58.8" font-family="Helvetica,sans-Serif" font-size="14.00"> </text>
<text text-anchor="start" x="172.5" y="-58.8" font-family="Helvetica,sans-Serif" font-size="14.00">varchar(255)</text>
<text text-anchor="start" x="11.5" y="-39.8" font-family="Helvetica,sans-Serif" font-size="14.00">version</text>
<text text-anchor="start" x="163.5" y="-39.8" font-family="Helvetica,sans-Serif" font-size="14.00"> </text>
<text text-anchor="start" x="172.5" y="-39.8" font-family="Helvetica,sans-Serif" font-size="14.00">int8</text>
<polygon fill="none" stroke="#888888" points="8,-33 8,-149 299,-149 299,-33 8,-33"/>
</g>
<!-- publication_author_join_4288896&#45;&gt;publication_d69c58f7 -->
<g id="edge4" class="edge">
<title>publication_author_join_4288896:w&#45;&gt;publication_d69c58f7:e</title>
<path fill="none" stroke="black" d="M333.95,-262.11C301.45,-238.2 353.86,-134.22 309.68,-121.32"/>
<polygon fill="black" stroke="black" points="341.87,-264.32 350.29,-271.33 346.68,-265.66 351.5,-267 351.5,-267 351.5,-267 346.68,-265.66 352.71,-262.67 341.87,-264.32 341.87,-264.32"/>
<ellipse fill="none" stroke="black" cx="338.01" cy="-263.24" rx="4" ry="4"/>
<polygon fill="black" stroke="black" points="299.85,-125.09 301.13,-115.17 303.12,-115.43 301.83,-125.34 299.85,-125.09"/>
<polyline fill="none" stroke="black" points="299.5,-120 304.46,-120.64 "/>
<polygon fill="black" stroke="black" points="304.81,-125.73 306.09,-115.81 308.08,-116.07 306.79,-125.98 304.81,-125.73"/>
<polyline fill="none" stroke="black" points="304.46,-120.64 309.42,-121.28 "/>
</g>
<!-- blog_170ee66d -->
<g id="node3" class="node">
<title>blog_170ee66d</title>
<polygon fill="#c2c5f2" stroke="transparent" points="423.5,-79 423.5,-98 461.5,-98 461.5,-79 423.5,-79"/>
<text text-anchor="start" x="425.5" y="-85.8" font-family="Helvetica,sans-Serif" font-weight="bold" font-style="italic" font-size="14.00">blog</text>
<polygon fill="#c2c5f2" stroke="transparent" points="461.5,-79 461.5,-98 556.5,-98 556.5,-79 461.5,-79"/>
<text text-anchor="start" x="508.5" y="-84.8" font-family="Helvetica,sans-Serif" font-size="14.00">[table]</text>
<text text-anchor="start" x="425.5" y="-65.8" font-family="Helvetica,sans-Serif" font-size="14.00">url</text>
<text text-anchor="start" x="451.5" y="-65.8" font-family="Helvetica,sans-Serif" font-size="14.00"> </text>
<text text-anchor="start" x="463.5" y="-65.8" font-family="Helvetica,sans-Serif" font-size="14.00">varchar(255)</text>
<text text-anchor="start" x="425.5" y="-47.8" font-family="Helvetica,sans-Serif" font-weight="bold" font-style="italic" font-size="14.00">id</text>
<text text-anchor="start" x="451.5" y="-46.8" font-family="Helvetica,sans-Serif" font-size="14.00"> </text>
<text text-anchor="start" x="463.5" y="-46.8" font-family="Helvetica,sans-Serif" font-size="14.00">int8 not null</text>
<polygon fill="none" stroke="#888888" points="422,-40.5 422,-99.5 557,-99.5 557,-40.5 422,-40.5"/>
</g>
<!-- blog_170ee66d&#45;&gt;publication_d69c58f7 -->
<g id="edge2" class="edge">
<title>blog_170ee66d:w&#45;&gt;publication_d69c58f7:e</title>
<path fill="none" stroke="black" d="M409.53,-51.1C362.67,-59.47 358.14,-112.92 309.48,-119.36"/>
<polygon fill="black" stroke="black" points="421.08,-45.1 421.93,-55.07 419.93,-55.24 419.09,-45.27 421.08,-45.1"/>
<polyline fill="none" stroke="black" points="422.5,-50 417.52,-50.42 "/>
<ellipse fill="none" stroke="black" cx="413.53" cy="-50.76" rx="4" ry="4"/>
<polygon fill="black" stroke="black" points="300.82,-124.93 300.18,-114.95 302.18,-114.82 302.81,-124.8 300.82,-124.93"/>
<polyline fill="none" stroke="black" points="299.5,-120 304.49,-119.68 "/>
<polygon fill="black" stroke="black" points="305.81,-124.61 305.17,-114.63 307.17,-114.5 307.8,-124.48 305.81,-124.61"/>
<polyline fill="none" stroke="black" points="304.49,-119.68 309.48,-119.36 "/>
</g>
<!-- book_170ef1b4 -->
<g id="node4" class="node">
<title>book_170ef1b4</title>
<polygon fill="#c2c5f2" stroke="transparent" points="417.5,-164 417.5,-183 473.5,-183 473.5,-164 417.5,-164"/>
<text text-anchor="start" x="419.5" y="-170.8" font-family="Helvetica,sans-Serif" font-weight="bold" font-style="italic" font-size="14.00">book</text>
<polygon fill="#c2c5f2" stroke="transparent" points="473.5,-164 473.5,-183 562.5,-183 562.5,-164 473.5,-164"/>
<text text-anchor="start" x="514.5" y="-169.8" font-family="Helvetica,sans-Serif" font-size="14.00">[table]</text>
<text text-anchor="start" x="419.5" y="-150.8" font-family="Helvetica,sans-Serif" font-size="14.00">pages</text>
<text text-anchor="start" x="466.5" y="-150.8" font-family="Helvetica,sans-Serif" font-size="14.00"> </text>
<text text-anchor="start" x="475.5" y="-150.8" font-family="Helvetica,sans-Serif" font-size="14.00">int4</text>
<text text-anchor="start" x="419.5" y="-132.8" font-family="Helvetica,sans-Serif" font-weight="bold" font-style="italic" font-size="14.00">id</text>
<text text-anchor="start" x="466.5" y="-131.8" font-family="Helvetica,sans-Serif" font-size="14.00"> </text>
<text text-anchor="start" x="475.5" y="-131.8" font-family="Helvetica,sans-Serif" font-size="14.00">int8 not null</text>
<polygon fill="none" stroke="#888888" points="416,-125.5 416,-184.5 563,-184.5 563,-125.5 416,-125.5"/>
</g>
<!-- book_170ef1b4&#45;&gt;publication_d69c58f7 -->
<g id="edge3" class="edge">
<title>book_170ef1b4:w&#45;&gt;publication_d69c58f7:e</title>
<path fill="none" stroke="black" d="M403.29,-134.66C364.66,-132.59 349.5,-121.79 309.6,-120.2"/>
<polygon fill="black" stroke="black" points="415.63,-129.98 415.37,-139.97 413.37,-139.92 413.63,-129.92 415.63,-129.98"/>
<polyline fill="none" stroke="black" points="416.5,-135 411.5,-134.87 "/>
<ellipse fill="none" stroke="black" cx="407.5" cy="-134.77" rx="4" ry="4"/>
<polygon fill="black" stroke="black" points="300.4,-125.02 300.6,-115.02 302.6,-115.06 302.4,-125.06 300.4,-125.02"/>
<polyline fill="none" stroke="black" points="299.5,-120 304.5,-120.1 "/>
<polygon fill="black" stroke="black" points="305.4,-125.12 305.6,-115.12 307.6,-115.16 307.4,-125.15 305.4,-125.12"/>
<polyline fill="none" stroke="black" points="304.5,-120.1 309.5,-120.19 "/>
</g>
</g>
</svg>
