<?xml version="1.0" encoding="UTF-8" standalone="no"?>
<!DOCTYPE svg PUBLIC "-//W3C//DTD SVG 1.1//EN"
 "http://www.w3.org/Graphics/SVG/1.1/DTD/svg11.dtd">
<!-- Generated by graphviz version 2.43.0 (0)
 -->
<!-- Title: SchemaCrawler_Diagram Pages: 1 -->
<svg width="611pt" height="366pt"
 viewBox="0.00 0.00 611.00 365.50" xmlns="http://www.w3.org/2000/svg" xmlns:xlink="http://www.w3.org/1999/xlink">
<g id="graph0" class="graph" transform="scale(1 1) rotate(0) translate(4 361.5)">
<title>SchemaCrawler_Diagram</title>
<polygon fill="white" stroke="transparent" points="-4,4 -4,-361.5 607,-361.5 607,4 -4,4"/>
<text text-anchor="start" x="330" y="-11.3" font-family="Helvetica,sans-Serif" font-weight="bold" font-style="italic" font-size="14.00">Publication: EL&#45;PG&#45;SINGLE_TABLE</text>
<polygon fill="none" stroke="#888888" points="327,-4 327,-25 595,-25 595,-4 327,-4"/>
<!-- author_c30dd856 -->
<g id="node1" class="node">
<title>author_c30dd856</title>
<polygon fill="#c2c5f2" stroke="transparent" points="46,-309 46,-328 133,-328 133,-309 46,-309"/>
<text text-anchor="start" x="48" y="-315.8" font-family="Helvetica,sans-Serif" font-weight="bold" font-style="italic" font-size="14.00">author</text>
<polygon fill="#c2c5f2" stroke="transparent" points="133,-309 133,-328 228,-328 228,-309 133,-309"/>
<text text-anchor="start" x="180" y="-314.8" font-family="Helvetica,sans-Serif" font-size="14.00">[table]</text>
<text text-anchor="start" x="48" y="-296.8" font-family="Helvetica,sans-Serif" font-weight="bold" font-style="italic" font-size="14.00">id</text>
<text text-anchor="start" x="126" y="-295.8" font-family="Helvetica,sans-Serif" font-size="14.00"> </text>
<text text-anchor="start" x="135" y="-295.8" font-family="Helvetica,sans-Serif" font-size="14.00">int8 not null</text>
<text text-anchor="start" x="48" y="-276.8" font-family="Helvetica,sans-Serif" font-size="14.00">dtype</text>
<text text-anchor="start" x="126" y="-276.8" font-family="Helvetica,sans-Serif" font-size="14.00"> </text>
<text text-anchor="start" x="135" y="-276.8" font-family="Helvetica,sans-Serif" font-size="14.00">varchar(31)</text>
<text text-anchor="start" x="48" y="-257.8" font-family="Helvetica,sans-Serif" font-size="14.00">first_name</text>
<text text-anchor="start" x="126" y="-257.8" font-family="Helvetica,sans-Serif" font-size="14.00"> </text>
<text text-anchor="start" x="135" y="-257.8" font-family="Helvetica,sans-Serif" font-size="14.00">varchar(255)</text>
<text text-anchor="start" x="48" y="-238.8" font-family="Helvetica,sans-Serif" font-size="14.00">last_name</text>
<text text-anchor="start" x="126" y="-238.8" font-family="Helvetica,sans-Serif" font-size="14.00"> </text>
<text text-anchor="start" x="135" y="-238.8" font-family="Helvetica,sans-Serif" font-size="14.00">varchar(255)</text>
<text text-anchor="start" x="48" y="-219.8" font-family="Helvetica,sans-Serif" font-size="14.00">version</text>
<text text-anchor="start" x="126" y="-219.8" font-family="Helvetica,sans-Serif" font-size="14.00"> </text>
<text text-anchor="start" x="135" y="-219.8" font-family="Helvetica,sans-Serif" font-size="14.00">int8</text>
<polygon fill="none" stroke="#888888" points="45,-213 45,-329 229,-329 229,-213 45,-213"/>
</g>
<!-- publication_author_join_4288896 -->
<g id="node2" class="node">
<title>publication_author_join_4288896</title>
<polygon fill="#c2c5f2" stroke="transparent" points="319.5,-248 319.5,-267 505.5,-267 505.5,-248 319.5,-248"/>
<text text-anchor="start" x="321.5" y="-254.8" font-family="Helvetica,sans-Serif" font-weight="bold" font-style="italic" font-size="14.00">publication_author_join</text>
<polygon fill="#c2c5f2" stroke="transparent" points="505.5,-248 505.5,-267 594.5,-267 594.5,-248 505.5,-248"/>
<text text-anchor="start" x="546.5" y="-253.8" font-family="Helvetica,sans-Serif" font-size="14.00">[table]</text>
<text text-anchor="start" x="321.5" y="-235.8" font-family="Helvetica,sans-Serif" font-weight="bold" font-style="italic" font-size="14.00">author_id</text>
<text text-anchor="start" x="466.5" y="-234.8" font-family="Helvetica,sans-Serif" font-size="14.00"> </text>
<text text-anchor="start" x="507.5" y="-234.8" font-family="Helvetica,sans-Serif" font-size="14.00">int8 not null</text>
<text text-anchor="start" x="321.5" y="-216.8" font-family="Helvetica,sans-Serif" font-weight="bold" font-style="italic" font-size="14.00">publication_id</text>
<text text-anchor="start" x="466.5" y="-215.8" font-family="Helvetica,sans-Serif" font-size="14.00"> </text>
<text text-anchor="start" x="507.5" y="-215.8" font-family="Helvetica,sans-Serif" font-size="14.00">int8 not null</text>
<polygon fill="none" stroke="#888888" points="318,-209.5 318,-268.5 595,-268.5 595,-209.5 318,-209.5"/>
</g>
<!-- publication_author_join_4288896&#45;&gt;author_c30dd856 -->
<g id="edge1" class="edge">
<title>publication_author_join_4288896:w&#45;&gt;author_c30dd856:e</title>
<path fill="none" stroke="black" d="M300.67,-241.51C273.71,-253.45 270.75,-292.11 239.22,-298.96"/>
<polygon fill="black" stroke="black" points="308.69,-239.93 319.37,-242.42 313.59,-238.97 318.5,-238 318.5,-238 318.5,-238 313.59,-238.97 317.63,-233.58 308.69,-239.93 308.69,-239.93"/>
<ellipse fill="none" stroke="black" cx="304.76" cy="-240.71" rx="4" ry="4"/>
<polygon fill="black" stroke="black" points="230.5,-304.87 229.49,-294.92 231.48,-294.72 232.49,-304.67 230.5,-304.87"/>
<polyline fill="none" stroke="black" points="229,-300 233.97,-299.49 "/>
<polygon fill="black" stroke="black" points="235.48,-304.37 234.46,-294.42 236.45,-294.21 237.47,-304.16 235.48,-304.37"/>
<polyline fill="none" stroke="black" points="233.97,-299.49 238.95,-298.99 "/>
</g>
<!-- publication_d69c58f7 -->
<g id="node3" class="node">
<title>publication_d69c58f7</title>
<polygon fill="#c2c5f2" stroke="transparent" points="9,-167 9,-186 170,-186 170,-167 9,-167"/>
<text text-anchor="start" x="11" y="-173.8" font-family="Helvetica,sans-Serif" font-weight="bold" font-style="italic" font-size="14.00">publication</text>
<polygon fill="#c2c5f2" stroke="transparent" points="170,-167 170,-186 265,-186 265,-167 170,-167"/>
<text text-anchor="start" x="217" y="-172.8" font-family="Helvetica,sans-Serif" font-size="14.00">[table]</text>
<text text-anchor="start" x="11" y="-154.8" font-family="Helvetica,sans-Serif" font-weight="bold" font-style="italic" font-size="14.00">id</text>
<text text-anchor="start" x="163" y="-153.8" font-family="Helvetica,sans-Serif" font-size="14.00"> </text>
<text text-anchor="start" x="172" y="-153.8" font-family="Helvetica,sans-Serif" font-size="14.00">int8 not null</text>
<text text-anchor="start" x="11" y="-134.8" font-family="Helvetica,sans-Serif" font-size="14.00">dtype</text>
<text text-anchor="start" x="163" y="-134.8" font-family="Helvetica,sans-Serif" font-size="14.00"> </text>
<text text-anchor="start" x="172" y="-134.8" font-family="Helvetica,sans-Serif" font-size="14.00">varchar(31)</text>
<text text-anchor="start" x="11" y="-115.8" font-family="Helvetica,sans-Serif" font-size="14.00">publishing_date_item</text>
<text text-anchor="start" x="163" y="-115.8" font-family="Helvetica,sans-Serif" font-size="14.00"> </text>
<text text-anchor="start" x="172" y="-115.8" font-family="Helvetica,sans-Serif" font-size="14.00">timestamp</text>
<text text-anchor="start" x="11" y="-96.8" font-family="Helvetica,sans-Serif" font-size="14.00">title</text>
<text text-anchor="start" x="163" y="-96.8" font-family="Helvetica,sans-Serif" font-size="14.00"> </text>
<text text-anchor="start" x="172" y="-96.8" font-family="Helvetica,sans-Serif" font-size="14.00">varchar(255)</text>
<text text-anchor="start" x="11" y="-77.8" font-family="Helvetica,sans-Serif" font-size="14.00">version</text>
<text text-anchor="start" x="163" y="-77.8" font-family="Helvetica,sans-Serif" font-size="14.00"> </text>
<text text-anchor="start" x="172" y="-77.8" font-family="Helvetica,sans-Serif" font-size="14.00">int8</text>
<text text-anchor="start" x="11" y="-58.8" font-family="Helvetica,sans-Serif" font-size="14.00">url</text>
<text text-anchor="start" x="163" y="-58.8" font-family="Helvetica,sans-Serif" font-size="14.00"> </text>
<text text-anchor="start" x="172" y="-58.8" font-family="Helvetica,sans-Serif" font-size="14.00">varchar(255)</text>
<text text-anchor="start" x="11" y="-39.8" font-family="Helvetica,sans-Serif" font-size="14.00">pages</text>
<text text-anchor="start" x="163" y="-39.8" font-family="Helvetica,sans-Serif" font-size="14.00"> </text>
<text text-anchor="start" x="172" y="-39.8" font-family="Helvetica,sans-Serif" font-size="14.00">int4</text>
<polygon fill="none" stroke="#888888" points="8,-33 8,-187 266,-187 266,-33 8,-33"/>
</g>
<!-- publication_author_join_4288896&#45;&gt;publication_d69c58f7 -->
<g id="edge2" class="edge">
<title>publication_author_join_4288896:w&#45;&gt;publication_d69c58f7:e</title>
<path fill="none" stroke="black" d="M301.75,-211.52C290.31,-197.52 292.77,-168.06 275.95,-160.05"/>
<polygon fill="black" stroke="black" points="309.37,-214.92 316.67,-223.11 313.93,-216.96 318.5,-219 318.5,-219 318.5,-219 313.93,-216.96 320.33,-214.89 309.37,-214.92 309.37,-214.92"/>
<ellipse fill="none" stroke="black" cx="305.72" cy="-213.29" rx="4" ry="4"/>
<polygon fill="black" stroke="black" points="265.97,-163.1 267.99,-153.3 269.95,-153.71 267.93,-163.5 265.97,-163.1"/>
<polyline fill="none" stroke="black" points="266,-158 270.9,-159.01 "/>
<polygon fill="black" stroke="black" points="270.87,-164.11 272.88,-154.31 274.84,-154.71 272.83,-164.51 270.87,-164.11"/>
<polyline fill="none" stroke="black" points="270.9,-159.01 275.79,-160.02 "/>
</g>
<!-- sequences_d47f379d -->
<g id="node4" class="node">
<title>sequences_d47f379d</title>
<polygon fill="#c2c5f2" stroke="transparent" points="339.5,-333 339.5,-352 431.5,-352 431.5,-333 339.5,-333"/>
<text text-anchor="start" x="341.5" y="-339.8" font-family="Helvetica,sans-Serif" font-weight="bold" font-style="italic" font-size="14.00">sequences</text>
<polygon fill="#c2c5f2" stroke="transparent" points="431.5,-333 431.5,-352 574.5,-352 574.5,-333 431.5,-333"/>
<text text-anchor="start" x="526.5" y="-338.8" font-family="Helvetica,sans-Serif" font-size="14.00">[table]</text>
<text text-anchor="start" x="341.5" y="-320.8" font-family="Helvetica,sans-Serif" font-weight="bold" font-style="italic" font-size="14.00">seq_name</text>
<text text-anchor="start" x="424.5" y="-319.8" font-family="Helvetica,sans-Serif" font-size="14.00"> </text>
<text text-anchor="start" x="433.5" y="-319.8" font-family="Helvetica,sans-Serif" font-size="14.00">varchar(50) not null</text>
<text text-anchor="start" x="341.5" y="-300.8" font-family="Helvetica,sans-Serif" font-size="14.00">seq_count</text>
<text text-anchor="start" x="424.5" y="-300.8" font-family="Helvetica,sans-Serif" font-size="14.00"> </text>
<text text-anchor="start" x="433.5" y="-300.8" font-family="Helvetica,sans-Serif" font-size="14.00">numeric(38, 0)</text>
<polygon fill="none" stroke="#888888" points="338,-294.5 338,-353.5 575,-353.5 575,-294.5 338,-294.5"/>
</g>
</g>
</svg>
