<?xml version="1.0" encoding="UTF-8" standalone="no"?>
<!DOCTYPE svg PUBLIC "-//W3C//DTD SVG 1.1//EN"
 "http://www.w3.org/Graphics/SVG/1.1/DTD/svg11.dtd">
<!-- Generated by graphviz version 2.43.0 (0)
 -->
<!-- Title: SchemaCrawler_Diagram Pages: 1 -->
<svg width="553pt" height="655pt"
 viewBox="0.00 0.00 553.00 655.00" xmlns="http://www.w3.org/2000/svg" xmlns:xlink="http://www.w3.org/1999/xlink">
<g id="graph0" class="graph" transform="scale(1 1) rotate(0) translate(4 651)">
<title>SchemaCrawler_Diagram</title>
<polygon fill="white" stroke="transparent" points="-4,4 -4,-651 549,-651 549,4 -4,4"/>
<text text-anchor="start" x="240" y="-11.3" font-family="Helvetica,sans-Serif" font-weight="bold" font-style="italic" font-size="14.00">Publication: HB&#45;PG&#45;TABLE_PER_CLASS</text>
<polygon fill="none" stroke="#888888" points="237,-4 237,-25 537,-25 537,-4 237,-4"/>
<!-- author_c30dd856 -->
<g id="node1" class="node">
<title>author_c30dd856</title>
<polygon fill="#c2c5f2" stroke="transparent" points="9,-109.5 9,-128.5 96,-128.5 96,-109.5 9,-109.5"/>
<text text-anchor="start" x="11" y="-116.3" font-family="Helvetica,sans-Serif" font-weight="bold" font-style="italic" font-size="14.00">author</text>
<polygon fill="#c2c5f2" stroke="transparent" points="96,-109.5 96,-128.5 191,-128.5 191,-109.5 96,-109.5"/>
<text text-anchor="start" x="143" y="-115.3" font-family="Helvetica,sans-Serif" font-size="14.00">[table]</text>
<text text-anchor="start" x="11" y="-97.3" font-family="Helvetica,sans-Serif" font-weight="bold" font-style="italic" font-size="14.00">id</text>
<text text-anchor="start" x="89" y="-96.3" font-family="Helvetica,sans-Serif" font-size="14.00"> </text>
<text text-anchor="start" x="98" y="-96.3" font-family="Helvetica,sans-Serif" font-size="14.00">int8 not null</text>
<text text-anchor="start" x="11" y="-77.3" font-family="Helvetica,sans-Serif" font-size="14.00">first_name</text>
<text text-anchor="start" x="89" y="-77.3" font-family="Helvetica,sans-Serif" font-size="14.00"> </text>
<text text-anchor="start" x="98" y="-77.3" font-family="Helvetica,sans-Serif" font-size="14.00">varchar(255)</text>
<text text-anchor="start" x="11" y="-58.3" font-family="Helvetica,sans-Serif" font-size="14.00">last_name</text>
<text text-anchor="start" x="89" y="-58.3" font-family="Helvetica,sans-Serif" font-size="14.00"> </text>
<text text-anchor="start" x="98" y="-58.3" font-family="Helvetica,sans-Serif" font-size="14.00">varchar(255)</text>
<text text-anchor="start" x="11" y="-39.3" font-family="Helvetica,sans-Serif" font-size="14.00">version</text>
<text text-anchor="start" x="89" y="-39.3" font-family="Helvetica,sans-Serif" font-size="14.00"> </text>
<text text-anchor="start" x="98" y="-39.3" font-family="Helvetica,sans-Serif" font-size="14.00">int8</text>
<polygon fill="none" stroke="#888888" points="8,-33 8,-130 192,-130 192,-33 8,-33"/>
</g>
<!-- publication_author_join_4288896 -->
<g id="node2" class="node">
<title>publication_author_join_4288896</title>
<polygon fill="#c2c5f2" stroke="transparent" points="253.5,-129.5 253.5,-148.5 439.5,-148.5 439.5,-129.5 253.5,-129.5"/>
<text text-anchor="start" x="255.5" y="-136.3" font-family="Helvetica,sans-Serif" font-weight="bold" font-style="italic" font-size="14.00">publication_author_join</text>
<polygon fill="#c2c5f2" stroke="transparent" points="439.5,-129.5 439.5,-148.5 528.5,-148.5 528.5,-129.5 439.5,-129.5"/>
<text text-anchor="start" x="480.5" y="-135.3" font-family="Helvetica,sans-Serif" font-size="14.00">[table]</text>
<text text-anchor="start" x="255.5" y="-116.3" font-family="Helvetica,sans-Serif" font-size="14.00">publication_id</text>
<text text-anchor="start" x="394.5" y="-116.3" font-family="Helvetica,sans-Serif" font-size="14.00"> </text>
<text text-anchor="start" x="441.5" y="-116.3" font-family="Helvetica,sans-Serif" font-size="14.00">int8 not null</text>
<text text-anchor="start" x="255.5" y="-97.3" font-family="Helvetica,sans-Serif" font-size="14.00">author_id</text>
<text text-anchor="start" x="394.5" y="-97.3" font-family="Helvetica,sans-Serif" font-size="14.00"> </text>
<text text-anchor="start" x="441.5" y="-97.3" font-family="Helvetica,sans-Serif" font-size="14.00">int8 not null</text>
<polygon fill="none" stroke="#888888" points="252,-91 252,-150 529,-150 529,-91 252,-91"/>
</g>
<!-- publication_author_join_4288896&#45;&gt;author_c30dd856 -->
<g id="edge1" class="edge">
<title>publication_author_join_4288896:w&#45;&gt;author_c30dd856:e</title>
<path fill="none" stroke="black" d="M234.14,-100.5C223.11,-100.5 215.19,-100.5 202.34,-100.5"/>
<polygon fill="black" stroke="black" points="242.5,-100.5 252.5,-105 247.5,-100.5 252.5,-100.5 252.5,-100.5 252.5,-100.5 247.5,-100.5 252.5,-96 242.5,-100.5 242.5,-100.5"/>
<ellipse fill="none" stroke="black" cx="238.5" cy="-100.5" rx="4" ry="4"/>
<polygon fill="black" stroke="black" points="193,-105.5 193,-95.5 195,-95.5 195,-105.5 193,-105.5"/>
<polyline fill="none" stroke="black" points="192,-100.5 197,-100.5 "/>
<polygon fill="black" stroke="black" points="198,-105.5 198,-95.5 200,-95.5 200,-105.5 198,-105.5"/>
<polyline fill="none" stroke="black" points="197,-100.5 202,-100.5 "/>
</g>
<!-- blog_170ee66d -->
<g id="node3" class="node">
<title>blog_170ee66d</title>
<polygon fill="#c2c5f2" stroke="transparent" points="262.5,-272.5 262.5,-291.5 423.5,-291.5 423.5,-272.5 262.5,-272.5"/>
<text text-anchor="start" x="264.5" y="-279.3" font-family="Helvetica,sans-Serif" font-weight="bold" font-style="italic" font-size="14.00">blog</text>
<polygon fill="#c2c5f2" stroke="transparent" points="423.5,-272.5 423.5,-291.5 518.5,-291.5 518.5,-272.5 423.5,-272.5"/>
<text text-anchor="start" x="470.5" y="-278.3" font-family="Helvetica,sans-Serif" font-size="14.00">[table]</text>
<text text-anchor="start" x="264.5" y="-260.3" font-family="Helvetica,sans-Serif" font-weight="bold" font-style="italic" font-size="14.00">id</text>
<text text-anchor="start" x="416.5" y="-259.3" font-family="Helvetica,sans-Serif" font-size="14.00"> </text>
<text text-anchor="start" x="425.5" y="-259.3" font-family="Helvetica,sans-Serif" font-size="14.00">int8 not null</text>
<text text-anchor="start" x="264.5" y="-240.3" font-family="Helvetica,sans-Serif" font-size="14.00">publishing_date_item</text>
<text text-anchor="start" x="416.5" y="-240.3" font-family="Helvetica,sans-Serif" font-size="14.00"> </text>
<text text-anchor="start" x="425.5" y="-240.3" font-family="Helvetica,sans-Serif" font-size="14.00">timestamp</text>
<text text-anchor="start" x="264.5" y="-221.3" font-family="Helvetica,sans-Serif" font-size="14.00">title</text>
<text text-anchor="start" x="416.5" y="-221.3" font-family="Helvetica,sans-Serif" font-size="14.00"> </text>
<text text-anchor="start" x="425.5" y="-221.3" font-family="Helvetica,sans-Serif" font-size="14.00">varchar(255)</text>
<text text-anchor="start" x="264.5" y="-202.3" font-family="Helvetica,sans-Serif" font-size="14.00">version</text>
<text text-anchor="start" x="416.5" y="-202.3" font-family="Helvetica,sans-Serif" font-size="14.00"> </text>
<text text-anchor="start" x="425.5" y="-202.3" font-family="Helvetica,sans-Serif" font-size="14.00">int8</text>
<text text-anchor="start" x="264.5" y="-183.3" font-family="Helvetica,sans-Serif" font-size="14.00">url</text>
<text text-anchor="start" x="416.5" y="-183.3" font-family="Helvetica,sans-Serif" font-size="14.00"> </text>
<text text-anchor="start" x="425.5" y="-183.3" font-family="Helvetica,sans-Serif" font-size="14.00">varchar(255)</text>
<polygon fill="none" stroke="#888888" points="261.5,-176.5 261.5,-292.5 519.5,-292.5 519.5,-176.5 261.5,-176.5"/>
</g>
<!-- book_170ef1b4 -->
<g id="node4" class="node">
<title>book_170ef1b4</title>
<polygon fill="#c2c5f2" stroke="transparent" points="262.5,-414.5 262.5,-433.5 423.5,-433.5 423.5,-414.5 262.5,-414.5"/>
<text text-anchor="start" x="264.5" y="-421.3" font-family="Helvetica,sans-Serif" font-weight="bold" font-style="italic" font-size="14.00">book</text>
<polygon fill="#c2c5f2" stroke="transparent" points="423.5,-414.5 423.5,-433.5 518.5,-433.5 518.5,-414.5 423.5,-414.5"/>
<text text-anchor="start" x="470.5" y="-420.3" font-family="Helvetica,sans-Serif" font-size="14.00">[table]</text>
<text text-anchor="start" x="264.5" y="-402.3" font-family="Helvetica,sans-Serif" font-weight="bold" font-style="italic" font-size="14.00">id</text>
<text text-anchor="start" x="416.5" y="-401.3" font-family="Helvetica,sans-Serif" font-size="14.00"> </text>
<text text-anchor="start" x="425.5" y="-401.3" font-family="Helvetica,sans-Serif" font-size="14.00">int8 not null</text>
<text text-anchor="start" x="264.5" y="-382.3" font-family="Helvetica,sans-Serif" font-size="14.00">publishing_date_item</text>
<text text-anchor="start" x="416.5" y="-382.3" font-family="Helvetica,sans-Serif" font-size="14.00"> </text>
<text text-anchor="start" x="425.5" y="-382.3" font-family="Helvetica,sans-Serif" font-size="14.00">timestamp</text>
<text text-anchor="start" x="264.5" y="-363.3" font-family="Helvetica,sans-Serif" font-size="14.00">title</text>
<text text-anchor="start" x="416.5" y="-363.3" font-family="Helvetica,sans-Serif" font-size="14.00"> </text>
<text text-anchor="start" x="425.5" y="-363.3" font-family="Helvetica,sans-Serif" font-size="14.00">varchar(255)</text>
<text text-anchor="start" x="264.5" y="-344.3" font-family="Helvetica,sans-Serif" font-size="14.00">version</text>
<text text-anchor="start" x="416.5" y="-344.3" font-family="Helvetica,sans-Serif" font-size="14.00"> </text>
<text text-anchor="start" x="425.5" y="-344.3" font-family="Helvetica,sans-Serif" font-size="14.00">int8</text>
<text text-anchor="start" x="264.5" y="-325.3" font-family="Helvetica,sans-Serif" font-size="14.00">pages</text>
<text text-anchor="start" x="416.5" y="-325.3" font-family="Helvetica,sans-Serif" font-size="14.00"> </text>
<text text-anchor="start" x="425.5" y="-325.3" font-family="Helvetica,sans-Serif" font-size="14.00">int4</text>
<polygon fill="none" stroke="#888888" points="261.5,-318.5 261.5,-434.5 519.5,-434.5 519.5,-318.5 261.5,-318.5"/>
</g>
<!-- publication_d69c58f7 -->
<g id="node5" class="node">
<title>publication_d69c58f7</title>
<polygon fill="#c2c5f2" stroke="transparent" points="262.5,-537.5 262.5,-556.5 423.5,-556.5 423.5,-537.5 262.5,-537.5"/>
<text text-anchor="start" x="264.5" y="-544.3" font-family="Helvetica,sans-Serif" font-weight="bold" font-style="italic" font-size="14.00">publication</text>
<polygon fill="#c2c5f2" stroke="transparent" points="423.5,-537.5 423.5,-556.5 518.5,-556.5 518.5,-537.5 423.5,-537.5"/>
<text text-anchor="start" x="470.5" y="-543.3" font-family="Helvetica,sans-Serif" font-size="14.00">[table]</text>
<text text-anchor="start" x="264.5" y="-525.3" font-family="Helvetica,sans-Serif" font-weight="bold" font-style="italic" font-size="14.00">id</text>
<text text-anchor="start" x="416.5" y="-524.3" font-family="Helvetica,sans-Serif" font-size="14.00"> </text>
<text text-anchor="start" x="425.5" y="-524.3" font-family="Helvetica,sans-Serif" font-size="14.00">int8 not null</text>
<text text-anchor="start" x="264.5" y="-505.3" font-family="Helvetica,sans-Serif" font-size="14.00">publishing_date_item</text>
<text text-anchor="start" x="416.5" y="-505.3" font-family="Helvetica,sans-Serif" font-size="14.00"> </text>
<text text-anchor="start" x="425.5" y="-505.3" font-family="Helvetica,sans-Serif" font-size="14.00">timestamp</text>
<text text-anchor="start" x="264.5" y="-486.3" font-family="Helvetica,sans-Serif" font-size="14.00">title</text>
<text text-anchor="start" x="416.5" y="-486.3" font-family="Helvetica,sans-Serif" font-size="14.00"> </text>
<text text-anchor="start" x="425.5" y="-486.3" font-family="Helvetica,sans-Serif" font-size="14.00">varchar(255)</text>
<text text-anchor="start" x="264.5" y="-467.3" font-family="Helvetica,sans-Serif" font-size="14.00">version</text>
<text text-anchor="start" x="416.5" y="-467.3" font-family="Helvetica,sans-Serif" font-size="14.00"> </text>
<text text-anchor="start" x="425.5" y="-467.3" font-family="Helvetica,sans-Serif" font-size="14.00">int8</text>
<polygon fill="none" stroke="#888888" points="261.5,-461 261.5,-558 519.5,-558 519.5,-461 261.5,-461"/>
</g>
<!-- sequences_d47f379d -->
<g id="node6" class="node">
<title>sequences_d47f379d</title>
<polygon fill="#c2c5f2" stroke="transparent" points="245.5,-622.5 245.5,-641.5 384.5,-641.5 384.5,-622.5 245.5,-622.5"/>
<text text-anchor="start" x="247.5" y="-629.3" font-family="Helvetica,sans-Serif" font-weight="bold" font-style="italic" font-size="14.00">sequences</text>
<polygon fill="#c2c5f2" stroke="transparent" points="384.5,-622.5 384.5,-641.5 536.5,-641.5 536.5,-622.5 384.5,-622.5"/>
<text text-anchor="start" x="488.5" y="-628.3" font-family="Helvetica,sans-Serif" font-size="14.00">[table]</text>
<text text-anchor="start" x="247.5" y="-610.3" font-family="Helvetica,sans-Serif" font-weight="bold" font-style="italic" font-size="14.00">sequence_name</text>
<text text-anchor="start" x="377.5" y="-609.3" font-family="Helvetica,sans-Serif" font-size="14.00"> </text>
<text text-anchor="start" x="386.5" y="-609.3" font-family="Helvetica,sans-Serif" font-size="14.00">varchar(255) not null</text>
<text text-anchor="start" x="247.5" y="-590.3" font-family="Helvetica,sans-Serif" font-size="14.00">next_val</text>
<text text-anchor="start" x="377.5" y="-590.3" font-family="Helvetica,sans-Serif" font-size="14.00"> </text>
<text text-anchor="start" x="386.5" y="-590.3" font-family="Helvetica,sans-Serif" font-size="14.00">int8</text>
<polygon fill="none" stroke="#888888" points="244,-584 244,-643 537,-643 537,-584 244,-584"/>
</g>
</g>
</svg>
