<?xml version="1.0" encoding="UTF-8" standalone="no"?><svg xmlns="http://www.w3.org/2000/svg" xmlns:xlink="http://www.w3.org/1999/xlink" contentStyleType="text/css" height="367px" preserveAspectRatio="none" style="width:455px;height:367px;background:#FFFFFF;" version="1.1" viewBox="0 0 455 367" width="455px" zoomAndPan="magnify"><defs/><g><!--MD5=[9e5070f61e031405d22d34995a7b019f]
cluster org.example.pub.model--><g id="cluster_org.example.pub.model"><path d="M8.5,6 L195.5,6 A3.75,3.75 0 0 1 198,8.5 L205,28.2969 L445.5,28.2969 A2.5,2.5 0 0 1 448,30.7969 L448,357.5 A2.5,2.5 0 0 1 445.5,360 L8.5,360 A2.5,2.5 0 0 1 6,357.5 L6,8.5 A2.5,2.5 0 0 1 8.5,6 " style="stroke:#000000;stroke-width:1.5;fill:none;"/><line style="stroke:#000000;stroke-width:1.5;fill:none;" x1="6" x2="205" y1="28.2969" y2="28.2969"/><text fill="#000000" font-family="sans-serif" font-size="14" font-weight="bold" lengthAdjust="spacing" textLength="186" x="10" y="20.9951">org.example.pub.model</text></g><!--MD5=[ef868a4144ebee667062b70f213f206b]
class org.example.pub.model.Author--><g id="elem_org.example.pub.model.Author"><rect codeLine="2" fill="#F1F1F1" height="113.1875" id="org.example.pub.model.Author" rx="2.5" ry="2.5" style="stroke:#181818;stroke-width:0.5;" width="144" x="288" y="41"/><ellipse cx="332.75" cy="57" fill="#ADD1B2" rx="11" ry="11" style="stroke:#181818;stroke-width:1.0;"/><path d="M335.7188,62.6406 Q335.1406,62.9375 334.5,63.0781 Q333.8594,63.2344 333.1563,63.2344 Q330.6563,63.2344 329.3281,61.5938 Q328.0156,59.9375 328.0156,56.8125 Q328.0156,53.6875 329.3281,52.0313 Q330.6563,50.375 333.1563,50.375 Q333.8594,50.375 334.5,50.5313 Q335.1563,50.6875 335.7188,50.9844 L335.7188,53.7031 Q335.0938,53.125 334.5,52.8594 Q333.9063,52.5781 333.2813,52.5781 Q331.9375,52.5781 331.25,53.6563 Q330.5625,54.7188 330.5625,56.8125 Q330.5625,58.9063 331.25,59.9844 Q331.9375,61.0469 333.2813,61.0469 Q333.9063,61.0469 334.5,60.7813 Q335.0938,60.5 335.7188,59.9219 L335.7188,62.6406 Z " fill="#000000"/><text fill="#000000" font-family="sans-serif" font-size="14" lengthAdjust="spacing" textLength="46" x="353.25" y="61.8467">Author</text><line style="stroke:#181818;stroke-width:0.5;" x1="289" x2="431" y1="73" y2="73"/><ellipse cx="299" cy="84" fill="none" rx="3" ry="3" style="stroke:#038048;stroke-width:1.0;"/><text fill="#000000" font-family="sans-serif" font-size="14" lengthAdjust="spacing" textLength="118" x="308" y="89.9951">firstName : String</text><ellipse cx="299" cy="100.2969" fill="none" rx="3" ry="3" style="stroke:#038048;stroke-width:1.0;"/><text fill="#000000" font-family="sans-serif" font-size="14" lengthAdjust="spacing" textLength="59" x="308" y="106.292">id : Long</text><ellipse cx="299" cy="116.5938" fill="none" rx="3" ry="3" style="stroke:#038048;stroke-width:1.0;"/><text fill="#000000" font-family="sans-serif" font-size="14" lengthAdjust="spacing" textLength="117" x="308" y="122.5889">lastName : String</text><ellipse cx="299" cy="132.8906" fill="none" rx="3" ry="3" style="stroke:#038048;stroke-width:1.0;"/><text fill="#000000" font-family="sans-serif" font-size="14" lengthAdjust="spacing" textLength="97" x="308" y="138.8857">version : Long</text><line style="stroke:#181818;stroke-width:0.5;" x1="289" x2="431" y1="146.1875" y2="146.1875"/></g><!--MD5=[360bccf1e828d963be78883e37184f68]
class org.example.pub.model.Blog--><g id="elem_org.example.pub.model.Blog"><rect codeLine="10" fill="#F1F1F1" height="64.2969" id="org.example.pub.model.Blog" rx="2.5" ry="2.5" style="stroke:#181818;stroke-width:0.5;" width="96" x="157" y="65.5"/><ellipse cx="186.85" cy="81.5" fill="#ADD1B2" rx="11" ry="11" style="stroke:#181818;stroke-width:1.0;"/><path d="M189.8188,87.1406 Q189.2406,87.4375 188.6,87.5781 Q187.9594,87.7344 187.2563,87.7344 Q184.7563,87.7344 183.4281,86.0938 Q182.1156,84.4375 182.1156,81.3125 Q182.1156,78.1875 183.4281,76.5313 Q184.7563,74.875 187.2563,74.875 Q187.9594,74.875 188.6,75.0313 Q189.2563,75.1875 189.8188,75.4844 L189.8188,78.2031 Q189.1938,77.625 188.6,77.3594 Q188.0063,77.0781 187.3813,77.0781 Q186.0375,77.0781 185.35,78.1563 Q184.6625,79.2188 184.6625,81.3125 Q184.6625,83.4063 185.35,84.4844 Q186.0375,85.5469 187.3813,85.5469 Q188.0063,85.5469 188.6,85.2813 Q189.1938,85 189.8188,84.4219 L189.8188,87.1406 Z " fill="#000000"/><text fill="#000000" font-family="sans-serif" font-size="14" lengthAdjust="spacing" textLength="31" x="204.15" y="86.3467">Blog</text><line style="stroke:#181818;stroke-width:0.5;" x1="158" x2="252" y1="97.5" y2="97.5"/><ellipse cx="168" cy="108.5" fill="none" rx="3" ry="3" style="stroke:#038048;stroke-width:1.0;"/><text fill="#000000" font-family="sans-serif" font-size="14" lengthAdjust="spacing" textLength="70" x="177" y="114.4951">url : String</text><line style="stroke:#181818;stroke-width:0.5;" x1="158" x2="252" y1="121.7969" y2="121.7969"/></g><!--MD5=[8e4f632ca4d448622eb39b5b0d7e6f47]
class org.example.pub.model.Book--><g id="elem_org.example.pub.model.Book"><rect codeLine="15" fill="#F1F1F1" height="64.2969" id="org.example.pub.model.Book" rx="2.5" ry="2.5" style="stroke:#181818;stroke-width:0.5;" width="99" x="22.5" y="65.5"/><ellipse cx="51.45" cy="81.5" fill="#ADD1B2" rx="11" ry="11" style="stroke:#181818;stroke-width:1.0;"/><path d="M54.4188,87.1406 Q53.8406,87.4375 53.2,87.5781 Q52.5594,87.7344 51.8563,87.7344 Q49.3563,87.7344 48.0281,86.0938 Q46.7156,84.4375 46.7156,81.3125 Q46.7156,78.1875 48.0281,76.5313 Q49.3563,74.875 51.8563,74.875 Q52.5594,74.875 53.2,75.0313 Q53.8563,75.1875 54.4188,75.4844 L54.4188,78.2031 Q53.7938,77.625 53.2,77.3594 Q52.6063,77.0781 51.9813,77.0781 Q50.6375,77.0781 49.95,78.1563 Q49.2625,79.2188 49.2625,81.3125 Q49.2625,83.4063 49.95,84.4844 Q50.6375,85.5469 51.9813,85.5469 Q52.6063,85.5469 53.2,85.2813 Q53.7938,85 54.4188,84.4219 L54.4188,87.1406 Z " fill="#000000"/><text fill="#000000" font-family="sans-serif" font-size="14" lengthAdjust="spacing" textLength="36" x="68.55" y="86.3467">Book</text><line style="stroke:#181818;stroke-width:0.5;" x1="23.5" x2="120.5" y1="97.5" y2="97.5"/><ellipse cx="33.5" cy="108.5" fill="none" rx="3" ry="3" style="stroke:#038048;stroke-width:1.0;"/><text fill="#000000" font-family="sans-serif" font-size="14" lengthAdjust="spacing" textLength="73" x="42.5" y="114.4951">pages : int</text><line style="stroke:#181818;stroke-width:0.5;" x1="23.5" x2="120.5" y1="121.7969" y2="121.7969"/></g><!--MD5=[53e6d18e0cc5996f6cfdccc02ede47a5]
class org.example.pub.model.Publication--><g id="elem_org.example.pub.model.Publication"><rect codeLine="20" fill="#F1F1F1" height="113.1875" id="org.example.pub.model.Publication" rx="2.5" ry="2.5" style="stroke:#181818;stroke-width:0.5;" width="226" x="111" y="231"/><ellipse cx="182.25" cy="247" fill="#ADD1B2" rx="11" ry="11" style="stroke:#181818;stroke-width:1.0;"/><path d="M185.2188,252.6406 Q184.6406,252.9375 184,253.0781 Q183.3594,253.2344 182.6563,253.2344 Q180.1563,253.2344 178.8281,251.5938 Q177.5156,249.9375 177.5156,246.8125 Q177.5156,243.6875 178.8281,242.0313 Q180.1563,240.375 182.6563,240.375 Q183.3594,240.375 184,240.5313 Q184.6563,240.6875 185.2188,240.9844 L185.2188,243.7031 Q184.5938,243.125 184,242.8594 Q183.4063,242.5781 182.7813,242.5781 Q181.4375,242.5781 180.75,243.6563 Q180.0625,244.7188 180.0625,246.8125 Q180.0625,248.9063 180.75,249.9844 Q181.4375,251.0469 182.7813,251.0469 Q183.4063,251.0469 184,250.7813 Q184.5938,250.5 185.2188,249.9219 L185.2188,252.6406 Z " fill="#000000"/><text fill="#000000" font-family="sans-serif" font-size="14" lengthAdjust="spacing" textLength="75" x="202.75" y="251.8467">Publication</text><line style="stroke:#181818;stroke-width:0.5;" x1="112" x2="336" y1="263" y2="263"/><ellipse cx="122" cy="274" fill="none" rx="3" ry="3" style="stroke:#038048;stroke-width:1.0;"/><text fill="#000000" font-family="sans-serif" font-size="14" lengthAdjust="spacing" textLength="59" x="131" y="279.9951">id : Long</text><ellipse cx="122" cy="290.2969" fill="none" rx="3" ry="3" style="stroke:#038048;stroke-width:1.0;"/><text fill="#000000" font-family="sans-serif" font-size="14" lengthAdjust="spacing" textLength="200" x="131" y="296.292">publishingDate : XMLGregCal</text><ellipse cx="122" cy="306.5938" fill="none" rx="3" ry="3" style="stroke:#038048;stroke-width:1.0;"/><text fill="#000000" font-family="sans-serif" font-size="14" lengthAdjust="spacing" textLength="78" x="131" y="312.5889">title : String</text><ellipse cx="122" cy="322.8906" fill="none" rx="3" ry="3" style="stroke:#038048;stroke-width:1.0;"/><text fill="#000000" font-family="sans-serif" font-size="14" lengthAdjust="spacing" textLength="97" x="131" y="328.8857">version : Long</text><line style="stroke:#181818;stroke-width:0.5;" x1="112" x2="336" y1="336.1875" y2="336.1875"/></g><!--MD5=[f457955dba1f5c77f910763a117e5916]
reverse link org.example.pub.model.Author to org.example.pub.model.Publication--><g id="link_org.example.pub.model.Author_org.example.pub.model.Publication"><path codeLine="30" d="M277.17,151.22 C260.55,163.31 246.48,175.19 241,184 C232.38,197.87 227.73,214.74 225.32,230.76 " fill="none" id="org.example.pub.model.Author-backto-org.example.pub.model.Publication" style="stroke:#181818;stroke-width:1.0;"/><polygon fill="none" points="287.8,143.68,280.5919,143.8867,278.0103,150.6199,285.2184,150.4132,287.8,143.68" style="stroke:#181818;stroke-width:1.0;"/><text fill="#000000" font-family="sans-serif" font-size="13" lengthAdjust="spacing" textLength="76" x="242" y="197.0669">publications</text><text fill="#000000" font-family="sans-serif" font-size="13" lengthAdjust="spacing" textLength="8" x="271.9419" y="144.7329">1</text><text fill="#000000" font-family="sans-serif" font-size="13" lengthAdjust="spacing" textLength="23" x="201.0793" y="219.9943">0..*</text></g><!--MD5=[51e8689733f2917952a53b97ed12f637]
reverse link org.example.pub.model.Publication to org.example.pub.model.Author--><g id="link_org.example.pub.model.Publication_org.example.pub.model.Author"><path codeLine="33" d="M306.48,221.54 C312.5,214.98 318.11,208.1 323,201 C332.65,186.97 340.09,170.14 345.67,154.2 " fill="none" id="org.example.pub.model.Publication-backto-org.example.pub.model.Author" style="stroke:#181818;stroke-width:1.0;"/><polygon fill="none" points="297.42,230.92,304.4671,229.3906,305.7657,222.2974,298.7187,223.8268,297.42,230.92" style="stroke:#181818;stroke-width:1.0;"/><text fill="#000000" font-family="sans-serif" font-size="13" lengthAdjust="spacing" textLength="49" x="333" y="197.0669">authors</text><text fill="#000000" font-family="sans-serif" font-size="13" lengthAdjust="spacing" textLength="8" x="298.3144" y="219.7731">1</text><text fill="#000000" font-family="sans-serif" font-size="13" lengthAdjust="spacing" textLength="23" x="319.522" y="174.0879">0..*</text></g><!--MD5=[30f27a937cc2fb217356a990c23c689e]
link org.example.pub.model.Blog to org.example.pub.model.Publication--><g id="link_org.example.pub.model.Blog_org.example.pub.model.Publication"><path codeLine="31" d="M204.65,129.53 C204.74,149.91 205.43,177.1 208,201 C208.34,204.15 208.73,207.36 209.16,210.6 " fill="none" id="org.example.pub.model.Blog-to-org.example.pub.model.Publication" style="stroke:#181818;stroke-width:1.0;"/><polygon fill="none" points="216.11,209.74,212.24,230.58,202.28,211.88,216.11,209.74" style="stroke:#181818;stroke-width:1.0;"/></g><!--MD5=[3b8bfa9a7c7798d82af4d568b2e4bc8b]
link org.example.pub.model.Book to org.example.pub.model.Publication--><g id="link_org.example.pub.model.Book_org.example.pub.model.Publication"><path codeLine="32" d="M97.1,129.54 C115.9,152.79 142.38,185.55 166.3,215.13 " fill="none" id="org.example.pub.model.Book-to-org.example.pub.model.Publication" style="stroke:#181818;stroke-width:1.0;"/><polygon fill="none" points="171.76,210.75,178.89,230.7,160.87,219.55,171.76,210.75" style="stroke:#181818;stroke-width:1.0;"/></g><!--MD5=[f051409af26459fac0e1bd98d6c98011]
@startuml

class org.example.pub.model.Author {
	{field} +firstName : String
	{field} +id : Long
	{field} +lastName : String
	{field} +version : Long
}


class org.example.pub.model.Blog {
	{field} +url : String
}


class org.example.pub.model.Book {
	{field} +pages : int
}


class org.example.pub.model.Publication {
	{field} +id : Long
	{field} +publishingDate : XMLGregCal
	{field} +title : String
	{field} +version : Long
}




org.example.pub.model.Author "1" o- - "0..*"  org.example.pub.model.Publication : publications
org.example.pub.model.Blog - -|>  org.example.pub.model.Publication
org.example.pub.model.Book - -|>  org.example.pub.model.Publication
org.example.pub.model.Publication "1" o- - "0..*"  org.example.pub.model.Author : authors


@enduml

PlantUML version 1.2022.5(Sat Apr 30 06:55:52 EDT 2022)
(GPL source distribution)
Java Runtime: OpenJDK Runtime Environment
JVM: OpenJDK 64-Bit Server VM
Default Encoding: UTF-8
Language: en
Country: US
--></g></svg>