<?xml version="1.0" encoding="UTF-8" standalone="no"?>
<!DOCTYPE svg PUBLIC "-//W3C//DTD SVG 1.1//EN"
 "http://www.w3.org/Graphics/SVG/1.1/DTD/svg11.dtd">
<!-- Generated by graphviz version 2.43.0 (0)
 -->
<!-- Title: SchemaCrawler_Diagram Pages: 1 -->
<svg width="611pt" height="368pt"
 viewBox="0.00 0.00 611.00 368.00" xmlns="http://www.w3.org/2000/svg" xmlns:xlink="http://www.w3.org/1999/xlink">
<g id="graph0" class="graph" transform="scale(1 1) rotate(0) translate(4 364)">
<title>SchemaCrawler_Diagram</title>
<polygon fill="white" stroke="transparent" points="-4,4 -4,-364 607,-364 607,4 -4,4"/>
<text text-anchor="start" x="382" y="-11.3" font-family="Helvetica,sans-Serif" font-weight="bold" font-style="italic" font-size="14.00">Publication: HB&#45;PG&#45;JOINED</text>
<polygon fill="none" stroke="#888888" points="379,-4 379,-25 595,-25 595,-4 379,-4"/>
<!-- author_c30dd856 -->
<g id="node1" class="node">
<title>author_c30dd856</title>
<polygon fill="#c2c5f2" stroke="transparent" points="46,-249.5 46,-268.5 133,-268.5 133,-249.5 46,-249.5"/>
<text text-anchor="start" x="48" y="-256.3" font-family="Helvetica,sans-Serif" font-weight="bold" font-style="italic" font-size="14.00">author</text>
<polygon fill="#c2c5f2" stroke="transparent" points="133,-249.5 133,-268.5 228,-268.5 228,-249.5 133,-249.5"/>
<text text-anchor="start" x="180" y="-255.3" font-family="Helvetica,sans-Serif" font-size="14.00">[table]</text>
<text text-anchor="start" x="48" y="-237.3" font-family="Helvetica,sans-Serif" font-weight="bold" font-style="italic" font-size="14.00">id</text>
<text text-anchor="start" x="126" y="-236.3" font-family="Helvetica,sans-Serif" font-size="14.00"> </text>
<text text-anchor="start" x="135" y="-236.3" font-family="Helvetica,sans-Serif" font-size="14.00">int8 not null</text>
<text text-anchor="start" x="48" y="-217.3" font-family="Helvetica,sans-Serif" font-size="14.00">first_name</text>
<text text-anchor="start" x="126" y="-217.3" font-family="Helvetica,sans-Serif" font-size="14.00"> </text>
<text text-anchor="start" x="135" y="-217.3" font-family="Helvetica,sans-Serif" font-size="14.00">varchar(255)</text>
<text text-anchor="start" x="48" y="-198.3" font-family="Helvetica,sans-Serif" font-size="14.00">last_name</text>
<text text-anchor="start" x="126" y="-198.3" font-family="Helvetica,sans-Serif" font-size="14.00"> </text>
<text text-anchor="start" x="135" y="-198.3" font-family="Helvetica,sans-Serif" font-size="14.00">varchar(255)</text>
<text text-anchor="start" x="48" y="-179.3" font-family="Helvetica,sans-Serif" font-size="14.00">version</text>
<text text-anchor="start" x="126" y="-179.3" font-family="Helvetica,sans-Serif" font-size="14.00"> </text>
<text text-anchor="start" x="135" y="-179.3" font-family="Helvetica,sans-Serif" font-size="14.00">int8</text>
<polygon fill="none" stroke="#888888" points="45,-173 45,-270 229,-270 229,-173 45,-173"/>
</g>
<!-- publication_author_join_4288896 -->
<g id="node2" class="node">
<title>publication_author_join_4288896</title>
<polygon fill="#c2c5f2" stroke="transparent" points="319.5,-250.5 319.5,-269.5 505.5,-269.5 505.5,-250.5 319.5,-250.5"/>
<text text-anchor="start" x="321.5" y="-257.3" font-family="Helvetica,sans-Serif" font-weight="bold" font-style="italic" font-size="14.00">publication_author_join</text>
<polygon fill="#c2c5f2" stroke="transparent" points="505.5,-250.5 505.5,-269.5 594.5,-269.5 594.5,-250.5 505.5,-250.5"/>
<text text-anchor="start" x="546.5" y="-256.3" font-family="Helvetica,sans-Serif" font-size="14.00">[table]</text>
<text text-anchor="start" x="321.5" y="-237.3" font-family="Helvetica,sans-Serif" font-size="14.00">publication_id</text>
<text text-anchor="start" x="460.5" y="-237.3" font-family="Helvetica,sans-Serif" font-size="14.00"> </text>
<text text-anchor="start" x="507.5" y="-237.3" font-family="Helvetica,sans-Serif" font-size="14.00">int8 not null</text>
<text text-anchor="start" x="321.5" y="-218.3" font-family="Helvetica,sans-Serif" font-size="14.00">author_id</text>
<text text-anchor="start" x="460.5" y="-218.3" font-family="Helvetica,sans-Serif" font-size="14.00"> </text>
<text text-anchor="start" x="507.5" y="-218.3" font-family="Helvetica,sans-Serif" font-size="14.00">int8 not null</text>
<polygon fill="none" stroke="#888888" points="318,-212 318,-271 595,-271 595,-212 318,-212"/>
</g>
<!-- publication_author_join_4288896&#45;&gt;author_c30dd856 -->
<g id="edge1" class="edge">
<title>publication_author_join_4288896:w&#45;&gt;author_c30dd856:e</title>
<path fill="none" stroke="black" d="M300.45,-222.93C276.95,-226.88 265.39,-237.82 239,-240.09"/>
<polygon fill="black" stroke="black" points="308.53,-222.29 318.85,-225.99 313.52,-221.89 318.5,-221.5 318.5,-221.5 318.5,-221.5 313.52,-221.89 318.15,-217.01 308.53,-222.29 308.53,-222.29"/>
<ellipse fill="none" stroke="black" cx="304.54" cy="-222.6" rx="4" ry="4"/>
<polygon fill="black" stroke="black" points="230.21,-245.45 229.79,-235.46 231.79,-235.38 232.2,-245.37 230.21,-245.45"/>
<polyline fill="none" stroke="black" points="229,-240.5 234,-240.29 "/>
<polygon fill="black" stroke="black" points="235.2,-245.25 234.79,-235.26 236.79,-235.17 237.2,-245.17 235.2,-245.25"/>
<polyline fill="none" stroke="black" points="234,-240.29 238.99,-240.09 "/>
</g>
<!-- publication_d69c58f7 -->
<g id="node5" class="node">
<title>publication_d69c58f7</title>
<polygon fill="#c2c5f2" stroke="transparent" points="9,-126.5 9,-145.5 170,-145.5 170,-126.5 9,-126.5"/>
<text text-anchor="start" x="11" y="-133.3" font-family="Helvetica,sans-Serif" font-weight="bold" font-style="italic" font-size="14.00">publication</text>
<polygon fill="#c2c5f2" stroke="transparent" points="170,-126.5 170,-145.5 265,-145.5 265,-126.5 170,-126.5"/>
<text text-anchor="start" x="217" y="-132.3" font-family="Helvetica,sans-Serif" font-size="14.00">[table]</text>
<text text-anchor="start" x="11" y="-114.3" font-family="Helvetica,sans-Serif" font-weight="bold" font-style="italic" font-size="14.00">id</text>
<text text-anchor="start" x="163" y="-113.3" font-family="Helvetica,sans-Serif" font-size="14.00"> </text>
<text text-anchor="start" x="172" y="-113.3" font-family="Helvetica,sans-Serif" font-size="14.00">int8 not null</text>
<text text-anchor="start" x="11" y="-94.3" font-family="Helvetica,sans-Serif" font-size="14.00">publishing_date_item</text>
<text text-anchor="start" x="163" y="-94.3" font-family="Helvetica,sans-Serif" font-size="14.00"> </text>
<text text-anchor="start" x="172" y="-94.3" font-family="Helvetica,sans-Serif" font-size="14.00">timestamp</text>
<text text-anchor="start" x="11" y="-75.3" font-family="Helvetica,sans-Serif" font-size="14.00">title</text>
<text text-anchor="start" x="163" y="-75.3" font-family="Helvetica,sans-Serif" font-size="14.00"> </text>
<text text-anchor="start" x="172" y="-75.3" font-family="Helvetica,sans-Serif" font-size="14.00">varchar(255)</text>
<text text-anchor="start" x="11" y="-56.3" font-family="Helvetica,sans-Serif" font-size="14.00">version</text>
<text text-anchor="start" x="163" y="-56.3" font-family="Helvetica,sans-Serif" font-size="14.00"> </text>
<text text-anchor="start" x="172" y="-56.3" font-family="Helvetica,sans-Serif" font-size="14.00">int8</text>
<polygon fill="none" stroke="#888888" points="8,-50 8,-147 266,-147 266,-50 8,-50"/>
</g>
<!-- publication_author_join_4288896&#45;&gt;publication_d69c58f7 -->
<g id="edge4" class="edge">
<title>publication_author_join_4288896:w&#45;&gt;publication_d69c58f7:e</title>
<path fill="none" stroke="black" d="M301.25,-234.9C276.1,-212.62 311.68,-130.97 276.02,-118.98"/>
<polygon fill="black" stroke="black" points="308.99,-237.41 317.11,-244.78 313.74,-238.96 318.5,-240.5 318.5,-240.5 318.5,-240.5 313.74,-238.96 319.89,-236.22 308.99,-237.41 308.99,-237.41"/>
<ellipse fill="none" stroke="black" cx="305.18" cy="-236.17" rx="4" ry="4"/>
<polygon fill="black" stroke="black" points="266.26,-122.59 267.72,-112.7 269.7,-112.99 268.24,-122.88 266.26,-122.59"/>
<polyline fill="none" stroke="black" points="266,-117.5 270.95,-118.23 "/>
<polygon fill="black" stroke="black" points="271.21,-123.32 272.66,-113.43 274.64,-113.72 273.19,-123.61 271.21,-123.32"/>
<polyline fill="none" stroke="black" points="270.95,-118.23 275.89,-118.96 "/>
</g>
<!-- blog_170ee66d -->
<g id="node3" class="node">
<title>blog_170ee66d</title>
<polygon fill="#c2c5f2" stroke="transparent" points="390.5,-71.5 390.5,-90.5 428.5,-90.5 428.5,-71.5 390.5,-71.5"/>
<text text-anchor="start" x="392.5" y="-78.3" font-family="Helvetica,sans-Serif" font-weight="bold" font-style="italic" font-size="14.00">blog</text>
<polygon fill="#c2c5f2" stroke="transparent" points="428.5,-71.5 428.5,-90.5 523.5,-90.5 523.5,-71.5 428.5,-71.5"/>
<text text-anchor="start" x="475.5" y="-77.3" font-family="Helvetica,sans-Serif" font-size="14.00">[table]</text>
<text text-anchor="start" x="392.5" y="-58.3" font-family="Helvetica,sans-Serif" font-size="14.00">url</text>
<text text-anchor="start" x="418.5" y="-58.3" font-family="Helvetica,sans-Serif" font-size="14.00"> </text>
<text text-anchor="start" x="430.5" y="-58.3" font-family="Helvetica,sans-Serif" font-size="14.00">varchar(255)</text>
<text text-anchor="start" x="392.5" y="-40.3" font-family="Helvetica,sans-Serif" font-weight="bold" font-style="italic" font-size="14.00">id</text>
<text text-anchor="start" x="418.5" y="-39.3" font-family="Helvetica,sans-Serif" font-size="14.00"> </text>
<text text-anchor="start" x="430.5" y="-39.3" font-family="Helvetica,sans-Serif" font-size="14.00">int8 not null</text>
<polygon fill="none" stroke="#888888" points="389,-33 389,-92 524,-92 524,-33 389,-33"/>
</g>
<!-- blog_170ee66d&#45;&gt;publication_d69c58f7 -->
<g id="edge2" class="edge">
<title>blog_170ee66d:w&#45;&gt;publication_d69c58f7:e</title>
<path fill="none" stroke="black" d="M376.29,-43.68C328.7,-52.64 325.66,-109.92 276.17,-116.82"/>
<polygon fill="black" stroke="black" points="388.06,-37.61 388.95,-47.57 386.96,-47.75 386.07,-37.79 388.06,-37.61"/>
<polyline fill="none" stroke="black" points="389.5,-42.5 384.52,-42.94 "/>
<ellipse fill="none" stroke="black" cx="380.54" cy="-43.3" rx="4" ry="4"/>
<polygon fill="black" stroke="black" points="267.33,-122.42 266.66,-112.44 268.66,-112.31 269.33,-122.29 267.33,-122.42"/>
<polyline fill="none" stroke="black" points="266,-117.5 270.99,-117.17 "/>
<polygon fill="black" stroke="black" points="272.32,-122.09 271.65,-112.11 273.65,-111.98 274.32,-121.95 272.32,-122.09"/>
<polyline fill="none" stroke="black" points="270.99,-117.17 275.98,-116.83 "/>
</g>
<!-- book_170ef1b4 -->
<g id="node4" class="node">
<title>book_170ef1b4</title>
<polygon fill="#c2c5f2" stroke="transparent" points="384.5,-156.5 384.5,-175.5 440.5,-175.5 440.5,-156.5 384.5,-156.5"/>
<text text-anchor="start" x="386.5" y="-163.3" font-family="Helvetica,sans-Serif" font-weight="bold" font-style="italic" font-size="14.00">book</text>
<polygon fill="#c2c5f2" stroke="transparent" points="440.5,-156.5 440.5,-175.5 529.5,-175.5 529.5,-156.5 440.5,-156.5"/>
<text text-anchor="start" x="481.5" y="-162.3" font-family="Helvetica,sans-Serif" font-size="14.00">[table]</text>
<text text-anchor="start" x="386.5" y="-143.3" font-family="Helvetica,sans-Serif" font-size="14.00">pages</text>
<text text-anchor="start" x="433.5" y="-143.3" font-family="Helvetica,sans-Serif" font-size="14.00"> </text>
<text text-anchor="start" x="442.5" y="-143.3" font-family="Helvetica,sans-Serif" font-size="14.00">int4</text>
<text text-anchor="start" x="386.5" y="-125.3" font-family="Helvetica,sans-Serif" font-weight="bold" font-style="italic" font-size="14.00">id</text>
<text text-anchor="start" x="433.5" y="-124.3" font-family="Helvetica,sans-Serif" font-size="14.00"> </text>
<text text-anchor="start" x="442.5" y="-124.3" font-family="Helvetica,sans-Serif" font-size="14.00">int8 not null</text>
<polygon fill="none" stroke="#888888" points="383,-118 383,-177 530,-177 530,-118 383,-118"/>
</g>
<!-- book_170ef1b4&#45;&gt;publication_d69c58f7 -->
<g id="edge3" class="edge">
<title>book_170ef1b4:w&#45;&gt;publication_d69c58f7:e</title>
<path fill="none" stroke="black" d="M370.28,-127.27C331.59,-125.89 316.05,-118.69 276.1,-117.63"/>
<polygon fill="black" stroke="black" points="382.59,-122.48 382.41,-132.48 380.41,-132.45 380.59,-122.45 382.59,-122.48"/>
<polyline fill="none" stroke="black" points="383.5,-127.5 378.5,-127.41 "/>
<ellipse fill="none" stroke="black" cx="374.5" cy="-127.34" rx="4" ry="4"/>
<polygon fill="black" stroke="black" points="266.94,-122.51 267.06,-112.51 269.06,-112.54 268.93,-122.54 266.94,-122.51"/>
<polyline fill="none" stroke="black" points="266,-117.5 271,-117.56 "/>
<polygon fill="black" stroke="black" points="271.93,-122.58 272.06,-112.58 274.06,-112.6 273.93,-122.6 271.93,-122.58"/>
<polyline fill="none" stroke="black" points="271,-117.56 276,-117.63 "/>
</g>
<!-- sequences_d47f379d -->
<g id="node6" class="node">
<title>sequences_d47f379d</title>
<polygon fill="#c2c5f2" stroke="transparent" points="334.5,-335.5 334.5,-354.5 426.5,-354.5 426.5,-335.5 334.5,-335.5"/>
<text text-anchor="start" x="336.5" y="-342.3" font-family="Helvetica,sans-Serif" font-weight="bold" font-style="italic" font-size="14.00">sequences</text>
<polygon fill="#c2c5f2" stroke="transparent" points="426.5,-335.5 426.5,-354.5 578.5,-354.5 578.5,-335.5 426.5,-335.5"/>
<text text-anchor="start" x="530.5" y="-341.3" font-family="Helvetica,sans-Serif" font-size="14.00">[table]</text>
<text text-anchor="start" x="336.5" y="-323.3" font-family="Helvetica,sans-Serif" font-weight="bold" font-style="italic" font-size="14.00">seq_name</text>
<text text-anchor="start" x="419.5" y="-322.3" font-family="Helvetica,sans-Serif" font-size="14.00"> </text>
<text text-anchor="start" x="428.5" y="-322.3" font-family="Helvetica,sans-Serif" font-size="14.00">varchar(255) not null</text>
<text text-anchor="start" x="336.5" y="-303.3" font-family="Helvetica,sans-Serif" font-size="14.00">seq_next</text>
<text text-anchor="start" x="419.5" y="-303.3" font-family="Helvetica,sans-Serif" font-size="14.00"> </text>
<text text-anchor="start" x="428.5" y="-303.3" font-family="Helvetica,sans-Serif" font-size="14.00">int8</text>
<polygon fill="none" stroke="#888888" points="333.5,-297 333.5,-356 579.5,-356 579.5,-297 333.5,-297"/>
</g>
</g>
</svg>
