<?xml version="1.0" encoding="UTF-8" standalone="no"?>
<!DOCTYPE svg PUBLIC "-//W3C//DTD SVG 1.1//EN"
 "http://www.w3.org/Graphics/SVG/1.1/DTD/svg11.dtd">
<!-- Generated by graphviz version 2.43.0 (0)
 -->
<!-- Title: SchemaCrawler_Diagram Pages: 1 -->
<svg width="659pt" height="361pt"
 viewBox="0.00 0.00 659.00 360.50" xmlns="http://www.w3.org/2000/svg" xmlns:xlink="http://www.w3.org/1999/xlink">
<g id="graph0" class="graph" transform="scale(1 1) rotate(0) translate(4 356.5)">
<title>SchemaCrawler_Diagram</title>
<polygon fill="white" stroke="transparent" points="-4,4 -4,-356.5 655,-356.5 655,4 -4,4"/>
<text text-anchor="start" x="374" y="-11.3" font-family="Helvetica,sans-Serif" font-weight="bold" font-style="italic" font-size="14.00">Publication: HB&#45;PG&#45;SINGLE_TABLE</text>
<polygon fill="none" stroke="#888888" points="371,-4 371,-25 643,-25 643,-4 371,-4"/>
<!-- author_c30dd856 -->
<g id="node1" class="node">
<title>author_c30dd856</title>
<polygon fill="#c2c5f2" stroke="transparent" points="54,-129 54,-148 141,-148 141,-129 54,-129"/>
<text text-anchor="start" x="56" y="-135.8" font-family="Helvetica,sans-Serif" font-weight="bold" font-style="italic" font-size="14.00">author</text>
<polygon fill="#c2c5f2" stroke="transparent" points="141,-129 141,-148 269,-148 269,-129 141,-129"/>
<text text-anchor="start" x="221" y="-134.8" font-family="Helvetica,sans-Serif" font-size="14.00">[table]</text>
<text text-anchor="start" x="56" y="-116.8" font-family="Helvetica,sans-Serif" font-weight="bold" font-style="italic" font-size="14.00">id</text>
<text text-anchor="start" x="134" y="-115.8" font-family="Helvetica,sans-Serif" font-size="14.00"> </text>
<text text-anchor="start" x="143" y="-115.8" font-family="Helvetica,sans-Serif" font-size="14.00">bigserial not null</text>
<text text-anchor="start" x="134" y="-96.8" font-family="Helvetica,sans-Serif" font-size="14.00"> </text>
<text text-anchor="start" x="143" y="-96.8" font-family="Helvetica,sans-Serif" font-size="14.00">auto&#45;incremented</text>
<text text-anchor="start" x="56" y="-77.8" font-family="Helvetica,sans-Serif" font-size="14.00">first_name</text>
<text text-anchor="start" x="134" y="-77.8" font-family="Helvetica,sans-Serif" font-size="14.00"> </text>
<text text-anchor="start" x="143" y="-77.8" font-family="Helvetica,sans-Serif" font-size="14.00">varchar(255)</text>
<text text-anchor="start" x="56" y="-58.8" font-family="Helvetica,sans-Serif" font-size="14.00">last_name</text>
<text text-anchor="start" x="134" y="-58.8" font-family="Helvetica,sans-Serif" font-size="14.00"> </text>
<text text-anchor="start" x="143" y="-58.8" font-family="Helvetica,sans-Serif" font-size="14.00">varchar(255)</text>
<text text-anchor="start" x="56" y="-39.8" font-family="Helvetica,sans-Serif" font-size="14.00">version</text>
<text text-anchor="start" x="134" y="-39.8" font-family="Helvetica,sans-Serif" font-size="14.00"> </text>
<text text-anchor="start" x="143" y="-39.8" font-family="Helvetica,sans-Serif" font-size="14.00">int8</text>
<polygon fill="none" stroke="#888888" points="52.5,-33 52.5,-149 269.5,-149 269.5,-33 52.5,-33"/>
</g>
<!-- publication_author_join_4288896 -->
<g id="node2" class="node">
<title>publication_author_join_4288896</title>
<polygon fill="#c2c5f2" stroke="transparent" points="367.5,-229 367.5,-248 553.5,-248 553.5,-229 367.5,-229"/>
<text text-anchor="start" x="369.5" y="-235.8" font-family="Helvetica,sans-Serif" font-weight="bold" font-style="italic" font-size="14.00">publication_author_join</text>
<polygon fill="#c2c5f2" stroke="transparent" points="553.5,-229 553.5,-248 642.5,-248 642.5,-229 553.5,-229"/>
<text text-anchor="start" x="594.5" y="-234.8" font-family="Helvetica,sans-Serif" font-size="14.00">[table]</text>
<text text-anchor="start" x="369.5" y="-215.8" font-family="Helvetica,sans-Serif" font-size="14.00">publication_id</text>
<text text-anchor="start" x="508.5" y="-215.8" font-family="Helvetica,sans-Serif" font-size="14.00"> </text>
<text text-anchor="start" x="555.5" y="-215.8" font-family="Helvetica,sans-Serif" font-size="14.00">int8 not null</text>
<text text-anchor="start" x="369.5" y="-196.8" font-family="Helvetica,sans-Serif" font-size="14.00">author_id</text>
<text text-anchor="start" x="508.5" y="-196.8" font-family="Helvetica,sans-Serif" font-size="14.00"> </text>
<text text-anchor="start" x="555.5" y="-196.8" font-family="Helvetica,sans-Serif" font-size="14.00">int8 not null</text>
<polygon fill="none" stroke="#888888" points="366,-190.5 366,-249.5 643,-249.5 643,-190.5 366,-190.5"/>
</g>
<!-- publication_author_join_4288896&#45;&gt;author_c30dd856 -->
<g id="edge1" class="edge">
<title>publication_author_join_4288896:w&#45;&gt;author_c30dd856:e</title>
<path fill="none" stroke="black" d="M349.01,-194.78C339.42,-187.41 335.91,-173.55 322,-162 302.09,-145.47 299.95,-125.87 280.09,-121.09"/>
<polygon fill="black" stroke="black" points="356.92,-197.14 365.21,-204.31 361.71,-198.57 366.5,-200 366.5,-200 366.5,-200 361.71,-198.57 367.79,-195.69 356.92,-197.14 356.92,-197.14"/>
<ellipse fill="none" stroke="black" cx="353.08" cy="-196" rx="4" ry="4"/>
<polygon fill="black" stroke="black" points="270.46,-125.08 271.53,-115.14 273.52,-115.35 272.45,-125.29 270.46,-125.08"/>
<polyline fill="none" stroke="black" points="270,-120 274.97,-120.54 "/>
<polygon fill="black" stroke="black" points="275.43,-125.62 276.5,-115.67 278.49,-115.89 277.42,-125.83 275.43,-125.62"/>
<polyline fill="none" stroke="black" points="274.97,-120.54 279.94,-121.07 "/>
</g>
<!-- publication_d69c58f7 -->
<g id="node3" class="node">
<title>publication_d69c58f7</title>
<polygon fill="#c2c5f2" stroke="transparent" points="9,-328 9,-347 170,-347 170,-328 9,-328"/>
<text text-anchor="start" x="11" y="-334.8" font-family="Helvetica,sans-Serif" font-weight="bold" font-style="italic" font-size="14.00">publication</text>
<polygon fill="#c2c5f2" stroke="transparent" points="170,-328 170,-347 313,-347 313,-328 170,-328"/>
<text text-anchor="start" x="265" y="-333.8" font-family="Helvetica,sans-Serif" font-size="14.00">[table]</text>
<text text-anchor="start" x="11" y="-314.8" font-family="Helvetica,sans-Serif" font-size="14.00">dtype</text>
<text text-anchor="start" x="163" y="-314.8" font-family="Helvetica,sans-Serif" font-size="14.00"> </text>
<text text-anchor="start" x="172" y="-314.8" font-family="Helvetica,sans-Serif" font-size="14.00">varchar(31) not null</text>
<text text-anchor="start" x="11" y="-296.8" font-family="Helvetica,sans-Serif" font-weight="bold" font-style="italic" font-size="14.00">id</text>
<text text-anchor="start" x="163" y="-295.8" font-family="Helvetica,sans-Serif" font-size="14.00"> </text>
<text text-anchor="start" x="172" y="-295.8" font-family="Helvetica,sans-Serif" font-size="14.00">bigserial not null</text>
<text text-anchor="start" x="163" y="-276.8" font-family="Helvetica,sans-Serif" font-size="14.00"> </text>
<text text-anchor="start" x="172" y="-276.8" font-family="Helvetica,sans-Serif" font-size="14.00">auto&#45;incremented</text>
<text text-anchor="start" x="11" y="-257.8" font-family="Helvetica,sans-Serif" font-size="14.00">publishing_date_item</text>
<text text-anchor="start" x="163" y="-257.8" font-family="Helvetica,sans-Serif" font-size="14.00"> </text>
<text text-anchor="start" x="172" y="-257.8" font-family="Helvetica,sans-Serif" font-size="14.00">timestamp</text>
<text text-anchor="start" x="11" y="-238.8" font-family="Helvetica,sans-Serif" font-size="14.00">title</text>
<text text-anchor="start" x="163" y="-238.8" font-family="Helvetica,sans-Serif" font-size="14.00"> </text>
<text text-anchor="start" x="172" y="-238.8" font-family="Helvetica,sans-Serif" font-size="14.00">varchar(255)</text>
<text text-anchor="start" x="11" y="-219.8" font-family="Helvetica,sans-Serif" font-size="14.00">version</text>
<text text-anchor="start" x="163" y="-219.8" font-family="Helvetica,sans-Serif" font-size="14.00"> </text>
<text text-anchor="start" x="172" y="-219.8" font-family="Helvetica,sans-Serif" font-size="14.00">int8</text>
<text text-anchor="start" x="11" y="-200.8" font-family="Helvetica,sans-Serif" font-size="14.00">url</text>
<text text-anchor="start" x="163" y="-200.8" font-family="Helvetica,sans-Serif" font-size="14.00"> </text>
<text text-anchor="start" x="172" y="-200.8" font-family="Helvetica,sans-Serif" font-size="14.00">varchar(255)</text>
<text text-anchor="start" x="11" y="-181.8" font-family="Helvetica,sans-Serif" font-size="14.00">pages</text>
<text text-anchor="start" x="163" y="-181.8" font-family="Helvetica,sans-Serif" font-size="14.00"> </text>
<text text-anchor="start" x="172" y="-181.8" font-family="Helvetica,sans-Serif" font-size="14.00">int4</text>
<polygon fill="none" stroke="#888888" points="8,-175.5 8,-348.5 314,-348.5 314,-175.5 8,-175.5"/>
</g>
<!-- publication_author_join_4288896&#45;&gt;publication_d69c58f7 -->
<g id="edge2" class="edge">
<title>publication_author_join_4288896:w&#45;&gt;publication_d69c58f7:e</title>
<path fill="none" stroke="black" d="M349.87,-225.91C335.01,-243.28 345.97,-288.1 324.11,-298.03"/>
<polygon fill="black" stroke="black" points="357.26,-222.84 368.23,-223.16 361.88,-220.92 366.5,-219 366.5,-219 366.5,-219 361.88,-220.92 364.77,-214.84 357.26,-222.84 357.26,-222.84"/>
<ellipse fill="none" stroke="black" cx="353.57" cy="-224.37" rx="4" ry="4"/>
<polygon fill="black" stroke="black" points="315.94,-304.72 314.03,-294.9 315.99,-294.52 317.9,-304.33 315.94,-304.72"/>
<polyline fill="none" stroke="black" points="314,-300 318.91,-299.04 "/>
<polygon fill="black" stroke="black" points="320.85,-303.76 318.93,-293.95 320.9,-293.56 322.81,-303.38 320.85,-303.76"/>
<polyline fill="none" stroke="black" points="318.91,-299.04 323.82,-298.09 "/>
</g>
</g>
</svg>
