<?xml version="1.0" encoding="UTF-8" standalone="no"?>
<!DOCTYPE svg PUBLIC "-//W3C//DTD SVG 1.1//EN"
 "http://www.w3.org/Graphics/SVG/1.1/DTD/svg11.dtd">
<!-- Generated by graphviz version 2.43.0 (0)
 -->
<!-- Title: SchemaCrawler_Diagram Pages: 1 -->
<svg width="907pt" height="323pt"
 viewBox="0.00 0.00 907.00 322.50" xmlns="http://www.w3.org/2000/svg" xmlns:xlink="http://www.w3.org/1999/xlink">
<g id="graph0" class="graph" transform="scale(1 1) rotate(0) translate(4 318.5)">
<title>SchemaCrawler_Diagram</title>
<polygon fill="white" stroke="transparent" points="-4,4 -4,-318.5 903,-318.5 903,4 -4,4"/>
<text text-anchor="start" x="622" y="-11.3" font-family="Helvetica,sans-Serif" font-weight="bold" font-style="italic" font-size="14.00">Publication: HB&#45;H2&#45;SINGLE_TABLE</text>
<polygon fill="none" stroke="#888888" points="619,-4 619,-25 891,-25 891,-4 619,-4"/>
<!-- author_7775551e -->
<g id="node1" class="node">
<title>author_7775551e</title>
<polygon fill="#c2f2da" stroke="transparent" points="79,-109.5 79,-128.5 166,-128.5 166,-109.5 79,-109.5"/>
<text text-anchor="start" x="81" y="-116.3" font-family="Helvetica,sans-Serif" font-weight="bold" font-style="italic" font-size="14.00">author</text>
<polygon fill="#c2f2da" stroke="transparent" points="166,-109.5 166,-128.5 359,-128.5 359,-109.5 166,-109.5"/>
<text text-anchor="start" x="274" y="-115.3" font-family="Helvetica,sans-Serif" font-size="14.00">[base table]</text>
<text text-anchor="start" x="81" y="-97.3" font-family="Helvetica,sans-Serif" font-weight="bold" font-style="italic" font-size="14.00">id</text>
<text text-anchor="start" x="159" y="-96.3" font-family="Helvetica,sans-Serif" font-size="14.00"> </text>
<text text-anchor="start" x="168" y="-96.3" font-family="Helvetica,sans-Serif" font-size="14.00">BIGINT NOT NULL</text>
<text text-anchor="start" x="81" y="-77.3" font-family="Helvetica,sans-Serif" font-size="14.00">first_name</text>
<text text-anchor="start" x="159" y="-77.3" font-family="Helvetica,sans-Serif" font-size="14.00"> </text>
<text text-anchor="start" x="168" y="-77.3" font-family="Helvetica,sans-Serif" font-size="14.00">CHARACTER VARYING(255)</text>
<text text-anchor="start" x="81" y="-58.3" font-family="Helvetica,sans-Serif" font-size="14.00">last_name</text>
<text text-anchor="start" x="159" y="-58.3" font-family="Helvetica,sans-Serif" font-size="14.00"> </text>
<text text-anchor="start" x="168" y="-58.3" font-family="Helvetica,sans-Serif" font-size="14.00">CHARACTER VARYING(255)</text>
<text text-anchor="start" x="81" y="-39.3" font-family="Helvetica,sans-Serif" font-size="14.00">version</text>
<text text-anchor="start" x="159" y="-39.3" font-family="Helvetica,sans-Serif" font-size="14.00"> </text>
<text text-anchor="start" x="168" y="-39.3" font-family="Helvetica,sans-Serif" font-size="14.00">BIGINT</text>
<polygon fill="none" stroke="#888888" points="78,-33 78,-130 360,-130 360,-33 78,-33"/>
</g>
<!-- publication_author_join_b890055e -->
<g id="node2" class="node">
<title>publication_author_join_b890055e</title>
<polygon fill="#c2f2da" stroke="transparent" points="529.5,-200.5 529.5,-219.5 715.5,-219.5 715.5,-200.5 529.5,-200.5"/>
<text text-anchor="start" x="531.5" y="-207.3" font-family="Helvetica,sans-Serif" font-weight="bold" font-style="italic" font-size="14.00">publication_author_join</text>
<polygon fill="#c2f2da" stroke="transparent" points="715.5,-200.5 715.5,-219.5 843.5,-219.5 843.5,-200.5 715.5,-200.5"/>
<text text-anchor="start" x="758.5" y="-206.3" font-family="Helvetica,sans-Serif" font-size="14.00">[base table]</text>
<text text-anchor="start" x="531.5" y="-187.3" font-family="Helvetica,sans-Serif" font-size="14.00">publication_id</text>
<text text-anchor="start" x="670.5" y="-187.3" font-family="Helvetica,sans-Serif" font-size="14.00"> </text>
<text text-anchor="start" x="717.5" y="-187.3" font-family="Helvetica,sans-Serif" font-size="14.00">BIGINT NOT NULL</text>
<text text-anchor="start" x="531.5" y="-168.3" font-family="Helvetica,sans-Serif" font-size="14.00">author_id</text>
<text text-anchor="start" x="670.5" y="-168.3" font-family="Helvetica,sans-Serif" font-size="14.00"> </text>
<text text-anchor="start" x="717.5" y="-168.3" font-family="Helvetica,sans-Serif" font-size="14.00">BIGINT NOT NULL</text>
<polygon fill="none" stroke="#888888" points="528.5,-162 528.5,-221 844.5,-221 844.5,-162 528.5,-162"/>
</g>
<!-- publication_author_join_b890055e&#45;&gt;author_7775551e -->
<g id="edge1" class="edge">
<title>publication_author_join_b890055e:w&#45;&gt;author_7775551e:e</title>
<path fill="none" stroke="black" d="M510.35,-170.21C448.82,-161.04 435.91,-106.02 370.1,-100.88"/>
<polygon fill="black" stroke="black" points="518.53,-170.79 528.18,-175.99 523.51,-171.14 528.5,-171.5 528.5,-171.5 528.5,-171.5 523.51,-171.14 528.82,-167.01 518.53,-170.79 518.53,-170.79"/>
<ellipse fill="none" stroke="black" cx="514.54" cy="-170.51" rx="4" ry="4"/>
<polygon fill="black" stroke="black" points="360.81,-105.53 361.19,-95.54 363.19,-95.62 362.81,-105.61 360.81,-105.53"/>
<polyline fill="none" stroke="black" points="360,-100.5 365,-100.69 "/>
<polygon fill="black" stroke="black" points="365.81,-105.72 366.19,-95.73 368.18,-95.81 367.8,-105.8 365.81,-105.72"/>
<polyline fill="none" stroke="black" points="365,-100.69 369.99,-100.88 "/>
</g>
<!-- publication_8b03d5bf -->
<g id="node3" class="node">
<title>publication_8b03d5bf</title>
<polygon fill="#c2f2da" stroke="transparent" points="9,-290.5 9,-309.5 170,-309.5 170,-290.5 9,-290.5"/>
<text text-anchor="start" x="11" y="-297.3" font-family="Helvetica,sans-Serif" font-weight="bold" font-style="italic" font-size="14.00">publication</text>
<polygon fill="#c2f2da" stroke="transparent" points="170,-290.5 170,-309.5 429,-309.5 429,-290.5 170,-290.5"/>
<text text-anchor="start" x="344" y="-296.3" font-family="Helvetica,sans-Serif" font-size="14.00">[base table]</text>
<text text-anchor="start" x="11" y="-277.3" font-family="Helvetica,sans-Serif" font-size="14.00">dtype</text>
<text text-anchor="start" x="163" y="-277.3" font-family="Helvetica,sans-Serif" font-size="14.00"> </text>
<text text-anchor="start" x="172" y="-277.3" font-family="Helvetica,sans-Serif" font-size="14.00">CHARACTER VARYING(31) NOT NULL</text>
<text text-anchor="start" x="11" y="-259.3" font-family="Helvetica,sans-Serif" font-weight="bold" font-style="italic" font-size="14.00">id</text>
<text text-anchor="start" x="163" y="-258.3" font-family="Helvetica,sans-Serif" font-size="14.00"> </text>
<text text-anchor="start" x="172" y="-258.3" font-family="Helvetica,sans-Serif" font-size="14.00">BIGINT NOT NULL</text>
<text text-anchor="start" x="11" y="-239.3" font-family="Helvetica,sans-Serif" font-size="14.00">publishing_date_item</text>
<text text-anchor="start" x="163" y="-239.3" font-family="Helvetica,sans-Serif" font-size="14.00"> </text>
<text text-anchor="start" x="172" y="-239.3" font-family="Helvetica,sans-Serif" font-size="14.00">TIMESTAMP</text>
<text text-anchor="start" x="11" y="-220.3" font-family="Helvetica,sans-Serif" font-size="14.00">title</text>
<text text-anchor="start" x="163" y="-220.3" font-family="Helvetica,sans-Serif" font-size="14.00"> </text>
<text text-anchor="start" x="172" y="-220.3" font-family="Helvetica,sans-Serif" font-size="14.00">CHARACTER VARYING(255)</text>
<text text-anchor="start" x="11" y="-201.3" font-family="Helvetica,sans-Serif" font-size="14.00">version</text>
<text text-anchor="start" x="163" y="-201.3" font-family="Helvetica,sans-Serif" font-size="14.00"> </text>
<text text-anchor="start" x="172" y="-201.3" font-family="Helvetica,sans-Serif" font-size="14.00">BIGINT</text>
<text text-anchor="start" x="11" y="-182.3" font-family="Helvetica,sans-Serif" font-size="14.00">url</text>
<text text-anchor="start" x="163" y="-182.3" font-family="Helvetica,sans-Serif" font-size="14.00"> </text>
<text text-anchor="start" x="172" y="-182.3" font-family="Helvetica,sans-Serif" font-size="14.00">CHARACTER VARYING(255)</text>
<text text-anchor="start" x="11" y="-163.3" font-family="Helvetica,sans-Serif" font-size="14.00">pages</text>
<text text-anchor="start" x="163" y="-163.3" font-family="Helvetica,sans-Serif" font-size="14.00"> </text>
<text text-anchor="start" x="172" y="-163.3" font-family="Helvetica,sans-Serif" font-size="14.00">INTEGER</text>
<polygon fill="none" stroke="#888888" points="8,-156.5 8,-310.5 430,-310.5 430,-156.5 8,-156.5"/>
</g>
<!-- publication_author_join_b890055e&#45;&gt;publication_8b03d5bf -->
<g id="edge2" class="edge">
<title>publication_author_join_b890055e:w&#45;&gt;publication_8b03d5bf:e</title>
<path fill="none" stroke="black" d="M511.67,-197.14C489.08,-212.46 461.27,-249.72 439.91,-259.89"/>
<polygon fill="black" stroke="black" points="519.2,-194.17 530.15,-194.69 523.85,-192.34 528.5,-190.5 528.5,-190.5 528.5,-190.5 523.85,-192.34 526.85,-186.31 519.2,-194.17 519.2,-194.17"/>
<ellipse fill="none" stroke="black" cx="515.48" cy="-195.64" rx="4" ry="4"/>
<polygon fill="black" stroke="black" points="432.24,-267.08 429.7,-257.41 431.63,-256.9 434.17,-266.57 432.24,-267.08"/>
<polyline fill="none" stroke="black" points="430,-262.5 434.84,-261.23 "/>
<polygon fill="black" stroke="black" points="437.07,-265.81 434.53,-256.14 436.47,-255.63 439.01,-265.3 437.07,-265.81"/>
<polyline fill="none" stroke="black" points="434.84,-261.23 439.67,-259.96 "/>
</g>
<!-- sequences_88e6b465 -->
<g id="node4" class="node">
<title>sequences_88e6b465</title>
<polygon fill="#c2f2da" stroke="transparent" points="483.5,-285.5 483.5,-304.5 622.5,-304.5 622.5,-285.5 483.5,-285.5"/>
<text text-anchor="start" x="485.5" y="-292.3" font-family="Helvetica,sans-Serif" font-weight="bold" font-style="italic" font-size="14.00">sequences</text>
<polygon fill="#c2f2da" stroke="transparent" points="622.5,-285.5 622.5,-304.5 890.5,-304.5 890.5,-285.5 622.5,-285.5"/>
<text text-anchor="start" x="805.5" y="-291.3" font-family="Helvetica,sans-Serif" font-size="14.00">[base table]</text>
<text text-anchor="start" x="485.5" y="-273.3" font-family="Helvetica,sans-Serif" font-weight="bold" font-style="italic" font-size="14.00">sequence_name</text>
<text text-anchor="start" x="615.5" y="-272.3" font-family="Helvetica,sans-Serif" font-size="14.00"> </text>
<text text-anchor="start" x="624.5" y="-272.3" font-family="Helvetica,sans-Serif" font-size="14.00">CHARACTER VARYING(255) NOT NULL</text>
<text text-anchor="start" x="485.5" y="-253.3" font-family="Helvetica,sans-Serif" font-size="14.00">next_val</text>
<text text-anchor="start" x="615.5" y="-253.3" font-family="Helvetica,sans-Serif" font-size="14.00"> </text>
<text text-anchor="start" x="624.5" y="-253.3" font-family="Helvetica,sans-Serif" font-size="14.00">BIGINT</text>
<polygon fill="none" stroke="#888888" points="482,-247 482,-306 891,-306 891,-247 482,-247"/>
</g>
</g>
</svg>
