<?xml version="1.0" encoding="UTF-8" standalone="no"?>
<!DOCTYPE svg PUBLIC "-//W3C//DTD SVG 1.1//EN"
 "http://www.w3.org/Graphics/SVG/1.1/DTD/svg11.dtd">
<!-- Generated by graphviz version 2.43.0 (0)
 -->
<!-- Title: SchemaCrawler_Diagram Pages: 1 -->
<svg width="841pt" height="368pt"
 viewBox="0.00 0.00 841.00 368.00" xmlns="http://www.w3.org/2000/svg" xmlns:xlink="http://www.w3.org/1999/xlink">
<g id="graph0" class="graph" transform="scale(1 1) rotate(0) translate(4 364)">
<title>SchemaCrawler_Diagram</title>
<polygon fill="white" stroke="transparent" points="-4,4 -4,-364 837,-364 837,4 -4,4"/>
<text text-anchor="start" x="612" y="-11.3" font-family="Helvetica,sans-Serif" font-weight="bold" font-style="italic" font-size="14.00">Publication: HB&#45;H2&#45;JOINED</text>
<polygon fill="none" stroke="#888888" points="609,-4 609,-25 825,-25 825,-4 609,-4"/>
<!-- author_7775551e -->
<g id="node1" class="node">
<title>author_7775551e</title>
<polygon fill="#c2f2da" stroke="transparent" points="46,-249.5 46,-268.5 133,-268.5 133,-249.5 46,-249.5"/>
<text text-anchor="start" x="48" y="-256.3" font-family="Helvetica,sans-Serif" font-weight="bold" font-style="italic" font-size="14.00">author</text>
<polygon fill="#c2f2da" stroke="transparent" points="133,-249.5 133,-268.5 326,-268.5 326,-249.5 133,-249.5"/>
<text text-anchor="start" x="241" y="-255.3" font-family="Helvetica,sans-Serif" font-size="14.00">[base table]</text>
<text text-anchor="start" x="48" y="-237.3" font-family="Helvetica,sans-Serif" font-weight="bold" font-style="italic" font-size="14.00">id</text>
<text text-anchor="start" x="126" y="-236.3" font-family="Helvetica,sans-Serif" font-size="14.00"> </text>
<text text-anchor="start" x="135" y="-236.3" font-family="Helvetica,sans-Serif" font-size="14.00">BIGINT NOT NULL</text>
<text text-anchor="start" x="48" y="-217.3" font-family="Helvetica,sans-Serif" font-size="14.00">first_name</text>
<text text-anchor="start" x="126" y="-217.3" font-family="Helvetica,sans-Serif" font-size="14.00"> </text>
<text text-anchor="start" x="135" y="-217.3" font-family="Helvetica,sans-Serif" font-size="14.00">CHARACTER VARYING(255)</text>
<text text-anchor="start" x="48" y="-198.3" font-family="Helvetica,sans-Serif" font-size="14.00">last_name</text>
<text text-anchor="start" x="126" y="-198.3" font-family="Helvetica,sans-Serif" font-size="14.00"> </text>
<text text-anchor="start" x="135" y="-198.3" font-family="Helvetica,sans-Serif" font-size="14.00">CHARACTER VARYING(255)</text>
<text text-anchor="start" x="48" y="-179.3" font-family="Helvetica,sans-Serif" font-size="14.00">version</text>
<text text-anchor="start" x="126" y="-179.3" font-family="Helvetica,sans-Serif" font-size="14.00"> </text>
<text text-anchor="start" x="135" y="-179.3" font-family="Helvetica,sans-Serif" font-size="14.00">BIGINT</text>
<polygon fill="none" stroke="#888888" points="45,-173 45,-270 327,-270 327,-173 45,-173"/>
</g>
<!-- publication_author_join_b890055e -->
<g id="node2" class="node">
<title>publication_author_join_b890055e</title>
<polygon fill="#c2f2da" stroke="transparent" points="463.5,-250.5 463.5,-269.5 649.5,-269.5 649.5,-250.5 463.5,-250.5"/>
<text text-anchor="start" x="465.5" y="-257.3" font-family="Helvetica,sans-Serif" font-weight="bold" font-style="italic" font-size="14.00">publication_author_join</text>
<polygon fill="#c2f2da" stroke="transparent" points="649.5,-250.5 649.5,-269.5 777.5,-269.5 777.5,-250.5 649.5,-250.5"/>
<text text-anchor="start" x="692.5" y="-256.3" font-family="Helvetica,sans-Serif" font-size="14.00">[base table]</text>
<text text-anchor="start" x="465.5" y="-237.3" font-family="Helvetica,sans-Serif" font-size="14.00">publication_id</text>
<text text-anchor="start" x="604.5" y="-237.3" font-family="Helvetica,sans-Serif" font-size="14.00"> </text>
<text text-anchor="start" x="651.5" y="-237.3" font-family="Helvetica,sans-Serif" font-size="14.00">BIGINT NOT NULL</text>
<text text-anchor="start" x="465.5" y="-218.3" font-family="Helvetica,sans-Serif" font-size="14.00">author_id</text>
<text text-anchor="start" x="604.5" y="-218.3" font-family="Helvetica,sans-Serif" font-size="14.00"> </text>
<text text-anchor="start" x="651.5" y="-218.3" font-family="Helvetica,sans-Serif" font-size="14.00">BIGINT NOT NULL</text>
<polygon fill="none" stroke="#888888" points="462.5,-212 462.5,-271 778.5,-271 778.5,-212 462.5,-212"/>
</g>
<!-- publication_author_join_b890055e&#45;&gt;author_7775551e -->
<g id="edge1" class="edge">
<title>publication_author_join_b890055e:w&#45;&gt;author_7775551e:e</title>
<path fill="none" stroke="black" d="M444.41,-222.11C401.15,-225.15 383.58,-238.6 337.05,-240.32"/>
<polygon fill="black" stroke="black" points="452.51,-221.84 462.65,-226 457.5,-221.67 462.5,-221.5 462.5,-221.5 462.5,-221.5 457.5,-221.67 462.35,-217 452.51,-221.84 452.51,-221.84"/>
<ellipse fill="none" stroke="black" cx="448.51" cy="-221.97" rx="4" ry="4"/>
<polygon fill="black" stroke="black" points="328.09,-245.48 327.91,-235.48 329.91,-235.45 330.09,-245.44 328.09,-245.48"/>
<polyline fill="none" stroke="black" points="327,-240.5 332,-240.41 "/>
<polygon fill="black" stroke="black" points="333.09,-245.39 332.91,-235.39 334.91,-235.36 335.09,-245.35 333.09,-245.39"/>
<polyline fill="none" stroke="black" points="332,-240.41 337,-240.32 "/>
</g>
<!-- publication_8b03d5bf -->
<g id="node5" class="node">
<title>publication_8b03d5bf</title>
<polygon fill="#c2f2da" stroke="transparent" points="9,-126.5 9,-145.5 170,-145.5 170,-126.5 9,-126.5"/>
<text text-anchor="start" x="11" y="-133.3" font-family="Helvetica,sans-Serif" font-weight="bold" font-style="italic" font-size="14.00">publication</text>
<polygon fill="#c2f2da" stroke="transparent" points="170,-126.5 170,-145.5 363,-145.5 363,-126.5 170,-126.5"/>
<text text-anchor="start" x="278" y="-132.3" font-family="Helvetica,sans-Serif" font-size="14.00">[base table]</text>
<text text-anchor="start" x="11" y="-114.3" font-family="Helvetica,sans-Serif" font-weight="bold" font-style="italic" font-size="14.00">id</text>
<text text-anchor="start" x="163" y="-113.3" font-family="Helvetica,sans-Serif" font-size="14.00"> </text>
<text text-anchor="start" x="172" y="-113.3" font-family="Helvetica,sans-Serif" font-size="14.00">BIGINT NOT NULL</text>
<text text-anchor="start" x="11" y="-94.3" font-family="Helvetica,sans-Serif" font-size="14.00">publishing_date_item</text>
<text text-anchor="start" x="163" y="-94.3" font-family="Helvetica,sans-Serif" font-size="14.00"> </text>
<text text-anchor="start" x="172" y="-94.3" font-family="Helvetica,sans-Serif" font-size="14.00">TIMESTAMP</text>
<text text-anchor="start" x="11" y="-75.3" font-family="Helvetica,sans-Serif" font-size="14.00">title</text>
<text text-anchor="start" x="163" y="-75.3" font-family="Helvetica,sans-Serif" font-size="14.00"> </text>
<text text-anchor="start" x="172" y="-75.3" font-family="Helvetica,sans-Serif" font-size="14.00">CHARACTER VARYING(255)</text>
<text text-anchor="start" x="11" y="-56.3" font-family="Helvetica,sans-Serif" font-size="14.00">version</text>
<text text-anchor="start" x="163" y="-56.3" font-family="Helvetica,sans-Serif" font-size="14.00"> </text>
<text text-anchor="start" x="172" y="-56.3" font-family="Helvetica,sans-Serif" font-size="14.00">BIGINT</text>
<polygon fill="none" stroke="#888888" points="8,-50 8,-147 364,-147 364,-50 8,-50"/>
</g>
<!-- publication_author_join_b890055e&#45;&gt;publication_8b03d5bf -->
<g id="edge4" class="edge">
<title>publication_author_join_b890055e:w&#45;&gt;publication_8b03d5bf:e</title>
<path fill="none" stroke="black" d="M444.49,-236.99C428.23,-229.33 424.09,-210.18 408,-190.5 386.46,-164.15 398.69,-126.22 373.92,-118.79"/>
<polygon fill="black" stroke="black" points="452.68,-238.59 461.64,-244.92 457.59,-239.54 462.5,-240.5 462.5,-240.5 462.5,-240.5 457.59,-239.54 463.36,-236.08 452.68,-238.59 452.68,-238.59"/>
<ellipse fill="none" stroke="black" cx="448.76" cy="-237.83" rx="4" ry="4"/>
<polygon fill="black" stroke="black" points="364.35,-122.59 365.64,-112.67 367.62,-112.93 366.33,-122.85 364.35,-122.59"/>
<polyline fill="none" stroke="black" points="364,-117.5 368.96,-118.15 "/>
<polygon fill="black" stroke="black" points="369.3,-123.23 370.6,-113.32 372.58,-113.57 371.29,-123.49 369.3,-123.23"/>
<polyline fill="none" stroke="black" points="368.96,-118.15 373.92,-118.79 "/>
</g>
<!-- blog_cb766335 -->
<g id="node3" class="node">
<title>blog_cb766335</title>
<polygon fill="#c2f2da" stroke="transparent" points="505.5,-71.5 505.5,-90.5 543.5,-90.5 543.5,-71.5 505.5,-71.5"/>
<text text-anchor="start" x="507.5" y="-78.3" font-family="Helvetica,sans-Serif" font-weight="bold" font-style="italic" font-size="14.00">blog</text>
<polygon fill="#c2f2da" stroke="transparent" points="543.5,-71.5 543.5,-90.5 736.5,-90.5 736.5,-71.5 543.5,-71.5"/>
<text text-anchor="start" x="651.5" y="-77.3" font-family="Helvetica,sans-Serif" font-size="14.00">[base table]</text>
<text text-anchor="start" x="507.5" y="-58.3" font-family="Helvetica,sans-Serif" font-size="14.00">url</text>
<text text-anchor="start" x="533.5" y="-58.3" font-family="Helvetica,sans-Serif" font-size="14.00"> </text>
<text text-anchor="start" x="545.5" y="-58.3" font-family="Helvetica,sans-Serif" font-size="14.00">CHARACTER VARYING(255)</text>
<text text-anchor="start" x="507.5" y="-40.3" font-family="Helvetica,sans-Serif" font-weight="bold" font-style="italic" font-size="14.00">id</text>
<text text-anchor="start" x="533.5" y="-39.3" font-family="Helvetica,sans-Serif" font-size="14.00"> </text>
<text text-anchor="start" x="545.5" y="-39.3" font-family="Helvetica,sans-Serif" font-size="14.00">BIGINT NOT NULL</text>
<polygon fill="none" stroke="#888888" points="504,-33 504,-92 737,-92 737,-33 504,-33"/>
</g>
<!-- blog_cb766335&#45;&gt;publication_8b03d5bf -->
<g id="edge2" class="edge">
<title>blog_cb766335:w&#45;&gt;publication_8b03d5bf:e</title>
<path fill="none" stroke="black" d="M491.31,-43.45C436.7,-51.66 430.62,-110.52 374.3,-116.93"/>
<polygon fill="black" stroke="black" points="503.14,-37.58 503.86,-47.56 501.87,-47.7 501.15,-37.73 503.14,-37.58"/>
<polyline fill="none" stroke="black" points="504.5,-42.5 499.51,-42.86 "/>
<ellipse fill="none" stroke="black" cx="495.52" cy="-43.15" rx="4" ry="4"/>
<polygon fill="black" stroke="black" points="365.27,-122.44 364.72,-112.45 366.72,-112.34 367.27,-122.33 365.27,-122.44"/>
<polyline fill="none" stroke="black" points="364,-117.5 368.99,-117.23 "/>
<polygon fill="black" stroke="black" points="370.27,-122.16 369.72,-112.18 371.71,-112.07 372.26,-122.05 370.27,-122.16"/>
<polyline fill="none" stroke="black" points="368.99,-117.23 373.98,-116.95 "/>
</g>
<!-- book_cb766e7c -->
<g id="node4" class="node">
<title>book_cb766e7c</title>
<polygon fill="#c2f2da" stroke="transparent" points="528.5,-156.5 528.5,-175.5 584.5,-175.5 584.5,-156.5 528.5,-156.5"/>
<text text-anchor="start" x="530.5" y="-163.3" font-family="Helvetica,sans-Serif" font-weight="bold" font-style="italic" font-size="14.00">book</text>
<polygon fill="#c2f2da" stroke="transparent" points="584.5,-156.5 584.5,-175.5 712.5,-175.5 712.5,-156.5 584.5,-156.5"/>
<text text-anchor="start" x="627.5" y="-162.3" font-family="Helvetica,sans-Serif" font-size="14.00">[base table]</text>
<text text-anchor="start" x="530.5" y="-143.3" font-family="Helvetica,sans-Serif" font-size="14.00">pages</text>
<text text-anchor="start" x="577.5" y="-143.3" font-family="Helvetica,sans-Serif" font-size="14.00"> </text>
<text text-anchor="start" x="586.5" y="-143.3" font-family="Helvetica,sans-Serif" font-size="14.00">INTEGER</text>
<text text-anchor="start" x="530.5" y="-125.3" font-family="Helvetica,sans-Serif" font-weight="bold" font-style="italic" font-size="14.00">id</text>
<text text-anchor="start" x="577.5" y="-124.3" font-family="Helvetica,sans-Serif" font-size="14.00"> </text>
<text text-anchor="start" x="586.5" y="-124.3" font-family="Helvetica,sans-Serif" font-size="14.00">BIGINT NOT NULL</text>
<polygon fill="none" stroke="#888888" points="527.5,-118 527.5,-177 713.5,-177 713.5,-118 527.5,-118"/>
</g>
<!-- book_cb766e7c&#45;&gt;publication_8b03d5bf -->
<g id="edge3" class="edge">
<title>book_cb766e7c:w&#45;&gt;publication_8b03d5bf:e</title>
<path fill="none" stroke="black" d="M514.47,-127.39C455.41,-126.34 434.39,-118.37 374.04,-117.57"/>
<polygon fill="black" stroke="black" points="526.54,-122.49 526.46,-132.49 524.46,-132.47 524.54,-122.47 526.54,-122.49"/>
<polyline fill="none" stroke="black" points="527.5,-127.5 522.5,-127.46 "/>
<ellipse fill="none" stroke="black" cx="518.5" cy="-127.42" rx="4" ry="4"/>
<polygon fill="black" stroke="black" points="364.97,-122.51 365.03,-112.51 367.03,-112.52 366.97,-122.52 364.97,-122.51"/>
<polyline fill="none" stroke="black" points="364,-117.5 369,-117.53 "/>
<polygon fill="black" stroke="black" points="369.97,-122.54 370.03,-112.54 372.03,-112.55 371.97,-122.55 369.97,-122.54"/>
<polyline fill="none" stroke="black" points="369,-117.53 374,-117.57 "/>
</g>
<!-- sequences_88e6b465 -->
<g id="node6" class="node">
<title>sequences_88e6b465</title>
<polygon fill="#c2f2da" stroke="transparent" points="417.5,-335.5 417.5,-354.5 556.5,-354.5 556.5,-335.5 417.5,-335.5"/>
<text text-anchor="start" x="419.5" y="-342.3" font-family="Helvetica,sans-Serif" font-weight="bold" font-style="italic" font-size="14.00">sequences</text>
<polygon fill="#c2f2da" stroke="transparent" points="556.5,-335.5 556.5,-354.5 824.5,-354.5 824.5,-335.5 556.5,-335.5"/>
<text text-anchor="start" x="739.5" y="-341.3" font-family="Helvetica,sans-Serif" font-size="14.00">[base table]</text>
<text text-anchor="start" x="419.5" y="-323.3" font-family="Helvetica,sans-Serif" font-weight="bold" font-style="italic" font-size="14.00">sequence_name</text>
<text text-anchor="start" x="549.5" y="-322.3" font-family="Helvetica,sans-Serif" font-size="14.00"> </text>
<text text-anchor="start" x="558.5" y="-322.3" font-family="Helvetica,sans-Serif" font-size="14.00">CHARACTER VARYING(255) NOT NULL</text>
<text text-anchor="start" x="419.5" y="-303.3" font-family="Helvetica,sans-Serif" font-size="14.00">next_val</text>
<text text-anchor="start" x="549.5" y="-303.3" font-family="Helvetica,sans-Serif" font-size="14.00"> </text>
<text text-anchor="start" x="558.5" y="-303.3" font-family="Helvetica,sans-Serif" font-size="14.00">BIGINT</text>
<polygon fill="none" stroke="#888888" points="416,-297 416,-356 825,-356 825,-297 416,-297"/>
</g>
</g>
</svg>
