<?xml version="1.0" encoding="UTF-8" standalone="no"?>
<!DOCTYPE svg PUBLIC "-//W3C//DTD SVG 1.1//EN"
 "http://www.w3.org/Graphics/SVG/1.1/DTD/svg11.dtd">
<!-- Generated by graphviz version 2.43.0 (0)
 -->
<!-- Title: SchemaCrawler_Diagram Pages: 1 -->
<svg width="627pt" height="368pt"
 viewBox="0.00 0.00 627.00 368.00" xmlns="http://www.w3.org/2000/svg" xmlns:xlink="http://www.w3.org/1999/xlink">
<g id="graph0" class="graph" transform="scale(1 1) rotate(0) translate(4 364)">
<title>SchemaCrawler_Diagram</title>
<polygon fill="white" stroke="transparent" points="-4,4 -4,-364 623,-364 623,4 -4,4"/>
<text text-anchor="start" x="398" y="-11.3" font-family="Helvetica,sans-Serif" font-weight="bold" font-style="italic" font-size="14.00">Publication: HB&#45;PG&#45;JOINED</text>
<polygon fill="none" stroke="#888888" points="395,-4 395,-25 611,-25 611,-4 395,-4"/>
<!-- author_c30dd856 -->
<g id="node1" class="node">
<title>author_c30dd856</title>
<polygon fill="#c2c5f2" stroke="transparent" points="46,-249.5 46,-268.5 133,-268.5 133,-249.5 46,-249.5"/>
<text text-anchor="start" x="48" y="-256.3" font-family="Helvetica,sans-Serif" font-weight="bold" font-style="italic" font-size="14.00">author</text>
<polygon fill="#c2c5f2" stroke="transparent" points="133,-249.5 133,-268.5 228,-268.5 228,-249.5 133,-249.5"/>
<text text-anchor="start" x="180" y="-255.3" font-family="Helvetica,sans-Serif" font-size="14.00">[table]</text>
<text text-anchor="start" x="48" y="-237.3" font-family="Helvetica,sans-Serif" font-weight="bold" font-style="italic" font-size="14.00">id</text>
<text text-anchor="start" x="126" y="-236.3" font-family="Helvetica,sans-Serif" font-size="14.00"> </text>
<text text-anchor="start" x="135" y="-236.3" font-family="Helvetica,sans-Serif" font-size="14.00">int8 not null</text>
<text text-anchor="start" x="48" y="-217.3" font-family="Helvetica,sans-Serif" font-size="14.00">first_name</text>
<text text-anchor="start" x="126" y="-217.3" font-family="Helvetica,sans-Serif" font-size="14.00"> </text>
<text text-anchor="start" x="135" y="-217.3" font-family="Helvetica,sans-Serif" font-size="14.00">varchar(255)</text>
<text text-anchor="start" x="48" y="-198.3" font-family="Helvetica,sans-Serif" font-size="14.00">last_name</text>
<text text-anchor="start" x="126" y="-198.3" font-family="Helvetica,sans-Serif" font-size="14.00"> </text>
<text text-anchor="start" x="135" y="-198.3" font-family="Helvetica,sans-Serif" font-size="14.00">varchar(255)</text>
<text text-anchor="start" x="48" y="-179.3" font-family="Helvetica,sans-Serif" font-size="14.00">version</text>
<text text-anchor="start" x="126" y="-179.3" font-family="Helvetica,sans-Serif" font-size="14.00"> </text>
<text text-anchor="start" x="135" y="-179.3" font-family="Helvetica,sans-Serif" font-size="14.00">int8</text>
<polygon fill="none" stroke="#888888" points="45,-173 45,-270 229,-270 229,-173 45,-173"/>
</g>
<!-- publication_author_join_4288896 -->
<g id="node2" class="node">
<title>publication_author_join_4288896</title>
<polygon fill="#c2c5f2" stroke="transparent" points="327.5,-250.5 327.5,-269.5 513.5,-269.5 513.5,-250.5 327.5,-250.5"/>
<text text-anchor="start" x="329.5" y="-257.3" font-family="Helvetica,sans-Serif" font-weight="bold" font-style="italic" font-size="14.00">publication_author_join</text>
<polygon fill="#c2c5f2" stroke="transparent" points="513.5,-250.5 513.5,-269.5 602.5,-269.5 602.5,-250.5 513.5,-250.5"/>
<text text-anchor="start" x="554.5" y="-256.3" font-family="Helvetica,sans-Serif" font-size="14.00">[table]</text>
<text text-anchor="start" x="329.5" y="-237.3" font-family="Helvetica,sans-Serif" font-size="14.00">publication_id</text>
<text text-anchor="start" x="468.5" y="-237.3" font-family="Helvetica,sans-Serif" font-size="14.00"> </text>
<text text-anchor="start" x="515.5" y="-237.3" font-family="Helvetica,sans-Serif" font-size="14.00">int8 not null</text>
<text text-anchor="start" x="329.5" y="-218.3" font-family="Helvetica,sans-Serif" font-size="14.00">author_id</text>
<text text-anchor="start" x="468.5" y="-218.3" font-family="Helvetica,sans-Serif" font-size="14.00"> </text>
<text text-anchor="start" x="515.5" y="-218.3" font-family="Helvetica,sans-Serif" font-size="14.00">int8 not null</text>
<polygon fill="none" stroke="#888888" points="326,-212 326,-271 603,-271 603,-212 326,-212"/>
</g>
<!-- publication_author_join_4288896&#45;&gt;author_c30dd856 -->
<g id="edge1" class="edge">
<title>publication_author_join_4288896:w&#45;&gt;author_c30dd856:e</title>
<path fill="none" stroke="black" d="M308.51,-222.69C281.64,-226.44 268.99,-237.92 239.28,-240.13"/>
<polygon fill="black" stroke="black" points="316.52,-222.16 326.8,-225.99 321.51,-221.83 326.5,-221.5 326.5,-221.5 326.5,-221.5 321.51,-221.83 326.2,-217.01 316.52,-222.16 316.52,-222.16"/>
<ellipse fill="none" stroke="black" cx="312.53" cy="-222.42" rx="4" ry="4"/>
<polygon fill="black" stroke="black" points="230.18,-245.46 229.82,-235.47 231.82,-235.4 232.18,-245.39 230.18,-245.46"/>
<polyline fill="none" stroke="black" points="229,-240.5 234,-240.32 "/>
<polygon fill="black" stroke="black" points="235.18,-245.28 234.82,-235.29 236.82,-235.22 237.17,-245.21 235.18,-245.28"/>
<polyline fill="none" stroke="black" points="234,-240.32 238.99,-240.14 "/>
</g>
<!-- publication_d69c58f7 -->
<g id="node5" class="node">
<title>publication_d69c58f7</title>
<polygon fill="#c2c5f2" stroke="transparent" points="9,-126.5 9,-145.5 170,-145.5 170,-126.5 9,-126.5"/>
<text text-anchor="start" x="11" y="-133.3" font-family="Helvetica,sans-Serif" font-weight="bold" font-style="italic" font-size="14.00">publication</text>
<polygon fill="#c2c5f2" stroke="transparent" points="170,-126.5 170,-145.5 265,-145.5 265,-126.5 170,-126.5"/>
<text text-anchor="start" x="217" y="-132.3" font-family="Helvetica,sans-Serif" font-size="14.00">[table]</text>
<text text-anchor="start" x="11" y="-114.3" font-family="Helvetica,sans-Serif" font-weight="bold" font-style="italic" font-size="14.00">id</text>
<text text-anchor="start" x="163" y="-113.3" font-family="Helvetica,sans-Serif" font-size="14.00"> </text>
<text text-anchor="start" x="172" y="-113.3" font-family="Helvetica,sans-Serif" font-size="14.00">int8 not null</text>
<text text-anchor="start" x="11" y="-94.3" font-family="Helvetica,sans-Serif" font-size="14.00">publishing_date_item</text>
<text text-anchor="start" x="163" y="-94.3" font-family="Helvetica,sans-Serif" font-size="14.00"> </text>
<text text-anchor="start" x="172" y="-94.3" font-family="Helvetica,sans-Serif" font-size="14.00">timestamp</text>
<text text-anchor="start" x="11" y="-75.3" font-family="Helvetica,sans-Serif" font-size="14.00">title</text>
<text text-anchor="start" x="163" y="-75.3" font-family="Helvetica,sans-Serif" font-size="14.00"> </text>
<text text-anchor="start" x="172" y="-75.3" font-family="Helvetica,sans-Serif" font-size="14.00">varchar(255)</text>
<text text-anchor="start" x="11" y="-56.3" font-family="Helvetica,sans-Serif" font-size="14.00">version</text>
<text text-anchor="start" x="163" y="-56.3" font-family="Helvetica,sans-Serif" font-size="14.00"> </text>
<text text-anchor="start" x="172" y="-56.3" font-family="Helvetica,sans-Serif" font-size="14.00">int8</text>
<polygon fill="none" stroke="#888888" points="8,-50 8,-147 266,-147 266,-50 8,-50"/>
</g>
<!-- publication_author_join_4288896&#45;&gt;publication_d69c58f7 -->
<g id="edge4" class="edge">
<title>publication_author_join_4288896:w&#45;&gt;publication_d69c58f7:e</title>
<path fill="none" stroke="black" d="M308.91,-235.21C281.11,-213.33 313.99,-130.39 275.91,-118.84"/>
<polygon fill="black" stroke="black" points="316.92,-237.62 325.21,-244.81 321.71,-239.06 326.5,-240.5 326.5,-240.5 326.5,-240.5 321.71,-239.06 327.79,-236.19 316.92,-237.62 316.92,-237.62"/>
<ellipse fill="none" stroke="black" cx="313.09" cy="-236.47" rx="4" ry="4"/>
<polygon fill="black" stroke="black" points="266.32,-122.59 267.66,-112.68 269.64,-112.95 268.3,-122.86 266.32,-122.59"/>
<polyline fill="none" stroke="black" points="266,-117.5 270.95,-118.17 "/>
<polygon fill="black" stroke="black" points="271.28,-123.26 272.62,-113.35 274.6,-113.62 273.26,-123.53 271.28,-123.26"/>
<polyline fill="none" stroke="black" points="270.95,-118.17 275.91,-118.84 "/>
</g>
<!-- blog_170ee66d -->
<g id="node3" class="node">
<title>blog_170ee66d</title>
<polygon fill="#c2c5f2" stroke="transparent" points="398.5,-71.5 398.5,-90.5 436.5,-90.5 436.5,-71.5 398.5,-71.5"/>
<text text-anchor="start" x="400.5" y="-78.3" font-family="Helvetica,sans-Serif" font-weight="bold" font-style="italic" font-size="14.00">blog</text>
<polygon fill="#c2c5f2" stroke="transparent" points="436.5,-71.5 436.5,-90.5 531.5,-90.5 531.5,-71.5 436.5,-71.5"/>
<text text-anchor="start" x="483.5" y="-77.3" font-family="Helvetica,sans-Serif" font-size="14.00">[table]</text>
<text text-anchor="start" x="400.5" y="-58.3" font-family="Helvetica,sans-Serif" font-size="14.00">url</text>
<text text-anchor="start" x="426.5" y="-58.3" font-family="Helvetica,sans-Serif" font-size="14.00"> </text>
<text text-anchor="start" x="438.5" y="-58.3" font-family="Helvetica,sans-Serif" font-size="14.00">varchar(255)</text>
<text text-anchor="start" x="400.5" y="-40.3" font-family="Helvetica,sans-Serif" font-weight="bold" font-style="italic" font-size="14.00">id</text>
<text text-anchor="start" x="426.5" y="-39.3" font-family="Helvetica,sans-Serif" font-size="14.00"> </text>
<text text-anchor="start" x="438.5" y="-39.3" font-family="Helvetica,sans-Serif" font-size="14.00">int8 not null</text>
<polygon fill="none" stroke="#888888" points="397,-33 397,-92 532,-92 532,-33 397,-33"/>
</g>
<!-- blog_170ee66d&#45;&gt;publication_d69c58f7 -->
<g id="edge2" class="edge">
<title>blog_170ee66d:w&#45;&gt;publication_d69c58f7:e</title>
<path fill="none" stroke="black" d="M384.3,-43.56C333.36,-52.16 328.92,-110.34 276.06,-116.9"/>
<polygon fill="black" stroke="black" points="396.1,-37.6 396.9,-47.56 394.91,-47.72 394.11,-37.76 396.1,-37.6"/>
<polyline fill="none" stroke="black" points="397.5,-42.5 392.52,-42.9 "/>
<ellipse fill="none" stroke="black" cx="388.53" cy="-43.22" rx="4" ry="4"/>
<polygon fill="black" stroke="black" points="267.3,-122.43 266.7,-112.45 268.7,-112.33 269.29,-122.31 267.3,-122.43"/>
<polyline fill="none" stroke="black" points="266,-117.5 270.99,-117.2 "/>
<polygon fill="black" stroke="black" points="272.29,-122.13 271.69,-112.15 273.69,-112.03 274.28,-122.01 272.29,-122.13"/>
<polyline fill="none" stroke="black" points="270.99,-117.2 275.98,-116.9 "/>
</g>
<!-- book_170ef1b4 -->
<g id="node4" class="node">
<title>book_170ef1b4</title>
<polygon fill="#c2c5f2" stroke="transparent" points="392.5,-156.5 392.5,-175.5 448.5,-175.5 448.5,-156.5 392.5,-156.5"/>
<text text-anchor="start" x="394.5" y="-163.3" font-family="Helvetica,sans-Serif" font-weight="bold" font-style="italic" font-size="14.00">book</text>
<polygon fill="#c2c5f2" stroke="transparent" points="448.5,-156.5 448.5,-175.5 537.5,-175.5 537.5,-156.5 448.5,-156.5"/>
<text text-anchor="start" x="489.5" y="-162.3" font-family="Helvetica,sans-Serif" font-size="14.00">[table]</text>
<text text-anchor="start" x="394.5" y="-143.3" font-family="Helvetica,sans-Serif" font-size="14.00">pages</text>
<text text-anchor="start" x="441.5" y="-143.3" font-family="Helvetica,sans-Serif" font-size="14.00"> </text>
<text text-anchor="start" x="450.5" y="-143.3" font-family="Helvetica,sans-Serif" font-size="14.00">int4</text>
<text text-anchor="start" x="394.5" y="-125.3" font-family="Helvetica,sans-Serif" font-weight="bold" font-style="italic" font-size="14.00">id</text>
<text text-anchor="start" x="441.5" y="-124.3" font-family="Helvetica,sans-Serif" font-size="14.00"> </text>
<text text-anchor="start" x="450.5" y="-124.3" font-family="Helvetica,sans-Serif" font-size="14.00">int8 not null</text>
<polygon fill="none" stroke="#888888" points="391,-118 391,-177 538,-177 538,-118 391,-118"/>
</g>
<!-- book_170ef1b4&#45;&gt;publication_d69c58f7 -->
<g id="edge3" class="edge">
<title>book_170ef1b4:w&#45;&gt;publication_d69c58f7:e</title>
<path fill="none" stroke="black" d="M378.25,-127.3C336.06,-125.99 319.54,-118.61 276.03,-117.61"/>
<polygon fill="black" stroke="black" points="390.58,-122.49 390.42,-132.48 388.42,-132.45 388.58,-122.46 390.58,-122.49"/>
<polyline fill="none" stroke="black" points="391.5,-127.5 386.5,-127.42 "/>
<ellipse fill="none" stroke="black" cx="382.5" cy="-127.36" rx="4" ry="4"/>
<polygon fill="black" stroke="black" points="266.94,-122.51 267.06,-112.51 269.06,-112.53 268.94,-122.53 266.94,-122.51"/>
<polyline fill="none" stroke="black" points="266,-117.5 271,-117.56 "/>
<polygon fill="black" stroke="black" points="271.94,-122.57 272.06,-112.57 274.06,-112.59 273.94,-122.59 271.94,-122.57"/>
<polyline fill="none" stroke="black" points="271,-117.56 276,-117.61 "/>
</g>
<!-- sequences_d47f379d -->
<g id="node6" class="node">
<title>sequences_d47f379d</title>
<polygon fill="#c2c5f2" stroke="transparent" points="319.5,-335.5 319.5,-354.5 458.5,-354.5 458.5,-335.5 319.5,-335.5"/>
<text text-anchor="start" x="321.5" y="-342.3" font-family="Helvetica,sans-Serif" font-weight="bold" font-style="italic" font-size="14.00">sequences</text>
<polygon fill="#c2c5f2" stroke="transparent" points="458.5,-335.5 458.5,-354.5 610.5,-354.5 610.5,-335.5 458.5,-335.5"/>
<text text-anchor="start" x="562.5" y="-341.3" font-family="Helvetica,sans-Serif" font-size="14.00">[table]</text>
<text text-anchor="start" x="321.5" y="-323.3" font-family="Helvetica,sans-Serif" font-weight="bold" font-style="italic" font-size="14.00">sequence_name</text>
<text text-anchor="start" x="451.5" y="-322.3" font-family="Helvetica,sans-Serif" font-size="14.00"> </text>
<text text-anchor="start" x="460.5" y="-322.3" font-family="Helvetica,sans-Serif" font-size="14.00">varchar(255) not null</text>
<text text-anchor="start" x="321.5" y="-303.3" font-family="Helvetica,sans-Serif" font-size="14.00">next_val</text>
<text text-anchor="start" x="451.5" y="-303.3" font-family="Helvetica,sans-Serif" font-size="14.00"> </text>
<text text-anchor="start" x="460.5" y="-303.3" font-family="Helvetica,sans-Serif" font-size="14.00">int8</text>
<polygon fill="none" stroke="#888888" points="318,-297 318,-356 611,-356 611,-297 318,-297"/>
</g>
</g>
</svg>
