<?xml version="1.0" encoding="UTF-8" standalone="no"?>
<!DOCTYPE svg PUBLIC "-//W3C//DTD SVG 1.1//EN"
 "http://www.w3.org/Graphics/SVG/1.1/DTD/svg11.dtd">
<!-- Generated by graphviz version 2.43.0 (0)
 -->
<!-- Title: SchemaCrawler_Diagram Pages: 1 -->
<svg width="320pt" height="720pt"
 viewBox="0.00 0.00 320.00 720.00" xmlns="http://www.w3.org/2000/svg" xmlns:xlink="http://www.w3.org/1999/xlink">
<g id="graph0" class="graph" transform="scale(1 1) rotate(0) translate(4 716)">
<title>SchemaCrawler_Diagram</title>
<polygon fill="white" stroke="transparent" points="-4,4 -4,-716 316,-716 316,4 -4,4"/>
<text text-anchor="start" x="11" y="-11.3" font-family="Helvetica,sans-Serif" font-weight="bold" font-style="italic" font-size="14.00">Publication: EL&#45;PG&#45;TABLE_PER_CLASS</text>
<polygon fill="none" stroke="#888888" points="8,-4 8,-25 304,-25 304,-4 8,-4"/>
<!-- author_c30dd856 -->
<g id="node1" class="node">
<title>author_c30dd856</title>
<polygon fill="#c2c5f2" stroke="transparent" points="65,-109.5 65,-128.5 152,-128.5 152,-109.5 65,-109.5"/>
<text text-anchor="start" x="67" y="-116.3" font-family="Helvetica,sans-Serif" font-weight="bold" font-style="italic" font-size="14.00">author</text>
<polygon fill="#c2c5f2" stroke="transparent" points="152,-109.5 152,-128.5 247,-128.5 247,-109.5 152,-109.5"/>
<text text-anchor="start" x="199" y="-115.3" font-family="Helvetica,sans-Serif" font-size="14.00">[table]</text>
<text text-anchor="start" x="67" y="-97.3" font-family="Helvetica,sans-Serif" font-weight="bold" font-style="italic" font-size="14.00">id</text>
<text text-anchor="start" x="145" y="-96.3" font-family="Helvetica,sans-Serif" font-size="14.00"> </text>
<text text-anchor="start" x="154" y="-96.3" font-family="Helvetica,sans-Serif" font-size="14.00">int8 not null</text>
<text text-anchor="start" x="67" y="-77.3" font-family="Helvetica,sans-Serif" font-size="14.00">first_name</text>
<text text-anchor="start" x="145" y="-77.3" font-family="Helvetica,sans-Serif" font-size="14.00"> </text>
<text text-anchor="start" x="154" y="-77.3" font-family="Helvetica,sans-Serif" font-size="14.00">varchar(255)</text>
<text text-anchor="start" x="67" y="-58.3" font-family="Helvetica,sans-Serif" font-size="14.00">last_name</text>
<text text-anchor="start" x="145" y="-58.3" font-family="Helvetica,sans-Serif" font-size="14.00"> </text>
<text text-anchor="start" x="154" y="-58.3" font-family="Helvetica,sans-Serif" font-size="14.00">varchar(255)</text>
<text text-anchor="start" x="67" y="-39.3" font-family="Helvetica,sans-Serif" font-size="14.00">version</text>
<text text-anchor="start" x="145" y="-39.3" font-family="Helvetica,sans-Serif" font-size="14.00"> </text>
<text text-anchor="start" x="154" y="-39.3" font-family="Helvetica,sans-Serif" font-size="14.00">int8</text>
<polygon fill="none" stroke="#888888" points="64,-33 64,-130 248,-130 248,-33 64,-33"/>
</g>
<!-- blog_170ee66d -->
<g id="node2" class="node">
<title>blog_170ee66d</title>
<polygon fill="#c2c5f2" stroke="transparent" points="28,-252.5 28,-271.5 189,-271.5 189,-252.5 28,-252.5"/>
<text text-anchor="start" x="30" y="-259.3" font-family="Helvetica,sans-Serif" font-weight="bold" font-style="italic" font-size="14.00">blog</text>
<polygon fill="#c2c5f2" stroke="transparent" points="189,-252.5 189,-271.5 284,-271.5 284,-252.5 189,-252.5"/>
<text text-anchor="start" x="236" y="-258.3" font-family="Helvetica,sans-Serif" font-size="14.00">[table]</text>
<text text-anchor="start" x="30" y="-240.3" font-family="Helvetica,sans-Serif" font-weight="bold" font-style="italic" font-size="14.00">id</text>
<text text-anchor="start" x="182" y="-239.3" font-family="Helvetica,sans-Serif" font-size="14.00"> </text>
<text text-anchor="start" x="191" y="-239.3" font-family="Helvetica,sans-Serif" font-size="14.00">int8 not null</text>
<text text-anchor="start" x="30" y="-220.3" font-family="Helvetica,sans-Serif" font-size="14.00">publishing_date_item</text>
<text text-anchor="start" x="182" y="-220.3" font-family="Helvetica,sans-Serif" font-size="14.00"> </text>
<text text-anchor="start" x="191" y="-220.3" font-family="Helvetica,sans-Serif" font-size="14.00">timestamp</text>
<text text-anchor="start" x="30" y="-201.3" font-family="Helvetica,sans-Serif" font-size="14.00">title</text>
<text text-anchor="start" x="182" y="-201.3" font-family="Helvetica,sans-Serif" font-size="14.00"> </text>
<text text-anchor="start" x="191" y="-201.3" font-family="Helvetica,sans-Serif" font-size="14.00">varchar(255)</text>
<text text-anchor="start" x="30" y="-182.3" font-family="Helvetica,sans-Serif" font-size="14.00">url</text>
<text text-anchor="start" x="182" y="-182.3" font-family="Helvetica,sans-Serif" font-size="14.00"> </text>
<text text-anchor="start" x="191" y="-182.3" font-family="Helvetica,sans-Serif" font-size="14.00">varchar(255)</text>
<text text-anchor="start" x="30" y="-163.3" font-family="Helvetica,sans-Serif" font-size="14.00">version</text>
<text text-anchor="start" x="182" y="-163.3" font-family="Helvetica,sans-Serif" font-size="14.00"> </text>
<text text-anchor="start" x="191" y="-163.3" font-family="Helvetica,sans-Serif" font-size="14.00">int8</text>
<polygon fill="none" stroke="#888888" points="27,-156.5 27,-272.5 285,-272.5 285,-156.5 27,-156.5"/>
</g>
<!-- book_170ef1b4 -->
<g id="node3" class="node">
<title>book_170ef1b4</title>
<polygon fill="#c2c5f2" stroke="transparent" points="28,-394.5 28,-413.5 189,-413.5 189,-394.5 28,-394.5"/>
<text text-anchor="start" x="30" y="-401.3" font-family="Helvetica,sans-Serif" font-weight="bold" font-style="italic" font-size="14.00">book</text>
<polygon fill="#c2c5f2" stroke="transparent" points="189,-394.5 189,-413.5 284,-413.5 284,-394.5 189,-394.5"/>
<text text-anchor="start" x="236" y="-400.3" font-family="Helvetica,sans-Serif" font-size="14.00">[table]</text>
<text text-anchor="start" x="30" y="-382.3" font-family="Helvetica,sans-Serif" font-weight="bold" font-style="italic" font-size="14.00">id</text>
<text text-anchor="start" x="182" y="-381.3" font-family="Helvetica,sans-Serif" font-size="14.00"> </text>
<text text-anchor="start" x="191" y="-381.3" font-family="Helvetica,sans-Serif" font-size="14.00">int8 not null</text>
<text text-anchor="start" x="30" y="-362.3" font-family="Helvetica,sans-Serif" font-size="14.00">pages</text>
<text text-anchor="start" x="182" y="-362.3" font-family="Helvetica,sans-Serif" font-size="14.00"> </text>
<text text-anchor="start" x="191" y="-362.3" font-family="Helvetica,sans-Serif" font-size="14.00">int4</text>
<text text-anchor="start" x="30" y="-343.3" font-family="Helvetica,sans-Serif" font-size="14.00">publishing_date_item</text>
<text text-anchor="start" x="182" y="-343.3" font-family="Helvetica,sans-Serif" font-size="14.00"> </text>
<text text-anchor="start" x="191" y="-343.3" font-family="Helvetica,sans-Serif" font-size="14.00">timestamp</text>
<text text-anchor="start" x="30" y="-324.3" font-family="Helvetica,sans-Serif" font-size="14.00">title</text>
<text text-anchor="start" x="182" y="-324.3" font-family="Helvetica,sans-Serif" font-size="14.00"> </text>
<text text-anchor="start" x="191" y="-324.3" font-family="Helvetica,sans-Serif" font-size="14.00">varchar(255)</text>
<text text-anchor="start" x="30" y="-305.3" font-family="Helvetica,sans-Serif" font-size="14.00">version</text>
<text text-anchor="start" x="182" y="-305.3" font-family="Helvetica,sans-Serif" font-size="14.00"> </text>
<text text-anchor="start" x="191" y="-305.3" font-family="Helvetica,sans-Serif" font-size="14.00">int8</text>
<polygon fill="none" stroke="#888888" points="27,-298.5 27,-414.5 285,-414.5 285,-298.5 27,-298.5"/>
</g>
<!-- publication_d69c58f7 -->
<g id="node4" class="node">
<title>publication_d69c58f7</title>
<polygon fill="#c2c5f2" stroke="transparent" points="28,-517.5 28,-536.5 189,-536.5 189,-517.5 28,-517.5"/>
<text text-anchor="start" x="30" y="-524.3" font-family="Helvetica,sans-Serif" font-weight="bold" font-style="italic" font-size="14.00">publication</text>
<polygon fill="#c2c5f2" stroke="transparent" points="189,-517.5 189,-536.5 284,-536.5 284,-517.5 189,-517.5"/>
<text text-anchor="start" x="236" y="-523.3" font-family="Helvetica,sans-Serif" font-size="14.00">[table]</text>
<text text-anchor="start" x="30" y="-505.3" font-family="Helvetica,sans-Serif" font-weight="bold" font-style="italic" font-size="14.00">id</text>
<text text-anchor="start" x="182" y="-504.3" font-family="Helvetica,sans-Serif" font-size="14.00"> </text>
<text text-anchor="start" x="191" y="-504.3" font-family="Helvetica,sans-Serif" font-size="14.00">int8 not null</text>
<text text-anchor="start" x="30" y="-485.3" font-family="Helvetica,sans-Serif" font-size="14.00">publishing_date_item</text>
<text text-anchor="start" x="182" y="-485.3" font-family="Helvetica,sans-Serif" font-size="14.00"> </text>
<text text-anchor="start" x="191" y="-485.3" font-family="Helvetica,sans-Serif" font-size="14.00">timestamp</text>
<text text-anchor="start" x="30" y="-466.3" font-family="Helvetica,sans-Serif" font-size="14.00">title</text>
<text text-anchor="start" x="182" y="-466.3" font-family="Helvetica,sans-Serif" font-size="14.00"> </text>
<text text-anchor="start" x="191" y="-466.3" font-family="Helvetica,sans-Serif" font-size="14.00">varchar(255)</text>
<text text-anchor="start" x="30" y="-447.3" font-family="Helvetica,sans-Serif" font-size="14.00">version</text>
<text text-anchor="start" x="182" y="-447.3" font-family="Helvetica,sans-Serif" font-size="14.00"> </text>
<text text-anchor="start" x="191" y="-447.3" font-family="Helvetica,sans-Serif" font-size="14.00">int8</text>
<polygon fill="none" stroke="#888888" points="27,-441 27,-538 285,-538 285,-441 27,-441"/>
</g>
<!-- publication_author_join_4288896 -->
<g id="node5" class="node">
<title>publication_author_join_4288896</title>
<polygon fill="#c2c5f2" stroke="transparent" points="19,-602.5 19,-621.5 205,-621.5 205,-602.5 19,-602.5"/>
<text text-anchor="start" x="21" y="-609.3" font-family="Helvetica,sans-Serif" font-weight="bold" font-style="italic" font-size="14.00">publication_author_join</text>
<polygon fill="#c2c5f2" stroke="transparent" points="205,-602.5 205,-621.5 294,-621.5 294,-602.5 205,-602.5"/>
<text text-anchor="start" x="246" y="-608.3" font-family="Helvetica,sans-Serif" font-size="14.00">[table]</text>
<text text-anchor="start" x="21" y="-590.3" font-family="Helvetica,sans-Serif" font-weight="bold" font-style="italic" font-size="14.00">author_id</text>
<text text-anchor="start" x="166" y="-589.3" font-family="Helvetica,sans-Serif" font-size="14.00"> </text>
<text text-anchor="start" x="207" y="-589.3" font-family="Helvetica,sans-Serif" font-size="14.00">int8 not null</text>
<text text-anchor="start" x="21" y="-571.3" font-family="Helvetica,sans-Serif" font-weight="bold" font-style="italic" font-size="14.00">publication_id</text>
<text text-anchor="start" x="166" y="-570.3" font-family="Helvetica,sans-Serif" font-size="14.00"> </text>
<text text-anchor="start" x="207" y="-570.3" font-family="Helvetica,sans-Serif" font-size="14.00">int8 not null</text>
<polygon fill="none" stroke="#888888" points="17.5,-564 17.5,-623 294.5,-623 294.5,-564 17.5,-564"/>
</g>
<!-- sequences_d47f379d -->
<g id="node6" class="node">
<title>sequences_d47f379d</title>
<polygon fill="#c2c5f2" stroke="transparent" points="39,-687.5 39,-706.5 131,-706.5 131,-687.5 39,-687.5"/>
<text text-anchor="start" x="41" y="-694.3" font-family="Helvetica,sans-Serif" font-weight="bold" font-style="italic" font-size="14.00">sequences</text>
<polygon fill="#c2c5f2" stroke="transparent" points="131,-687.5 131,-706.5 274,-706.5 274,-687.5 131,-687.5"/>
<text text-anchor="start" x="226" y="-693.3" font-family="Helvetica,sans-Serif" font-size="14.00">[table]</text>
<text text-anchor="start" x="41" y="-675.3" font-family="Helvetica,sans-Serif" font-weight="bold" font-style="italic" font-size="14.00">seq_name</text>
<text text-anchor="start" x="124" y="-674.3" font-family="Helvetica,sans-Serif" font-size="14.00"> </text>
<text text-anchor="start" x="133" y="-674.3" font-family="Helvetica,sans-Serif" font-size="14.00">varchar(50) not null</text>
<text text-anchor="start" x="41" y="-655.3" font-family="Helvetica,sans-Serif" font-size="14.00">seq_next</text>
<text text-anchor="start" x="124" y="-655.3" font-family="Helvetica,sans-Serif" font-size="14.00"> </text>
<text text-anchor="start" x="133" y="-655.3" font-family="Helvetica,sans-Serif" font-size="14.00">numeric(38, 0)</text>
<polygon fill="none" stroke="#888888" points="37.5,-649 37.5,-708 274.5,-708 274.5,-649 37.5,-649"/>
</g>
</g>
</svg>
