<?xml version="1.0" encoding="UTF-8" standalone="no"?>
<!DOCTYPE svg PUBLIC "-//W3C//DTD SVG 1.1//EN"
 "http://www.w3.org/Graphics/SVG/1.1/DTD/svg11.dtd">
<!-- Generated by graphviz version 2.43.0 (0)
 -->
<!-- Title: SchemaCrawler_Diagram Pages: 1 -->
<svg width="785pt" height="387pt"
 viewBox="0.00 0.00 785.00 387.00" xmlns="http://www.w3.org/2000/svg" xmlns:xlink="http://www.w3.org/1999/xlink">
<g id="graph0" class="graph" transform="scale(1 1) rotate(0) translate(4 383)">
<title>SchemaCrawler_Diagram</title>
<polygon fill="white" stroke="transparent" points="-4,4 -4,-383 781,-383 781,4 -4,4"/>
<text text-anchor="start" x="560" y="-11.3" font-family="Helvetica,sans-Serif" font-weight="bold" font-style="italic" font-size="14.00">Publication: EL&#45;H2&#45;JOINED</text>
<polygon fill="none" stroke="#888888" points="557,-4 557,-25 769,-25 769,-4 557,-4"/>
<!-- author_7775551e -->
<g id="node1" class="node">
<title>author_7775551e</title>
<polygon fill="#c2f2da" stroke="transparent" points="46,-282.5 46,-301.5 133,-301.5 133,-282.5 46,-282.5"/>
<text text-anchor="start" x="48" y="-289.3" font-family="Helvetica,sans-Serif" font-weight="bold" font-style="italic" font-size="14.00">author</text>
<polygon fill="#c2f2da" stroke="transparent" points="133,-282.5 133,-301.5 326,-301.5 326,-282.5 133,-282.5"/>
<text text-anchor="start" x="241" y="-288.3" font-family="Helvetica,sans-Serif" font-size="14.00">[base table]</text>
<text text-anchor="start" x="48" y="-270.3" font-family="Helvetica,sans-Serif" font-weight="bold" font-style="italic" font-size="14.00">id</text>
<text text-anchor="start" x="126" y="-269.3" font-family="Helvetica,sans-Serif" font-size="14.00"> </text>
<text text-anchor="start" x="135" y="-269.3" font-family="Helvetica,sans-Serif" font-size="14.00">BIGINT NOT NULL</text>
<text text-anchor="start" x="48" y="-250.3" font-family="Helvetica,sans-Serif" font-size="14.00">dtype</text>
<text text-anchor="start" x="126" y="-250.3" font-family="Helvetica,sans-Serif" font-size="14.00"> </text>
<text text-anchor="start" x="135" y="-250.3" font-family="Helvetica,sans-Serif" font-size="14.00">CHARACTER VARYING(31)</text>
<text text-anchor="start" x="48" y="-231.3" font-family="Helvetica,sans-Serif" font-size="14.00">first_name</text>
<text text-anchor="start" x="126" y="-231.3" font-family="Helvetica,sans-Serif" font-size="14.00"> </text>
<text text-anchor="start" x="135" y="-231.3" font-family="Helvetica,sans-Serif" font-size="14.00">CHARACTER VARYING(255)</text>
<text text-anchor="start" x="48" y="-212.3" font-family="Helvetica,sans-Serif" font-size="14.00">last_name</text>
<text text-anchor="start" x="126" y="-212.3" font-family="Helvetica,sans-Serif" font-size="14.00"> </text>
<text text-anchor="start" x="135" y="-212.3" font-family="Helvetica,sans-Serif" font-size="14.00">CHARACTER VARYING(255)</text>
<text text-anchor="start" x="48" y="-193.3" font-family="Helvetica,sans-Serif" font-size="14.00">version</text>
<text text-anchor="start" x="126" y="-193.3" font-family="Helvetica,sans-Serif" font-size="14.00"> </text>
<text text-anchor="start" x="135" y="-193.3" font-family="Helvetica,sans-Serif" font-size="14.00">BIGINT</text>
<polygon fill="none" stroke="#888888" points="45,-186.5 45,-302.5 327,-302.5 327,-186.5 45,-186.5"/>
</g>
<!-- publication_author_join_b890055e -->
<g id="node2" class="node">
<title>publication_author_join_b890055e</title>
<polygon fill="#c2f2da" stroke="transparent" points="435.5,-269.5 435.5,-288.5 621.5,-288.5 621.5,-269.5 435.5,-269.5"/>
<text text-anchor="start" x="437.5" y="-276.3" font-family="Helvetica,sans-Serif" font-weight="bold" font-style="italic" font-size="14.00">publication_author_join</text>
<polygon fill="#c2f2da" stroke="transparent" points="621.5,-269.5 621.5,-288.5 749.5,-288.5 749.5,-269.5 621.5,-269.5"/>
<text text-anchor="start" x="664.5" y="-275.3" font-family="Helvetica,sans-Serif" font-size="14.00">[base table]</text>
<text text-anchor="start" x="437.5" y="-257.3" font-family="Helvetica,sans-Serif" font-weight="bold" font-style="italic" font-size="14.00">author_id</text>
<text text-anchor="start" x="582.5" y="-256.3" font-family="Helvetica,sans-Serif" font-size="14.00"> </text>
<text text-anchor="start" x="623.5" y="-256.3" font-family="Helvetica,sans-Serif" font-size="14.00">BIGINT NOT NULL</text>
<text text-anchor="start" x="437.5" y="-238.3" font-family="Helvetica,sans-Serif" font-weight="bold" font-style="italic" font-size="14.00">publication_id</text>
<text text-anchor="start" x="582.5" y="-237.3" font-family="Helvetica,sans-Serif" font-size="14.00"> </text>
<text text-anchor="start" x="623.5" y="-237.3" font-family="Helvetica,sans-Serif" font-size="14.00">BIGINT NOT NULL</text>
<polygon fill="none" stroke="#888888" points="434.5,-231 434.5,-290 750.5,-290 750.5,-231 434.5,-231"/>
</g>
<!-- publication_author_join_b890055e&#45;&gt;author_7775551e -->
<g id="edge1" class="edge">
<title>publication_author_join_b890055e:w&#45;&gt;author_7775551e:e</title>
<path fill="none" stroke="black" d="M416.17,-260.25C385.35,-262.91 370.97,-271.78 337.1,-273.28"/>
<polygon fill="black" stroke="black" points="424.51,-259.91 434.68,-264 429.5,-259.71 434.5,-259.5 434.5,-259.5 434.5,-259.5 429.5,-259.71 434.32,-255 424.51,-259.91 424.51,-259.91"/>
<ellipse fill="none" stroke="black" cx="420.51" cy="-260.07" rx="4" ry="4"/>
<polygon fill="black" stroke="black" points="328.11,-278.48 327.89,-268.48 329.89,-268.44 330.11,-278.43 328.11,-278.48"/>
<polyline fill="none" stroke="black" points="327,-273.5 332,-273.39 "/>
<polygon fill="black" stroke="black" points="333.11,-278.37 332.89,-268.37 334.89,-268.33 335.11,-278.33 333.11,-278.37"/>
<polyline fill="none" stroke="black" points="332,-273.39 337,-273.28 "/>
</g>
<!-- publication_8b03d5bf -->
<g id="node5" class="node">
<title>publication_8b03d5bf</title>
<polygon fill="#c2f2da" stroke="transparent" points="9,-140.5 9,-159.5 170,-159.5 170,-140.5 9,-140.5"/>
<text text-anchor="start" x="11" y="-147.3" font-family="Helvetica,sans-Serif" font-weight="bold" font-style="italic" font-size="14.00">publication</text>
<polygon fill="#c2f2da" stroke="transparent" points="170,-140.5 170,-159.5 363,-159.5 363,-140.5 170,-140.5"/>
<text text-anchor="start" x="278" y="-146.3" font-family="Helvetica,sans-Serif" font-size="14.00">[base table]</text>
<text text-anchor="start" x="11" y="-128.3" font-family="Helvetica,sans-Serif" font-weight="bold" font-style="italic" font-size="14.00">id</text>
<text text-anchor="start" x="163" y="-127.3" font-family="Helvetica,sans-Serif" font-size="14.00"> </text>
<text text-anchor="start" x="172" y="-127.3" font-family="Helvetica,sans-Serif" font-size="14.00">BIGINT NOT NULL</text>
<text text-anchor="start" x="11" y="-108.3" font-family="Helvetica,sans-Serif" font-size="14.00">dtype</text>
<text text-anchor="start" x="163" y="-108.3" font-family="Helvetica,sans-Serif" font-size="14.00"> </text>
<text text-anchor="start" x="172" y="-108.3" font-family="Helvetica,sans-Serif" font-size="14.00">CHARACTER VARYING(31)</text>
<text text-anchor="start" x="11" y="-89.3" font-family="Helvetica,sans-Serif" font-size="14.00">publishing_date_item</text>
<text text-anchor="start" x="163" y="-89.3" font-family="Helvetica,sans-Serif" font-size="14.00"> </text>
<text text-anchor="start" x="172" y="-89.3" font-family="Helvetica,sans-Serif" font-size="14.00">TIMESTAMP</text>
<text text-anchor="start" x="11" y="-70.3" font-family="Helvetica,sans-Serif" font-size="14.00">title</text>
<text text-anchor="start" x="163" y="-70.3" font-family="Helvetica,sans-Serif" font-size="14.00"> </text>
<text text-anchor="start" x="172" y="-70.3" font-family="Helvetica,sans-Serif" font-size="14.00">CHARACTER VARYING(255)</text>
<text text-anchor="start" x="11" y="-51.3" font-family="Helvetica,sans-Serif" font-size="14.00">version</text>
<text text-anchor="start" x="163" y="-51.3" font-family="Helvetica,sans-Serif" font-size="14.00"> </text>
<text text-anchor="start" x="172" y="-51.3" font-family="Helvetica,sans-Serif" font-size="14.00">BIGINT</text>
<polygon fill="none" stroke="#888888" points="8,-44.5 8,-160.5 364,-160.5 364,-44.5 8,-44.5"/>
</g>
<!-- publication_author_join_b890055e&#45;&gt;publication_8b03d5bf -->
<g id="edge4" class="edge">
<title>publication_author_join_b890055e:w&#45;&gt;publication_8b03d5bf:e</title>
<path fill="none" stroke="black" d="M416.86,-235.53C388.91,-215.79 410.48,-143.44 373.96,-132.81"/>
<polygon fill="black" stroke="black" points="424.87,-237.79 433.28,-244.83 429.69,-239.14 434.5,-240.5 434.5,-240.5 434.5,-240.5 429.69,-239.14 435.72,-236.17 424.87,-237.79 424.87,-237.79"/>
<ellipse fill="none" stroke="black" cx="421.02" cy="-236.71" rx="4" ry="4"/>
<polygon fill="black" stroke="black" points="364.34,-136.59 365.64,-126.67 367.63,-126.93 366.32,-136.85 364.34,-136.59"/>
<polyline fill="none" stroke="black" points="364,-131.5 368.96,-132.15 "/>
<polygon fill="black" stroke="black" points="369.3,-137.24 370.6,-127.32 372.58,-127.58 371.28,-137.5 369.3,-137.24"/>
<polyline fill="none" stroke="black" points="368.96,-132.15 373.91,-132.8 "/>
</g>
<!-- blog_cb766335 -->
<g id="node3" class="node">
<title>blog_cb766335</title>
<polygon fill="#c2f2da" stroke="transparent" points="477.5,-156.5 477.5,-175.5 515.5,-175.5 515.5,-156.5 477.5,-156.5"/>
<text text-anchor="start" x="479.5" y="-163.3" font-family="Helvetica,sans-Serif" font-weight="bold" font-style="italic" font-size="14.00">blog</text>
<polygon fill="#c2f2da" stroke="transparent" points="515.5,-156.5 515.5,-175.5 708.5,-175.5 708.5,-156.5 515.5,-156.5"/>
<text text-anchor="start" x="623.5" y="-162.3" font-family="Helvetica,sans-Serif" font-size="14.00">[base table]</text>
<text text-anchor="start" x="479.5" y="-144.3" font-family="Helvetica,sans-Serif" font-weight="bold" font-style="italic" font-size="14.00">id</text>
<text text-anchor="start" x="505.5" y="-143.3" font-family="Helvetica,sans-Serif" font-size="14.00"> </text>
<text text-anchor="start" x="517.5" y="-143.3" font-family="Helvetica,sans-Serif" font-size="14.00">BIGINT NOT NULL</text>
<text text-anchor="start" x="479.5" y="-124.3" font-family="Helvetica,sans-Serif" font-size="14.00">url</text>
<text text-anchor="start" x="505.5" y="-124.3" font-family="Helvetica,sans-Serif" font-size="14.00"> </text>
<text text-anchor="start" x="517.5" y="-124.3" font-family="Helvetica,sans-Serif" font-size="14.00">CHARACTER VARYING(255)</text>
<polygon fill="none" stroke="#888888" points="476,-118 476,-177 709,-177 709,-118 476,-118"/>
</g>
<!-- blog_cb766335&#45;&gt;publication_8b03d5bf -->
<g id="edge2" class="edge">
<title>blog_cb766335:w&#45;&gt;publication_8b03d5bf:e</title>
<path fill="none" stroke="black" d="M463.27,-146.13C426.64,-144 412.03,-133.36 374.16,-131.71"/>
<polygon fill="black" stroke="black" points="475.64,-141.47 475.36,-151.47 473.36,-151.41 473.64,-141.42 475.64,-141.47"/>
<polyline fill="none" stroke="black" points="476.5,-146.5 471.5,-146.36 "/>
<ellipse fill="none" stroke="black" cx="467.5" cy="-146.25" rx="4" ry="4"/>
<polygon fill="black" stroke="black" points="364.89,-136.52 365.11,-126.52 367.11,-126.56 366.89,-136.56 364.89,-136.52"/>
<polyline fill="none" stroke="black" points="364,-131.5 369,-131.61 "/>
<polygon fill="black" stroke="black" points="369.89,-136.63 370.1,-126.63 372.1,-126.67 371.89,-136.67 369.89,-136.63"/>
<polyline fill="none" stroke="black" points="369,-131.61 374,-131.71 "/>
</g>
<!-- book_cb766e7c -->
<g id="node4" class="node">
<title>book_cb766e7c</title>
<polygon fill="#c2f2da" stroke="transparent" points="500.5,-71.5 500.5,-90.5 556.5,-90.5 556.5,-71.5 500.5,-71.5"/>
<text text-anchor="start" x="502.5" y="-78.3" font-family="Helvetica,sans-Serif" font-weight="bold" font-style="italic" font-size="14.00">book</text>
<polygon fill="#c2f2da" stroke="transparent" points="556.5,-71.5 556.5,-90.5 684.5,-90.5 684.5,-71.5 556.5,-71.5"/>
<text text-anchor="start" x="599.5" y="-77.3" font-family="Helvetica,sans-Serif" font-size="14.00">[base table]</text>
<text text-anchor="start" x="502.5" y="-59.3" font-family="Helvetica,sans-Serif" font-weight="bold" font-style="italic" font-size="14.00">id</text>
<text text-anchor="start" x="549.5" y="-58.3" font-family="Helvetica,sans-Serif" font-size="14.00"> </text>
<text text-anchor="start" x="558.5" y="-58.3" font-family="Helvetica,sans-Serif" font-size="14.00">BIGINT NOT NULL</text>
<text text-anchor="start" x="502.5" y="-39.3" font-family="Helvetica,sans-Serif" font-size="14.00">pages</text>
<text text-anchor="start" x="549.5" y="-39.3" font-family="Helvetica,sans-Serif" font-size="14.00"> </text>
<text text-anchor="start" x="558.5" y="-39.3" font-family="Helvetica,sans-Serif" font-size="14.00">INTEGER</text>
<polygon fill="none" stroke="#888888" points="499.5,-33 499.5,-92 685.5,-92 685.5,-33 499.5,-33"/>
</g>
<!-- book_cb766e7c&#45;&gt;publication_8b03d5bf -->
<g id="edge3" class="edge">
<title>book_cb766e7c:w&#45;&gt;publication_8b03d5bf:e</title>
<path fill="none" stroke="black" d="M486.42,-62.23C452.62,-66.28 443.6,-86.47 408,-105.5 391.41,-114.37 387.7,-126.38 374.01,-130.25"/>
<polygon fill="black" stroke="black" points="498.22,-56.56 498.78,-66.55 496.78,-66.66 496.23,-56.68 498.22,-56.56"/>
<polyline fill="none" stroke="black" points="499.5,-61.5 494.51,-61.78 "/>
<ellipse fill="none" stroke="black" cx="490.51" cy="-62" rx="4" ry="4"/>
<polygon fill="black" stroke="black" points="365.61,-136.34 364.37,-126.41 366.36,-126.17 367.6,-136.09 365.61,-136.34"/>
<polyline fill="none" stroke="black" points="364,-131.5 368.96,-130.88 "/>
<polygon fill="black" stroke="black" points="370.57,-135.72 369.33,-125.79 371.32,-125.54 372.56,-135.47 370.57,-135.72"/>
<polyline fill="none" stroke="black" points="368.96,-130.88 373.92,-130.26 "/>
</g>
<!-- sequences_88e6b465 -->
<g id="node6" class="node">
<title>sequences_88e6b465</title>
<polygon fill="#c2f2da" stroke="transparent" points="417.5,-354.5 417.5,-373.5 509.5,-373.5 509.5,-354.5 417.5,-354.5"/>
<text text-anchor="start" x="419.5" y="-361.3" font-family="Helvetica,sans-Serif" font-weight="bold" font-style="italic" font-size="14.00">sequences</text>
<polygon fill="#c2f2da" stroke="transparent" points="509.5,-354.5 509.5,-373.5 768.5,-373.5 768.5,-354.5 509.5,-354.5"/>
<text text-anchor="start" x="683.5" y="-360.3" font-family="Helvetica,sans-Serif" font-size="14.00">[base table]</text>
<text text-anchor="start" x="419.5" y="-342.3" font-family="Helvetica,sans-Serif" font-weight="bold" font-style="italic" font-size="14.00">seq_name</text>
<text text-anchor="start" x="502.5" y="-341.3" font-family="Helvetica,sans-Serif" font-size="14.00"> </text>
<text text-anchor="start" x="511.5" y="-341.3" font-family="Helvetica,sans-Serif" font-size="14.00">CHARACTER VARYING(50) NOT NULL</text>
<text text-anchor="start" x="419.5" y="-322.3" font-family="Helvetica,sans-Serif" font-size="14.00">seq_count</text>
<text text-anchor="start" x="502.5" y="-322.3" font-family="Helvetica,sans-Serif" font-size="14.00"> </text>
<text text-anchor="start" x="511.5" y="-322.3" font-family="Helvetica,sans-Serif" font-size="14.00">DECIMAL(38, 0)</text>
<polygon fill="none" stroke="#888888" points="416,-316 416,-375 769,-375 769,-316 416,-316"/>
</g>
</g>
</svg>
