<?xml version="1.0" encoding="UTF-8" standalone="no"?>
<!DOCTYPE svg PUBLIC "-//W3C//DTD SVG 1.1//EN"
 "http://www.w3.org/Graphics/SVG/1.1/DTD/svg11.dtd">
<!-- Generated by graphviz version 2.43.0 (0)
 -->
<!-- Title: SchemaCrawler_Diagram Pages: 1 -->
<svg width="611pt" height="378pt"
 viewBox="0.00 0.00 611.00 378.00" xmlns="http://www.w3.org/2000/svg" xmlns:xlink="http://www.w3.org/1999/xlink">
<g id="graph0" class="graph" transform="scale(1 1) rotate(0) translate(4 374)">
<title>SchemaCrawler_Diagram</title>
<polygon fill="white" stroke="transparent" points="-4,4 -4,-374 607,-374 607,4 -4,4"/>
<text text-anchor="start" x="386" y="-11.3" font-family="Helvetica,sans-Serif" font-weight="bold" font-style="italic" font-size="14.00">Publication: EL&#45;PG&#45;JOINED</text>
<polygon fill="none" stroke="#888888" points="383,-4 383,-25 595,-25 595,-4 383,-4"/>
<!-- author_c30dd856 -->
<g id="node1" class="node">
<title>author_c30dd856</title>
<polygon fill="#c2c5f2" stroke="transparent" points="46,-268.5 46,-287.5 133,-287.5 133,-268.5 46,-268.5"/>
<text text-anchor="start" x="48" y="-275.3" font-family="Helvetica,sans-Serif" font-weight="bold" font-style="italic" font-size="14.00">author</text>
<polygon fill="#c2c5f2" stroke="transparent" points="133,-268.5 133,-287.5 228,-287.5 228,-268.5 133,-268.5"/>
<text text-anchor="start" x="180" y="-274.3" font-family="Helvetica,sans-Serif" font-size="14.00">[table]</text>
<text text-anchor="start" x="48" y="-256.3" font-family="Helvetica,sans-Serif" font-weight="bold" font-style="italic" font-size="14.00">id</text>
<text text-anchor="start" x="126" y="-255.3" font-family="Helvetica,sans-Serif" font-size="14.00"> </text>
<text text-anchor="start" x="135" y="-255.3" font-family="Helvetica,sans-Serif" font-size="14.00">int8 not null</text>
<text text-anchor="start" x="48" y="-236.3" font-family="Helvetica,sans-Serif" font-size="14.00">first_name</text>
<text text-anchor="start" x="126" y="-236.3" font-family="Helvetica,sans-Serif" font-size="14.00"> </text>
<text text-anchor="start" x="135" y="-236.3" font-family="Helvetica,sans-Serif" font-size="14.00">varchar(255)</text>
<text text-anchor="start" x="48" y="-217.3" font-family="Helvetica,sans-Serif" font-size="14.00">last_name</text>
<text text-anchor="start" x="126" y="-217.3" font-family="Helvetica,sans-Serif" font-size="14.00"> </text>
<text text-anchor="start" x="135" y="-217.3" font-family="Helvetica,sans-Serif" font-size="14.00">varchar(255)</text>
<text text-anchor="start" x="48" y="-198.3" font-family="Helvetica,sans-Serif" font-size="14.00">version</text>
<text text-anchor="start" x="126" y="-198.3" font-family="Helvetica,sans-Serif" font-size="14.00"> </text>
<text text-anchor="start" x="135" y="-198.3" font-family="Helvetica,sans-Serif" font-size="14.00">int8</text>
<polygon fill="none" stroke="#888888" points="45,-192 45,-289 229,-289 229,-192 45,-192"/>
</g>
<!-- publication_author_join_4288896 -->
<g id="node2" class="node">
<title>publication_author_join_4288896</title>
<polygon fill="#c2c5f2" stroke="transparent" points="319.5,-260.5 319.5,-279.5 505.5,-279.5 505.5,-260.5 319.5,-260.5"/>
<text text-anchor="start" x="321.5" y="-267.3" font-family="Helvetica,sans-Serif" font-weight="bold" font-style="italic" font-size="14.00">publication_author_join</text>
<polygon fill="#c2c5f2" stroke="transparent" points="505.5,-260.5 505.5,-279.5 594.5,-279.5 594.5,-260.5 505.5,-260.5"/>
<text text-anchor="start" x="546.5" y="-266.3" font-family="Helvetica,sans-Serif" font-size="14.00">[table]</text>
<text text-anchor="start" x="321.5" y="-248.3" font-family="Helvetica,sans-Serif" font-weight="bold" font-style="italic" font-size="14.00">author_id</text>
<text text-anchor="start" x="466.5" y="-247.3" font-family="Helvetica,sans-Serif" font-size="14.00"> </text>
<text text-anchor="start" x="507.5" y="-247.3" font-family="Helvetica,sans-Serif" font-size="14.00">int8 not null</text>
<text text-anchor="start" x="321.5" y="-229.3" font-family="Helvetica,sans-Serif" font-weight="bold" font-style="italic" font-size="14.00">publication_id</text>
<text text-anchor="start" x="466.5" y="-228.3" font-family="Helvetica,sans-Serif" font-size="14.00"> </text>
<text text-anchor="start" x="507.5" y="-228.3" font-family="Helvetica,sans-Serif" font-size="14.00">int8 not null</text>
<polygon fill="none" stroke="#888888" points="318,-222 318,-281 595,-281 595,-222 318,-222"/>
</g>
<!-- publication_author_join_4288896&#45;&gt;author_c30dd856 -->
<g id="edge1" class="edge">
<title>publication_author_join_4288896:w&#45;&gt;author_c30dd856:e</title>
<path fill="none" stroke="black" d="M300.27,-251.21C277.18,-253.1 264.95,-258.2 239.16,-259.29"/>
<polygon fill="black" stroke="black" points="308.51,-250.89 318.67,-255 313.5,-250.69 318.5,-250.5 318.5,-250.5 318.5,-250.5 313.5,-250.69 318.33,-246 308.51,-250.89 308.51,-250.89"/>
<ellipse fill="none" stroke="black" cx="304.51" cy="-251.04" rx="4" ry="4"/>
<polygon fill="black" stroke="black" points="230.1,-264.48 229.9,-254.48 231.9,-254.44 232.1,-264.44 230.1,-264.48"/>
<polyline fill="none" stroke="black" points="229,-259.5 234,-259.4 "/>
<polygon fill="black" stroke="black" points="235.1,-264.38 234.9,-254.38 236.9,-254.34 237.1,-264.34 235.1,-264.38"/>
<polyline fill="none" stroke="black" points="234,-259.4 239,-259.3 "/>
</g>
<!-- publication_d69c58f7 -->
<g id="node5" class="node">
<title>publication_d69c58f7</title>
<polygon fill="#c2c5f2" stroke="transparent" points="9,-145.5 9,-164.5 170,-164.5 170,-145.5 9,-145.5"/>
<text text-anchor="start" x="11" y="-152.3" font-family="Helvetica,sans-Serif" font-weight="bold" font-style="italic" font-size="14.00">publication</text>
<polygon fill="#c2c5f2" stroke="transparent" points="170,-145.5 170,-164.5 265,-164.5 265,-145.5 170,-145.5"/>
<text text-anchor="start" x="217" y="-151.3" font-family="Helvetica,sans-Serif" font-size="14.00">[table]</text>
<text text-anchor="start" x="11" y="-133.3" font-family="Helvetica,sans-Serif" font-weight="bold" font-style="italic" font-size="14.00">id</text>
<text text-anchor="start" x="163" y="-132.3" font-family="Helvetica,sans-Serif" font-size="14.00"> </text>
<text text-anchor="start" x="172" y="-132.3" font-family="Helvetica,sans-Serif" font-size="14.00">int8 not null</text>
<text text-anchor="start" x="11" y="-113.3" font-family="Helvetica,sans-Serif" font-size="14.00">dtype</text>
<text text-anchor="start" x="163" y="-113.3" font-family="Helvetica,sans-Serif" font-size="14.00"> </text>
<text text-anchor="start" x="172" y="-113.3" font-family="Helvetica,sans-Serif" font-size="14.00">varchar(31)</text>
<text text-anchor="start" x="11" y="-94.3" font-family="Helvetica,sans-Serif" font-size="14.00">publishing_date_item</text>
<text text-anchor="start" x="163" y="-94.3" font-family="Helvetica,sans-Serif" font-size="14.00"> </text>
<text text-anchor="start" x="172" y="-94.3" font-family="Helvetica,sans-Serif" font-size="14.00">timestamp</text>
<text text-anchor="start" x="11" y="-75.3" font-family="Helvetica,sans-Serif" font-size="14.00">title</text>
<text text-anchor="start" x="163" y="-75.3" font-family="Helvetica,sans-Serif" font-size="14.00"> </text>
<text text-anchor="start" x="172" y="-75.3" font-family="Helvetica,sans-Serif" font-size="14.00">varchar(255)</text>
<text text-anchor="start" x="11" y="-56.3" font-family="Helvetica,sans-Serif" font-size="14.00">version</text>
<text text-anchor="start" x="163" y="-56.3" font-family="Helvetica,sans-Serif" font-size="14.00"> </text>
<text text-anchor="start" x="172" y="-56.3" font-family="Helvetica,sans-Serif" font-size="14.00">int8</text>
<polygon fill="none" stroke="#888888" points="8,-49.5 8,-165.5 266,-165.5 266,-49.5 8,-49.5"/>
</g>
<!-- publication_author_join_4288896&#45;&gt;publication_d69c58f7 -->
<g id="edge4" class="edge">
<title>publication_author_join_4288896:w&#45;&gt;publication_d69c58f7:e</title>
<path fill="none" stroke="black" d="M301.66,-224.97C283.9,-205.6 302.14,-149.15 276.11,-138.31"/>
<polygon fill="black" stroke="black" points="309.18,-227.88 316.87,-235.7 313.84,-229.69 318.5,-231.5 318.5,-231.5 318.5,-231.5 313.84,-229.69 320.13,-227.3 309.18,-227.88 309.18,-227.88"/>
<ellipse fill="none" stroke="black" cx="305.45" cy="-226.44" rx="4" ry="4"/>
<polygon fill="black" stroke="black" points="266.1,-141.6 267.87,-131.75 269.84,-132.11 268.07,-141.95 266.1,-141.6"/>
<polyline fill="none" stroke="black" points="266,-136.5 270.92,-137.38 "/>
<polygon fill="black" stroke="black" points="271.02,-142.48 272.79,-132.64 274.76,-132.99 272.99,-142.83 271.02,-142.48"/>
<polyline fill="none" stroke="black" points="270.92,-137.38 275.84,-138.26 "/>
</g>
<!-- blog_170ee66d -->
<g id="node3" class="node">
<title>blog_170ee66d</title>
<polygon fill="#c2c5f2" stroke="transparent" points="390.5,-156.5 390.5,-175.5 428.5,-175.5 428.5,-156.5 390.5,-156.5"/>
<text text-anchor="start" x="392.5" y="-163.3" font-family="Helvetica,sans-Serif" font-weight="bold" font-style="italic" font-size="14.00">blog</text>
<polygon fill="#c2c5f2" stroke="transparent" points="428.5,-156.5 428.5,-175.5 523.5,-175.5 523.5,-156.5 428.5,-156.5"/>
<text text-anchor="start" x="475.5" y="-162.3" font-family="Helvetica,sans-Serif" font-size="14.00">[table]</text>
<text text-anchor="start" x="392.5" y="-144.3" font-family="Helvetica,sans-Serif" font-weight="bold" font-style="italic" font-size="14.00">id</text>
<text text-anchor="start" x="418.5" y="-143.3" font-family="Helvetica,sans-Serif" font-size="14.00"> </text>
<text text-anchor="start" x="430.5" y="-143.3" font-family="Helvetica,sans-Serif" font-size="14.00">int8 not null</text>
<text text-anchor="start" x="392.5" y="-124.3" font-family="Helvetica,sans-Serif" font-size="14.00">url</text>
<text text-anchor="start" x="418.5" y="-124.3" font-family="Helvetica,sans-Serif" font-size="14.00"> </text>
<text text-anchor="start" x="430.5" y="-124.3" font-family="Helvetica,sans-Serif" font-size="14.00">varchar(255)</text>
<polygon fill="none" stroke="#888888" points="389,-118 389,-177 524,-177 524,-118 389,-118"/>
</g>
<!-- blog_170ee66d&#45;&gt;publication_d69c58f7 -->
<g id="edge2" class="edge">
<title>blog_170ee66d:w&#45;&gt;publication_d69c58f7:e</title>
<path fill="none" stroke="black" d="M376.46,-146.3C335.03,-144.99 318.76,-137.65 276.14,-136.62"/>
<polygon fill="black" stroke="black" points="388.58,-141.49 388.42,-151.48 386.42,-151.45 386.58,-141.45 388.58,-141.49"/>
<polyline fill="none" stroke="black" points="389.5,-146.5 384.5,-146.42 "/>
<ellipse fill="none" stroke="black" cx="380.5" cy="-146.36" rx="4" ry="4"/>
<polygon fill="black" stroke="black" points="266.94,-141.51 267.06,-131.51 269.06,-131.54 268.94,-141.53 266.94,-141.51"/>
<polyline fill="none" stroke="black" points="266,-136.5 271,-136.56 "/>
<polygon fill="black" stroke="black" points="271.94,-141.57 272.06,-131.57 274.06,-131.59 273.94,-141.59 271.94,-141.57"/>
<polyline fill="none" stroke="black" points="271,-136.56 276,-136.62 "/>
</g>
<!-- book_170ef1b4 -->
<g id="node4" class="node">
<title>book_170ef1b4</title>
<polygon fill="#c2c5f2" stroke="transparent" points="384.5,-71.5 384.5,-90.5 440.5,-90.5 440.5,-71.5 384.5,-71.5"/>
<text text-anchor="start" x="386.5" y="-78.3" font-family="Helvetica,sans-Serif" font-weight="bold" font-style="italic" font-size="14.00">book</text>
<polygon fill="#c2c5f2" stroke="transparent" points="440.5,-71.5 440.5,-90.5 529.5,-90.5 529.5,-71.5 440.5,-71.5"/>
<text text-anchor="start" x="481.5" y="-77.3" font-family="Helvetica,sans-Serif" font-size="14.00">[table]</text>
<text text-anchor="start" x="386.5" y="-59.3" font-family="Helvetica,sans-Serif" font-weight="bold" font-style="italic" font-size="14.00">id</text>
<text text-anchor="start" x="433.5" y="-58.3" font-family="Helvetica,sans-Serif" font-size="14.00"> </text>
<text text-anchor="start" x="442.5" y="-58.3" font-family="Helvetica,sans-Serif" font-size="14.00">int8 not null</text>
<text text-anchor="start" x="386.5" y="-39.3" font-family="Helvetica,sans-Serif" font-size="14.00">pages</text>
<text text-anchor="start" x="433.5" y="-39.3" font-family="Helvetica,sans-Serif" font-size="14.00"> </text>
<text text-anchor="start" x="442.5" y="-39.3" font-family="Helvetica,sans-Serif" font-size="14.00">int4</text>
<polygon fill="none" stroke="#888888" points="383,-33 383,-92 530,-92 530,-33 383,-33"/>
</g>
<!-- book_170ef1b4&#45;&gt;publication_d69c58f7 -->
<g id="edge3" class="edge">
<title>book_170ef1b4:w&#45;&gt;publication_d69c58f7:e</title>
<path fill="none" stroke="black" d="M370.42,-62.56C344.17,-67.22 337.59,-86.46 310,-104.5 293.08,-115.56 290.6,-130.49 276.11,-135.09"/>
<polygon fill="black" stroke="black" points="382.1,-56.6 382.91,-66.56 380.91,-66.73 380.11,-56.76 382.1,-56.6"/>
<polyline fill="none" stroke="black" points="383.5,-61.5 378.52,-61.9 "/>
<ellipse fill="none" stroke="black" cx="374.53" cy="-62.23" rx="4" ry="4"/>
<polygon fill="black" stroke="black" points="267.68,-141.31 266.3,-131.41 268.28,-131.13 269.66,-141.04 267.68,-141.31"/>
<polyline fill="none" stroke="black" points="266,-136.5 270.95,-135.81 "/>
<polygon fill="black" stroke="black" points="272.63,-140.62 271.25,-130.72 273.23,-130.44 274.61,-140.35 272.63,-140.62"/>
<polyline fill="none" stroke="black" points="270.95,-135.81 275.9,-135.12 "/>
</g>
<!-- sequences_d47f379d -->
<g id="node6" class="node">
<title>sequences_d47f379d</title>
<polygon fill="#c2c5f2" stroke="transparent" points="339.5,-345.5 339.5,-364.5 431.5,-364.5 431.5,-345.5 339.5,-345.5"/>
<text text-anchor="start" x="341.5" y="-352.3" font-family="Helvetica,sans-Serif" font-weight="bold" font-style="italic" font-size="14.00">sequences</text>
<polygon fill="#c2c5f2" stroke="transparent" points="431.5,-345.5 431.5,-364.5 574.5,-364.5 574.5,-345.5 431.5,-345.5"/>
<text text-anchor="start" x="526.5" y="-351.3" font-family="Helvetica,sans-Serif" font-size="14.00">[table]</text>
<text text-anchor="start" x="341.5" y="-333.3" font-family="Helvetica,sans-Serif" font-weight="bold" font-style="italic" font-size="14.00">seq_name</text>
<text text-anchor="start" x="424.5" y="-332.3" font-family="Helvetica,sans-Serif" font-size="14.00"> </text>
<text text-anchor="start" x="433.5" y="-332.3" font-family="Helvetica,sans-Serif" font-size="14.00">varchar(50) not null</text>
<text text-anchor="start" x="341.5" y="-313.3" font-family="Helvetica,sans-Serif" font-size="14.00">seq_next</text>
<text text-anchor="start" x="424.5" y="-313.3" font-family="Helvetica,sans-Serif" font-size="14.00"> </text>
<text text-anchor="start" x="433.5" y="-313.3" font-family="Helvetica,sans-Serif" font-size="14.00">numeric(38, 0)</text>
<polygon fill="none" stroke="#888888" points="338,-307 338,-366 575,-366 575,-307 338,-307"/>
</g>
</g>
</svg>
