<?xml version="1.0" encoding="UTF-8" standalone="no"?>
<!DOCTYPE svg PUBLIC "-//W3C//DTD SVG 1.1//EN"
 "http://www.w3.org/Graphics/SVG/1.1/DTD/svg11.dtd">
<!-- Generated by graphviz version 2.43.0 (0)
 -->
<!-- Title: SchemaCrawler_Diagram Pages: 1 -->
<svg width="644pt" height="341pt"
 viewBox="0.00 0.00 644.00 341.00" xmlns="http://www.w3.org/2000/svg" xmlns:xlink="http://www.w3.org/1999/xlink">
<g id="graph0" class="graph" transform="scale(1 1) rotate(0) translate(4 337)">
<title>SchemaCrawler_Diagram</title>
<polygon fill="white" stroke="transparent" points="-4,4 -4,-337 640,-337 640,4 -4,4"/>
<text text-anchor="start" x="419" y="-11.3" font-family="Helvetica,sans-Serif" font-weight="bold" font-style="italic" font-size="14.00">Publication: EL&#45;PG&#45;JOINED</text>
<polygon fill="none" stroke="#888888" points="416,-4 416,-25 628,-25 628,-4 416,-4"/>
<!-- author_c30dd856 -->
<g id="node1" class="node">
<title>author_c30dd856</title>
<polygon fill="#c2c5f2" stroke="transparent" points="46.5,-308.5 46.5,-327.5 133.5,-327.5 133.5,-308.5 46.5,-308.5"/>
<text text-anchor="start" x="48.5" y="-315.3" font-family="Helvetica,sans-Serif" font-weight="bold" font-style="italic" font-size="14.00">author</text>
<polygon fill="#c2c5f2" stroke="transparent" points="133.5,-308.5 133.5,-327.5 261.5,-327.5 261.5,-308.5 133.5,-308.5"/>
<text text-anchor="start" x="213.5" y="-314.3" font-family="Helvetica,sans-Serif" font-size="14.00">[table]</text>
<text text-anchor="start" x="48.5" y="-296.3" font-family="Helvetica,sans-Serif" font-weight="bold" font-style="italic" font-size="14.00">id</text>
<text text-anchor="start" x="126.5" y="-295.3" font-family="Helvetica,sans-Serif" font-size="14.00"> </text>
<text text-anchor="start" x="135.5" y="-295.3" font-family="Helvetica,sans-Serif" font-size="14.00">serial not null</text>
<text text-anchor="start" x="126.5" y="-276.3" font-family="Helvetica,sans-Serif" font-size="14.00"> </text>
<text text-anchor="start" x="135.5" y="-276.3" font-family="Helvetica,sans-Serif" font-size="14.00">auto&#45;incremented</text>
<text text-anchor="start" x="48.5" y="-257.3" font-family="Helvetica,sans-Serif" font-size="14.00">dtype</text>
<text text-anchor="start" x="126.5" y="-257.3" font-family="Helvetica,sans-Serif" font-size="14.00"> </text>
<text text-anchor="start" x="135.5" y="-257.3" font-family="Helvetica,sans-Serif" font-size="14.00">varchar(31)</text>
<text text-anchor="start" x="48.5" y="-238.3" font-family="Helvetica,sans-Serif" font-size="14.00">first_name</text>
<text text-anchor="start" x="126.5" y="-238.3" font-family="Helvetica,sans-Serif" font-size="14.00"> </text>
<text text-anchor="start" x="135.5" y="-238.3" font-family="Helvetica,sans-Serif" font-size="14.00">varchar(255)</text>
<text text-anchor="start" x="48.5" y="-219.3" font-family="Helvetica,sans-Serif" font-size="14.00">last_name</text>
<text text-anchor="start" x="126.5" y="-219.3" font-family="Helvetica,sans-Serif" font-size="14.00"> </text>
<text text-anchor="start" x="135.5" y="-219.3" font-family="Helvetica,sans-Serif" font-size="14.00">varchar(255)</text>
<text text-anchor="start" x="48.5" y="-200.3" font-family="Helvetica,sans-Serif" font-size="14.00">version</text>
<text text-anchor="start" x="126.5" y="-200.3" font-family="Helvetica,sans-Serif" font-size="14.00"> </text>
<text text-anchor="start" x="135.5" y="-200.3" font-family="Helvetica,sans-Serif" font-size="14.00">int8</text>
<polygon fill="none" stroke="#888888" points="45,-194 45,-329 262,-329 262,-194 45,-194"/>
</g>
<!-- publication_author_join_4288896 -->
<g id="node2" class="node">
<title>publication_author_join_4288896</title>
<polygon fill="#c2c5f2" stroke="transparent" points="352.5,-290.5 352.5,-309.5 538.5,-309.5 538.5,-290.5 352.5,-290.5"/>
<text text-anchor="start" x="354.5" y="-297.3" font-family="Helvetica,sans-Serif" font-weight="bold" font-style="italic" font-size="14.00">publication_author_join</text>
<polygon fill="#c2c5f2" stroke="transparent" points="538.5,-290.5 538.5,-309.5 627.5,-309.5 627.5,-290.5 538.5,-290.5"/>
<text text-anchor="start" x="579.5" y="-296.3" font-family="Helvetica,sans-Serif" font-size="14.00">[table]</text>
<text text-anchor="start" x="354.5" y="-278.3" font-family="Helvetica,sans-Serif" font-weight="bold" font-style="italic" font-size="14.00">author_id</text>
<text text-anchor="start" x="499.5" y="-277.3" font-family="Helvetica,sans-Serif" font-size="14.00"> </text>
<text text-anchor="start" x="540.5" y="-277.3" font-family="Helvetica,sans-Serif" font-size="14.00">int8 not null</text>
<text text-anchor="start" x="354.5" y="-259.3" font-family="Helvetica,sans-Serif" font-weight="bold" font-style="italic" font-size="14.00">publication_id</text>
<text text-anchor="start" x="499.5" y="-258.3" font-family="Helvetica,sans-Serif" font-size="14.00"> </text>
<text text-anchor="start" x="540.5" y="-258.3" font-family="Helvetica,sans-Serif" font-size="14.00">int8 not null</text>
<polygon fill="none" stroke="#888888" points="351,-252 351,-311 628,-311 628,-252 351,-252"/>
</g>
<!-- publication_author_join_4288896&#45;&gt;author_c30dd856 -->
<g id="edge1" class="edge">
<title>publication_author_join_4288896:w&#45;&gt;author_c30dd856:e</title>
<path fill="none" stroke="black" d="M333.55,-281.93C310.28,-285.86 298.8,-296.73 272.79,-299.06"/>
<polygon fill="black" stroke="black" points="341.53,-281.29 351.86,-284.99 346.52,-280.9 351.5,-280.5 351.5,-280.5 351.5,-280.5 346.52,-280.9 351.14,-276.01 341.53,-281.29 341.53,-281.29"/>
<ellipse fill="none" stroke="black" cx="337.54" cy="-281.61" rx="4" ry="4"/>
<polygon fill="black" stroke="black" points="263.71,-304.45 263.28,-294.46 265.28,-294.38 265.71,-304.37 263.71,-304.45"/>
<polyline fill="none" stroke="black" points="262.5,-299.5 267.5,-299.28 "/>
<polygon fill="black" stroke="black" points="268.71,-304.24 268.28,-294.25 270.28,-294.16 270.71,-304.15 268.71,-304.24"/>
<polyline fill="none" stroke="black" points="267.5,-299.28 272.49,-299.07 "/>
</g>
<!-- publication_d69c58f7 -->
<g id="node5" class="node">
<title>publication_d69c58f7</title>
<polygon fill="#c2c5f2" stroke="transparent" points="9.5,-147.5 9.5,-166.5 170.5,-166.5 170.5,-147.5 9.5,-147.5"/>
<text text-anchor="start" x="11.5" y="-154.3" font-family="Helvetica,sans-Serif" font-weight="bold" font-style="italic" font-size="14.00">publication</text>
<polygon fill="#c2c5f2" stroke="transparent" points="170.5,-147.5 170.5,-166.5 298.5,-166.5 298.5,-147.5 170.5,-147.5"/>
<text text-anchor="start" x="250.5" y="-153.3" font-family="Helvetica,sans-Serif" font-size="14.00">[table]</text>
<text text-anchor="start" x="11.5" y="-135.3" font-family="Helvetica,sans-Serif" font-weight="bold" font-style="italic" font-size="14.00">id</text>
<text text-anchor="start" x="163.5" y="-134.3" font-family="Helvetica,sans-Serif" font-size="14.00"> </text>
<text text-anchor="start" x="172.5" y="-134.3" font-family="Helvetica,sans-Serif" font-size="14.00">serial not null</text>
<text text-anchor="start" x="163.5" y="-115.3" font-family="Helvetica,sans-Serif" font-size="14.00"> </text>
<text text-anchor="start" x="172.5" y="-115.3" font-family="Helvetica,sans-Serif" font-size="14.00">auto&#45;incremented</text>
<text text-anchor="start" x="11.5" y="-96.3" font-family="Helvetica,sans-Serif" font-size="14.00">dtype</text>
<text text-anchor="start" x="163.5" y="-96.3" font-family="Helvetica,sans-Serif" font-size="14.00"> </text>
<text text-anchor="start" x="172.5" y="-96.3" font-family="Helvetica,sans-Serif" font-size="14.00">varchar(31)</text>
<text text-anchor="start" x="11.5" y="-77.3" font-family="Helvetica,sans-Serif" font-size="14.00">publishing_date_item</text>
<text text-anchor="start" x="163.5" y="-77.3" font-family="Helvetica,sans-Serif" font-size="14.00"> </text>
<text text-anchor="start" x="172.5" y="-77.3" font-family="Helvetica,sans-Serif" font-size="14.00">timestamp</text>
<text text-anchor="start" x="11.5" y="-58.3" font-family="Helvetica,sans-Serif" font-size="14.00">title</text>
<text text-anchor="start" x="163.5" y="-58.3" font-family="Helvetica,sans-Serif" font-size="14.00"> </text>
<text text-anchor="start" x="172.5" y="-58.3" font-family="Helvetica,sans-Serif" font-size="14.00">varchar(255)</text>
<text text-anchor="start" x="11.5" y="-39.3" font-family="Helvetica,sans-Serif" font-size="14.00">version</text>
<text text-anchor="start" x="163.5" y="-39.3" font-family="Helvetica,sans-Serif" font-size="14.00"> </text>
<text text-anchor="start" x="172.5" y="-39.3" font-family="Helvetica,sans-Serif" font-size="14.00">int8</text>
<polygon fill="none" stroke="#888888" points="8,-33 8,-168 299,-168 299,-33 8,-33"/>
</g>
<!-- publication_author_join_4288896&#45;&gt;publication_d69c58f7 -->
<g id="edge4" class="edge">
<title>publication_author_join_4288896:w&#45;&gt;publication_d69c58f7:e</title>
<path fill="none" stroke="black" d="M334.29,-255.9C309.26,-233.62 345.07,-151.97 309.5,-139.98"/>
<polygon fill="black" stroke="black" points="341.99,-258.4 350.11,-265.78 346.75,-259.95 351.5,-261.5 351.5,-261.5 351.5,-261.5 346.75,-259.95 352.89,-257.22 341.99,-258.4 341.99,-258.4"/>
<ellipse fill="none" stroke="black" cx="338.19" cy="-257.16" rx="4" ry="4"/>
<polygon fill="black" stroke="black" points="299.76,-143.59 301.22,-133.7 303.2,-133.99 301.74,-143.88 299.76,-143.59"/>
<polyline fill="none" stroke="black" points="299.5,-138.5 304.45,-139.23 "/>
<polygon fill="black" stroke="black" points="304.71,-144.32 306.17,-134.43 308.14,-134.72 306.68,-144.61 304.71,-144.32"/>
<polyline fill="none" stroke="black" points="304.45,-139.23 309.39,-139.96 "/>
</g>
<!-- blog_170ee66d -->
<g id="node3" class="node">
<title>blog_170ee66d</title>
<polygon fill="#c2c5f2" stroke="transparent" points="423.5,-167.5 423.5,-186.5 461.5,-186.5 461.5,-167.5 423.5,-167.5"/>
<text text-anchor="start" x="425.5" y="-174.3" font-family="Helvetica,sans-Serif" font-weight="bold" font-style="italic" font-size="14.00">blog</text>
<polygon fill="#c2c5f2" stroke="transparent" points="461.5,-167.5 461.5,-186.5 556.5,-186.5 556.5,-167.5 461.5,-167.5"/>
<text text-anchor="start" x="508.5" y="-173.3" font-family="Helvetica,sans-Serif" font-size="14.00">[table]</text>
<text text-anchor="start" x="425.5" y="-155.3" font-family="Helvetica,sans-Serif" font-weight="bold" font-style="italic" font-size="14.00">id</text>
<text text-anchor="start" x="451.5" y="-154.3" font-family="Helvetica,sans-Serif" font-size="14.00"> </text>
<text text-anchor="start" x="463.5" y="-154.3" font-family="Helvetica,sans-Serif" font-size="14.00">int8 not null</text>
<text text-anchor="start" x="425.5" y="-135.3" font-family="Helvetica,sans-Serif" font-size="14.00">url</text>
<text text-anchor="start" x="451.5" y="-135.3" font-family="Helvetica,sans-Serif" font-size="14.00"> </text>
<text text-anchor="start" x="463.5" y="-135.3" font-family="Helvetica,sans-Serif" font-size="14.00">varchar(255)</text>
<polygon fill="none" stroke="#888888" points="422,-129 422,-188 557,-188 557,-129 422,-129"/>
</g>
<!-- blog_170ee66d&#45;&gt;publication_d69c58f7 -->
<g id="edge2" class="edge">
<title>blog_170ee66d:w&#45;&gt;publication_d69c58f7:e</title>
<path fill="none" stroke="black" d="M409.42,-157.12C367.94,-154.63 352.38,-140.68 309.68,-138.73"/>
<polygon fill="black" stroke="black" points="421.65,-152.47 421.36,-162.47 419.36,-162.41 419.65,-152.42 421.65,-152.47"/>
<polyline fill="none" stroke="black" points="422.5,-157.5 417.5,-157.35 "/>
<ellipse fill="none" stroke="black" cx="413.5" cy="-157.24" rx="4" ry="4"/>
<polygon fill="black" stroke="black" points="300.39,-143.52 300.61,-133.52 302.61,-133.57 302.39,-143.57 300.39,-143.52"/>
<polyline fill="none" stroke="black" points="299.5,-138.5 304.5,-138.61 "/>
<polygon fill="black" stroke="black" points="305.39,-143.63 305.61,-133.63 307.61,-133.68 307.39,-143.68 305.39,-143.63"/>
<polyline fill="none" stroke="black" points="304.5,-138.61 309.5,-138.72 "/>
</g>
<!-- book_170ef1b4 -->
<g id="node4" class="node">
<title>book_170ef1b4</title>
<polygon fill="#c2c5f2" stroke="transparent" points="417.5,-82.5 417.5,-101.5 473.5,-101.5 473.5,-82.5 417.5,-82.5"/>
<text text-anchor="start" x="419.5" y="-89.3" font-family="Helvetica,sans-Serif" font-weight="bold" font-style="italic" font-size="14.00">book</text>
<polygon fill="#c2c5f2" stroke="transparent" points="473.5,-82.5 473.5,-101.5 562.5,-101.5 562.5,-82.5 473.5,-82.5"/>
<text text-anchor="start" x="514.5" y="-88.3" font-family="Helvetica,sans-Serif" font-size="14.00">[table]</text>
<text text-anchor="start" x="419.5" y="-70.3" font-family="Helvetica,sans-Serif" font-weight="bold" font-style="italic" font-size="14.00">id</text>
<text text-anchor="start" x="466.5" y="-69.3" font-family="Helvetica,sans-Serif" font-size="14.00"> </text>
<text text-anchor="start" x="475.5" y="-69.3" font-family="Helvetica,sans-Serif" font-size="14.00">int8 not null</text>
<text text-anchor="start" x="419.5" y="-50.3" font-family="Helvetica,sans-Serif" font-size="14.00">pages</text>
<text text-anchor="start" x="466.5" y="-50.3" font-family="Helvetica,sans-Serif" font-size="14.00"> </text>
<text text-anchor="start" x="475.5" y="-50.3" font-family="Helvetica,sans-Serif" font-size="14.00">int4</text>
<polygon fill="none" stroke="#888888" points="416,-44 416,-103 563,-103 563,-44 416,-44"/>
</g>
<!-- book_170ef1b4&#45;&gt;publication_d69c58f7 -->
<g id="edge3" class="edge">
<title>book_170ef1b4:w&#45;&gt;publication_d69c58f7:e</title>
<path fill="none" stroke="black" d="M403.96,-77.25C379.57,-89.96 331.27,-124.52 309.03,-135.27"/>
<polygon fill="black" stroke="black" points="413.79,-68.18 417.33,-77.53 415.46,-78.24 411.92,-68.89 413.79,-68.18"/>
<polyline fill="none" stroke="black" points="416.5,-72.5 411.82,-74.27 "/>
<ellipse fill="none" stroke="black" cx="408.08" cy="-75.69" rx="4" ry="4"/>
<polygon fill="black" stroke="black" points="302.05,-142.91 298.84,-133.44 300.74,-132.8 303.95,-142.27 302.05,-142.91"/>
<polyline fill="none" stroke="black" points="299.5,-138.5 304.24,-136.89 "/>
<polygon fill="black" stroke="black" points="306.79,-141.31 303.58,-131.84 305.47,-131.2 308.68,-140.67 306.79,-141.31"/>
<polyline fill="none" stroke="black" points="304.24,-136.89 308.97,-135.29 "/>
</g>
</g>
</svg>
