<?xml version="1.0" encoding="UTF-8" standalone="no"?>
<!DOCTYPE svg PUBLIC "-//W3C//DTD SVG 1.1//EN"
 "http://www.w3.org/Graphics/SVG/1.1/DTD/svg11.dtd">
<!-- Generated by graphviz version 2.43.0 (0)
 -->
<!-- Title: SchemaCrawler_Diagram Pages: 1 -->
<svg width="748pt" height="341pt"
 viewBox="0.00 0.00 748.00 341.00" xmlns="http://www.w3.org/2000/svg" xmlns:xlink="http://www.w3.org/1999/xlink">
<g id="graph0" class="graph" transform="scale(1 1) rotate(0) translate(4 337)">
<title>SchemaCrawler_Diagram</title>
<polygon fill="white" stroke="transparent" points="-4,4 -4,-337 744,-337 744,4 -4,4"/>
<text text-anchor="start" x="523" y="-11.3" font-family="Helvetica,sans-Serif" font-weight="bold" font-style="italic" font-size="14.00">Publication: EL&#45;H2&#45;JOINED</text>
<polygon fill="none" stroke="#888888" points="520,-4 520,-25 732,-25 732,-4 520,-4"/>
<!-- author_7775551e -->
<g id="node1" class="node">
<title>author_7775551e</title>
<polygon fill="#c2f2da" stroke="transparent" points="46,-308.5 46,-327.5 133,-327.5 133,-308.5 46,-308.5"/>
<text text-anchor="start" x="48" y="-315.3" font-family="Helvetica,sans-Serif" font-weight="bold" font-style="italic" font-size="14.00">author</text>
<polygon fill="#c2f2da" stroke="transparent" points="133,-308.5 133,-327.5 326,-327.5 326,-308.5 133,-308.5"/>
<text text-anchor="start" x="241" y="-314.3" font-family="Helvetica,sans-Serif" font-size="14.00">[base table]</text>
<text text-anchor="start" x="48" y="-296.3" font-family="Helvetica,sans-Serif" font-weight="bold" font-style="italic" font-size="14.00">id</text>
<text text-anchor="start" x="126" y="-295.3" font-family="Helvetica,sans-Serif" font-size="14.00"> </text>
<text text-anchor="start" x="135" y="-295.3" font-family="Helvetica,sans-Serif" font-size="14.00">INTEGER NOT NULL</text>
<text text-anchor="start" x="126" y="-276.3" font-family="Helvetica,sans-Serif" font-size="14.00"> </text>
<text text-anchor="start" x="135" y="-276.3" font-family="Helvetica,sans-Serif" font-size="14.00">auto&#45;incremented</text>
<text text-anchor="start" x="48" y="-257.3" font-family="Helvetica,sans-Serif" font-size="14.00">dtype</text>
<text text-anchor="start" x="126" y="-257.3" font-family="Helvetica,sans-Serif" font-size="14.00"> </text>
<text text-anchor="start" x="135" y="-257.3" font-family="Helvetica,sans-Serif" font-size="14.00">CHARACTER VARYING(31)</text>
<text text-anchor="start" x="48" y="-238.3" font-family="Helvetica,sans-Serif" font-size="14.00">first_name</text>
<text text-anchor="start" x="126" y="-238.3" font-family="Helvetica,sans-Serif" font-size="14.00"> </text>
<text text-anchor="start" x="135" y="-238.3" font-family="Helvetica,sans-Serif" font-size="14.00">CHARACTER VARYING(255)</text>
<text text-anchor="start" x="48" y="-219.3" font-family="Helvetica,sans-Serif" font-size="14.00">last_name</text>
<text text-anchor="start" x="126" y="-219.3" font-family="Helvetica,sans-Serif" font-size="14.00"> </text>
<text text-anchor="start" x="135" y="-219.3" font-family="Helvetica,sans-Serif" font-size="14.00">CHARACTER VARYING(255)</text>
<text text-anchor="start" x="48" y="-200.3" font-family="Helvetica,sans-Serif" font-size="14.00">version</text>
<text text-anchor="start" x="126" y="-200.3" font-family="Helvetica,sans-Serif" font-size="14.00"> </text>
<text text-anchor="start" x="135" y="-200.3" font-family="Helvetica,sans-Serif" font-size="14.00">BIGINT</text>
<polygon fill="none" stroke="#888888" points="45,-194 45,-329 327,-329 327,-194 45,-194"/>
</g>
<!-- publication_author_join_b890055e -->
<g id="node2" class="node">
<title>publication_author_join_b890055e</title>
<polygon fill="#c2f2da" stroke="transparent" points="417,-290.5 417,-309.5 603,-309.5 603,-290.5 417,-290.5"/>
<text text-anchor="start" x="419" y="-297.3" font-family="Helvetica,sans-Serif" font-weight="bold" font-style="italic" font-size="14.00">publication_author_join</text>
<polygon fill="#c2f2da" stroke="transparent" points="603,-290.5 603,-309.5 731,-309.5 731,-290.5 603,-290.5"/>
<text text-anchor="start" x="646" y="-296.3" font-family="Helvetica,sans-Serif" font-size="14.00">[base table]</text>
<text text-anchor="start" x="419" y="-278.3" font-family="Helvetica,sans-Serif" font-weight="bold" font-style="italic" font-size="14.00">author_id</text>
<text text-anchor="start" x="564" y="-277.3" font-family="Helvetica,sans-Serif" font-size="14.00"> </text>
<text text-anchor="start" x="605" y="-277.3" font-family="Helvetica,sans-Serif" font-size="14.00">BIGINT NOT NULL</text>
<text text-anchor="start" x="419" y="-259.3" font-family="Helvetica,sans-Serif" font-weight="bold" font-style="italic" font-size="14.00">publication_id</text>
<text text-anchor="start" x="564" y="-258.3" font-family="Helvetica,sans-Serif" font-size="14.00"> </text>
<text text-anchor="start" x="605" y="-258.3" font-family="Helvetica,sans-Serif" font-size="14.00">BIGINT NOT NULL</text>
<polygon fill="none" stroke="#888888" points="416,-252 416,-311 732,-311 732,-252 416,-252"/>
</g>
<!-- publication_author_join_b890055e&#45;&gt;author_7775551e -->
<g id="edge1" class="edge">
<title>publication_author_join_b890055e:w&#45;&gt;author_7775551e:e</title>
<path fill="none" stroke="black" d="M398.05,-281.93C374.78,-285.86 363.3,-296.73 337.29,-299.06"/>
<polygon fill="black" stroke="black" points="406.03,-281.29 416.36,-284.99 411.02,-280.9 416,-280.5 416,-280.5 416,-280.5 411.02,-280.9 415.64,-276.01 406.03,-281.29 406.03,-281.29"/>
<ellipse fill="none" stroke="black" cx="402.04" cy="-281.61" rx="4" ry="4"/>
<polygon fill="black" stroke="black" points="328.21,-304.45 327.78,-294.46 329.78,-294.38 330.21,-304.37 328.21,-304.45"/>
<polyline fill="none" stroke="black" points="327,-299.5 332,-299.28 "/>
<polygon fill="black" stroke="black" points="333.21,-304.24 332.78,-294.25 334.78,-294.16 335.21,-304.15 333.21,-304.24"/>
<polyline fill="none" stroke="black" points="332,-299.28 336.99,-299.07 "/>
</g>
<!-- publication_8b03d5bf -->
<g id="node5" class="node">
<title>publication_8b03d5bf</title>
<polygon fill="#c2f2da" stroke="transparent" points="9,-147.5 9,-166.5 170,-166.5 170,-147.5 9,-147.5"/>
<text text-anchor="start" x="11" y="-154.3" font-family="Helvetica,sans-Serif" font-weight="bold" font-style="italic" font-size="14.00">publication</text>
<polygon fill="#c2f2da" stroke="transparent" points="170,-147.5 170,-166.5 363,-166.5 363,-147.5 170,-147.5"/>
<text text-anchor="start" x="278" y="-153.3" font-family="Helvetica,sans-Serif" font-size="14.00">[base table]</text>
<text text-anchor="start" x="11" y="-135.3" font-family="Helvetica,sans-Serif" font-weight="bold" font-style="italic" font-size="14.00">id</text>
<text text-anchor="start" x="163" y="-134.3" font-family="Helvetica,sans-Serif" font-size="14.00"> </text>
<text text-anchor="start" x="172" y="-134.3" font-family="Helvetica,sans-Serif" font-size="14.00">INTEGER NOT NULL</text>
<text text-anchor="start" x="163" y="-115.3" font-family="Helvetica,sans-Serif" font-size="14.00"> </text>
<text text-anchor="start" x="172" y="-115.3" font-family="Helvetica,sans-Serif" font-size="14.00">auto&#45;incremented</text>
<text text-anchor="start" x="11" y="-96.3" font-family="Helvetica,sans-Serif" font-size="14.00">dtype</text>
<text text-anchor="start" x="163" y="-96.3" font-family="Helvetica,sans-Serif" font-size="14.00"> </text>
<text text-anchor="start" x="172" y="-96.3" font-family="Helvetica,sans-Serif" font-size="14.00">CHARACTER VARYING(31)</text>
<text text-anchor="start" x="11" y="-77.3" font-family="Helvetica,sans-Serif" font-size="14.00">publishing_date_item</text>
<text text-anchor="start" x="163" y="-77.3" font-family="Helvetica,sans-Serif" font-size="14.00"> </text>
<text text-anchor="start" x="172" y="-77.3" font-family="Helvetica,sans-Serif" font-size="14.00">TIMESTAMP</text>
<text text-anchor="start" x="11" y="-58.3" font-family="Helvetica,sans-Serif" font-size="14.00">title</text>
<text text-anchor="start" x="163" y="-58.3" font-family="Helvetica,sans-Serif" font-size="14.00"> </text>
<text text-anchor="start" x="172" y="-58.3" font-family="Helvetica,sans-Serif" font-size="14.00">CHARACTER VARYING(255)</text>
<text text-anchor="start" x="11" y="-39.3" font-family="Helvetica,sans-Serif" font-size="14.00">version</text>
<text text-anchor="start" x="163" y="-39.3" font-family="Helvetica,sans-Serif" font-size="14.00"> </text>
<text text-anchor="start" x="172" y="-39.3" font-family="Helvetica,sans-Serif" font-size="14.00">BIGINT</text>
<polygon fill="none" stroke="#888888" points="8,-33 8,-168 364,-168 364,-33 8,-33"/>
</g>
<!-- publication_author_join_b890055e&#45;&gt;publication_8b03d5bf -->
<g id="edge4" class="edge">
<title>publication_author_join_b890055e:w&#45;&gt;publication_8b03d5bf:e</title>
<path fill="none" stroke="black" d="M398.79,-255.9C373.76,-233.62 409.57,-151.97 374,-139.98"/>
<polygon fill="black" stroke="black" points="406.49,-258.4 414.61,-265.78 411.25,-259.95 416,-261.5 416,-261.5 416,-261.5 411.25,-259.95 417.39,-257.22 406.49,-258.4 406.49,-258.4"/>
<ellipse fill="none" stroke="black" cx="402.69" cy="-257.16" rx="4" ry="4"/>
<polygon fill="black" stroke="black" points="364.26,-143.59 365.72,-133.7 367.7,-133.99 366.24,-143.88 364.26,-143.59"/>
<polyline fill="none" stroke="black" points="364,-138.5 368.95,-139.23 "/>
<polygon fill="black" stroke="black" points="369.21,-144.32 370.67,-134.43 372.64,-134.72 371.18,-144.61 369.21,-144.32"/>
<polyline fill="none" stroke="black" points="368.95,-139.23 373.89,-139.96 "/>
</g>
<!-- blog_cb766335 -->
<g id="node3" class="node">
<title>blog_cb766335</title>
<polygon fill="#c2f2da" stroke="transparent" points="459,-167.5 459,-186.5 497,-186.5 497,-167.5 459,-167.5"/>
<text text-anchor="start" x="461" y="-174.3" font-family="Helvetica,sans-Serif" font-weight="bold" font-style="italic" font-size="14.00">blog</text>
<polygon fill="#c2f2da" stroke="transparent" points="497,-167.5 497,-186.5 690,-186.5 690,-167.5 497,-167.5"/>
<text text-anchor="start" x="605" y="-173.3" font-family="Helvetica,sans-Serif" font-size="14.00">[base table]</text>
<text text-anchor="start" x="461" y="-155.3" font-family="Helvetica,sans-Serif" font-weight="bold" font-style="italic" font-size="14.00">id</text>
<text text-anchor="start" x="487" y="-154.3" font-family="Helvetica,sans-Serif" font-size="14.00"> </text>
<text text-anchor="start" x="499" y="-154.3" font-family="Helvetica,sans-Serif" font-size="14.00">BIGINT NOT NULL</text>
<text text-anchor="start" x="461" y="-135.3" font-family="Helvetica,sans-Serif" font-size="14.00">url</text>
<text text-anchor="start" x="487" y="-135.3" font-family="Helvetica,sans-Serif" font-size="14.00"> </text>
<text text-anchor="start" x="499" y="-135.3" font-family="Helvetica,sans-Serif" font-size="14.00">CHARACTER VARYING(255)</text>
<polygon fill="none" stroke="#888888" points="457.5,-129 457.5,-188 690.5,-188 690.5,-129 457.5,-129"/>
</g>
<!-- blog_cb766335&#45;&gt;publication_8b03d5bf -->
<g id="edge2" class="edge">
<title>blog_cb766335:w&#45;&gt;publication_8b03d5bf:e</title>
<path fill="none" stroke="black" d="M444.72,-156.82C416.06,-153.77 404.17,-141.31 374.35,-138.9"/>
<polygon fill="black" stroke="black" points="457.26,-152.46 456.75,-162.44 454.75,-162.34 455.26,-152.35 457.26,-152.46"/>
<polyline fill="none" stroke="black" points="458,-157.5 453.01,-157.25 "/>
<ellipse fill="none" stroke="black" cx="449.01" cy="-157.04" rx="4" ry="4"/>
<polygon fill="black" stroke="black" points="364.8,-143.54 365.19,-133.54 367.19,-133.62 366.8,-143.61 364.8,-143.54"/>
<polyline fill="none" stroke="black" points="364,-138.5 369,-138.69 "/>
<polygon fill="black" stroke="black" points="369.8,-143.73 370.19,-133.74 372.19,-133.81 371.8,-143.81 369.8,-143.73"/>
<polyline fill="none" stroke="black" points="369,-138.69 373.99,-138.89 "/>
</g>
<!-- book_cb766e7c -->
<g id="node4" class="node">
<title>book_cb766e7c</title>
<polygon fill="#c2f2da" stroke="transparent" points="482,-82.5 482,-101.5 538,-101.5 538,-82.5 482,-82.5"/>
<text text-anchor="start" x="484" y="-89.3" font-family="Helvetica,sans-Serif" font-weight="bold" font-style="italic" font-size="14.00">book</text>
<polygon fill="#c2f2da" stroke="transparent" points="538,-82.5 538,-101.5 666,-101.5 666,-82.5 538,-82.5"/>
<text text-anchor="start" x="581" y="-88.3" font-family="Helvetica,sans-Serif" font-size="14.00">[base table]</text>
<text text-anchor="start" x="484" y="-70.3" font-family="Helvetica,sans-Serif" font-weight="bold" font-style="italic" font-size="14.00">id</text>
<text text-anchor="start" x="531" y="-69.3" font-family="Helvetica,sans-Serif" font-size="14.00"> </text>
<text text-anchor="start" x="540" y="-69.3" font-family="Helvetica,sans-Serif" font-size="14.00">BIGINT NOT NULL</text>
<text text-anchor="start" x="484" y="-50.3" font-family="Helvetica,sans-Serif" font-size="14.00">pages</text>
<text text-anchor="start" x="531" y="-50.3" font-family="Helvetica,sans-Serif" font-size="14.00"> </text>
<text text-anchor="start" x="540" y="-50.3" font-family="Helvetica,sans-Serif" font-size="14.00">INTEGER</text>
<polygon fill="none" stroke="#888888" points="481,-44 481,-103 667,-103 667,-44 481,-44"/>
</g>
<!-- book_cb766e7c&#45;&gt;publication_8b03d5bf -->
<g id="edge3" class="edge">
<title>book_cb766e7c:w&#45;&gt;publication_8b03d5bf:e</title>
<path fill="none" stroke="black" d="M468.21,-75.51C440.51,-86.91 400.77,-127.27 373.94,-136.58"/>
<polygon fill="black" stroke="black" points="478.88,-67.86 481.17,-77.6 479.22,-78.05 476.94,-68.32 478.88,-67.86"/>
<polyline fill="none" stroke="black" points="481,-72.5 476.13,-73.64 "/>
<ellipse fill="none" stroke="black" cx="472.24" cy="-74.56" rx="4" ry="4"/>
<polygon fill="black" stroke="black" points="365.93,-143.22 364.03,-133.4 366,-133.02 367.89,-142.84 365.93,-143.22"/>
<polyline fill="none" stroke="black" points="364,-138.5 368.91,-137.55 "/>
<polygon fill="black" stroke="black" points="370.84,-142.27 368.94,-132.45 370.9,-132.07 372.8,-141.89 370.84,-142.27"/>
<polyline fill="none" stroke="black" points="368.91,-137.55 373.82,-136.6 "/>
</g>
</g>
</svg>
