<?xml version="1.0" encoding="UTF-8" standalone="no"?>
<!DOCTYPE svg PUBLIC "-//W3C//DTD SVG 1.1//EN"
 "http://www.w3.org/Graphics/SVG/1.1/DTD/svg11.dtd">
<!-- Generated by graphviz version 2.43.0 (0)
 -->
<!-- Title: SchemaCrawler_Diagram Pages: 1 -->
<svg width="794pt" height="368pt"
 viewBox="0.00 0.00 794.00 368.00" xmlns="http://www.w3.org/2000/svg" xmlns:xlink="http://www.w3.org/1999/xlink">
<g id="graph0" class="graph" transform="scale(1 1) rotate(0) translate(4 364)">
<title>SchemaCrawler_Diagram</title>
<polygon fill="white" stroke="transparent" points="-4,4 -4,-364 790,-364 790,4 -4,4"/>
<text text-anchor="start" x="565" y="-11.3" font-family="Helvetica,sans-Serif" font-weight="bold" font-style="italic" font-size="14.00">Publication: HB&#45;H2&#45;JOINED</text>
<polygon fill="none" stroke="#888888" points="562,-4 562,-25 778,-25 778,-4 562,-4"/>
<!-- author_7775551e -->
<g id="node1" class="node">
<title>author_7775551e</title>
<polygon fill="#c2f2da" stroke="transparent" points="46,-249.5 46,-268.5 133,-268.5 133,-249.5 46,-249.5"/>
<text text-anchor="start" x="48" y="-256.3" font-family="Helvetica,sans-Serif" font-weight="bold" font-style="italic" font-size="14.00">author</text>
<polygon fill="#c2f2da" stroke="transparent" points="133,-249.5 133,-268.5 326,-268.5 326,-249.5 133,-249.5"/>
<text text-anchor="start" x="241" y="-255.3" font-family="Helvetica,sans-Serif" font-size="14.00">[base table]</text>
<text text-anchor="start" x="48" y="-237.3" font-family="Helvetica,sans-Serif" font-weight="bold" font-style="italic" font-size="14.00">id</text>
<text text-anchor="start" x="126" y="-236.3" font-family="Helvetica,sans-Serif" font-size="14.00"> </text>
<text text-anchor="start" x="135" y="-236.3" font-family="Helvetica,sans-Serif" font-size="14.00">BIGINT NOT NULL</text>
<text text-anchor="start" x="48" y="-217.3" font-family="Helvetica,sans-Serif" font-size="14.00">first_name</text>
<text text-anchor="start" x="126" y="-217.3" font-family="Helvetica,sans-Serif" font-size="14.00"> </text>
<text text-anchor="start" x="135" y="-217.3" font-family="Helvetica,sans-Serif" font-size="14.00">CHARACTER VARYING(255)</text>
<text text-anchor="start" x="48" y="-198.3" font-family="Helvetica,sans-Serif" font-size="14.00">last_name</text>
<text text-anchor="start" x="126" y="-198.3" font-family="Helvetica,sans-Serif" font-size="14.00"> </text>
<text text-anchor="start" x="135" y="-198.3" font-family="Helvetica,sans-Serif" font-size="14.00">CHARACTER VARYING(255)</text>
<text text-anchor="start" x="48" y="-179.3" font-family="Helvetica,sans-Serif" font-size="14.00">version</text>
<text text-anchor="start" x="126" y="-179.3" font-family="Helvetica,sans-Serif" font-size="14.00"> </text>
<text text-anchor="start" x="135" y="-179.3" font-family="Helvetica,sans-Serif" font-size="14.00">BIGINT</text>
<polygon fill="none" stroke="#888888" points="45,-173 45,-270 327,-270 327,-173 45,-173"/>
</g>
<!-- publication_author_join_b890055e -->
<g id="node2" class="node">
<title>publication_author_join_b890055e</title>
<polygon fill="#c2f2da" stroke="transparent" points="440,-250.5 440,-269.5 626,-269.5 626,-250.5 440,-250.5"/>
<text text-anchor="start" x="442" y="-257.3" font-family="Helvetica,sans-Serif" font-weight="bold" font-style="italic" font-size="14.00">publication_author_join</text>
<polygon fill="#c2f2da" stroke="transparent" points="626,-250.5 626,-269.5 754,-269.5 754,-250.5 626,-250.5"/>
<text text-anchor="start" x="669" y="-256.3" font-family="Helvetica,sans-Serif" font-size="14.00">[base table]</text>
<text text-anchor="start" x="442" y="-237.3" font-family="Helvetica,sans-Serif" font-size="14.00">publication_id</text>
<text text-anchor="start" x="581" y="-237.3" font-family="Helvetica,sans-Serif" font-size="14.00"> </text>
<text text-anchor="start" x="628" y="-237.3" font-family="Helvetica,sans-Serif" font-size="14.00">BIGINT NOT NULL</text>
<text text-anchor="start" x="442" y="-218.3" font-family="Helvetica,sans-Serif" font-size="14.00">author_id</text>
<text text-anchor="start" x="581" y="-218.3" font-family="Helvetica,sans-Serif" font-size="14.00"> </text>
<text text-anchor="start" x="628" y="-218.3" font-family="Helvetica,sans-Serif" font-size="14.00">BIGINT NOT NULL</text>
<polygon fill="none" stroke="#888888" points="439,-212 439,-271 755,-271 755,-212 439,-212"/>
</g>
<!-- publication_author_join_b890055e&#45;&gt;author_7775551e -->
<g id="edge1" class="edge">
<title>publication_author_join_b890055e:w&#45;&gt;author_7775551e:e</title>
<path fill="none" stroke="black" d="M420.79,-222.42C387.83,-225.9 373.24,-238.23 337.2,-240.23"/>
<polygon fill="black" stroke="black" points="429.01,-222 439.23,-225.99 434.01,-221.75 439,-221.5 439,-221.5 439,-221.5 434.01,-221.75 438.77,-217.01 429.01,-222 429.01,-222"/>
<ellipse fill="none" stroke="black" cx="425.02" cy="-222.2" rx="4" ry="4"/>
<polygon fill="black" stroke="black" points="328.13,-245.47 327.87,-235.47 329.86,-235.42 330.13,-245.42 328.13,-245.47"/>
<polyline fill="none" stroke="black" points="327,-240.5 332,-240.37 "/>
<polygon fill="black" stroke="black" points="333.13,-245.34 332.86,-235.34 334.86,-235.29 335.13,-245.28 333.13,-245.34"/>
<polyline fill="none" stroke="black" points="332,-240.37 337,-240.23 "/>
</g>
<!-- publication_8b03d5bf -->
<g id="node5" class="node">
<title>publication_8b03d5bf</title>
<polygon fill="#c2f2da" stroke="transparent" points="9,-126.5 9,-145.5 170,-145.5 170,-126.5 9,-126.5"/>
<text text-anchor="start" x="11" y="-133.3" font-family="Helvetica,sans-Serif" font-weight="bold" font-style="italic" font-size="14.00">publication</text>
<polygon fill="#c2f2da" stroke="transparent" points="170,-126.5 170,-145.5 363,-145.5 363,-126.5 170,-126.5"/>
<text text-anchor="start" x="278" y="-132.3" font-family="Helvetica,sans-Serif" font-size="14.00">[base table]</text>
<text text-anchor="start" x="11" y="-114.3" font-family="Helvetica,sans-Serif" font-weight="bold" font-style="italic" font-size="14.00">id</text>
<text text-anchor="start" x="163" y="-113.3" font-family="Helvetica,sans-Serif" font-size="14.00"> </text>
<text text-anchor="start" x="172" y="-113.3" font-family="Helvetica,sans-Serif" font-size="14.00">BIGINT NOT NULL</text>
<text text-anchor="start" x="11" y="-94.3" font-family="Helvetica,sans-Serif" font-size="14.00">publishing_date_item</text>
<text text-anchor="start" x="163" y="-94.3" font-family="Helvetica,sans-Serif" font-size="14.00"> </text>
<text text-anchor="start" x="172" y="-94.3" font-family="Helvetica,sans-Serif" font-size="14.00">TIMESTAMP</text>
<text text-anchor="start" x="11" y="-75.3" font-family="Helvetica,sans-Serif" font-size="14.00">title</text>
<text text-anchor="start" x="163" y="-75.3" font-family="Helvetica,sans-Serif" font-size="14.00"> </text>
<text text-anchor="start" x="172" y="-75.3" font-family="Helvetica,sans-Serif" font-size="14.00">CHARACTER VARYING(255)</text>
<text text-anchor="start" x="11" y="-56.3" font-family="Helvetica,sans-Serif" font-size="14.00">version</text>
<text text-anchor="start" x="163" y="-56.3" font-family="Helvetica,sans-Serif" font-size="14.00"> </text>
<text text-anchor="start" x="172" y="-56.3" font-family="Helvetica,sans-Serif" font-size="14.00">BIGINT</text>
<polygon fill="none" stroke="#888888" points="8,-50 8,-147 364,-147 364,-50 8,-50"/>
</g>
<!-- publication_author_join_b890055e&#45;&gt;publication_8b03d5bf -->
<g id="edge4" class="edge">
<title>publication_author_join_b890055e:w&#45;&gt;publication_8b03d5bf:e</title>
<path fill="none" stroke="black" d="M421.41,-236.12C387.88,-215.67 416.4,-130.01 374.14,-118.73"/>
<polygon fill="black" stroke="black" points="429.3,-238.09 437.91,-244.87 434.15,-239.29 439,-240.5 439,-240.5 439,-240.5 434.15,-239.29 440.09,-236.13 429.3,-238.09 429.3,-238.09"/>
<ellipse fill="none" stroke="black" cx="425.41" cy="-237.12" rx="4" ry="4"/>
<polygon fill="black" stroke="black" points="364.39,-122.58 365.59,-112.66 367.58,-112.9 366.38,-122.82 364.39,-122.58"/>
<polyline fill="none" stroke="black" points="364,-117.5 368.96,-118.1 "/>
<polygon fill="black" stroke="black" points="369.35,-123.19 370.56,-113.26 372.54,-113.5 371.34,-123.43 369.35,-123.19"/>
<polyline fill="none" stroke="black" points="368.96,-118.1 373.93,-118.7 "/>
</g>
<!-- blog_cb766335 -->
<g id="node3" class="node">
<title>blog_cb766335</title>
<polygon fill="#c2f2da" stroke="transparent" points="482,-71.5 482,-90.5 520,-90.5 520,-71.5 482,-71.5"/>
<text text-anchor="start" x="484" y="-78.3" font-family="Helvetica,sans-Serif" font-weight="bold" font-style="italic" font-size="14.00">blog</text>
<polygon fill="#c2f2da" stroke="transparent" points="520,-71.5 520,-90.5 713,-90.5 713,-71.5 520,-71.5"/>
<text text-anchor="start" x="628" y="-77.3" font-family="Helvetica,sans-Serif" font-size="14.00">[base table]</text>
<text text-anchor="start" x="484" y="-58.3" font-family="Helvetica,sans-Serif" font-size="14.00">url</text>
<text text-anchor="start" x="510" y="-58.3" font-family="Helvetica,sans-Serif" font-size="14.00"> </text>
<text text-anchor="start" x="522" y="-58.3" font-family="Helvetica,sans-Serif" font-size="14.00">CHARACTER VARYING(255)</text>
<text text-anchor="start" x="484" y="-40.3" font-family="Helvetica,sans-Serif" font-weight="bold" font-style="italic" font-size="14.00">id</text>
<text text-anchor="start" x="510" y="-39.3" font-family="Helvetica,sans-Serif" font-size="14.00"> </text>
<text text-anchor="start" x="522" y="-39.3" font-family="Helvetica,sans-Serif" font-size="14.00">BIGINT NOT NULL</text>
<polygon fill="none" stroke="#888888" points="480.5,-33 480.5,-92 713.5,-92 713.5,-33 480.5,-33"/>
</g>
<!-- blog_cb766335&#45;&gt;publication_8b03d5bf -->
<g id="edge2" class="edge">
<title>blog_cb766335:w&#45;&gt;publication_8b03d5bf:e</title>
<path fill="none" stroke="black" d="M468.01,-43.74C422.84,-52.88 421.1,-109.71 374.04,-116.78"/>
<polygon fill="black" stroke="black" points="479.53,-37.62 480.48,-47.57 478.49,-47.76 477.54,-37.81 479.53,-37.62"/>
<polyline fill="none" stroke="black" points="481,-42.5 476.02,-42.97 "/>
<ellipse fill="none" stroke="black" cx="472.04" cy="-43.35" rx="4" ry="4"/>
<polygon fill="black" stroke="black" points="365.36,-122.42 364.64,-112.44 366.63,-112.3 367.35,-122.27 365.36,-122.42"/>
<polyline fill="none" stroke="black" points="364,-117.5 368.99,-117.14 "/>
<polygon fill="black" stroke="black" points="370.34,-122.06 369.63,-112.08 371.62,-111.94 372.34,-121.91 370.34,-122.06"/>
<polyline fill="none" stroke="black" points="368.99,-117.14 373.97,-116.78 "/>
</g>
<!-- book_cb766e7c -->
<g id="node4" class="node">
<title>book_cb766e7c</title>
<polygon fill="#c2f2da" stroke="transparent" points="505,-156.5 505,-175.5 561,-175.5 561,-156.5 505,-156.5"/>
<text text-anchor="start" x="507" y="-163.3" font-family="Helvetica,sans-Serif" font-weight="bold" font-style="italic" font-size="14.00">book</text>
<polygon fill="#c2f2da" stroke="transparent" points="561,-156.5 561,-175.5 689,-175.5 689,-156.5 561,-156.5"/>
<text text-anchor="start" x="604" y="-162.3" font-family="Helvetica,sans-Serif" font-size="14.00">[base table]</text>
<text text-anchor="start" x="507" y="-143.3" font-family="Helvetica,sans-Serif" font-size="14.00">pages</text>
<text text-anchor="start" x="554" y="-143.3" font-family="Helvetica,sans-Serif" font-size="14.00"> </text>
<text text-anchor="start" x="563" y="-143.3" font-family="Helvetica,sans-Serif" font-size="14.00">INTEGER</text>
<text text-anchor="start" x="507" y="-125.3" font-family="Helvetica,sans-Serif" font-weight="bold" font-style="italic" font-size="14.00">id</text>
<text text-anchor="start" x="554" y="-124.3" font-family="Helvetica,sans-Serif" font-size="14.00"> </text>
<text text-anchor="start" x="563" y="-124.3" font-family="Helvetica,sans-Serif" font-size="14.00">BIGINT NOT NULL</text>
<polygon fill="none" stroke="#888888" points="504,-118 504,-177 690,-177 690,-118 504,-118"/>
</g>
<!-- book_cb766e7c&#45;&gt;publication_8b03d5bf -->
<g id="edge3" class="edge">
<title>book_cb766e7c:w&#45;&gt;publication_8b03d5bf:e</title>
<path fill="none" stroke="black" d="M490.85,-127.34C442.23,-126.15 423.98,-118.51 374.06,-117.59"/>
<polygon fill="black" stroke="black" points="503.06,-122.49 502.94,-132.49 500.94,-132.46 501.06,-122.46 503.06,-122.49"/>
<polyline fill="none" stroke="black" points="504,-127.5 499,-127.44 "/>
<ellipse fill="none" stroke="black" cx="495" cy="-127.39" rx="4" ry="4"/>
<polygon fill="black" stroke="black" points="364.95,-122.51 365.05,-112.51 367.05,-112.53 366.95,-122.53 364.95,-122.51"/>
<polyline fill="none" stroke="black" points="364,-117.5 369,-117.55 "/>
<polygon fill="black" stroke="black" points="369.95,-122.55 370.04,-112.55 372.04,-112.57 371.95,-122.57 369.95,-122.55"/>
<polyline fill="none" stroke="black" points="369,-117.55 374,-117.59 "/>
</g>
<!-- sequences_88e6b465 -->
<g id="node6" class="node">
<title>sequences_88e6b465</title>
<polygon fill="#c2f2da" stroke="transparent" points="417,-335.5 417,-354.5 509,-354.5 509,-335.5 417,-335.5"/>
<text text-anchor="start" x="419" y="-342.3" font-family="Helvetica,sans-Serif" font-weight="bold" font-style="italic" font-size="14.00">sequences</text>
<polygon fill="#c2f2da" stroke="transparent" points="509,-335.5 509,-354.5 777,-354.5 777,-335.5 509,-335.5"/>
<text text-anchor="start" x="692" y="-341.3" font-family="Helvetica,sans-Serif" font-size="14.00">[base table]</text>
<text text-anchor="start" x="419" y="-323.3" font-family="Helvetica,sans-Serif" font-weight="bold" font-style="italic" font-size="14.00">seq_name</text>
<text text-anchor="start" x="502" y="-322.3" font-family="Helvetica,sans-Serif" font-size="14.00"> </text>
<text text-anchor="start" x="511" y="-322.3" font-family="Helvetica,sans-Serif" font-size="14.00">CHARACTER VARYING(255) NOT NULL</text>
<text text-anchor="start" x="419" y="-303.3" font-family="Helvetica,sans-Serif" font-size="14.00">seq_next</text>
<text text-anchor="start" x="502" y="-303.3" font-family="Helvetica,sans-Serif" font-size="14.00"> </text>
<text text-anchor="start" x="511" y="-303.3" font-family="Helvetica,sans-Serif" font-size="14.00">BIGINT</text>
<polygon fill="none" stroke="#888888" points="416,-297 416,-356 778,-356 778,-297 416,-297"/>
</g>
</g>
</svg>
