<?xml version="1.0" encoding="UTF-8" standalone="no"?>
<!DOCTYPE svg PUBLIC "-//W3C//DTD SVG 1.1//EN"
 "http://www.w3.org/Graphics/SVG/1.1/DTD/svg11.dtd">
<!-- Generated by graphviz version 2.43.0 (0)
 -->
<!-- Title: G Pages: 1 -->
<svg width="460pt" height="211pt"
 viewBox="0.00 0.00 459.98 211.00" xmlns="http://www.w3.org/2000/svg" xmlns:xlink="http://www.w3.org/1999/xlink">
<g id="graph0" class="graph" transform="scale(1 1) rotate(0) translate(4 207)">
<title>G</title>
<polygon fill="white" stroke="transparent" points="-4,4 -4,-207 455.98,-207 455.98,4 -4,4"/>
<text text-anchor="middle" x="225.99" y="-7.8" font-family="Times,serif" font-size="14.00" fill="red">Patrodyne&#45;HighSource</text>
<!-- hisrc&#45;hyperjaxb -->
<g id="node1" class="node">
<title>hisrc&#45;hyperjaxb</title>
<ellipse fill="none" stroke="black" cx="328.74" cy="-185" rx="83.39" ry="18"/>
<text text-anchor="middle" x="328.74" y="-181.3" font-family="Times,serif" font-size="14.00">hisrc&#45;hyperjaxb</text>
</g>
<!-- hisrc&#45;basicjaxb -->
<g id="node2" class="node">
<title>hisrc&#45;basicjaxb</title>
<ellipse fill="none" stroke="black" cx="117.74" cy="-113" rx="79.89" ry="18"/>
<text text-anchor="middle" x="117.74" y="-109.3" font-family="Times,serif" font-size="14.00">hisrc&#45;basicjaxb</text>
</g>
<!-- hisrc&#45;hyperjaxb&#45;&gt;hisrc&#45;basicjaxb -->
<g id="edge1" class="edge">
<title>hisrc&#45;hyperjaxb&#45;&gt;hisrc&#45;basicjaxb</title>
<path fill="none" stroke="black" d="M285.28,-169.58C251.97,-158.53 205.88,-143.24 170.47,-131.49"/>
<polygon fill="black" stroke="black" points="171.38,-128.11 160.79,-128.28 169.17,-134.75 171.38,-128.11"/>
</g>
<!-- hisrc&#45;basicjaxb&#45;annox -->
<g id="node3" class="node">
<title>hisrc&#45;basicjaxb&#45;annox</title>
<ellipse fill="none" stroke="black" cx="325.74" cy="-113" rx="110.48" ry="18"/>
<text text-anchor="middle" x="325.74" y="-109.3" font-family="Times,serif" font-size="14.00">hisrc&#45;basicjaxb&#45;annox</text>
</g>
<!-- hisrc&#45;hyperjaxb&#45;&gt;hisrc&#45;basicjaxb&#45;annox -->
<g id="edge2" class="edge">
<title>hisrc&#45;hyperjaxb&#45;&gt;hisrc&#45;basicjaxb&#45;annox</title>
<path fill="none" stroke="black" d="M328,-166.7C327.67,-158.98 327.27,-149.71 326.9,-141.11"/>
<polygon fill="black" stroke="black" points="330.4,-140.95 326.47,-131.1 323.4,-141.25 330.4,-140.95"/>
</g>
<!-- hisrc&#45;higherjaxb -->
<g id="node4" class="node">
<title>hisrc&#45;higherjaxb</title>
<ellipse fill="none" stroke="black" cx="117.74" cy="-41" rx="86.38" ry="18"/>
<text text-anchor="middle" x="117.74" y="-37.3" font-family="Times,serif" font-size="14.00">hisrc&#45;higherjaxb</text>
</g>
<!-- hisrc&#45;hyperjaxb&#45;&gt;hisrc&#45;higherjaxb -->
<g id="edge3" class="edge">
<title>hisrc&#45;hyperjaxb&#45;&gt;hisrc&#45;higherjaxb</title>
<path fill="none" stroke="black" d="M386.05,-171.94C408.31,-164.16 431.57,-151.49 444.74,-131 453.39,-117.54 455.11,-107.19 444.74,-95 415.48,-60.61 299.07,-48.47 213.45,-44.22"/>
<polygon fill="black" stroke="black" points="213.58,-40.72 203.43,-43.75 213.25,-47.71 213.58,-40.72"/>
</g>
<!-- hisrc&#45;basicjaxb&#45;&gt;hisrc&#45;higherjaxb -->
<g id="edge8" class="edge">
<title>hisrc&#45;basicjaxb&#45;&gt;hisrc&#45;higherjaxb</title>
<path fill="none" stroke="black" d="M111.82,-94.7C111.03,-86.98 110.8,-77.71 111.14,-69.11"/>
<polygon fill="black" stroke="black" points="114.64,-69.32 111.84,-59.1 107.66,-68.84 114.64,-69.32"/>
</g>
<!-- hisrc&#45;higherjaxb&#45;&gt;hisrc&#45;basicjaxb -->
<g id="edge7" class="edge">
<title>hisrc&#45;higherjaxb&#45;&gt;hisrc&#45;basicjaxb</title>
<path fill="none" stroke="black" d="M123.63,-59.1C124.44,-66.79 124.68,-76.05 124.34,-84.67"/>
<polygon fill="black" stroke="black" points="120.85,-84.48 123.66,-94.7 127.83,-84.96 120.85,-84.48"/>
</g>
<!-- hisrc&#45;hyperjaxb&#45;annox -->
<g id="node5" class="node">
<title>hisrc&#45;hyperjaxb&#45;annox</title>
<ellipse fill="none" stroke="black" cx="113.74" cy="-185" rx="113.98" ry="18"/>
<text text-anchor="middle" x="113.74" y="-181.3" font-family="Times,serif" font-size="14.00">hisrc&#45;hyperjaxb&#45;annox</text>
</g>
<!-- hisrc&#45;hyperjaxb&#45;annox&#45;&gt;hisrc&#45;basicjaxb -->
<g id="edge4" class="edge">
<title>hisrc&#45;hyperjaxb&#45;annox&#45;&gt;hisrc&#45;basicjaxb</title>
<path fill="none" stroke="black" d="M114.73,-166.7C115.17,-158.98 115.7,-149.71 116.19,-141.11"/>
<polygon fill="black" stroke="black" points="119.69,-141.29 116.76,-131.1 112.7,-140.89 119.69,-141.29"/>
</g>
<!-- hisrc&#45;hyperjaxb&#45;annox&#45;&gt;hisrc&#45;basicjaxb&#45;annox -->
<g id="edge5" class="edge">
<title>hisrc&#45;hyperjaxb&#45;annox&#45;&gt;hisrc&#45;basicjaxb&#45;annox</title>
<path fill="none" stroke="black" d="M160.53,-168.55C192.6,-157.96 235.32,-143.85 269.29,-132.64"/>
<polygon fill="black" stroke="black" points="270.67,-135.87 279.07,-129.41 268.48,-129.22 270.67,-135.87"/>
</g>
<!-- hisrc&#45;hyperjaxb&#45;annox&#45;&gt;hisrc&#45;higherjaxb -->
<g id="edge6" class="edge">
<title>hisrc&#45;hyperjaxb&#45;annox&#45;&gt;hisrc&#45;higherjaxb</title>
<path fill="none" stroke="black" d="M71.39,-168.27C55.02,-159.86 38.02,-147.73 28.74,-131 20.98,-117.01 20.83,-108.91 28.74,-95 36.98,-80.5 50.93,-69.55 65.38,-61.48"/>
<polygon fill="black" stroke="black" points="67.11,-64.52 74.39,-56.82 63.9,-58.3 67.11,-64.52"/>
</g>
</g>
</svg>
